G04 EAGLE Gerber RS-274X export*
G75*
%MOMM*%
%FSLAX34Y34*%
%LPD*%
%INSolder paste bottom*%
%IPPOS*%
%AMOC8*
5,1,8,0,0,1.08239X$1,22.5*%
G01*
%ADD10C,0.000000*%
%ADD11R,1.100000X1.000000*%
%ADD12R,0.400000X1.500000*%
%ADD13R,1.000000X1.100000*%
%ADD14R,1.981200X0.558800*%


D10*
X0Y628650D02*
X0Y0D01*
X295275Y0D01*
X295275Y628650D01*
X0Y628650D01*
X166563Y47625D02*
X166568Y48018D01*
X166582Y48410D01*
X166606Y48802D01*
X166640Y49193D01*
X166683Y49584D01*
X166736Y49973D01*
X166799Y50360D01*
X166870Y50746D01*
X166952Y51131D01*
X167042Y51513D01*
X167143Y51892D01*
X167252Y52270D01*
X167371Y52644D01*
X167498Y53015D01*
X167635Y53383D01*
X167781Y53748D01*
X167936Y54109D01*
X168099Y54466D01*
X168271Y54819D01*
X168452Y55167D01*
X168642Y55511D01*
X168839Y55851D01*
X169045Y56185D01*
X169259Y56514D01*
X169482Y56838D01*
X169712Y57156D01*
X169949Y57469D01*
X170195Y57775D01*
X170448Y58076D01*
X170708Y58370D01*
X170975Y58658D01*
X171249Y58939D01*
X171530Y59213D01*
X171818Y59480D01*
X172112Y59740D01*
X172413Y59993D01*
X172719Y60239D01*
X173032Y60476D01*
X173350Y60706D01*
X173674Y60929D01*
X174003Y61143D01*
X174337Y61349D01*
X174677Y61546D01*
X175021Y61736D01*
X175369Y61917D01*
X175722Y62089D01*
X176079Y62252D01*
X176440Y62407D01*
X176805Y62553D01*
X177173Y62690D01*
X177544Y62817D01*
X177918Y62936D01*
X178296Y63045D01*
X178675Y63146D01*
X179057Y63236D01*
X179442Y63318D01*
X179828Y63389D01*
X180215Y63452D01*
X180604Y63505D01*
X180995Y63548D01*
X181386Y63582D01*
X181778Y63606D01*
X182170Y63620D01*
X182563Y63625D01*
X182956Y63620D01*
X183348Y63606D01*
X183740Y63582D01*
X184131Y63548D01*
X184522Y63505D01*
X184911Y63452D01*
X185298Y63389D01*
X185684Y63318D01*
X186069Y63236D01*
X186451Y63146D01*
X186830Y63045D01*
X187208Y62936D01*
X187582Y62817D01*
X187953Y62690D01*
X188321Y62553D01*
X188686Y62407D01*
X189047Y62252D01*
X189404Y62089D01*
X189757Y61917D01*
X190105Y61736D01*
X190449Y61546D01*
X190789Y61349D01*
X191123Y61143D01*
X191452Y60929D01*
X191776Y60706D01*
X192094Y60476D01*
X192407Y60239D01*
X192713Y59993D01*
X193014Y59740D01*
X193308Y59480D01*
X193596Y59213D01*
X193877Y58939D01*
X194151Y58658D01*
X194418Y58370D01*
X194678Y58076D01*
X194931Y57775D01*
X195177Y57469D01*
X195414Y57156D01*
X195644Y56838D01*
X195867Y56514D01*
X196081Y56185D01*
X196287Y55851D01*
X196484Y55511D01*
X196674Y55167D01*
X196855Y54819D01*
X197027Y54466D01*
X197190Y54109D01*
X197345Y53748D01*
X197491Y53383D01*
X197628Y53015D01*
X197755Y52644D01*
X197874Y52270D01*
X197983Y51892D01*
X198084Y51513D01*
X198174Y51131D01*
X198256Y50746D01*
X198327Y50360D01*
X198390Y49973D01*
X198443Y49584D01*
X198486Y49193D01*
X198520Y48802D01*
X198544Y48410D01*
X198558Y48018D01*
X198563Y47625D01*
X198558Y47232D01*
X198544Y46840D01*
X198520Y46448D01*
X198486Y46057D01*
X198443Y45666D01*
X198390Y45277D01*
X198327Y44890D01*
X198256Y44504D01*
X198174Y44119D01*
X198084Y43737D01*
X197983Y43358D01*
X197874Y42980D01*
X197755Y42606D01*
X197628Y42235D01*
X197491Y41867D01*
X197345Y41502D01*
X197190Y41141D01*
X197027Y40784D01*
X196855Y40431D01*
X196674Y40083D01*
X196484Y39739D01*
X196287Y39399D01*
X196081Y39065D01*
X195867Y38736D01*
X195644Y38412D01*
X195414Y38094D01*
X195177Y37781D01*
X194931Y37475D01*
X194678Y37174D01*
X194418Y36880D01*
X194151Y36592D01*
X193877Y36311D01*
X193596Y36037D01*
X193308Y35770D01*
X193014Y35510D01*
X192713Y35257D01*
X192407Y35011D01*
X192094Y34774D01*
X191776Y34544D01*
X191452Y34321D01*
X191123Y34107D01*
X190789Y33901D01*
X190449Y33704D01*
X190105Y33514D01*
X189757Y33333D01*
X189404Y33161D01*
X189047Y32998D01*
X188686Y32843D01*
X188321Y32697D01*
X187953Y32560D01*
X187582Y32433D01*
X187208Y32314D01*
X186830Y32205D01*
X186451Y32104D01*
X186069Y32014D01*
X185684Y31932D01*
X185298Y31861D01*
X184911Y31798D01*
X184522Y31745D01*
X184131Y31702D01*
X183740Y31668D01*
X183348Y31644D01*
X182956Y31630D01*
X182563Y31625D01*
X182170Y31630D01*
X181778Y31644D01*
X181386Y31668D01*
X180995Y31702D01*
X180604Y31745D01*
X180215Y31798D01*
X179828Y31861D01*
X179442Y31932D01*
X179057Y32014D01*
X178675Y32104D01*
X178296Y32205D01*
X177918Y32314D01*
X177544Y32433D01*
X177173Y32560D01*
X176805Y32697D01*
X176440Y32843D01*
X176079Y32998D01*
X175722Y33161D01*
X175369Y33333D01*
X175021Y33514D01*
X174677Y33704D01*
X174337Y33901D01*
X174003Y34107D01*
X173674Y34321D01*
X173350Y34544D01*
X173032Y34774D01*
X172719Y35011D01*
X172413Y35257D01*
X172112Y35510D01*
X171818Y35770D01*
X171530Y36037D01*
X171249Y36311D01*
X170975Y36592D01*
X170708Y36880D01*
X170448Y37174D01*
X170195Y37475D01*
X169949Y37781D01*
X169712Y38094D01*
X169482Y38412D01*
X169259Y38736D01*
X169045Y39065D01*
X168839Y39399D01*
X168642Y39739D01*
X168452Y40083D01*
X168271Y40431D01*
X168099Y40784D01*
X167936Y41141D01*
X167781Y41502D01*
X167635Y41867D01*
X167498Y42235D01*
X167371Y42606D01*
X167252Y42980D01*
X167143Y43358D01*
X167042Y43737D01*
X166952Y44119D01*
X166870Y44504D01*
X166799Y44890D01*
X166736Y45277D01*
X166683Y45666D01*
X166640Y46057D01*
X166606Y46448D01*
X166582Y46840D01*
X166568Y47232D01*
X166563Y47625D01*
X166563Y581025D02*
X166568Y581418D01*
X166582Y581810D01*
X166606Y582202D01*
X166640Y582593D01*
X166683Y582984D01*
X166736Y583373D01*
X166799Y583760D01*
X166870Y584146D01*
X166952Y584531D01*
X167042Y584913D01*
X167143Y585292D01*
X167252Y585670D01*
X167371Y586044D01*
X167498Y586415D01*
X167635Y586783D01*
X167781Y587148D01*
X167936Y587509D01*
X168099Y587866D01*
X168271Y588219D01*
X168452Y588567D01*
X168642Y588911D01*
X168839Y589251D01*
X169045Y589585D01*
X169259Y589914D01*
X169482Y590238D01*
X169712Y590556D01*
X169949Y590869D01*
X170195Y591175D01*
X170448Y591476D01*
X170708Y591770D01*
X170975Y592058D01*
X171249Y592339D01*
X171530Y592613D01*
X171818Y592880D01*
X172112Y593140D01*
X172413Y593393D01*
X172719Y593639D01*
X173032Y593876D01*
X173350Y594106D01*
X173674Y594329D01*
X174003Y594543D01*
X174337Y594749D01*
X174677Y594946D01*
X175021Y595136D01*
X175369Y595317D01*
X175722Y595489D01*
X176079Y595652D01*
X176440Y595807D01*
X176805Y595953D01*
X177173Y596090D01*
X177544Y596217D01*
X177918Y596336D01*
X178296Y596445D01*
X178675Y596546D01*
X179057Y596636D01*
X179442Y596718D01*
X179828Y596789D01*
X180215Y596852D01*
X180604Y596905D01*
X180995Y596948D01*
X181386Y596982D01*
X181778Y597006D01*
X182170Y597020D01*
X182563Y597025D01*
X182956Y597020D01*
X183348Y597006D01*
X183740Y596982D01*
X184131Y596948D01*
X184522Y596905D01*
X184911Y596852D01*
X185298Y596789D01*
X185684Y596718D01*
X186069Y596636D01*
X186451Y596546D01*
X186830Y596445D01*
X187208Y596336D01*
X187582Y596217D01*
X187953Y596090D01*
X188321Y595953D01*
X188686Y595807D01*
X189047Y595652D01*
X189404Y595489D01*
X189757Y595317D01*
X190105Y595136D01*
X190449Y594946D01*
X190789Y594749D01*
X191123Y594543D01*
X191452Y594329D01*
X191776Y594106D01*
X192094Y593876D01*
X192407Y593639D01*
X192713Y593393D01*
X193014Y593140D01*
X193308Y592880D01*
X193596Y592613D01*
X193877Y592339D01*
X194151Y592058D01*
X194418Y591770D01*
X194678Y591476D01*
X194931Y591175D01*
X195177Y590869D01*
X195414Y590556D01*
X195644Y590238D01*
X195867Y589914D01*
X196081Y589585D01*
X196287Y589251D01*
X196484Y588911D01*
X196674Y588567D01*
X196855Y588219D01*
X197027Y587866D01*
X197190Y587509D01*
X197345Y587148D01*
X197491Y586783D01*
X197628Y586415D01*
X197755Y586044D01*
X197874Y585670D01*
X197983Y585292D01*
X198084Y584913D01*
X198174Y584531D01*
X198256Y584146D01*
X198327Y583760D01*
X198390Y583373D01*
X198443Y582984D01*
X198486Y582593D01*
X198520Y582202D01*
X198544Y581810D01*
X198558Y581418D01*
X198563Y581025D01*
X198558Y580632D01*
X198544Y580240D01*
X198520Y579848D01*
X198486Y579457D01*
X198443Y579066D01*
X198390Y578677D01*
X198327Y578290D01*
X198256Y577904D01*
X198174Y577519D01*
X198084Y577137D01*
X197983Y576758D01*
X197874Y576380D01*
X197755Y576006D01*
X197628Y575635D01*
X197491Y575267D01*
X197345Y574902D01*
X197190Y574541D01*
X197027Y574184D01*
X196855Y573831D01*
X196674Y573483D01*
X196484Y573139D01*
X196287Y572799D01*
X196081Y572465D01*
X195867Y572136D01*
X195644Y571812D01*
X195414Y571494D01*
X195177Y571181D01*
X194931Y570875D01*
X194678Y570574D01*
X194418Y570280D01*
X194151Y569992D01*
X193877Y569711D01*
X193596Y569437D01*
X193308Y569170D01*
X193014Y568910D01*
X192713Y568657D01*
X192407Y568411D01*
X192094Y568174D01*
X191776Y567944D01*
X191452Y567721D01*
X191123Y567507D01*
X190789Y567301D01*
X190449Y567104D01*
X190105Y566914D01*
X189757Y566733D01*
X189404Y566561D01*
X189047Y566398D01*
X188686Y566243D01*
X188321Y566097D01*
X187953Y565960D01*
X187582Y565833D01*
X187208Y565714D01*
X186830Y565605D01*
X186451Y565504D01*
X186069Y565414D01*
X185684Y565332D01*
X185298Y565261D01*
X184911Y565198D01*
X184522Y565145D01*
X184131Y565102D01*
X183740Y565068D01*
X183348Y565044D01*
X182956Y565030D01*
X182563Y565025D01*
X182170Y565030D01*
X181778Y565044D01*
X181386Y565068D01*
X180995Y565102D01*
X180604Y565145D01*
X180215Y565198D01*
X179828Y565261D01*
X179442Y565332D01*
X179057Y565414D01*
X178675Y565504D01*
X178296Y565605D01*
X177918Y565714D01*
X177544Y565833D01*
X177173Y565960D01*
X176805Y566097D01*
X176440Y566243D01*
X176079Y566398D01*
X175722Y566561D01*
X175369Y566733D01*
X175021Y566914D01*
X174677Y567104D01*
X174337Y567301D01*
X174003Y567507D01*
X173674Y567721D01*
X173350Y567944D01*
X173032Y568174D01*
X172719Y568411D01*
X172413Y568657D01*
X172112Y568910D01*
X171818Y569170D01*
X171530Y569437D01*
X171249Y569711D01*
X170975Y569992D01*
X170708Y570280D01*
X170448Y570574D01*
X170195Y570875D01*
X169949Y571181D01*
X169712Y571494D01*
X169482Y571812D01*
X169259Y572136D01*
X169045Y572465D01*
X168839Y572799D01*
X168642Y573139D01*
X168452Y573483D01*
X168271Y573831D01*
X168099Y574184D01*
X167936Y574541D01*
X167781Y574902D01*
X167635Y575267D01*
X167498Y575635D01*
X167371Y576006D01*
X167252Y576380D01*
X167143Y576758D01*
X167042Y577137D01*
X166952Y577519D01*
X166870Y577904D01*
X166799Y578290D01*
X166736Y578677D01*
X166683Y579066D01*
X166640Y579457D01*
X166606Y579848D01*
X166582Y580240D01*
X166568Y580632D01*
X166563Y581025D01*
D11*
X220100Y530225D03*
X237100Y530225D03*
D12*
X167300Y506150D03*
X173800Y506150D03*
X180300Y506150D03*
X186800Y506150D03*
X193300Y506150D03*
X199800Y506150D03*
X206300Y506150D03*
X212800Y506150D03*
X219300Y506150D03*
X225800Y506150D03*
X232300Y506150D03*
X238800Y506150D03*
X245300Y506150D03*
X251800Y506150D03*
X251800Y433650D03*
X245300Y433650D03*
X238800Y433650D03*
X232300Y433650D03*
X225800Y433650D03*
X219300Y433650D03*
X212800Y433650D03*
X206300Y433650D03*
X199800Y433650D03*
X193300Y433650D03*
X186800Y433650D03*
X180300Y433650D03*
X173800Y433650D03*
X167300Y433650D03*
D13*
X226450Y409575D03*
X243450Y409575D03*
D11*
X207400Y307975D03*
X224400Y307975D03*
D13*
X188350Y219075D03*
X205350Y219075D03*
X188350Y187325D03*
X205350Y187325D03*
D14*
X256413Y288925D03*
X256413Y276225D03*
X256413Y263525D03*
X256413Y250825D03*
X207137Y250825D03*
X207137Y263525D03*
X207137Y276225D03*
X207137Y288925D03*
M02*
