G04 EAGLE Gerber RS-274X export*
G75*
%MOMM*%
%FSLAX34Y34*%
%LPD*%
%INSilk bottom*%
%IPPOS*%
%AMOC8*
5,1,8,0,0,1.08239X$1,22.5*%
G01*
%ADD10C,0.000000*%
%ADD11C,0.076200*%
%ADD12C,0.203200*%
%ADD13C,0.152400*%


D10*
X0Y628650D02*
X0Y0D01*
X295275Y0D01*
X295275Y628650D01*
X0Y628650D01*
D11*
X265811Y618744D02*
X273177Y618744D01*
X265811Y618744D02*
X265811Y616698D01*
X265813Y616609D01*
X265819Y616520D01*
X265829Y616431D01*
X265842Y616343D01*
X265859Y616255D01*
X265881Y616168D01*
X265906Y616083D01*
X265934Y615998D01*
X265967Y615915D01*
X266003Y615833D01*
X266042Y615753D01*
X266085Y615675D01*
X266131Y615599D01*
X266181Y615524D01*
X266234Y615452D01*
X266290Y615383D01*
X266349Y615316D01*
X266410Y615251D01*
X266475Y615190D01*
X266542Y615131D01*
X266611Y615075D01*
X266683Y615022D01*
X266758Y614972D01*
X266834Y614926D01*
X266912Y614883D01*
X266992Y614844D01*
X267074Y614808D01*
X267157Y614775D01*
X267242Y614747D01*
X267327Y614722D01*
X267414Y614700D01*
X267502Y614683D01*
X267590Y614670D01*
X267679Y614660D01*
X267768Y614654D01*
X267857Y614652D01*
X271131Y614652D01*
X271220Y614654D01*
X271309Y614660D01*
X271398Y614670D01*
X271486Y614683D01*
X271574Y614700D01*
X271661Y614722D01*
X271746Y614747D01*
X271831Y614775D01*
X271914Y614808D01*
X271996Y614844D01*
X272076Y614883D01*
X272154Y614926D01*
X272230Y614972D01*
X272305Y615022D01*
X272377Y615075D01*
X272446Y615131D01*
X272513Y615190D01*
X272578Y615251D01*
X272639Y615316D01*
X272698Y615383D01*
X272754Y615452D01*
X272807Y615524D01*
X272857Y615599D01*
X272903Y615675D01*
X272946Y615753D01*
X272985Y615833D01*
X273021Y615915D01*
X273054Y615998D01*
X273082Y616083D01*
X273107Y616168D01*
X273129Y616255D01*
X273146Y616343D01*
X273159Y616431D01*
X273169Y616520D01*
X273175Y616609D01*
X273177Y616698D01*
X273177Y618744D01*
X273177Y611594D02*
X265811Y609139D01*
X273177Y606684D01*
X271336Y607297D02*
X271336Y610980D01*
X273177Y602485D02*
X265811Y604122D01*
X268266Y600848D02*
X273177Y602485D01*
X273177Y599211D02*
X268266Y600848D01*
X265811Y597575D02*
X273177Y599211D01*
X273177Y595013D02*
X265811Y592558D01*
X273177Y590103D01*
X271336Y590716D02*
X271336Y594399D01*
X270312Y587210D02*
X270312Y582300D01*
X273177Y576787D02*
X273175Y576709D01*
X273170Y576631D01*
X273160Y576554D01*
X273147Y576477D01*
X273131Y576401D01*
X273111Y576326D01*
X273087Y576252D01*
X273060Y576179D01*
X273029Y576107D01*
X272995Y576037D01*
X272958Y575969D01*
X272917Y575902D01*
X272873Y575837D01*
X272827Y575775D01*
X272777Y575715D01*
X272725Y575657D01*
X272670Y575602D01*
X272612Y575550D01*
X272552Y575500D01*
X272490Y575454D01*
X272425Y575410D01*
X272359Y575369D01*
X272290Y575332D01*
X272220Y575298D01*
X272148Y575267D01*
X272075Y575240D01*
X272001Y575216D01*
X271926Y575196D01*
X271850Y575180D01*
X271773Y575167D01*
X271696Y575157D01*
X271618Y575152D01*
X271540Y575150D01*
X273177Y576787D02*
X273175Y576901D01*
X273170Y577014D01*
X273160Y577128D01*
X273147Y577241D01*
X273130Y577353D01*
X273110Y577465D01*
X273086Y577576D01*
X273058Y577687D01*
X273027Y577796D01*
X272992Y577904D01*
X272953Y578011D01*
X272911Y578117D01*
X272866Y578221D01*
X272817Y578324D01*
X272764Y578425D01*
X272709Y578524D01*
X272650Y578622D01*
X272588Y578717D01*
X272523Y578810D01*
X272455Y578902D01*
X272384Y578990D01*
X272310Y579077D01*
X272233Y579161D01*
X272154Y579242D01*
X267448Y579038D02*
X267368Y579036D01*
X267288Y579030D01*
X267208Y579020D01*
X267129Y579007D01*
X267050Y578989D01*
X266973Y578968D01*
X266897Y578942D01*
X266822Y578913D01*
X266748Y578881D01*
X266676Y578845D01*
X266606Y578805D01*
X266539Y578762D01*
X266473Y578716D01*
X266410Y578666D01*
X266349Y578614D01*
X266290Y578559D01*
X266235Y578500D01*
X266183Y578440D01*
X266133Y578376D01*
X266087Y578310D01*
X266044Y578243D01*
X266004Y578173D01*
X265968Y578101D01*
X265936Y578027D01*
X265907Y577953D01*
X265881Y577876D01*
X265860Y577799D01*
X265842Y577720D01*
X265829Y577641D01*
X265819Y577561D01*
X265813Y577481D01*
X265811Y577401D01*
X265813Y577291D01*
X265819Y577182D01*
X265829Y577073D01*
X265842Y576964D01*
X265860Y576855D01*
X265881Y576748D01*
X265907Y576641D01*
X265936Y576535D01*
X265968Y576430D01*
X266005Y576327D01*
X266045Y576225D01*
X266089Y576124D01*
X266137Y576025D01*
X266187Y575928D01*
X266242Y575833D01*
X266300Y575740D01*
X266361Y575648D01*
X266425Y575560D01*
X268880Y578219D02*
X268838Y578285D01*
X268794Y578350D01*
X268746Y578412D01*
X268696Y578472D01*
X268643Y578530D01*
X268587Y578585D01*
X268529Y578638D01*
X268468Y578687D01*
X268405Y578734D01*
X268340Y578778D01*
X268273Y578818D01*
X268204Y578855D01*
X268133Y578889D01*
X268061Y578920D01*
X267987Y578947D01*
X267912Y578971D01*
X267837Y578991D01*
X267760Y579007D01*
X267683Y579020D01*
X267605Y579030D01*
X267526Y579035D01*
X267448Y579037D01*
X270108Y575968D02*
X270150Y575902D01*
X270194Y575837D01*
X270242Y575775D01*
X270292Y575715D01*
X270345Y575657D01*
X270401Y575602D01*
X270459Y575549D01*
X270520Y575500D01*
X270583Y575453D01*
X270648Y575409D01*
X270715Y575369D01*
X270784Y575332D01*
X270855Y575298D01*
X270927Y575267D01*
X271001Y575240D01*
X271076Y575216D01*
X271151Y575196D01*
X271228Y575180D01*
X271305Y575167D01*
X271383Y575157D01*
X271462Y575152D01*
X271540Y575150D01*
X270108Y575968D02*
X268880Y578219D01*
X265811Y572423D02*
X273177Y570786D01*
X268266Y569149D01*
X273177Y567512D01*
X265811Y565875D01*
X265811Y562322D02*
X273177Y562322D01*
X273177Y563140D02*
X273177Y561503D01*
X265811Y561503D02*
X265811Y563140D01*
X265811Y556957D02*
X273177Y556957D01*
X265811Y559003D02*
X265811Y554911D01*
X273177Y550562D02*
X273177Y548925D01*
X273177Y550562D02*
X273175Y550640D01*
X273170Y550718D01*
X273160Y550795D01*
X273147Y550872D01*
X273131Y550948D01*
X273111Y551023D01*
X273087Y551097D01*
X273060Y551170D01*
X273029Y551242D01*
X272995Y551312D01*
X272958Y551381D01*
X272917Y551447D01*
X272873Y551512D01*
X272827Y551574D01*
X272777Y551634D01*
X272725Y551692D01*
X272670Y551747D01*
X272612Y551799D01*
X272552Y551849D01*
X272490Y551895D01*
X272425Y551939D01*
X272359Y551980D01*
X272290Y552017D01*
X272220Y552051D01*
X272148Y552082D01*
X272075Y552109D01*
X272001Y552133D01*
X271926Y552153D01*
X271850Y552169D01*
X271773Y552182D01*
X271696Y552192D01*
X271618Y552197D01*
X271540Y552199D01*
X267448Y552199D01*
X267368Y552197D01*
X267288Y552191D01*
X267208Y552181D01*
X267129Y552168D01*
X267050Y552150D01*
X266973Y552129D01*
X266897Y552103D01*
X266822Y552074D01*
X266748Y552042D01*
X266676Y552006D01*
X266606Y551966D01*
X266539Y551923D01*
X266473Y551877D01*
X266410Y551827D01*
X266349Y551775D01*
X266290Y551720D01*
X266235Y551661D01*
X266183Y551601D01*
X266133Y551537D01*
X266087Y551472D01*
X266044Y551404D01*
X266004Y551334D01*
X265968Y551262D01*
X265936Y551188D01*
X265907Y551114D01*
X265882Y551037D01*
X265860Y550960D01*
X265842Y550881D01*
X265829Y550802D01*
X265819Y550723D01*
X265813Y550642D01*
X265811Y550562D01*
X265811Y548925D01*
X265811Y545836D02*
X273177Y545836D01*
X269085Y545836D02*
X269085Y541744D01*
X265811Y541744D02*
X273177Y541744D01*
X270312Y538199D02*
X270312Y533288D01*
X269085Y529986D02*
X269085Y527531D01*
X269087Y527453D01*
X269092Y527375D01*
X269102Y527298D01*
X269115Y527221D01*
X269131Y527145D01*
X269151Y527070D01*
X269175Y526996D01*
X269202Y526923D01*
X269233Y526851D01*
X269267Y526781D01*
X269304Y526713D01*
X269345Y526646D01*
X269389Y526581D01*
X269435Y526519D01*
X269485Y526459D01*
X269537Y526401D01*
X269592Y526346D01*
X269650Y526294D01*
X269710Y526244D01*
X269772Y526198D01*
X269837Y526154D01*
X269904Y526113D01*
X269972Y526076D01*
X270042Y526042D01*
X270114Y526011D01*
X270187Y525984D01*
X270261Y525960D01*
X270336Y525940D01*
X270412Y525924D01*
X270489Y525911D01*
X270566Y525901D01*
X270644Y525896D01*
X270722Y525894D01*
X271131Y525894D01*
X271220Y525896D01*
X271309Y525902D01*
X271398Y525912D01*
X271486Y525925D01*
X271574Y525942D01*
X271661Y525964D01*
X271746Y525989D01*
X271831Y526017D01*
X271914Y526050D01*
X271996Y526086D01*
X272076Y526125D01*
X272154Y526168D01*
X272230Y526214D01*
X272305Y526264D01*
X272377Y526317D01*
X272446Y526373D01*
X272513Y526432D01*
X272578Y526493D01*
X272639Y526558D01*
X272698Y526625D01*
X272754Y526694D01*
X272807Y526766D01*
X272857Y526841D01*
X272903Y526917D01*
X272946Y526995D01*
X272985Y527075D01*
X273021Y527157D01*
X273054Y527240D01*
X273082Y527325D01*
X273107Y527410D01*
X273129Y527497D01*
X273146Y527585D01*
X273159Y527673D01*
X273169Y527762D01*
X273175Y527851D01*
X273177Y527940D01*
X273175Y528029D01*
X273169Y528118D01*
X273159Y528207D01*
X273146Y528295D01*
X273129Y528383D01*
X273107Y528470D01*
X273082Y528555D01*
X273054Y528640D01*
X273021Y528723D01*
X272985Y528805D01*
X272946Y528885D01*
X272903Y528963D01*
X272857Y529039D01*
X272807Y529114D01*
X272754Y529186D01*
X272698Y529255D01*
X272639Y529322D01*
X272578Y529387D01*
X272513Y529448D01*
X272446Y529507D01*
X272377Y529563D01*
X272305Y529616D01*
X272230Y529666D01*
X272154Y529712D01*
X272076Y529755D01*
X271996Y529794D01*
X271914Y529830D01*
X271831Y529863D01*
X271746Y529891D01*
X271661Y529916D01*
X271574Y529938D01*
X271486Y529955D01*
X271398Y529968D01*
X271309Y529978D01*
X271220Y529984D01*
X271131Y529986D01*
X269085Y529986D01*
X269085Y529987D02*
X268971Y529985D01*
X268857Y529979D01*
X268743Y529969D01*
X268629Y529955D01*
X268516Y529937D01*
X268404Y529915D01*
X268293Y529890D01*
X268183Y529860D01*
X268073Y529827D01*
X267965Y529790D01*
X267859Y529749D01*
X267753Y529704D01*
X267650Y529656D01*
X267548Y529604D01*
X267448Y529548D01*
X267350Y529490D01*
X267254Y529427D01*
X267161Y529362D01*
X267069Y529293D01*
X266981Y529221D01*
X266894Y529146D01*
X266811Y529068D01*
X266730Y528987D01*
X266652Y528904D01*
X266577Y528818D01*
X266505Y528729D01*
X266436Y528637D01*
X266371Y528544D01*
X266309Y528448D01*
X266250Y528350D01*
X266194Y528250D01*
X266142Y528148D01*
X266094Y528045D01*
X266049Y527940D01*
X266008Y527833D01*
X265971Y527725D01*
X265938Y527615D01*
X265908Y527505D01*
X265883Y527394D01*
X265861Y527282D01*
X265843Y527169D01*
X265829Y527055D01*
X265819Y526941D01*
X265813Y526827D01*
X265811Y526713D01*
X272768Y523024D02*
X273177Y523024D01*
X272768Y523024D02*
X272768Y522615D01*
X273177Y522615D01*
X273177Y523024D01*
X273177Y519745D02*
X273177Y517699D01*
X273175Y517610D01*
X273169Y517521D01*
X273159Y517432D01*
X273146Y517344D01*
X273129Y517256D01*
X273107Y517169D01*
X273082Y517084D01*
X273054Y516999D01*
X273021Y516916D01*
X272985Y516834D01*
X272946Y516754D01*
X272903Y516676D01*
X272857Y516600D01*
X272807Y516525D01*
X272754Y516453D01*
X272698Y516384D01*
X272639Y516317D01*
X272578Y516252D01*
X272513Y516191D01*
X272446Y516132D01*
X272377Y516076D01*
X272305Y516023D01*
X272230Y515973D01*
X272154Y515927D01*
X272076Y515884D01*
X271996Y515845D01*
X271914Y515809D01*
X271831Y515776D01*
X271746Y515748D01*
X271661Y515723D01*
X271574Y515701D01*
X271486Y515684D01*
X271398Y515671D01*
X271309Y515661D01*
X271220Y515655D01*
X271131Y515653D01*
X271042Y515655D01*
X270953Y515661D01*
X270864Y515671D01*
X270776Y515684D01*
X270688Y515701D01*
X270601Y515723D01*
X270516Y515748D01*
X270431Y515776D01*
X270348Y515809D01*
X270266Y515845D01*
X270186Y515884D01*
X270108Y515927D01*
X270032Y515973D01*
X269957Y516023D01*
X269885Y516076D01*
X269816Y516132D01*
X269749Y516191D01*
X269684Y516252D01*
X269623Y516317D01*
X269564Y516384D01*
X269508Y516453D01*
X269455Y516525D01*
X269405Y516600D01*
X269359Y516676D01*
X269316Y516754D01*
X269277Y516834D01*
X269241Y516916D01*
X269208Y516999D01*
X269180Y517084D01*
X269155Y517169D01*
X269133Y517256D01*
X269116Y517344D01*
X269103Y517432D01*
X269093Y517521D01*
X269087Y517610D01*
X269085Y517699D01*
X265811Y517290D02*
X265811Y519745D01*
X265811Y517290D02*
X265813Y517211D01*
X265819Y517132D01*
X265828Y517053D01*
X265841Y516975D01*
X265859Y516898D01*
X265879Y516822D01*
X265904Y516747D01*
X265932Y516673D01*
X265963Y516600D01*
X265999Y516529D01*
X266037Y516460D01*
X266079Y516393D01*
X266124Y516328D01*
X266172Y516265D01*
X266223Y516204D01*
X266277Y516147D01*
X266333Y516091D01*
X266392Y516039D01*
X266454Y515989D01*
X266518Y515943D01*
X266584Y515899D01*
X266652Y515859D01*
X266722Y515823D01*
X266794Y515789D01*
X266868Y515759D01*
X266942Y515733D01*
X267018Y515710D01*
X267095Y515692D01*
X267172Y515676D01*
X267251Y515665D01*
X267329Y515657D01*
X267408Y515653D01*
X267488Y515653D01*
X267567Y515657D01*
X267645Y515665D01*
X267724Y515676D01*
X267801Y515692D01*
X267878Y515710D01*
X267954Y515733D01*
X268028Y515759D01*
X268102Y515789D01*
X268174Y515823D01*
X268244Y515859D01*
X268312Y515899D01*
X268378Y515943D01*
X268442Y515989D01*
X268504Y516039D01*
X268563Y516091D01*
X268619Y516147D01*
X268673Y516204D01*
X268724Y516265D01*
X268772Y516328D01*
X268817Y516393D01*
X268859Y516460D01*
X268897Y516529D01*
X268933Y516600D01*
X268964Y516673D01*
X268992Y516747D01*
X269017Y516822D01*
X269037Y516898D01*
X269055Y516975D01*
X269068Y517053D01*
X269077Y517132D01*
X269083Y517211D01*
X269085Y517290D01*
X269085Y518927D01*
X285369Y615470D02*
X285369Y618744D01*
X278003Y618744D01*
X278003Y615470D01*
X281277Y616289D02*
X281277Y618744D01*
X278003Y609509D02*
X285369Y609509D01*
X285369Y611555D01*
X285367Y611624D01*
X285361Y611692D01*
X285352Y611761D01*
X285338Y611828D01*
X285321Y611895D01*
X285300Y611961D01*
X285276Y612025D01*
X285247Y612088D01*
X285216Y612149D01*
X285181Y612208D01*
X285143Y612266D01*
X285101Y612321D01*
X285057Y612373D01*
X285009Y612423D01*
X284959Y612471D01*
X284907Y612515D01*
X284852Y612557D01*
X284794Y612595D01*
X284735Y612630D01*
X284674Y612661D01*
X284611Y612690D01*
X284547Y612714D01*
X284481Y612735D01*
X284414Y612752D01*
X284347Y612766D01*
X284278Y612775D01*
X284210Y612781D01*
X284141Y612783D01*
X281686Y612783D01*
X281617Y612781D01*
X281549Y612775D01*
X281480Y612766D01*
X281413Y612752D01*
X281346Y612735D01*
X281280Y612714D01*
X281216Y612690D01*
X281153Y612661D01*
X281092Y612630D01*
X281033Y612595D01*
X280975Y612557D01*
X280920Y612515D01*
X280868Y612471D01*
X280818Y612423D01*
X280770Y612373D01*
X280726Y612321D01*
X280685Y612266D01*
X280646Y612208D01*
X280611Y612149D01*
X280580Y612088D01*
X280551Y612025D01*
X280527Y611961D01*
X280506Y611895D01*
X280489Y611828D01*
X280475Y611761D01*
X280466Y611693D01*
X280460Y611624D01*
X280458Y611555D01*
X280458Y609509D01*
X282095Y606159D02*
X283732Y606159D01*
X282095Y606159D02*
X282016Y606157D01*
X281937Y606151D01*
X281858Y606142D01*
X281780Y606129D01*
X281703Y606111D01*
X281627Y606091D01*
X281552Y606066D01*
X281478Y606038D01*
X281405Y606007D01*
X281334Y605971D01*
X281265Y605933D01*
X281198Y605891D01*
X281133Y605846D01*
X281070Y605798D01*
X281009Y605747D01*
X280952Y605693D01*
X280896Y605637D01*
X280844Y605578D01*
X280794Y605516D01*
X280748Y605452D01*
X280704Y605386D01*
X280664Y605318D01*
X280628Y605248D01*
X280594Y605176D01*
X280564Y605102D01*
X280538Y605028D01*
X280515Y604952D01*
X280497Y604875D01*
X280481Y604798D01*
X280470Y604719D01*
X280462Y604641D01*
X280458Y604562D01*
X280458Y604482D01*
X280462Y604403D01*
X280470Y604325D01*
X280481Y604246D01*
X280497Y604169D01*
X280515Y604092D01*
X280538Y604016D01*
X280564Y603942D01*
X280594Y603868D01*
X280628Y603796D01*
X280664Y603726D01*
X280704Y603658D01*
X280748Y603592D01*
X280794Y603528D01*
X280844Y603466D01*
X280896Y603407D01*
X280952Y603351D01*
X281009Y603297D01*
X281070Y603246D01*
X281133Y603198D01*
X281198Y603153D01*
X281265Y603111D01*
X281334Y603073D01*
X281405Y603037D01*
X281478Y603006D01*
X281552Y602978D01*
X281627Y602953D01*
X281703Y602933D01*
X281780Y602915D01*
X281858Y602902D01*
X281937Y602893D01*
X282016Y602887D01*
X282095Y602885D01*
X283732Y602885D01*
X283811Y602887D01*
X283890Y602893D01*
X283969Y602902D01*
X284047Y602915D01*
X284124Y602933D01*
X284200Y602953D01*
X284275Y602978D01*
X284349Y603006D01*
X284422Y603037D01*
X284493Y603073D01*
X284562Y603111D01*
X284629Y603153D01*
X284694Y603198D01*
X284757Y603246D01*
X284818Y603297D01*
X284875Y603351D01*
X284931Y603407D01*
X284983Y603466D01*
X285033Y603528D01*
X285079Y603592D01*
X285123Y603658D01*
X285163Y603726D01*
X285199Y603796D01*
X285233Y603868D01*
X285263Y603942D01*
X285289Y604016D01*
X285312Y604092D01*
X285330Y604169D01*
X285346Y604246D01*
X285357Y604325D01*
X285365Y604403D01*
X285369Y604482D01*
X285369Y604562D01*
X285365Y604641D01*
X285357Y604719D01*
X285346Y604798D01*
X285330Y604875D01*
X285312Y604952D01*
X285289Y605028D01*
X285263Y605102D01*
X285233Y605176D01*
X285199Y605248D01*
X285163Y605318D01*
X285123Y605386D01*
X285079Y605452D01*
X285033Y605516D01*
X284983Y605578D01*
X284931Y605637D01*
X284875Y605693D01*
X284818Y605747D01*
X284757Y605798D01*
X284694Y605846D01*
X284629Y605891D01*
X284562Y605933D01*
X284493Y605971D01*
X284422Y606007D01*
X284349Y606038D01*
X284275Y606066D01*
X284200Y606091D01*
X284124Y606111D01*
X284047Y606129D01*
X283969Y606142D01*
X283890Y606151D01*
X283811Y606157D01*
X283732Y606159D01*
X284141Y599575D02*
X280458Y599575D01*
X284141Y599575D02*
X284210Y599573D01*
X284278Y599567D01*
X284347Y599558D01*
X284414Y599544D01*
X284481Y599527D01*
X284547Y599506D01*
X284611Y599482D01*
X284674Y599453D01*
X284735Y599422D01*
X284794Y599387D01*
X284852Y599349D01*
X284907Y599307D01*
X284959Y599263D01*
X285009Y599215D01*
X285057Y599165D01*
X285101Y599113D01*
X285143Y599058D01*
X285181Y599000D01*
X285216Y598941D01*
X285247Y598880D01*
X285276Y598817D01*
X285300Y598753D01*
X285321Y598687D01*
X285338Y598620D01*
X285352Y598553D01*
X285361Y598484D01*
X285367Y598416D01*
X285369Y598347D01*
X285369Y596301D01*
X280458Y596301D01*
X282504Y591600D02*
X282504Y589758D01*
X282505Y591600D02*
X282507Y591675D01*
X282513Y591750D01*
X282523Y591824D01*
X282536Y591898D01*
X282554Y591971D01*
X282575Y592043D01*
X282600Y592113D01*
X282629Y592182D01*
X282661Y592250D01*
X282697Y592316D01*
X282736Y592380D01*
X282778Y592442D01*
X282824Y592501D01*
X282873Y592558D01*
X282924Y592613D01*
X282979Y592664D01*
X283036Y592713D01*
X283095Y592759D01*
X283157Y592801D01*
X283221Y592840D01*
X283287Y592876D01*
X283355Y592908D01*
X283424Y592937D01*
X283494Y592962D01*
X283566Y592983D01*
X283639Y593001D01*
X283713Y593014D01*
X283787Y593024D01*
X283862Y593030D01*
X283937Y593032D01*
X284012Y593030D01*
X284087Y593024D01*
X284161Y593014D01*
X284235Y593001D01*
X284308Y592983D01*
X284380Y592962D01*
X284450Y592937D01*
X284519Y592908D01*
X284587Y592876D01*
X284653Y592840D01*
X284717Y592801D01*
X284779Y592759D01*
X284838Y592713D01*
X284895Y592664D01*
X284950Y592613D01*
X285001Y592558D01*
X285050Y592501D01*
X285096Y592442D01*
X285138Y592380D01*
X285177Y592316D01*
X285213Y592250D01*
X285245Y592182D01*
X285274Y592113D01*
X285299Y592043D01*
X285320Y591971D01*
X285338Y591898D01*
X285351Y591824D01*
X285361Y591750D01*
X285367Y591675D01*
X285369Y591600D01*
X285369Y589758D01*
X281686Y589758D01*
X281617Y589760D01*
X281549Y589766D01*
X281480Y589775D01*
X281413Y589789D01*
X281346Y589806D01*
X281280Y589827D01*
X281216Y589851D01*
X281153Y589880D01*
X281092Y589911D01*
X281033Y589946D01*
X280975Y589984D01*
X280920Y590026D01*
X280868Y590070D01*
X280818Y590118D01*
X280770Y590168D01*
X280726Y590220D01*
X280684Y590275D01*
X280646Y590333D01*
X280611Y590392D01*
X280580Y590453D01*
X280551Y590516D01*
X280527Y590580D01*
X280506Y590646D01*
X280489Y590713D01*
X280475Y590780D01*
X280466Y590849D01*
X280460Y590917D01*
X280458Y590986D01*
X280458Y592623D01*
X280458Y586118D02*
X285369Y586118D01*
X280458Y586118D02*
X280458Y583662D01*
X281277Y583662D01*
X278003Y578054D02*
X285369Y578054D01*
X285369Y580100D01*
X285367Y580169D01*
X285361Y580237D01*
X285352Y580306D01*
X285338Y580373D01*
X285321Y580440D01*
X285300Y580506D01*
X285276Y580570D01*
X285247Y580633D01*
X285216Y580694D01*
X285181Y580753D01*
X285143Y580811D01*
X285101Y580866D01*
X285057Y580918D01*
X285009Y580968D01*
X284959Y581016D01*
X284907Y581060D01*
X284852Y581102D01*
X284794Y581140D01*
X284735Y581175D01*
X284674Y581206D01*
X284611Y581235D01*
X284547Y581259D01*
X284481Y581280D01*
X284414Y581297D01*
X284347Y581311D01*
X284278Y581320D01*
X284210Y581326D01*
X284141Y581328D01*
X281686Y581328D01*
X281617Y581326D01*
X281549Y581320D01*
X281480Y581311D01*
X281413Y581297D01*
X281346Y581280D01*
X281280Y581259D01*
X281216Y581235D01*
X281153Y581206D01*
X281092Y581175D01*
X281033Y581140D01*
X280975Y581102D01*
X280920Y581060D01*
X280868Y581016D01*
X280818Y580968D01*
X280770Y580918D01*
X280726Y580866D01*
X280685Y580811D01*
X280646Y580753D01*
X280611Y580694D01*
X280580Y580633D01*
X280551Y580570D01*
X280527Y580506D01*
X280506Y580440D01*
X280489Y580373D01*
X280475Y580306D01*
X280466Y580238D01*
X280460Y580169D01*
X280458Y580100D01*
X280458Y578054D01*
X278003Y570362D02*
X285369Y570362D01*
X278003Y570362D02*
X278003Y568316D01*
X278005Y568227D01*
X278011Y568138D01*
X278021Y568049D01*
X278034Y567961D01*
X278051Y567873D01*
X278073Y567786D01*
X278098Y567701D01*
X278126Y567616D01*
X278159Y567533D01*
X278195Y567451D01*
X278234Y567371D01*
X278277Y567293D01*
X278323Y567217D01*
X278373Y567142D01*
X278426Y567070D01*
X278482Y567001D01*
X278541Y566934D01*
X278602Y566869D01*
X278667Y566808D01*
X278734Y566749D01*
X278803Y566693D01*
X278875Y566640D01*
X278950Y566590D01*
X279026Y566544D01*
X279104Y566501D01*
X279184Y566462D01*
X279266Y566426D01*
X279349Y566393D01*
X279434Y566365D01*
X279519Y566340D01*
X279606Y566318D01*
X279694Y566301D01*
X279782Y566288D01*
X279871Y566278D01*
X279960Y566272D01*
X280049Y566270D01*
X280138Y566272D01*
X280227Y566278D01*
X280316Y566288D01*
X280404Y566301D01*
X280492Y566318D01*
X280579Y566340D01*
X280664Y566365D01*
X280749Y566393D01*
X280832Y566426D01*
X280914Y566462D01*
X280994Y566501D01*
X281072Y566544D01*
X281148Y566590D01*
X281223Y566640D01*
X281295Y566693D01*
X281364Y566749D01*
X281431Y566808D01*
X281496Y566869D01*
X281557Y566934D01*
X281616Y567001D01*
X281672Y567070D01*
X281725Y567142D01*
X281775Y567217D01*
X281821Y567293D01*
X281864Y567371D01*
X281903Y567451D01*
X281939Y567533D01*
X281972Y567616D01*
X282000Y567701D01*
X282025Y567786D01*
X282047Y567873D01*
X282064Y567961D01*
X282077Y568049D01*
X282087Y568138D01*
X282093Y568227D01*
X282095Y568316D01*
X282095Y570362D01*
X285369Y562825D02*
X278003Y562825D01*
X285369Y563644D02*
X285369Y562007D01*
X278003Y562007D02*
X278003Y563644D01*
X281277Y555911D02*
X281277Y554683D01*
X285369Y554683D01*
X285369Y557138D01*
X285367Y557216D01*
X285362Y557294D01*
X285352Y557371D01*
X285339Y557448D01*
X285323Y557524D01*
X285303Y557599D01*
X285279Y557673D01*
X285252Y557746D01*
X285221Y557818D01*
X285187Y557888D01*
X285150Y557957D01*
X285109Y558023D01*
X285065Y558088D01*
X285019Y558150D01*
X284969Y558210D01*
X284917Y558268D01*
X284862Y558323D01*
X284804Y558375D01*
X284744Y558425D01*
X284682Y558471D01*
X284617Y558515D01*
X284551Y558556D01*
X284482Y558593D01*
X284412Y558627D01*
X284340Y558658D01*
X284267Y558685D01*
X284193Y558709D01*
X284118Y558729D01*
X284042Y558745D01*
X283965Y558758D01*
X283888Y558768D01*
X283810Y558773D01*
X283732Y558775D01*
X279640Y558775D01*
X279560Y558773D01*
X279480Y558767D01*
X279400Y558757D01*
X279321Y558744D01*
X279242Y558726D01*
X279165Y558705D01*
X279089Y558679D01*
X279014Y558650D01*
X278940Y558618D01*
X278868Y558582D01*
X278798Y558542D01*
X278731Y558499D01*
X278665Y558453D01*
X278602Y558403D01*
X278541Y558351D01*
X278482Y558296D01*
X278427Y558237D01*
X278375Y558177D01*
X278325Y558113D01*
X278279Y558048D01*
X278236Y557980D01*
X278196Y557910D01*
X278160Y557838D01*
X278128Y557764D01*
X278099Y557690D01*
X278074Y557613D01*
X278052Y557536D01*
X278034Y557457D01*
X278021Y557378D01*
X278011Y557299D01*
X278005Y557218D01*
X278003Y557138D01*
X278003Y554683D01*
X285369Y550957D02*
X285369Y547683D01*
X285369Y550957D02*
X278003Y550957D01*
X278003Y547683D01*
X281277Y548501D02*
X281277Y550957D01*
X280049Y544876D02*
X283323Y544876D01*
X280049Y544876D02*
X279960Y544874D01*
X279871Y544868D01*
X279782Y544858D01*
X279694Y544845D01*
X279606Y544828D01*
X279519Y544806D01*
X279434Y544781D01*
X279349Y544753D01*
X279266Y544720D01*
X279184Y544684D01*
X279104Y544645D01*
X279026Y544602D01*
X278950Y544556D01*
X278875Y544506D01*
X278803Y544453D01*
X278734Y544397D01*
X278667Y544338D01*
X278602Y544277D01*
X278541Y544212D01*
X278482Y544145D01*
X278426Y544076D01*
X278373Y544004D01*
X278323Y543929D01*
X278277Y543853D01*
X278234Y543775D01*
X278195Y543695D01*
X278159Y543613D01*
X278126Y543530D01*
X278098Y543445D01*
X278073Y543360D01*
X278051Y543273D01*
X278034Y543185D01*
X278021Y543097D01*
X278011Y543008D01*
X278005Y542919D01*
X278003Y542830D01*
X278005Y542741D01*
X278011Y542652D01*
X278021Y542563D01*
X278034Y542475D01*
X278051Y542387D01*
X278073Y542300D01*
X278098Y542215D01*
X278126Y542130D01*
X278159Y542047D01*
X278195Y541965D01*
X278234Y541885D01*
X278277Y541807D01*
X278323Y541731D01*
X278373Y541656D01*
X278426Y541584D01*
X278482Y541515D01*
X278541Y541448D01*
X278602Y541383D01*
X278667Y541322D01*
X278734Y541263D01*
X278803Y541207D01*
X278875Y541154D01*
X278950Y541104D01*
X279026Y541058D01*
X279104Y541015D01*
X279184Y540976D01*
X279266Y540940D01*
X279349Y540907D01*
X279434Y540879D01*
X279519Y540854D01*
X279606Y540832D01*
X279694Y540815D01*
X279782Y540802D01*
X279871Y540792D01*
X279960Y540786D01*
X280049Y540784D01*
X283323Y540784D01*
X283412Y540786D01*
X283501Y540792D01*
X283590Y540802D01*
X283678Y540815D01*
X283766Y540832D01*
X283853Y540854D01*
X283938Y540879D01*
X284023Y540907D01*
X284106Y540940D01*
X284188Y540976D01*
X284268Y541015D01*
X284346Y541058D01*
X284422Y541104D01*
X284497Y541154D01*
X284569Y541207D01*
X284638Y541263D01*
X284705Y541322D01*
X284770Y541383D01*
X284831Y541448D01*
X284890Y541515D01*
X284946Y541584D01*
X284999Y541656D01*
X285049Y541731D01*
X285095Y541807D01*
X285138Y541885D01*
X285177Y541965D01*
X285213Y542047D01*
X285246Y542130D01*
X285274Y542215D01*
X285299Y542300D01*
X285321Y542387D01*
X285338Y542475D01*
X285351Y542563D01*
X285361Y542652D01*
X285367Y542741D01*
X285369Y542830D01*
X285367Y542919D01*
X285361Y543008D01*
X285351Y543097D01*
X285338Y543185D01*
X285321Y543273D01*
X285299Y543360D01*
X285274Y543445D01*
X285246Y543530D01*
X285213Y543613D01*
X285177Y543695D01*
X285138Y543775D01*
X285095Y543853D01*
X285049Y543929D01*
X284999Y544004D01*
X284946Y544076D01*
X284890Y544145D01*
X284831Y544212D01*
X284770Y544277D01*
X284705Y544338D01*
X284638Y544397D01*
X284569Y544453D01*
X284497Y544506D01*
X284422Y544556D01*
X284346Y544602D01*
X284268Y544645D01*
X284188Y544684D01*
X284106Y544720D01*
X284023Y544753D01*
X283938Y544781D01*
X283853Y544806D01*
X283766Y544828D01*
X283678Y544845D01*
X283590Y544858D01*
X283501Y544868D01*
X283412Y544874D01*
X283323Y544876D01*
X285369Y537317D02*
X278003Y537317D01*
X285369Y533225D01*
X278003Y533225D01*
D10*
X166563Y47625D02*
X166568Y48018D01*
X166582Y48410D01*
X166606Y48802D01*
X166640Y49193D01*
X166683Y49584D01*
X166736Y49973D01*
X166799Y50360D01*
X166870Y50746D01*
X166952Y51131D01*
X167042Y51513D01*
X167143Y51892D01*
X167252Y52270D01*
X167371Y52644D01*
X167498Y53015D01*
X167635Y53383D01*
X167781Y53748D01*
X167936Y54109D01*
X168099Y54466D01*
X168271Y54819D01*
X168452Y55167D01*
X168642Y55511D01*
X168839Y55851D01*
X169045Y56185D01*
X169259Y56514D01*
X169482Y56838D01*
X169712Y57156D01*
X169949Y57469D01*
X170195Y57775D01*
X170448Y58076D01*
X170708Y58370D01*
X170975Y58658D01*
X171249Y58939D01*
X171530Y59213D01*
X171818Y59480D01*
X172112Y59740D01*
X172413Y59993D01*
X172719Y60239D01*
X173032Y60476D01*
X173350Y60706D01*
X173674Y60929D01*
X174003Y61143D01*
X174337Y61349D01*
X174677Y61546D01*
X175021Y61736D01*
X175369Y61917D01*
X175722Y62089D01*
X176079Y62252D01*
X176440Y62407D01*
X176805Y62553D01*
X177173Y62690D01*
X177544Y62817D01*
X177918Y62936D01*
X178296Y63045D01*
X178675Y63146D01*
X179057Y63236D01*
X179442Y63318D01*
X179828Y63389D01*
X180215Y63452D01*
X180604Y63505D01*
X180995Y63548D01*
X181386Y63582D01*
X181778Y63606D01*
X182170Y63620D01*
X182563Y63625D01*
X182956Y63620D01*
X183348Y63606D01*
X183740Y63582D01*
X184131Y63548D01*
X184522Y63505D01*
X184911Y63452D01*
X185298Y63389D01*
X185684Y63318D01*
X186069Y63236D01*
X186451Y63146D01*
X186830Y63045D01*
X187208Y62936D01*
X187582Y62817D01*
X187953Y62690D01*
X188321Y62553D01*
X188686Y62407D01*
X189047Y62252D01*
X189404Y62089D01*
X189757Y61917D01*
X190105Y61736D01*
X190449Y61546D01*
X190789Y61349D01*
X191123Y61143D01*
X191452Y60929D01*
X191776Y60706D01*
X192094Y60476D01*
X192407Y60239D01*
X192713Y59993D01*
X193014Y59740D01*
X193308Y59480D01*
X193596Y59213D01*
X193877Y58939D01*
X194151Y58658D01*
X194418Y58370D01*
X194678Y58076D01*
X194931Y57775D01*
X195177Y57469D01*
X195414Y57156D01*
X195644Y56838D01*
X195867Y56514D01*
X196081Y56185D01*
X196287Y55851D01*
X196484Y55511D01*
X196674Y55167D01*
X196855Y54819D01*
X197027Y54466D01*
X197190Y54109D01*
X197345Y53748D01*
X197491Y53383D01*
X197628Y53015D01*
X197755Y52644D01*
X197874Y52270D01*
X197983Y51892D01*
X198084Y51513D01*
X198174Y51131D01*
X198256Y50746D01*
X198327Y50360D01*
X198390Y49973D01*
X198443Y49584D01*
X198486Y49193D01*
X198520Y48802D01*
X198544Y48410D01*
X198558Y48018D01*
X198563Y47625D01*
X198558Y47232D01*
X198544Y46840D01*
X198520Y46448D01*
X198486Y46057D01*
X198443Y45666D01*
X198390Y45277D01*
X198327Y44890D01*
X198256Y44504D01*
X198174Y44119D01*
X198084Y43737D01*
X197983Y43358D01*
X197874Y42980D01*
X197755Y42606D01*
X197628Y42235D01*
X197491Y41867D01*
X197345Y41502D01*
X197190Y41141D01*
X197027Y40784D01*
X196855Y40431D01*
X196674Y40083D01*
X196484Y39739D01*
X196287Y39399D01*
X196081Y39065D01*
X195867Y38736D01*
X195644Y38412D01*
X195414Y38094D01*
X195177Y37781D01*
X194931Y37475D01*
X194678Y37174D01*
X194418Y36880D01*
X194151Y36592D01*
X193877Y36311D01*
X193596Y36037D01*
X193308Y35770D01*
X193014Y35510D01*
X192713Y35257D01*
X192407Y35011D01*
X192094Y34774D01*
X191776Y34544D01*
X191452Y34321D01*
X191123Y34107D01*
X190789Y33901D01*
X190449Y33704D01*
X190105Y33514D01*
X189757Y33333D01*
X189404Y33161D01*
X189047Y32998D01*
X188686Y32843D01*
X188321Y32697D01*
X187953Y32560D01*
X187582Y32433D01*
X187208Y32314D01*
X186830Y32205D01*
X186451Y32104D01*
X186069Y32014D01*
X185684Y31932D01*
X185298Y31861D01*
X184911Y31798D01*
X184522Y31745D01*
X184131Y31702D01*
X183740Y31668D01*
X183348Y31644D01*
X182956Y31630D01*
X182563Y31625D01*
X182170Y31630D01*
X181778Y31644D01*
X181386Y31668D01*
X180995Y31702D01*
X180604Y31745D01*
X180215Y31798D01*
X179828Y31861D01*
X179442Y31932D01*
X179057Y32014D01*
X178675Y32104D01*
X178296Y32205D01*
X177918Y32314D01*
X177544Y32433D01*
X177173Y32560D01*
X176805Y32697D01*
X176440Y32843D01*
X176079Y32998D01*
X175722Y33161D01*
X175369Y33333D01*
X175021Y33514D01*
X174677Y33704D01*
X174337Y33901D01*
X174003Y34107D01*
X173674Y34321D01*
X173350Y34544D01*
X173032Y34774D01*
X172719Y35011D01*
X172413Y35257D01*
X172112Y35510D01*
X171818Y35770D01*
X171530Y36037D01*
X171249Y36311D01*
X170975Y36592D01*
X170708Y36880D01*
X170448Y37174D01*
X170195Y37475D01*
X169949Y37781D01*
X169712Y38094D01*
X169482Y38412D01*
X169259Y38736D01*
X169045Y39065D01*
X168839Y39399D01*
X168642Y39739D01*
X168452Y40083D01*
X168271Y40431D01*
X168099Y40784D01*
X167936Y41141D01*
X167781Y41502D01*
X167635Y41867D01*
X167498Y42235D01*
X167371Y42606D01*
X167252Y42980D01*
X167143Y43358D01*
X167042Y43737D01*
X166952Y44119D01*
X166870Y44504D01*
X166799Y44890D01*
X166736Y45277D01*
X166683Y45666D01*
X166640Y46057D01*
X166606Y46448D01*
X166582Y46840D01*
X166568Y47232D01*
X166563Y47625D01*
X166563Y581025D02*
X166568Y581418D01*
X166582Y581810D01*
X166606Y582202D01*
X166640Y582593D01*
X166683Y582984D01*
X166736Y583373D01*
X166799Y583760D01*
X166870Y584146D01*
X166952Y584531D01*
X167042Y584913D01*
X167143Y585292D01*
X167252Y585670D01*
X167371Y586044D01*
X167498Y586415D01*
X167635Y586783D01*
X167781Y587148D01*
X167936Y587509D01*
X168099Y587866D01*
X168271Y588219D01*
X168452Y588567D01*
X168642Y588911D01*
X168839Y589251D01*
X169045Y589585D01*
X169259Y589914D01*
X169482Y590238D01*
X169712Y590556D01*
X169949Y590869D01*
X170195Y591175D01*
X170448Y591476D01*
X170708Y591770D01*
X170975Y592058D01*
X171249Y592339D01*
X171530Y592613D01*
X171818Y592880D01*
X172112Y593140D01*
X172413Y593393D01*
X172719Y593639D01*
X173032Y593876D01*
X173350Y594106D01*
X173674Y594329D01*
X174003Y594543D01*
X174337Y594749D01*
X174677Y594946D01*
X175021Y595136D01*
X175369Y595317D01*
X175722Y595489D01*
X176079Y595652D01*
X176440Y595807D01*
X176805Y595953D01*
X177173Y596090D01*
X177544Y596217D01*
X177918Y596336D01*
X178296Y596445D01*
X178675Y596546D01*
X179057Y596636D01*
X179442Y596718D01*
X179828Y596789D01*
X180215Y596852D01*
X180604Y596905D01*
X180995Y596948D01*
X181386Y596982D01*
X181778Y597006D01*
X182170Y597020D01*
X182563Y597025D01*
X182956Y597020D01*
X183348Y597006D01*
X183740Y596982D01*
X184131Y596948D01*
X184522Y596905D01*
X184911Y596852D01*
X185298Y596789D01*
X185684Y596718D01*
X186069Y596636D01*
X186451Y596546D01*
X186830Y596445D01*
X187208Y596336D01*
X187582Y596217D01*
X187953Y596090D01*
X188321Y595953D01*
X188686Y595807D01*
X189047Y595652D01*
X189404Y595489D01*
X189757Y595317D01*
X190105Y595136D01*
X190449Y594946D01*
X190789Y594749D01*
X191123Y594543D01*
X191452Y594329D01*
X191776Y594106D01*
X192094Y593876D01*
X192407Y593639D01*
X192713Y593393D01*
X193014Y593140D01*
X193308Y592880D01*
X193596Y592613D01*
X193877Y592339D01*
X194151Y592058D01*
X194418Y591770D01*
X194678Y591476D01*
X194931Y591175D01*
X195177Y590869D01*
X195414Y590556D01*
X195644Y590238D01*
X195867Y589914D01*
X196081Y589585D01*
X196287Y589251D01*
X196484Y588911D01*
X196674Y588567D01*
X196855Y588219D01*
X197027Y587866D01*
X197190Y587509D01*
X197345Y587148D01*
X197491Y586783D01*
X197628Y586415D01*
X197755Y586044D01*
X197874Y585670D01*
X197983Y585292D01*
X198084Y584913D01*
X198174Y584531D01*
X198256Y584146D01*
X198327Y583760D01*
X198390Y583373D01*
X198443Y582984D01*
X198486Y582593D01*
X198520Y582202D01*
X198544Y581810D01*
X198558Y581418D01*
X198563Y581025D01*
X198558Y580632D01*
X198544Y580240D01*
X198520Y579848D01*
X198486Y579457D01*
X198443Y579066D01*
X198390Y578677D01*
X198327Y578290D01*
X198256Y577904D01*
X198174Y577519D01*
X198084Y577137D01*
X197983Y576758D01*
X197874Y576380D01*
X197755Y576006D01*
X197628Y575635D01*
X197491Y575267D01*
X197345Y574902D01*
X197190Y574541D01*
X197027Y574184D01*
X196855Y573831D01*
X196674Y573483D01*
X196484Y573139D01*
X196287Y572799D01*
X196081Y572465D01*
X195867Y572136D01*
X195644Y571812D01*
X195414Y571494D01*
X195177Y571181D01*
X194931Y570875D01*
X194678Y570574D01*
X194418Y570280D01*
X194151Y569992D01*
X193877Y569711D01*
X193596Y569437D01*
X193308Y569170D01*
X193014Y568910D01*
X192713Y568657D01*
X192407Y568411D01*
X192094Y568174D01*
X191776Y567944D01*
X191452Y567721D01*
X191123Y567507D01*
X190789Y567301D01*
X190449Y567104D01*
X190105Y566914D01*
X189757Y566733D01*
X189404Y566561D01*
X189047Y566398D01*
X188686Y566243D01*
X188321Y566097D01*
X187953Y565960D01*
X187582Y565833D01*
X187208Y565714D01*
X186830Y565605D01*
X186451Y565504D01*
X186069Y565414D01*
X185684Y565332D01*
X185298Y565261D01*
X184911Y565198D01*
X184522Y565145D01*
X184131Y565102D01*
X183740Y565068D01*
X183348Y565044D01*
X182956Y565030D01*
X182563Y565025D01*
X182170Y565030D01*
X181778Y565044D01*
X181386Y565068D01*
X180995Y565102D01*
X180604Y565145D01*
X180215Y565198D01*
X179828Y565261D01*
X179442Y565332D01*
X179057Y565414D01*
X178675Y565504D01*
X178296Y565605D01*
X177918Y565714D01*
X177544Y565833D01*
X177173Y565960D01*
X176805Y566097D01*
X176440Y566243D01*
X176079Y566398D01*
X175722Y566561D01*
X175369Y566733D01*
X175021Y566914D01*
X174677Y567104D01*
X174337Y567301D01*
X174003Y567507D01*
X173674Y567721D01*
X173350Y567944D01*
X173032Y568174D01*
X172719Y568411D01*
X172413Y568657D01*
X172112Y568910D01*
X171818Y569170D01*
X171530Y569437D01*
X171249Y569711D01*
X170975Y569992D01*
X170708Y570280D01*
X170448Y570574D01*
X170195Y570875D01*
X169949Y571181D01*
X169712Y571494D01*
X169482Y571812D01*
X169259Y572136D01*
X169045Y572465D01*
X168839Y572799D01*
X168642Y573139D01*
X168452Y573483D01*
X168271Y573831D01*
X168099Y574184D01*
X167936Y574541D01*
X167781Y574902D01*
X167635Y575267D01*
X167498Y575635D01*
X167371Y576006D01*
X167252Y576380D01*
X167143Y576758D01*
X167042Y577137D01*
X166952Y577519D01*
X166870Y577904D01*
X166799Y578290D01*
X166736Y578677D01*
X166683Y579066D01*
X166640Y579457D01*
X166606Y579848D01*
X166582Y580240D01*
X166568Y580632D01*
X166563Y581025D01*
D11*
X253619Y534557D02*
X253619Y532920D01*
X253619Y534557D02*
X253617Y534635D01*
X253612Y534713D01*
X253602Y534790D01*
X253589Y534867D01*
X253573Y534943D01*
X253553Y535018D01*
X253529Y535092D01*
X253502Y535165D01*
X253471Y535237D01*
X253437Y535307D01*
X253400Y535376D01*
X253359Y535442D01*
X253315Y535507D01*
X253269Y535569D01*
X253219Y535629D01*
X253167Y535687D01*
X253112Y535742D01*
X253054Y535794D01*
X252994Y535844D01*
X252932Y535890D01*
X252867Y535934D01*
X252801Y535975D01*
X252732Y536012D01*
X252662Y536046D01*
X252590Y536077D01*
X252517Y536104D01*
X252443Y536128D01*
X252368Y536148D01*
X252292Y536164D01*
X252215Y536177D01*
X252138Y536187D01*
X252060Y536192D01*
X251982Y536194D01*
X247890Y536194D01*
X247810Y536192D01*
X247730Y536186D01*
X247650Y536176D01*
X247571Y536163D01*
X247492Y536145D01*
X247415Y536124D01*
X247339Y536098D01*
X247264Y536069D01*
X247190Y536037D01*
X247118Y536001D01*
X247048Y535961D01*
X246981Y535918D01*
X246915Y535872D01*
X246852Y535822D01*
X246791Y535770D01*
X246732Y535715D01*
X246677Y535656D01*
X246625Y535596D01*
X246575Y535532D01*
X246529Y535467D01*
X246486Y535399D01*
X246446Y535329D01*
X246410Y535257D01*
X246378Y535183D01*
X246349Y535109D01*
X246324Y535032D01*
X246302Y534955D01*
X246284Y534876D01*
X246271Y534797D01*
X246261Y534718D01*
X246255Y534637D01*
X246253Y534557D01*
X246253Y532920D01*
X247890Y530075D02*
X246253Y528029D01*
X253619Y528029D01*
X253619Y530075D02*
X253619Y525983D01*
D12*
X260550Y495900D02*
X158950Y495900D01*
X260550Y495900D02*
X260550Y443900D01*
X158950Y443900D01*
X158950Y495900D01*
D11*
X264518Y491825D02*
X271884Y491825D01*
X271884Y492643D02*
X271884Y491006D01*
X264518Y491006D02*
X264518Y492643D01*
X271884Y486405D02*
X271884Y484768D01*
X271884Y486405D02*
X271882Y486483D01*
X271877Y486561D01*
X271867Y486638D01*
X271854Y486715D01*
X271838Y486791D01*
X271818Y486866D01*
X271794Y486940D01*
X271767Y487013D01*
X271736Y487085D01*
X271702Y487155D01*
X271665Y487224D01*
X271624Y487290D01*
X271580Y487355D01*
X271534Y487417D01*
X271484Y487477D01*
X271432Y487535D01*
X271377Y487590D01*
X271319Y487642D01*
X271259Y487692D01*
X271197Y487738D01*
X271132Y487782D01*
X271066Y487823D01*
X270997Y487860D01*
X270927Y487894D01*
X270855Y487925D01*
X270782Y487952D01*
X270708Y487976D01*
X270633Y487996D01*
X270557Y488012D01*
X270480Y488025D01*
X270403Y488035D01*
X270325Y488040D01*
X270247Y488042D01*
X266155Y488042D01*
X266075Y488040D01*
X265995Y488034D01*
X265915Y488024D01*
X265836Y488011D01*
X265757Y487993D01*
X265680Y487972D01*
X265604Y487946D01*
X265529Y487917D01*
X265455Y487885D01*
X265383Y487849D01*
X265313Y487809D01*
X265246Y487766D01*
X265180Y487720D01*
X265117Y487670D01*
X265056Y487618D01*
X264997Y487563D01*
X264942Y487504D01*
X264890Y487444D01*
X264840Y487380D01*
X264794Y487315D01*
X264751Y487247D01*
X264711Y487177D01*
X264675Y487105D01*
X264643Y487031D01*
X264614Y486957D01*
X264589Y486880D01*
X264567Y486803D01*
X264549Y486724D01*
X264536Y486645D01*
X264526Y486566D01*
X264520Y486485D01*
X264518Y486405D01*
X264518Y484768D01*
X267792Y481923D02*
X267792Y479467D01*
X267794Y479389D01*
X267799Y479311D01*
X267809Y479234D01*
X267822Y479157D01*
X267838Y479081D01*
X267858Y479006D01*
X267882Y478932D01*
X267909Y478859D01*
X267940Y478787D01*
X267974Y478717D01*
X268011Y478649D01*
X268052Y478582D01*
X268096Y478517D01*
X268142Y478455D01*
X268192Y478395D01*
X268244Y478337D01*
X268299Y478282D01*
X268357Y478230D01*
X268417Y478180D01*
X268479Y478134D01*
X268544Y478090D01*
X268611Y478049D01*
X268679Y478012D01*
X268749Y477978D01*
X268821Y477947D01*
X268894Y477920D01*
X268968Y477896D01*
X269043Y477876D01*
X269119Y477860D01*
X269196Y477847D01*
X269273Y477837D01*
X269351Y477832D01*
X269429Y477830D01*
X269838Y477830D01*
X269927Y477832D01*
X270016Y477838D01*
X270105Y477848D01*
X270193Y477861D01*
X270281Y477878D01*
X270368Y477900D01*
X270453Y477925D01*
X270538Y477953D01*
X270621Y477986D01*
X270703Y478022D01*
X270783Y478061D01*
X270861Y478104D01*
X270937Y478150D01*
X271012Y478200D01*
X271084Y478253D01*
X271153Y478309D01*
X271220Y478368D01*
X271285Y478429D01*
X271346Y478494D01*
X271405Y478561D01*
X271461Y478630D01*
X271514Y478702D01*
X271564Y478777D01*
X271610Y478853D01*
X271653Y478931D01*
X271692Y479011D01*
X271728Y479093D01*
X271761Y479176D01*
X271789Y479261D01*
X271814Y479346D01*
X271836Y479433D01*
X271853Y479521D01*
X271866Y479609D01*
X271876Y479698D01*
X271882Y479787D01*
X271884Y479876D01*
X271882Y479965D01*
X271876Y480054D01*
X271866Y480143D01*
X271853Y480231D01*
X271836Y480319D01*
X271814Y480406D01*
X271789Y480491D01*
X271761Y480576D01*
X271728Y480659D01*
X271692Y480741D01*
X271653Y480821D01*
X271610Y480899D01*
X271564Y480975D01*
X271514Y481050D01*
X271461Y481122D01*
X271405Y481191D01*
X271346Y481258D01*
X271285Y481323D01*
X271220Y481384D01*
X271153Y481443D01*
X271084Y481499D01*
X271012Y481552D01*
X270937Y481602D01*
X270861Y481648D01*
X270783Y481691D01*
X270703Y481730D01*
X270621Y481766D01*
X270538Y481799D01*
X270453Y481827D01*
X270368Y481852D01*
X270281Y481874D01*
X270193Y481891D01*
X270105Y481904D01*
X270016Y481914D01*
X269927Y481920D01*
X269838Y481922D01*
X269838Y481923D02*
X267792Y481923D01*
X267678Y481921D01*
X267564Y481915D01*
X267450Y481905D01*
X267336Y481891D01*
X267223Y481873D01*
X267111Y481851D01*
X267000Y481826D01*
X266890Y481796D01*
X266780Y481763D01*
X266672Y481726D01*
X266566Y481685D01*
X266460Y481640D01*
X266357Y481592D01*
X266255Y481540D01*
X266155Y481484D01*
X266057Y481426D01*
X265961Y481363D01*
X265868Y481298D01*
X265776Y481229D01*
X265688Y481157D01*
X265601Y481082D01*
X265518Y481004D01*
X265437Y480923D01*
X265359Y480840D01*
X265284Y480754D01*
X265212Y480665D01*
X265143Y480573D01*
X265078Y480480D01*
X265016Y480384D01*
X264957Y480286D01*
X264901Y480186D01*
X264849Y480084D01*
X264801Y479981D01*
X264756Y479876D01*
X264715Y479769D01*
X264678Y479661D01*
X264645Y479551D01*
X264615Y479441D01*
X264590Y479330D01*
X264568Y479218D01*
X264550Y479105D01*
X264536Y478991D01*
X264526Y478877D01*
X264520Y478763D01*
X264518Y478649D01*
X259969Y415544D02*
X252603Y415544D01*
X252603Y413498D01*
X252605Y413409D01*
X252611Y413320D01*
X252621Y413231D01*
X252634Y413143D01*
X252651Y413055D01*
X252673Y412968D01*
X252698Y412883D01*
X252726Y412798D01*
X252759Y412715D01*
X252795Y412633D01*
X252834Y412553D01*
X252877Y412475D01*
X252923Y412399D01*
X252973Y412324D01*
X253026Y412252D01*
X253082Y412183D01*
X253141Y412116D01*
X253202Y412051D01*
X253267Y411990D01*
X253334Y411931D01*
X253403Y411875D01*
X253475Y411822D01*
X253550Y411772D01*
X253626Y411726D01*
X253704Y411683D01*
X253784Y411644D01*
X253866Y411608D01*
X253949Y411575D01*
X254034Y411547D01*
X254119Y411522D01*
X254206Y411500D01*
X254294Y411483D01*
X254382Y411470D01*
X254471Y411460D01*
X254560Y411454D01*
X254649Y411452D01*
X254738Y411454D01*
X254827Y411460D01*
X254916Y411470D01*
X255004Y411483D01*
X255092Y411500D01*
X255179Y411522D01*
X255264Y411547D01*
X255349Y411575D01*
X255432Y411608D01*
X255514Y411644D01*
X255594Y411683D01*
X255672Y411726D01*
X255748Y411772D01*
X255823Y411822D01*
X255895Y411875D01*
X255964Y411931D01*
X256031Y411990D01*
X256096Y412051D01*
X256157Y412116D01*
X256216Y412183D01*
X256272Y412252D01*
X256325Y412324D01*
X256375Y412399D01*
X256421Y412475D01*
X256464Y412553D01*
X256503Y412633D01*
X256539Y412715D01*
X256572Y412798D01*
X256600Y412883D01*
X256625Y412968D01*
X256647Y413055D01*
X256664Y413143D01*
X256677Y413231D01*
X256687Y413320D01*
X256693Y413409D01*
X256695Y413498D01*
X256695Y415544D01*
X256695Y413089D02*
X259969Y411452D01*
X254240Y408280D02*
X252603Y406234D01*
X259969Y406234D01*
X259969Y408280D02*
X259969Y404188D01*
X240919Y312307D02*
X240919Y310670D01*
X240919Y312307D02*
X240917Y312385D01*
X240912Y312463D01*
X240902Y312540D01*
X240889Y312617D01*
X240873Y312693D01*
X240853Y312768D01*
X240829Y312842D01*
X240802Y312915D01*
X240771Y312987D01*
X240737Y313057D01*
X240700Y313126D01*
X240659Y313192D01*
X240615Y313257D01*
X240569Y313319D01*
X240519Y313379D01*
X240467Y313437D01*
X240412Y313492D01*
X240354Y313544D01*
X240294Y313594D01*
X240232Y313640D01*
X240167Y313684D01*
X240101Y313725D01*
X240032Y313762D01*
X239962Y313796D01*
X239890Y313827D01*
X239817Y313854D01*
X239743Y313878D01*
X239668Y313898D01*
X239592Y313914D01*
X239515Y313927D01*
X239438Y313937D01*
X239360Y313942D01*
X239282Y313944D01*
X235190Y313944D01*
X235110Y313942D01*
X235030Y313936D01*
X234950Y313926D01*
X234871Y313913D01*
X234792Y313895D01*
X234715Y313874D01*
X234639Y313848D01*
X234564Y313819D01*
X234490Y313787D01*
X234418Y313751D01*
X234348Y313711D01*
X234281Y313668D01*
X234215Y313622D01*
X234152Y313572D01*
X234091Y313520D01*
X234032Y313465D01*
X233977Y313406D01*
X233925Y313346D01*
X233875Y313282D01*
X233829Y313217D01*
X233786Y313149D01*
X233746Y313079D01*
X233710Y313007D01*
X233678Y312933D01*
X233649Y312859D01*
X233624Y312782D01*
X233602Y312705D01*
X233584Y312626D01*
X233571Y312547D01*
X233561Y312468D01*
X233555Y312387D01*
X233553Y312307D01*
X233553Y310670D01*
X233553Y305574D02*
X233555Y305489D01*
X233561Y305404D01*
X233571Y305320D01*
X233584Y305236D01*
X233602Y305152D01*
X233623Y305070D01*
X233648Y304989D01*
X233677Y304909D01*
X233710Y304830D01*
X233746Y304753D01*
X233786Y304678D01*
X233829Y304604D01*
X233875Y304533D01*
X233925Y304464D01*
X233978Y304397D01*
X234034Y304333D01*
X234093Y304272D01*
X234154Y304213D01*
X234218Y304157D01*
X234285Y304104D01*
X234354Y304054D01*
X234425Y304008D01*
X234499Y303965D01*
X234574Y303925D01*
X234651Y303889D01*
X234730Y303856D01*
X234810Y303827D01*
X234891Y303802D01*
X234973Y303781D01*
X235057Y303763D01*
X235141Y303750D01*
X235225Y303740D01*
X235310Y303734D01*
X235395Y303732D01*
X233553Y305574D02*
X233555Y305670D01*
X233561Y305766D01*
X233571Y305861D01*
X233584Y305956D01*
X233602Y306051D01*
X233623Y306144D01*
X233648Y306237D01*
X233677Y306328D01*
X233709Y306419D01*
X233745Y306508D01*
X233785Y306595D01*
X233828Y306681D01*
X233874Y306765D01*
X233924Y306847D01*
X233978Y306927D01*
X234034Y307004D01*
X234094Y307079D01*
X234156Y307152D01*
X234222Y307222D01*
X234290Y307290D01*
X234361Y307355D01*
X234434Y307416D01*
X234510Y307475D01*
X234589Y307531D01*
X234669Y307583D01*
X234752Y307632D01*
X234836Y307678D01*
X234922Y307720D01*
X235010Y307758D01*
X235099Y307793D01*
X235190Y307825D01*
X236827Y304347D02*
X236768Y304287D01*
X236706Y304230D01*
X236642Y304175D01*
X236575Y304124D01*
X236506Y304075D01*
X236436Y304029D01*
X236363Y303986D01*
X236289Y303946D01*
X236213Y303910D01*
X236135Y303877D01*
X236056Y303847D01*
X235976Y303820D01*
X235895Y303797D01*
X235813Y303778D01*
X235731Y303762D01*
X235647Y303749D01*
X235563Y303740D01*
X235479Y303735D01*
X235395Y303733D01*
X236827Y304347D02*
X240919Y307825D01*
X240919Y303733D01*
X221869Y225044D02*
X214503Y225044D01*
X214503Y222998D01*
X214505Y222909D01*
X214511Y222820D01*
X214521Y222731D01*
X214534Y222643D01*
X214551Y222555D01*
X214573Y222468D01*
X214598Y222383D01*
X214626Y222298D01*
X214659Y222215D01*
X214695Y222133D01*
X214734Y222053D01*
X214777Y221975D01*
X214823Y221899D01*
X214873Y221824D01*
X214926Y221752D01*
X214982Y221683D01*
X215041Y221616D01*
X215102Y221551D01*
X215167Y221490D01*
X215234Y221431D01*
X215303Y221375D01*
X215375Y221322D01*
X215450Y221272D01*
X215526Y221226D01*
X215604Y221183D01*
X215684Y221144D01*
X215766Y221108D01*
X215849Y221075D01*
X215934Y221047D01*
X216019Y221022D01*
X216106Y221000D01*
X216194Y220983D01*
X216282Y220970D01*
X216371Y220960D01*
X216460Y220954D01*
X216549Y220952D01*
X216638Y220954D01*
X216727Y220960D01*
X216816Y220970D01*
X216904Y220983D01*
X216992Y221000D01*
X217079Y221022D01*
X217164Y221047D01*
X217249Y221075D01*
X217332Y221108D01*
X217414Y221144D01*
X217494Y221183D01*
X217572Y221226D01*
X217648Y221272D01*
X217723Y221322D01*
X217795Y221375D01*
X217864Y221431D01*
X217931Y221490D01*
X217996Y221551D01*
X218057Y221616D01*
X218116Y221683D01*
X218172Y221752D01*
X218225Y221824D01*
X218275Y221899D01*
X218321Y221975D01*
X218364Y222053D01*
X218403Y222133D01*
X218439Y222215D01*
X218472Y222298D01*
X218500Y222383D01*
X218525Y222468D01*
X218547Y222555D01*
X218564Y222643D01*
X218577Y222731D01*
X218587Y222820D01*
X218593Y222909D01*
X218595Y222998D01*
X218595Y225044D01*
X218595Y222589D02*
X221869Y220952D01*
X216345Y213687D02*
X216260Y213689D01*
X216175Y213695D01*
X216091Y213705D01*
X216007Y213718D01*
X215923Y213736D01*
X215841Y213757D01*
X215760Y213782D01*
X215680Y213811D01*
X215601Y213844D01*
X215524Y213880D01*
X215449Y213920D01*
X215375Y213963D01*
X215304Y214009D01*
X215235Y214059D01*
X215168Y214112D01*
X215104Y214168D01*
X215043Y214227D01*
X214984Y214288D01*
X214928Y214352D01*
X214875Y214419D01*
X214825Y214488D01*
X214779Y214559D01*
X214736Y214633D01*
X214696Y214708D01*
X214660Y214785D01*
X214627Y214864D01*
X214598Y214944D01*
X214573Y215025D01*
X214552Y215107D01*
X214534Y215191D01*
X214521Y215275D01*
X214511Y215359D01*
X214505Y215444D01*
X214503Y215529D01*
X214505Y215625D01*
X214511Y215721D01*
X214521Y215816D01*
X214534Y215911D01*
X214552Y216006D01*
X214573Y216099D01*
X214598Y216192D01*
X214627Y216283D01*
X214659Y216374D01*
X214695Y216463D01*
X214735Y216550D01*
X214778Y216636D01*
X214824Y216720D01*
X214874Y216802D01*
X214928Y216882D01*
X214984Y216959D01*
X215044Y217034D01*
X215106Y217107D01*
X215172Y217177D01*
X215240Y217245D01*
X215311Y217310D01*
X215384Y217371D01*
X215460Y217430D01*
X215539Y217486D01*
X215619Y217538D01*
X215702Y217587D01*
X215786Y217633D01*
X215872Y217675D01*
X215960Y217713D01*
X216049Y217748D01*
X216140Y217780D01*
X217777Y214302D02*
X217718Y214242D01*
X217656Y214185D01*
X217592Y214130D01*
X217525Y214079D01*
X217456Y214030D01*
X217386Y213984D01*
X217313Y213941D01*
X217239Y213901D01*
X217163Y213865D01*
X217085Y213832D01*
X217006Y213802D01*
X216926Y213775D01*
X216845Y213752D01*
X216763Y213733D01*
X216681Y213717D01*
X216597Y213704D01*
X216513Y213695D01*
X216429Y213690D01*
X216345Y213688D01*
X217777Y214302D02*
X221869Y217780D01*
X221869Y213688D01*
X221869Y193294D02*
X214503Y193294D01*
X214503Y191248D01*
X214505Y191159D01*
X214511Y191070D01*
X214521Y190981D01*
X214534Y190893D01*
X214551Y190805D01*
X214573Y190718D01*
X214598Y190633D01*
X214626Y190548D01*
X214659Y190465D01*
X214695Y190383D01*
X214734Y190303D01*
X214777Y190225D01*
X214823Y190149D01*
X214873Y190074D01*
X214926Y190002D01*
X214982Y189933D01*
X215041Y189866D01*
X215102Y189801D01*
X215167Y189740D01*
X215234Y189681D01*
X215303Y189625D01*
X215375Y189572D01*
X215450Y189522D01*
X215526Y189476D01*
X215604Y189433D01*
X215684Y189394D01*
X215766Y189358D01*
X215849Y189325D01*
X215934Y189297D01*
X216019Y189272D01*
X216106Y189250D01*
X216194Y189233D01*
X216282Y189220D01*
X216371Y189210D01*
X216460Y189204D01*
X216549Y189202D01*
X216638Y189204D01*
X216727Y189210D01*
X216816Y189220D01*
X216904Y189233D01*
X216992Y189250D01*
X217079Y189272D01*
X217164Y189297D01*
X217249Y189325D01*
X217332Y189358D01*
X217414Y189394D01*
X217494Y189433D01*
X217572Y189476D01*
X217648Y189522D01*
X217723Y189572D01*
X217795Y189625D01*
X217864Y189681D01*
X217931Y189740D01*
X217996Y189801D01*
X218057Y189866D01*
X218116Y189933D01*
X218172Y190002D01*
X218225Y190074D01*
X218275Y190149D01*
X218321Y190225D01*
X218364Y190303D01*
X218403Y190383D01*
X218439Y190465D01*
X218472Y190548D01*
X218500Y190633D01*
X218525Y190718D01*
X218547Y190805D01*
X218564Y190893D01*
X218577Y190981D01*
X218587Y191070D01*
X218593Y191159D01*
X218595Y191248D01*
X218595Y193294D01*
X218595Y190839D02*
X221869Y189202D01*
X221869Y186030D02*
X221869Y183984D01*
X221867Y183895D01*
X221861Y183806D01*
X221851Y183717D01*
X221838Y183629D01*
X221821Y183541D01*
X221799Y183454D01*
X221774Y183369D01*
X221746Y183284D01*
X221713Y183201D01*
X221677Y183119D01*
X221638Y183039D01*
X221595Y182961D01*
X221549Y182885D01*
X221499Y182810D01*
X221446Y182738D01*
X221390Y182669D01*
X221331Y182602D01*
X221270Y182537D01*
X221205Y182476D01*
X221138Y182417D01*
X221069Y182361D01*
X220997Y182308D01*
X220922Y182258D01*
X220846Y182212D01*
X220768Y182169D01*
X220688Y182130D01*
X220606Y182094D01*
X220523Y182061D01*
X220438Y182033D01*
X220353Y182008D01*
X220266Y181986D01*
X220178Y181969D01*
X220090Y181956D01*
X220001Y181946D01*
X219912Y181940D01*
X219823Y181938D01*
X219734Y181940D01*
X219645Y181946D01*
X219556Y181956D01*
X219468Y181969D01*
X219380Y181986D01*
X219293Y182008D01*
X219208Y182033D01*
X219123Y182061D01*
X219040Y182094D01*
X218958Y182130D01*
X218878Y182169D01*
X218800Y182212D01*
X218724Y182258D01*
X218649Y182308D01*
X218577Y182361D01*
X218508Y182417D01*
X218441Y182476D01*
X218376Y182537D01*
X218315Y182602D01*
X218256Y182669D01*
X218200Y182738D01*
X218147Y182810D01*
X218097Y182885D01*
X218051Y182961D01*
X218008Y183039D01*
X217969Y183119D01*
X217933Y183201D01*
X217900Y183284D01*
X217872Y183369D01*
X217847Y183454D01*
X217825Y183541D01*
X217808Y183629D01*
X217795Y183717D01*
X217785Y183806D01*
X217779Y183895D01*
X217777Y183984D01*
X214503Y183575D02*
X214503Y186030D01*
X214503Y183575D02*
X214505Y183496D01*
X214511Y183417D01*
X214520Y183338D01*
X214533Y183260D01*
X214551Y183183D01*
X214571Y183107D01*
X214596Y183032D01*
X214624Y182958D01*
X214655Y182885D01*
X214691Y182814D01*
X214729Y182745D01*
X214771Y182678D01*
X214816Y182613D01*
X214864Y182550D01*
X214915Y182489D01*
X214969Y182432D01*
X215025Y182376D01*
X215084Y182324D01*
X215146Y182274D01*
X215210Y182228D01*
X215276Y182184D01*
X215344Y182144D01*
X215414Y182108D01*
X215486Y182074D01*
X215560Y182044D01*
X215634Y182018D01*
X215710Y181995D01*
X215787Y181977D01*
X215864Y181961D01*
X215943Y181950D01*
X216021Y181942D01*
X216100Y181938D01*
X216180Y181938D01*
X216259Y181942D01*
X216337Y181950D01*
X216416Y181961D01*
X216493Y181977D01*
X216570Y181995D01*
X216646Y182018D01*
X216720Y182044D01*
X216794Y182074D01*
X216866Y182108D01*
X216936Y182144D01*
X217004Y182184D01*
X217070Y182228D01*
X217134Y182274D01*
X217196Y182324D01*
X217255Y182376D01*
X217311Y182432D01*
X217365Y182489D01*
X217416Y182550D01*
X217464Y182613D01*
X217509Y182678D01*
X217551Y182745D01*
X217589Y182814D01*
X217625Y182885D01*
X217656Y182958D01*
X217684Y183032D01*
X217709Y183107D01*
X217729Y183183D01*
X217747Y183260D01*
X217760Y183338D01*
X217769Y183417D01*
X217775Y183496D01*
X217777Y183575D01*
X217777Y185212D01*
D13*
X218059Y244983D02*
X245491Y244983D01*
X228727Y294767D02*
X218059Y294767D01*
X228727Y294767D02*
X234823Y294767D01*
X245491Y294767D01*
D10*
X234823Y294767D02*
X234821Y294658D01*
X234815Y294550D01*
X234806Y294441D01*
X234792Y294333D01*
X234775Y294226D01*
X234753Y294119D01*
X234728Y294013D01*
X234700Y293908D01*
X234667Y293804D01*
X234631Y293702D01*
X234591Y293601D01*
X234548Y293501D01*
X234501Y293403D01*
X234450Y293306D01*
X234396Y293212D01*
X234339Y293119D01*
X234279Y293029D01*
X234215Y292940D01*
X234148Y292854D01*
X234079Y292771D01*
X234006Y292690D01*
X233930Y292612D01*
X233852Y292536D01*
X233771Y292463D01*
X233688Y292394D01*
X233602Y292327D01*
X233513Y292263D01*
X233423Y292203D01*
X233330Y292146D01*
X233236Y292092D01*
X233139Y292041D01*
X233041Y291994D01*
X232941Y291951D01*
X232840Y291911D01*
X232738Y291875D01*
X232634Y291842D01*
X232529Y291814D01*
X232423Y291789D01*
X232316Y291767D01*
X232209Y291750D01*
X232101Y291736D01*
X231992Y291727D01*
X231884Y291721D01*
X231775Y291719D01*
X231666Y291721D01*
X231558Y291727D01*
X231449Y291736D01*
X231341Y291750D01*
X231234Y291767D01*
X231127Y291789D01*
X231021Y291814D01*
X230916Y291842D01*
X230812Y291875D01*
X230710Y291911D01*
X230609Y291951D01*
X230509Y291994D01*
X230411Y292041D01*
X230314Y292092D01*
X230220Y292146D01*
X230127Y292203D01*
X230037Y292263D01*
X229948Y292327D01*
X229862Y292394D01*
X229779Y292463D01*
X229698Y292536D01*
X229620Y292612D01*
X229544Y292690D01*
X229471Y292771D01*
X229402Y292854D01*
X229335Y292940D01*
X229271Y293029D01*
X229211Y293119D01*
X229154Y293212D01*
X229100Y293306D01*
X229049Y293403D01*
X229002Y293501D01*
X228959Y293601D01*
X228919Y293702D01*
X228883Y293804D01*
X228850Y293908D01*
X228822Y294013D01*
X228797Y294119D01*
X228775Y294226D01*
X228758Y294333D01*
X228744Y294441D01*
X228735Y294550D01*
X228729Y294658D01*
X228727Y294767D01*
D11*
X236855Y241554D02*
X236855Y236234D01*
X236853Y236145D01*
X236847Y236056D01*
X236837Y235967D01*
X236824Y235879D01*
X236807Y235791D01*
X236785Y235704D01*
X236760Y235619D01*
X236732Y235534D01*
X236699Y235451D01*
X236663Y235369D01*
X236624Y235289D01*
X236581Y235211D01*
X236535Y235135D01*
X236485Y235060D01*
X236432Y234988D01*
X236376Y234919D01*
X236317Y234852D01*
X236256Y234787D01*
X236191Y234726D01*
X236124Y234667D01*
X236055Y234611D01*
X235983Y234558D01*
X235908Y234508D01*
X235832Y234462D01*
X235754Y234419D01*
X235674Y234380D01*
X235592Y234344D01*
X235509Y234311D01*
X235424Y234283D01*
X235339Y234258D01*
X235252Y234236D01*
X235164Y234219D01*
X235076Y234206D01*
X234987Y234196D01*
X234898Y234190D01*
X234809Y234188D01*
X234720Y234190D01*
X234631Y234196D01*
X234542Y234206D01*
X234454Y234219D01*
X234366Y234236D01*
X234279Y234258D01*
X234194Y234283D01*
X234109Y234311D01*
X234026Y234344D01*
X233944Y234380D01*
X233864Y234419D01*
X233786Y234462D01*
X233710Y234508D01*
X233635Y234558D01*
X233563Y234611D01*
X233494Y234667D01*
X233427Y234726D01*
X233362Y234787D01*
X233301Y234852D01*
X233242Y234919D01*
X233186Y234988D01*
X233133Y235060D01*
X233083Y235135D01*
X233037Y235211D01*
X232994Y235289D01*
X232955Y235369D01*
X232919Y235451D01*
X232886Y235534D01*
X232858Y235619D01*
X232833Y235704D01*
X232811Y235791D01*
X232794Y235879D01*
X232781Y235967D01*
X232771Y236056D01*
X232765Y236145D01*
X232763Y236234D01*
X232763Y241554D01*
X229296Y234188D02*
X226841Y234188D01*
X226761Y234190D01*
X226681Y234196D01*
X226601Y234206D01*
X226522Y234219D01*
X226443Y234237D01*
X226366Y234258D01*
X226290Y234284D01*
X226215Y234313D01*
X226141Y234345D01*
X226069Y234381D01*
X225999Y234421D01*
X225932Y234464D01*
X225866Y234510D01*
X225803Y234560D01*
X225742Y234612D01*
X225683Y234667D01*
X225628Y234726D01*
X225576Y234786D01*
X225526Y234850D01*
X225480Y234915D01*
X225437Y234983D01*
X225397Y235053D01*
X225361Y235125D01*
X225329Y235199D01*
X225300Y235273D01*
X225275Y235350D01*
X225253Y235427D01*
X225235Y235506D01*
X225222Y235585D01*
X225212Y235664D01*
X225206Y235745D01*
X225204Y235825D01*
X225204Y236643D01*
X225206Y236721D01*
X225211Y236799D01*
X225221Y236876D01*
X225234Y236953D01*
X225250Y237029D01*
X225270Y237104D01*
X225294Y237178D01*
X225321Y237251D01*
X225352Y237323D01*
X225386Y237393D01*
X225423Y237462D01*
X225464Y237528D01*
X225508Y237593D01*
X225554Y237655D01*
X225604Y237715D01*
X225656Y237773D01*
X225711Y237828D01*
X225769Y237880D01*
X225829Y237930D01*
X225891Y237976D01*
X225956Y238020D01*
X226023Y238061D01*
X226091Y238098D01*
X226161Y238132D01*
X226233Y238163D01*
X226306Y238190D01*
X226380Y238214D01*
X226455Y238234D01*
X226531Y238250D01*
X226608Y238263D01*
X226685Y238273D01*
X226763Y238278D01*
X226841Y238280D01*
X229296Y238280D01*
X229296Y241554D01*
X225204Y241554D01*
M02*
