M48
;GenerationSoftware,Autodesk,EAGLE,9.5.0*%
;CreationDate,2019-12-17T23:40:09Z*%
FMAT,2
ICI,OFF
METRIC,TZ,000.000
T4C0.600
T3C0.900
T2C1.600
T1C3.200
%
G90
M71
T1
X18256Y4763
X18256Y58102
T2
X9208Y2699
X2857Y1905
X6826Y60960
X12382Y60166
X22860Y60960
X22860Y1905
T3
X11906Y47942
X11906Y50482
X9366Y51752
X11906Y53022
X5239Y27622
X5239Y13652
X2699Y14922
X2699Y12382
X5239Y11112
X2699Y7302
X5239Y6032
X5239Y8573
X2699Y9843
X2699Y28892
X2699Y26352
X5239Y25082
X2699Y21273
X5239Y20003
X5239Y22542
X2699Y23812
X5239Y41593
X2699Y42863
X2699Y40323
X5239Y39053
X2699Y35243
X5239Y33973
X5239Y36513
X2699Y37783
X5239Y55562
X2699Y56832
X2699Y54292
X5239Y53022
X2699Y49212
X5239Y47942
X5239Y50482
X2699Y51752
X11906Y13652
X9366Y14922
X9366Y12382
X11906Y11112
X9366Y7302
X11906Y6032
X11906Y8573
X9366Y9843
X11906Y27622
X9366Y28892
X9366Y26352
X11906Y25082
X9366Y21273
X11906Y20003
X11906Y22542
X9366Y23812
X11906Y41593
X9366Y40323
X11906Y39053
X9366Y35243
X11906Y33973
X11906Y36513
X9366Y37783
X11906Y55562
X9366Y56832
X9366Y54292
X9366Y42863
X9366Y49212
T4
X24130Y16828
X20638Y23812
X14922Y53022
X14922Y40323
X15557Y47942
X14922Y33973
X14922Y20003
X14922Y16510
X14922Y30480
X7302Y45402
M30