G04 EAGLE Gerber RS-274X export*
G75*
%MOMM*%
%FSLAX34Y34*%
%LPD*%
%INBottom layer*%
%IPPOS*%
%AMOC8*
5,1,8,0,0,1.08239X$1,22.5*%
G01*
%ADD10C,0.000000*%
%ADD11C,1.800000*%
%ADD12R,1.000000X1.100000*%
%ADD13R,1.100000X1.000000*%
%ADD14R,1.981200X0.558800*%
%ADD15P,1.732040X8X22.500000*%
%ADD16C,0.254000*%
%ADD17C,0.904800*%

G36*
X845494Y640098D02*
X845494Y640098D01*
X845633Y640111D01*
X845652Y640118D01*
X845672Y640121D01*
X845801Y640172D01*
X845932Y640219D01*
X845949Y640230D01*
X845968Y640238D01*
X846080Y640319D01*
X846195Y640397D01*
X846209Y640413D01*
X846225Y640424D01*
X846314Y640532D01*
X846406Y640636D01*
X846415Y640654D01*
X846428Y640669D01*
X846487Y640795D01*
X846550Y640919D01*
X846555Y640939D01*
X846564Y640957D01*
X846590Y641093D01*
X846620Y641229D01*
X846619Y641250D01*
X846623Y641269D01*
X846615Y641408D01*
X846610Y641547D01*
X846605Y641567D01*
X846604Y641587D01*
X846561Y641719D01*
X846522Y641853D01*
X846512Y641870D01*
X846506Y641889D01*
X846431Y642007D01*
X846360Y642127D01*
X846342Y642148D01*
X846335Y642158D01*
X846320Y642172D01*
X846254Y642247D01*
X843701Y644800D01*
X840644Y652181D01*
X840644Y660169D01*
X843701Y667550D01*
X849350Y673199D01*
X856731Y676256D01*
X864719Y676256D01*
X872100Y673199D01*
X877749Y667550D01*
X880806Y660169D01*
X880806Y652181D01*
X877749Y644800D01*
X875196Y642247D01*
X875111Y642138D01*
X875022Y642031D01*
X875013Y642012D01*
X875001Y641996D01*
X874946Y641868D01*
X874886Y641743D01*
X874883Y641723D01*
X874875Y641704D01*
X874853Y641566D01*
X874827Y641430D01*
X874828Y641410D01*
X874825Y641390D01*
X874838Y641251D01*
X874846Y641113D01*
X874853Y641094D01*
X874855Y641074D01*
X874902Y640942D01*
X874944Y640811D01*
X874955Y640793D01*
X874962Y640774D01*
X875040Y640659D01*
X875115Y640542D01*
X875129Y640528D01*
X875141Y640511D01*
X875245Y640419D01*
X875346Y640324D01*
X875364Y640314D01*
X875379Y640301D01*
X875503Y640237D01*
X875625Y640170D01*
X875644Y640165D01*
X875662Y640156D01*
X875798Y640126D01*
X875933Y640091D01*
X875961Y640089D01*
X875973Y640086D01*
X875993Y640087D01*
X876093Y640081D01*
X902507Y640081D01*
X902644Y640098D01*
X902783Y640111D01*
X902802Y640118D01*
X902822Y640121D01*
X902951Y640172D01*
X903082Y640219D01*
X903099Y640230D01*
X903118Y640238D01*
X903230Y640319D01*
X903345Y640397D01*
X903359Y640413D01*
X903375Y640424D01*
X903464Y640532D01*
X903556Y640636D01*
X903565Y640654D01*
X903578Y640669D01*
X903637Y640795D01*
X903700Y640919D01*
X903705Y640939D01*
X903714Y640957D01*
X903740Y641093D01*
X903770Y641229D01*
X903769Y641250D01*
X903773Y641269D01*
X903765Y641408D01*
X903760Y641547D01*
X903755Y641567D01*
X903754Y641587D01*
X903711Y641719D01*
X903672Y641853D01*
X903662Y641870D01*
X903656Y641889D01*
X903581Y642007D01*
X903510Y642127D01*
X903492Y642148D01*
X903485Y642158D01*
X903470Y642172D01*
X903404Y642247D01*
X900851Y644800D01*
X897794Y652181D01*
X897794Y660169D01*
X900851Y667550D01*
X906500Y673199D01*
X913881Y676256D01*
X921869Y676256D01*
X929250Y673199D01*
X934899Y667550D01*
X937956Y660169D01*
X937956Y652181D01*
X934899Y644800D01*
X932346Y642247D01*
X932261Y642138D01*
X932172Y642031D01*
X932163Y642012D01*
X932151Y641996D01*
X932096Y641868D01*
X932036Y641743D01*
X932033Y641723D01*
X932025Y641704D01*
X932003Y641566D01*
X931977Y641430D01*
X931978Y641410D01*
X931975Y641390D01*
X931988Y641251D01*
X931996Y641113D01*
X932003Y641094D01*
X932005Y641074D01*
X932052Y640942D01*
X932094Y640811D01*
X932105Y640793D01*
X932112Y640774D01*
X932190Y640659D01*
X932265Y640542D01*
X932279Y640528D01*
X932291Y640511D01*
X932395Y640419D01*
X932496Y640324D01*
X932514Y640314D01*
X932529Y640301D01*
X932653Y640237D01*
X932775Y640170D01*
X932794Y640165D01*
X932812Y640156D01*
X932948Y640126D01*
X933083Y640091D01*
X933111Y640089D01*
X933123Y640086D01*
X933143Y640087D01*
X933243Y640081D01*
X962025Y640081D01*
X962143Y640096D01*
X962262Y640103D01*
X962300Y640116D01*
X962341Y640121D01*
X962451Y640164D01*
X962564Y640201D01*
X962599Y640223D01*
X962636Y640238D01*
X962732Y640307D01*
X962833Y640371D01*
X962861Y640401D01*
X962894Y640424D01*
X962970Y640516D01*
X963051Y640603D01*
X963071Y640638D01*
X963096Y640669D01*
X963147Y640777D01*
X963205Y640881D01*
X963215Y640921D01*
X963232Y640957D01*
X963254Y641074D01*
X963284Y641189D01*
X963288Y641249D01*
X963292Y641269D01*
X963290Y641290D01*
X963294Y641350D01*
X963294Y908050D01*
X963279Y908168D01*
X963272Y908287D01*
X963259Y908325D01*
X963254Y908366D01*
X963211Y908476D01*
X963174Y908589D01*
X963152Y908624D01*
X963137Y908661D01*
X963068Y908757D01*
X963004Y908858D01*
X962974Y908886D01*
X962951Y908919D01*
X962859Y908995D01*
X962772Y909076D01*
X962737Y909096D01*
X962706Y909121D01*
X962598Y909172D01*
X962494Y909230D01*
X962454Y909240D01*
X962418Y909257D01*
X962301Y909279D01*
X962186Y909309D01*
X962126Y909313D01*
X962106Y909317D01*
X962085Y909315D01*
X962025Y909319D01*
X815975Y909319D01*
X815857Y909304D01*
X815738Y909297D01*
X815700Y909284D01*
X815659Y909279D01*
X815549Y909236D01*
X815436Y909199D01*
X815401Y909177D01*
X815364Y909162D01*
X815268Y909093D01*
X815167Y909029D01*
X815139Y908999D01*
X815106Y908976D01*
X815030Y908884D01*
X814949Y908797D01*
X814929Y908762D01*
X814904Y908731D01*
X814853Y908623D01*
X814795Y908519D01*
X814785Y908479D01*
X814768Y908443D01*
X814746Y908326D01*
X814716Y908211D01*
X814712Y908151D01*
X814708Y908131D01*
X814710Y908110D01*
X814706Y908050D01*
X814706Y641350D01*
X814721Y641232D01*
X814728Y641113D01*
X814741Y641075D01*
X814746Y641034D01*
X814789Y640924D01*
X814826Y640811D01*
X814848Y640776D01*
X814863Y640739D01*
X814932Y640643D01*
X814996Y640542D01*
X815026Y640514D01*
X815049Y640481D01*
X815141Y640405D01*
X815228Y640324D01*
X815263Y640304D01*
X815294Y640279D01*
X815402Y640228D01*
X815506Y640170D01*
X815546Y640160D01*
X815582Y640143D01*
X815699Y640121D01*
X815814Y640091D01*
X815874Y640087D01*
X815894Y640083D01*
X815915Y640085D01*
X815975Y640081D01*
X845357Y640081D01*
X845494Y640098D01*
G37*
%LPC*%
G36*
X902890Y703198D02*
X902890Y703198D01*
X901699Y704389D01*
X901699Y711661D01*
X902890Y712852D01*
X924386Y712852D01*
X924923Y712314D01*
X925018Y712241D01*
X925107Y712162D01*
X925143Y712144D01*
X925175Y712119D01*
X925284Y712072D01*
X925390Y712018D01*
X925429Y712009D01*
X925467Y711993D01*
X925584Y711974D01*
X925700Y711948D01*
X925741Y711949D01*
X925781Y711943D01*
X925899Y711954D01*
X926018Y711958D01*
X926057Y711969D01*
X926097Y711973D01*
X926210Y712013D01*
X926324Y712046D01*
X926358Y712067D01*
X926397Y712081D01*
X926495Y712147D01*
X926598Y712208D01*
X926643Y712248D01*
X926660Y712259D01*
X926673Y712274D01*
X926718Y712314D01*
X942476Y728071D01*
X942536Y728150D01*
X942604Y728222D01*
X942633Y728275D01*
X942670Y728323D01*
X942710Y728414D01*
X942758Y728500D01*
X942773Y728559D01*
X942797Y728614D01*
X942812Y728712D01*
X942837Y728808D01*
X942843Y728908D01*
X942847Y728928D01*
X942845Y728941D01*
X942847Y728969D01*
X942847Y802348D01*
X942832Y802466D01*
X942825Y802585D01*
X942812Y802623D01*
X942807Y802664D01*
X942764Y802774D01*
X942727Y802887D01*
X942705Y802922D01*
X942690Y802959D01*
X942621Y803055D01*
X942557Y803156D01*
X942527Y803184D01*
X942504Y803217D01*
X942412Y803293D01*
X942325Y803374D01*
X942290Y803394D01*
X942259Y803419D01*
X942151Y803470D01*
X942047Y803528D01*
X942007Y803538D01*
X941971Y803555D01*
X941854Y803577D01*
X941739Y803607D01*
X941679Y803611D01*
X941659Y803615D01*
X941638Y803613D01*
X941578Y803617D01*
X939808Y803617D01*
X938617Y804808D01*
X938617Y806078D01*
X938602Y806196D01*
X938595Y806315D01*
X938582Y806353D01*
X938577Y806394D01*
X938534Y806504D01*
X938497Y806617D01*
X938475Y806652D01*
X938460Y806689D01*
X938391Y806785D01*
X938327Y806886D01*
X938297Y806914D01*
X938274Y806947D01*
X938182Y807023D01*
X938095Y807104D01*
X938060Y807124D01*
X938029Y807149D01*
X937921Y807200D01*
X937817Y807258D01*
X937777Y807268D01*
X937741Y807285D01*
X937624Y807307D01*
X937509Y807337D01*
X937449Y807341D01*
X937429Y807345D01*
X937408Y807343D01*
X937348Y807347D01*
X931057Y807347D01*
X888004Y850401D01*
X887925Y850461D01*
X887853Y850529D01*
X887800Y850558D01*
X887752Y850595D01*
X887661Y850635D01*
X887575Y850683D01*
X887516Y850698D01*
X887461Y850722D01*
X887363Y850737D01*
X887267Y850762D01*
X887167Y850768D01*
X887146Y850772D01*
X887134Y850770D01*
X887106Y850772D01*
X875022Y850772D01*
X874993Y850769D01*
X874963Y850771D01*
X874835Y850749D01*
X874706Y850732D01*
X874679Y850722D01*
X874650Y850717D01*
X874531Y850663D01*
X874411Y850615D01*
X874387Y850598D01*
X874360Y850586D01*
X874258Y850505D01*
X874153Y850429D01*
X874134Y850406D01*
X874111Y850387D01*
X874033Y850284D01*
X873950Y850184D01*
X873938Y850157D01*
X873920Y850133D01*
X873849Y849989D01*
X872953Y847825D01*
X869850Y844722D01*
X865795Y843042D01*
X861405Y843042D01*
X857350Y844722D01*
X854247Y847825D01*
X852567Y851880D01*
X852567Y856270D01*
X854247Y860325D01*
X857350Y863428D01*
X861405Y865108D01*
X865795Y865108D01*
X869850Y863428D01*
X872953Y860325D01*
X873849Y858161D01*
X873864Y858136D01*
X873873Y858108D01*
X873942Y857998D01*
X874007Y857885D01*
X874027Y857864D01*
X874043Y857839D01*
X874138Y857750D01*
X874228Y857657D01*
X874253Y857641D01*
X874275Y857621D01*
X874388Y857558D01*
X874499Y857490D01*
X874527Y857482D01*
X874553Y857467D01*
X874679Y857435D01*
X874803Y857397D01*
X874832Y857395D01*
X874861Y857388D01*
X875022Y857378D01*
X890368Y857378D01*
X933421Y814324D01*
X933500Y814264D01*
X933572Y814196D01*
X933625Y814167D01*
X933673Y814130D01*
X933764Y814090D01*
X933850Y814042D01*
X933909Y814027D01*
X933964Y814003D01*
X934062Y813988D01*
X934158Y813963D01*
X934258Y813957D01*
X934279Y813953D01*
X934291Y813955D01*
X934319Y813953D01*
X937348Y813953D01*
X937466Y813968D01*
X937585Y813975D01*
X937623Y813988D01*
X937664Y813993D01*
X937774Y814036D01*
X937887Y814073D01*
X937922Y814095D01*
X937959Y814110D01*
X938055Y814179D01*
X938156Y814243D01*
X938184Y814273D01*
X938217Y814296D01*
X938293Y814388D01*
X938374Y814475D01*
X938394Y814510D01*
X938419Y814541D01*
X938470Y814649D01*
X938528Y814753D01*
X938538Y814793D01*
X938555Y814829D01*
X938577Y814946D01*
X938607Y815061D01*
X938611Y815121D01*
X938615Y815141D01*
X938614Y815153D01*
X938615Y815157D01*
X938614Y815169D01*
X938617Y815222D01*
X938617Y816492D01*
X939808Y817683D01*
X952492Y817683D01*
X953683Y816492D01*
X953683Y804808D01*
X952492Y803617D01*
X950722Y803617D01*
X950604Y803602D01*
X950485Y803595D01*
X950447Y803582D01*
X950406Y803577D01*
X950296Y803534D01*
X950183Y803497D01*
X950148Y803475D01*
X950111Y803460D01*
X950015Y803391D01*
X949914Y803327D01*
X949886Y803297D01*
X949853Y803274D01*
X949777Y803182D01*
X949696Y803095D01*
X949676Y803060D01*
X949651Y803029D01*
X949600Y802921D01*
X949542Y802817D01*
X949532Y802777D01*
X949515Y802741D01*
X949493Y802624D01*
X949463Y802509D01*
X949459Y802449D01*
X949455Y802429D01*
X949457Y802408D01*
X949453Y802348D01*
X949453Y725707D01*
X947147Y723401D01*
X947146Y723401D01*
X930774Y707029D01*
X928468Y704722D01*
X926436Y704722D01*
X926338Y704710D01*
X926238Y704707D01*
X926180Y704690D01*
X926120Y704682D01*
X926028Y704646D01*
X925933Y704618D01*
X925881Y704588D01*
X925824Y704565D01*
X925744Y704507D01*
X925659Y704457D01*
X925584Y704391D01*
X925567Y704379D01*
X925559Y704369D01*
X925538Y704351D01*
X924386Y703198D01*
X902890Y703198D01*
G37*
%LPD*%
%LPC*%
G36*
X853614Y690498D02*
X853614Y690498D01*
X852462Y691651D01*
X852383Y691711D01*
X852311Y691779D01*
X852258Y691808D01*
X852210Y691845D01*
X852120Y691885D01*
X852033Y691933D01*
X851974Y691948D01*
X851919Y691972D01*
X851821Y691987D01*
X851725Y692012D01*
X851625Y692018D01*
X851605Y692022D01*
X851592Y692020D01*
X851564Y692022D01*
X849532Y692022D01*
X828547Y713007D01*
X828547Y802348D01*
X828532Y802466D01*
X828525Y802585D01*
X828512Y802623D01*
X828507Y802664D01*
X828464Y802774D01*
X828427Y802887D01*
X828405Y802922D01*
X828390Y802959D01*
X828321Y803055D01*
X828257Y803156D01*
X828227Y803184D01*
X828204Y803217D01*
X828112Y803293D01*
X828025Y803374D01*
X827990Y803394D01*
X827959Y803419D01*
X827851Y803470D01*
X827747Y803528D01*
X827707Y803538D01*
X827671Y803555D01*
X827554Y803577D01*
X827439Y803607D01*
X827379Y803611D01*
X827359Y803615D01*
X827338Y803613D01*
X827278Y803617D01*
X825508Y803617D01*
X824317Y804808D01*
X824317Y816492D01*
X825508Y817683D01*
X838192Y817683D01*
X839383Y816492D01*
X839383Y815222D01*
X839398Y815104D01*
X839405Y814985D01*
X839418Y814947D01*
X839423Y814906D01*
X839466Y814796D01*
X839503Y814683D01*
X839525Y814648D01*
X839540Y814611D01*
X839609Y814515D01*
X839673Y814414D01*
X839703Y814386D01*
X839726Y814353D01*
X839818Y814277D01*
X839905Y814196D01*
X839940Y814176D01*
X839971Y814151D01*
X840079Y814100D01*
X840183Y814042D01*
X840223Y814032D01*
X840259Y814015D01*
X840376Y813993D01*
X840491Y813963D01*
X840551Y813959D01*
X840571Y813955D01*
X840592Y813957D01*
X840652Y813953D01*
X869081Y813953D01*
X869179Y813965D01*
X869278Y813968D01*
X869337Y813985D01*
X869397Y813993D01*
X869489Y814029D01*
X869584Y814057D01*
X869636Y814087D01*
X869692Y814110D01*
X869772Y814168D01*
X869858Y814218D01*
X869933Y814284D01*
X869950Y814296D01*
X869958Y814306D01*
X869960Y814308D01*
X869965Y814312D01*
X869967Y814314D01*
X869979Y814324D01*
X878588Y822934D01*
X878606Y822957D01*
X878629Y822976D01*
X878703Y823082D01*
X878783Y823185D01*
X878795Y823212D01*
X878812Y823236D01*
X878858Y823358D01*
X878909Y823477D01*
X878914Y823506D01*
X878925Y823534D01*
X878939Y823663D01*
X878959Y823791D01*
X878957Y823821D01*
X878960Y823850D01*
X878942Y823978D01*
X878930Y824108D01*
X878920Y824136D01*
X878915Y824165D01*
X878863Y824317D01*
X877967Y826480D01*
X877967Y830870D01*
X879647Y834925D01*
X882750Y838028D01*
X886805Y839708D01*
X891195Y839708D01*
X895250Y838028D01*
X898353Y834925D01*
X900033Y830870D01*
X900033Y826480D01*
X898353Y822425D01*
X895250Y819322D01*
X891195Y817642D01*
X886805Y817642D01*
X884642Y818538D01*
X884614Y818546D01*
X884587Y818560D01*
X884461Y818588D01*
X884335Y818622D01*
X884306Y818623D01*
X884277Y818629D01*
X884147Y818625D01*
X884017Y818627D01*
X883989Y818620D01*
X883959Y818620D01*
X883835Y818584D01*
X883708Y818553D01*
X883682Y818539D01*
X883654Y818531D01*
X883542Y818465D01*
X883427Y818404D01*
X883405Y818385D01*
X883380Y818370D01*
X883259Y818263D01*
X874649Y809654D01*
X872343Y807347D01*
X840652Y807347D01*
X840534Y807332D01*
X840415Y807325D01*
X840377Y807312D01*
X840336Y807307D01*
X840226Y807264D01*
X840113Y807227D01*
X840078Y807205D01*
X840041Y807190D01*
X839945Y807121D01*
X839844Y807057D01*
X839816Y807027D01*
X839783Y807004D01*
X839707Y806912D01*
X839626Y806825D01*
X839606Y806790D01*
X839581Y806759D01*
X839530Y806651D01*
X839472Y806547D01*
X839462Y806507D01*
X839445Y806471D01*
X839423Y806354D01*
X839393Y806239D01*
X839389Y806179D01*
X839385Y806159D01*
X839387Y806138D01*
X839383Y806078D01*
X839383Y804808D01*
X838192Y803617D01*
X836422Y803617D01*
X836304Y803602D01*
X836185Y803595D01*
X836147Y803582D01*
X836106Y803577D01*
X835996Y803534D01*
X835883Y803497D01*
X835848Y803475D01*
X835811Y803460D01*
X835715Y803391D01*
X835614Y803327D01*
X835586Y803297D01*
X835553Y803274D01*
X835477Y803182D01*
X835396Y803095D01*
X835376Y803060D01*
X835351Y803029D01*
X835300Y802921D01*
X835242Y802817D01*
X835232Y802777D01*
X835215Y802741D01*
X835193Y802624D01*
X835163Y802509D01*
X835159Y802449D01*
X835155Y802429D01*
X835157Y802408D01*
X835153Y802348D01*
X835153Y716269D01*
X835165Y716171D01*
X835168Y716072D01*
X835185Y716013D01*
X835193Y715953D01*
X835229Y715861D01*
X835257Y715766D01*
X835287Y715714D01*
X835310Y715658D01*
X835368Y715578D01*
X835418Y715492D01*
X835484Y715417D01*
X835496Y715400D01*
X835506Y715392D01*
X835524Y715371D01*
X851282Y699614D01*
X851376Y699541D01*
X851465Y699462D01*
X851501Y699444D01*
X851533Y699419D01*
X851642Y699372D01*
X851748Y699318D01*
X851787Y699309D01*
X851825Y699293D01*
X851943Y699274D01*
X852058Y699248D01*
X852099Y699249D01*
X852139Y699243D01*
X852257Y699254D01*
X852376Y699258D01*
X852415Y699269D01*
X852455Y699273D01*
X852567Y699313D01*
X852682Y699346D01*
X852717Y699367D01*
X852755Y699381D01*
X852853Y699447D01*
X852956Y699508D01*
X853001Y699548D01*
X853018Y699559D01*
X853031Y699574D01*
X853077Y699614D01*
X853614Y700152D01*
X875110Y700152D01*
X876301Y698961D01*
X876301Y691689D01*
X875110Y690498D01*
X853614Y690498D01*
G37*
%LPD*%
%LPC*%
G36*
X946149Y678846D02*
X946149Y678846D01*
X946105Y678956D01*
X946069Y679069D01*
X946047Y679104D01*
X946032Y679141D01*
X945962Y679237D01*
X945899Y679338D01*
X945869Y679366D01*
X945845Y679399D01*
X945754Y679475D01*
X945667Y679556D01*
X945632Y679576D01*
X945600Y679601D01*
X945493Y679652D01*
X945388Y679710D01*
X945349Y679720D01*
X945313Y679737D01*
X945196Y679759D01*
X945080Y679789D01*
X945020Y679793D01*
X945000Y679797D01*
X944980Y679795D01*
X944920Y679799D01*
X938609Y679799D01*
X938609Y683134D01*
X938782Y683781D01*
X939117Y684360D01*
X939590Y684833D01*
X939839Y684977D01*
X939939Y685053D01*
X940043Y685123D01*
X940065Y685149D01*
X940092Y685169D01*
X940170Y685268D01*
X940254Y685362D01*
X940269Y685392D01*
X940290Y685418D01*
X940341Y685533D01*
X940398Y685645D01*
X940406Y685678D01*
X940419Y685709D01*
X940440Y685833D01*
X940468Y685955D01*
X940467Y685989D01*
X940472Y686022D01*
X940462Y686148D01*
X940458Y686273D01*
X940449Y686306D01*
X940446Y686339D01*
X940405Y686458D01*
X940370Y686579D01*
X940353Y686608D01*
X940342Y686640D01*
X940272Y686744D01*
X940208Y686853D01*
X940176Y686889D01*
X940166Y686905D01*
X940150Y686919D01*
X940102Y686974D01*
X939117Y687958D01*
X939117Y690753D01*
X939102Y690871D01*
X939095Y690990D01*
X939082Y691028D01*
X939077Y691069D01*
X939034Y691179D01*
X938997Y691292D01*
X938975Y691327D01*
X938960Y691364D01*
X938891Y691460D01*
X938827Y691561D01*
X938797Y691589D01*
X938774Y691622D01*
X938682Y691698D01*
X938595Y691779D01*
X938560Y691799D01*
X938529Y691824D01*
X938421Y691875D01*
X938317Y691933D01*
X938277Y691943D01*
X938241Y691960D01*
X938124Y691982D01*
X938009Y692012D01*
X937949Y692016D01*
X937929Y692020D01*
X937908Y692018D01*
X937848Y692022D01*
X926436Y692022D01*
X926338Y692010D01*
X926238Y692007D01*
X926180Y691990D01*
X926120Y691982D01*
X926028Y691946D01*
X925933Y691918D01*
X925881Y691888D01*
X925824Y691865D01*
X925744Y691807D01*
X925659Y691757D01*
X925584Y691691D01*
X925567Y691679D01*
X925559Y691669D01*
X925538Y691651D01*
X924386Y690498D01*
X902890Y690498D01*
X901738Y691651D01*
X901660Y691711D01*
X901587Y691779D01*
X901534Y691808D01*
X901487Y691845D01*
X901396Y691885D01*
X901309Y691933D01*
X901250Y691948D01*
X901195Y691972D01*
X901097Y691987D01*
X901001Y692012D01*
X900901Y692018D01*
X900881Y692022D01*
X900868Y692020D01*
X900840Y692022D01*
X900332Y692022D01*
X892047Y700307D01*
X892047Y747493D01*
X894354Y749799D01*
X897722Y753168D01*
X897795Y753262D01*
X897874Y753351D01*
X897892Y753387D01*
X897917Y753419D01*
X897965Y753529D01*
X898019Y753635D01*
X898027Y753674D01*
X898044Y753711D01*
X898062Y753829D01*
X898088Y753945D01*
X898087Y753985D01*
X898093Y754025D01*
X898082Y754144D01*
X898079Y754263D01*
X898067Y754302D01*
X898064Y754342D01*
X898023Y754454D01*
X898016Y754478D01*
X898016Y762981D01*
X903894Y768859D01*
X912206Y768859D01*
X918084Y762981D01*
X918084Y754669D01*
X912206Y748791D01*
X903726Y748791D01*
X903721Y748794D01*
X903682Y748802D01*
X903645Y748818D01*
X903527Y748837D01*
X903411Y748863D01*
X903371Y748862D01*
X903331Y748868D01*
X903213Y748857D01*
X903093Y748854D01*
X903054Y748842D01*
X903014Y748839D01*
X902902Y748798D01*
X902788Y748765D01*
X902753Y748745D01*
X902715Y748731D01*
X902616Y748664D01*
X902514Y748604D01*
X902469Y748564D01*
X902452Y748553D01*
X902438Y748537D01*
X902393Y748497D01*
X899024Y745129D01*
X898964Y745050D01*
X898896Y744978D01*
X898867Y744925D01*
X898830Y744877D01*
X898790Y744786D01*
X898742Y744700D01*
X898727Y744641D01*
X898703Y744586D01*
X898688Y744488D01*
X898663Y744392D01*
X898657Y744292D01*
X898653Y744271D01*
X898655Y744259D01*
X898653Y744231D01*
X898653Y703569D01*
X898665Y703471D01*
X898668Y703372D01*
X898685Y703313D01*
X898693Y703253D01*
X898729Y703161D01*
X898757Y703066D01*
X898787Y703014D01*
X898810Y702958D01*
X898868Y702878D01*
X898918Y702792D01*
X898984Y702717D01*
X898996Y702700D01*
X899006Y702692D01*
X899024Y702671D01*
X901320Y700376D01*
X901414Y700303D01*
X901503Y700224D01*
X901539Y700206D01*
X901571Y700181D01*
X901680Y700134D01*
X901786Y700080D01*
X901826Y700071D01*
X901863Y700055D01*
X901981Y700036D01*
X902097Y700010D01*
X902137Y700011D01*
X902177Y700005D01*
X902296Y700016D01*
X902414Y700020D01*
X902453Y700031D01*
X902493Y700035D01*
X902605Y700075D01*
X902720Y700108D01*
X902755Y700129D01*
X902793Y700143D01*
X902806Y700152D01*
X924386Y700152D01*
X925538Y698999D01*
X925616Y698939D01*
X925689Y698871D01*
X925742Y698842D01*
X925789Y698805D01*
X925880Y698765D01*
X925967Y698717D01*
X926026Y698702D01*
X926081Y698678D01*
X926179Y698663D01*
X926275Y698638D01*
X926375Y698632D01*
X926395Y698628D01*
X926408Y698630D01*
X926436Y698628D01*
X937848Y698628D01*
X937966Y698643D01*
X938085Y698650D01*
X938123Y698663D01*
X938164Y698668D01*
X938274Y698711D01*
X938387Y698748D01*
X938422Y698770D01*
X938459Y698785D01*
X938555Y698854D01*
X938656Y698918D01*
X938684Y698948D01*
X938717Y698971D01*
X938793Y699063D01*
X938874Y699150D01*
X938894Y699185D01*
X938919Y699216D01*
X938970Y699324D01*
X939028Y699428D01*
X939038Y699468D01*
X939055Y699504D01*
X939077Y699621D01*
X939107Y699736D01*
X939111Y699796D01*
X939115Y699816D01*
X939113Y699837D01*
X939117Y699897D01*
X939117Y700642D01*
X940308Y701833D01*
X951992Y701833D01*
X953183Y700642D01*
X953183Y687958D01*
X952198Y686974D01*
X952121Y686874D01*
X952039Y686779D01*
X952024Y686749D01*
X952003Y686722D01*
X951953Y686607D01*
X951897Y686494D01*
X951890Y686461D01*
X951877Y686430D01*
X951857Y686306D01*
X951831Y686183D01*
X951832Y686150D01*
X951827Y686116D01*
X951839Y685991D01*
X951844Y685866D01*
X951854Y685833D01*
X951857Y685800D01*
X951899Y685681D01*
X951936Y685561D01*
X951953Y685532D01*
X951964Y685500D01*
X952035Y685396D01*
X952100Y685289D01*
X952124Y685265D01*
X952143Y685237D01*
X952237Y685154D01*
X952327Y685066D01*
X952368Y685039D01*
X952381Y685027D01*
X952401Y685017D01*
X952461Y684977D01*
X952710Y684833D01*
X953183Y684360D01*
X953518Y683781D01*
X953691Y683134D01*
X953691Y679799D01*
X947380Y679799D01*
X947262Y679784D01*
X947143Y679777D01*
X947105Y679764D01*
X947065Y679759D01*
X946954Y679716D01*
X946841Y679679D01*
X946807Y679657D01*
X946769Y679642D01*
X946673Y679573D01*
X946572Y679509D01*
X946544Y679479D01*
X946512Y679456D01*
X946436Y679364D01*
X946354Y679277D01*
X946335Y679242D01*
X946309Y679211D01*
X946258Y679103D01*
X946201Y678999D01*
X946191Y678959D01*
X946173Y678923D01*
X946153Y678816D01*
X946149Y678846D01*
G37*
%LPD*%
%LPC*%
G36*
X853614Y703198D02*
X853614Y703198D01*
X852423Y704389D01*
X852423Y711661D01*
X853614Y712852D01*
X859790Y712852D01*
X859908Y712867D01*
X860027Y712874D01*
X860065Y712887D01*
X860106Y712892D01*
X860216Y712935D01*
X860329Y712972D01*
X860364Y712994D01*
X860401Y713009D01*
X860497Y713078D01*
X860598Y713142D01*
X860626Y713172D01*
X860659Y713195D01*
X860735Y713287D01*
X860816Y713374D01*
X860836Y713409D01*
X860861Y713440D01*
X860912Y713548D01*
X860970Y713652D01*
X860980Y713692D01*
X860997Y713728D01*
X861019Y713845D01*
X861049Y713960D01*
X861053Y714020D01*
X861057Y714040D01*
X861055Y714061D01*
X861059Y714121D01*
X861059Y714629D01*
X861044Y714747D01*
X861037Y714866D01*
X861024Y714904D01*
X861019Y714945D01*
X860976Y715055D01*
X860939Y715168D01*
X860917Y715203D01*
X860902Y715240D01*
X860833Y715336D01*
X860769Y715437D01*
X860739Y715465D01*
X860716Y715498D01*
X860624Y715574D01*
X860537Y715655D01*
X860502Y715675D01*
X860471Y715700D01*
X860363Y715751D01*
X860259Y715809D01*
X860219Y715819D01*
X860183Y715836D01*
X860066Y715858D01*
X859951Y715888D01*
X859891Y715892D01*
X859871Y715896D01*
X859850Y715894D01*
X859790Y715898D01*
X853614Y715898D01*
X852423Y717089D01*
X852423Y717180D01*
X852411Y717278D01*
X852408Y717377D01*
X852391Y717436D01*
X852383Y717496D01*
X852347Y717588D01*
X852319Y717683D01*
X852289Y717735D01*
X852266Y717791D01*
X852208Y717871D01*
X852158Y717957D01*
X852092Y718032D01*
X852080Y718049D01*
X852070Y718057D01*
X852052Y718078D01*
X844422Y725707D01*
X844422Y779162D01*
X844410Y779260D01*
X844407Y779359D01*
X844390Y779418D01*
X844382Y779478D01*
X844346Y779570D01*
X844318Y779665D01*
X844288Y779717D01*
X844265Y779773D01*
X844207Y779854D01*
X844157Y779939D01*
X844091Y780014D01*
X844079Y780031D01*
X844069Y780039D01*
X844051Y780060D01*
X840866Y783244D01*
X840866Y791556D01*
X846744Y797434D01*
X855056Y797434D01*
X860934Y791556D01*
X860934Y783244D01*
X855056Y777366D01*
X852297Y777366D01*
X852179Y777351D01*
X852060Y777344D01*
X852022Y777331D01*
X851981Y777326D01*
X851871Y777283D01*
X851758Y777246D01*
X851723Y777224D01*
X851686Y777209D01*
X851590Y777140D01*
X851489Y777076D01*
X851461Y777046D01*
X851428Y777023D01*
X851352Y776931D01*
X851271Y776844D01*
X851251Y776809D01*
X851226Y776778D01*
X851175Y776670D01*
X851117Y776566D01*
X851107Y776526D01*
X851090Y776490D01*
X851068Y776373D01*
X851038Y776258D01*
X851034Y776198D01*
X851030Y776178D01*
X851032Y776157D01*
X851028Y776097D01*
X851028Y739372D01*
X851044Y739241D01*
X851055Y739109D01*
X851064Y739083D01*
X851068Y739056D01*
X851116Y738933D01*
X851160Y738808D01*
X851175Y738786D01*
X851185Y738761D01*
X851262Y738653D01*
X851336Y738543D01*
X851356Y738525D01*
X851371Y738503D01*
X851473Y738419D01*
X851572Y738330D01*
X851596Y738318D01*
X851616Y738300D01*
X851736Y738244D01*
X851853Y738183D01*
X851880Y738176D01*
X851904Y738165D01*
X852034Y738140D01*
X852163Y738110D01*
X852190Y738110D01*
X852216Y738105D01*
X852348Y738113D01*
X852481Y738116D01*
X852507Y738123D01*
X852534Y738125D01*
X852660Y738166D01*
X852787Y738201D01*
X852822Y738218D01*
X852836Y738223D01*
X852855Y738235D01*
X852932Y738273D01*
X853475Y738587D01*
X854122Y738760D01*
X862966Y738760D01*
X862966Y733552D01*
X862977Y733463D01*
X862976Y733458D01*
X862972Y733398D01*
X862968Y733378D01*
X862970Y733358D01*
X862966Y733298D01*
X862966Y728090D01*
X854445Y728090D01*
X854420Y728087D01*
X854396Y728089D01*
X854263Y728067D01*
X854129Y728050D01*
X854106Y728041D01*
X854082Y728037D01*
X853958Y727983D01*
X853834Y727933D01*
X853814Y727919D01*
X853791Y727909D01*
X853685Y727826D01*
X853576Y727747D01*
X853560Y727727D01*
X853541Y727712D01*
X853459Y727605D01*
X853373Y727502D01*
X853363Y727479D01*
X853348Y727460D01*
X853295Y727335D01*
X853238Y727214D01*
X853233Y727190D01*
X853223Y727167D01*
X853203Y727033D01*
X853178Y726902D01*
X853180Y726877D01*
X853176Y726852D01*
X853189Y726718D01*
X853198Y726584D01*
X853205Y726561D01*
X853208Y726536D01*
X853254Y726410D01*
X853296Y726282D01*
X853309Y726261D01*
X853318Y726237D01*
X853394Y726127D01*
X853466Y726013D01*
X853484Y725996D01*
X853498Y725976D01*
X853599Y725887D01*
X853698Y725795D01*
X853719Y725783D01*
X853738Y725767D01*
X853877Y725686D01*
X853929Y725668D01*
X853976Y725641D01*
X854078Y725615D01*
X854177Y725580D01*
X854231Y725576D01*
X854284Y725562D01*
X854445Y725552D01*
X875110Y725552D01*
X876301Y724361D01*
X876301Y717089D01*
X875110Y715898D01*
X868934Y715898D01*
X868816Y715883D01*
X868697Y715876D01*
X868659Y715863D01*
X868618Y715858D01*
X868508Y715815D01*
X868395Y715778D01*
X868360Y715756D01*
X868323Y715741D01*
X868227Y715672D01*
X868126Y715608D01*
X868098Y715578D01*
X868065Y715555D01*
X867989Y715463D01*
X867908Y715376D01*
X867888Y715341D01*
X867863Y715310D01*
X867812Y715202D01*
X867754Y715098D01*
X867744Y715058D01*
X867727Y715022D01*
X867705Y714905D01*
X867675Y714790D01*
X867671Y714730D01*
X867667Y714710D01*
X867669Y714689D01*
X867665Y714629D01*
X867665Y714121D01*
X867680Y714003D01*
X867687Y713884D01*
X867700Y713846D01*
X867705Y713805D01*
X867748Y713695D01*
X867785Y713582D01*
X867807Y713547D01*
X867822Y713510D01*
X867891Y713414D01*
X867955Y713313D01*
X867985Y713285D01*
X868008Y713252D01*
X868100Y713176D01*
X868187Y713095D01*
X868222Y713075D01*
X868253Y713050D01*
X868361Y712999D01*
X868465Y712941D01*
X868505Y712931D01*
X868541Y712914D01*
X868658Y712892D01*
X868773Y712862D01*
X868833Y712858D01*
X868853Y712854D01*
X868874Y712856D01*
X868934Y712852D01*
X875110Y712852D01*
X876301Y711661D01*
X876301Y704389D01*
X875110Y703198D01*
X853614Y703198D01*
G37*
%LPD*%
%LPC*%
G36*
X902890Y715898D02*
X902890Y715898D01*
X901699Y717089D01*
X901699Y724361D01*
X902890Y725552D01*
X909066Y725552D01*
X909184Y725567D01*
X909303Y725574D01*
X909341Y725587D01*
X909382Y725592D01*
X909492Y725635D01*
X909605Y725672D01*
X909640Y725694D01*
X909677Y725709D01*
X909773Y725778D01*
X909874Y725842D01*
X909902Y725872D01*
X909935Y725895D01*
X910011Y725987D01*
X910092Y726074D01*
X910112Y726109D01*
X910137Y726140D01*
X910188Y726248D01*
X910246Y726352D01*
X910256Y726392D01*
X910273Y726428D01*
X910295Y726545D01*
X910325Y726660D01*
X910329Y726720D01*
X910333Y726740D01*
X910331Y726761D01*
X910335Y726821D01*
X910335Y727329D01*
X910320Y727447D01*
X910313Y727566D01*
X910300Y727604D01*
X910295Y727645D01*
X910252Y727755D01*
X910215Y727868D01*
X910193Y727903D01*
X910178Y727940D01*
X910109Y728036D01*
X910045Y728137D01*
X910015Y728165D01*
X909992Y728198D01*
X909900Y728274D01*
X909813Y728355D01*
X909778Y728375D01*
X909747Y728400D01*
X909639Y728451D01*
X909535Y728509D01*
X909495Y728519D01*
X909459Y728536D01*
X909342Y728558D01*
X909227Y728588D01*
X909167Y728592D01*
X909147Y728596D01*
X909126Y728594D01*
X909066Y728598D01*
X902890Y728598D01*
X901699Y729789D01*
X901699Y737061D01*
X902890Y738252D01*
X909066Y738252D01*
X909184Y738267D01*
X909303Y738274D01*
X909341Y738287D01*
X909382Y738292D01*
X909492Y738335D01*
X909605Y738372D01*
X909640Y738394D01*
X909677Y738409D01*
X909773Y738478D01*
X909874Y738542D01*
X909902Y738572D01*
X909935Y738595D01*
X910011Y738687D01*
X910092Y738774D01*
X910112Y738809D01*
X910137Y738840D01*
X910188Y738948D01*
X910246Y739052D01*
X910256Y739092D01*
X910273Y739128D01*
X910295Y739245D01*
X910325Y739360D01*
X910329Y739420D01*
X910333Y739440D01*
X910331Y739461D01*
X910335Y739521D01*
X910335Y741143D01*
X923426Y754233D01*
X923486Y754312D01*
X923554Y754384D01*
X923583Y754437D01*
X923620Y754485D01*
X923660Y754576D01*
X923708Y754662D01*
X923723Y754721D01*
X923747Y754776D01*
X923762Y754874D01*
X923787Y754970D01*
X923793Y755070D01*
X923797Y755091D01*
X923795Y755103D01*
X923797Y755131D01*
X923797Y776097D01*
X923782Y776215D01*
X923775Y776334D01*
X923762Y776372D01*
X923757Y776413D01*
X923714Y776523D01*
X923677Y776636D01*
X923655Y776671D01*
X923640Y776708D01*
X923571Y776804D01*
X923507Y776905D01*
X923477Y776933D01*
X923454Y776966D01*
X923362Y777042D01*
X923275Y777123D01*
X923240Y777143D01*
X923209Y777168D01*
X923101Y777219D01*
X923079Y777231D01*
X917066Y783244D01*
X917066Y791556D01*
X922944Y797434D01*
X931256Y797434D01*
X937134Y791556D01*
X937134Y783244D01*
X931137Y777247D01*
X931133Y777246D01*
X931098Y777224D01*
X931061Y777209D01*
X930965Y777140D01*
X930864Y777076D01*
X930836Y777046D01*
X930803Y777023D01*
X930727Y776931D01*
X930646Y776844D01*
X930626Y776809D01*
X930601Y776778D01*
X930550Y776670D01*
X930492Y776566D01*
X930482Y776526D01*
X930465Y776490D01*
X930443Y776373D01*
X930413Y776258D01*
X930409Y776198D01*
X930405Y776178D01*
X930407Y776157D01*
X930403Y776097D01*
X930403Y751869D01*
X918952Y740418D01*
X918867Y740309D01*
X918778Y740202D01*
X918770Y740183D01*
X918757Y740167D01*
X918702Y740039D01*
X918643Y739914D01*
X918639Y739894D01*
X918631Y739875D01*
X918609Y739737D01*
X918583Y739601D01*
X918584Y739581D01*
X918581Y739561D01*
X918594Y739422D01*
X918603Y739284D01*
X918609Y739265D01*
X918611Y739245D01*
X918658Y739113D01*
X918701Y738982D01*
X918712Y738964D01*
X918719Y738945D01*
X918797Y738830D01*
X918871Y738713D01*
X918886Y738699D01*
X918897Y738682D01*
X919001Y738590D01*
X919103Y738495D01*
X919120Y738485D01*
X919136Y738472D01*
X919260Y738408D01*
X919381Y738341D01*
X919401Y738336D01*
X919419Y738327D01*
X919555Y738297D01*
X919689Y738262D01*
X919717Y738260D01*
X919729Y738257D01*
X919750Y738258D01*
X919850Y738252D01*
X924386Y738252D01*
X925577Y737061D01*
X925577Y729789D01*
X924386Y728598D01*
X918210Y728598D01*
X918092Y728583D01*
X917973Y728576D01*
X917935Y728563D01*
X917894Y728558D01*
X917784Y728515D01*
X917671Y728478D01*
X917636Y728456D01*
X917599Y728441D01*
X917503Y728372D01*
X917402Y728308D01*
X917374Y728278D01*
X917341Y728255D01*
X917265Y728163D01*
X917184Y728076D01*
X917164Y728041D01*
X917139Y728010D01*
X917088Y727902D01*
X917030Y727798D01*
X917020Y727758D01*
X917003Y727722D01*
X916981Y727605D01*
X916951Y727490D01*
X916947Y727430D01*
X916943Y727410D01*
X916945Y727389D01*
X916941Y727329D01*
X916941Y726821D01*
X916956Y726703D01*
X916963Y726584D01*
X916976Y726546D01*
X916981Y726505D01*
X917024Y726395D01*
X917061Y726282D01*
X917083Y726247D01*
X917098Y726210D01*
X917167Y726114D01*
X917231Y726013D01*
X917261Y725985D01*
X917284Y725952D01*
X917376Y725876D01*
X917463Y725795D01*
X917498Y725775D01*
X917529Y725750D01*
X917637Y725699D01*
X917741Y725641D01*
X917781Y725631D01*
X917817Y725614D01*
X917934Y725592D01*
X918049Y725562D01*
X918109Y725558D01*
X918129Y725554D01*
X918150Y725556D01*
X918210Y725552D01*
X924386Y725552D01*
X925577Y724361D01*
X925577Y717089D01*
X924386Y715898D01*
X902890Y715898D01*
G37*
%LPD*%
%LPC*%
G36*
X825508Y820617D02*
X825508Y820617D01*
X824317Y821808D01*
X824317Y833492D01*
X825508Y834683D01*
X827278Y834683D01*
X827396Y834698D01*
X827515Y834705D01*
X827553Y834718D01*
X827594Y834723D01*
X827704Y834766D01*
X827817Y834803D01*
X827852Y834825D01*
X827889Y834840D01*
X827985Y834909D01*
X828086Y834973D01*
X828114Y835003D01*
X828147Y835026D01*
X828223Y835118D01*
X828304Y835205D01*
X828324Y835240D01*
X828349Y835271D01*
X828400Y835379D01*
X828458Y835483D01*
X828468Y835523D01*
X828485Y835559D01*
X828507Y835676D01*
X828537Y835791D01*
X828541Y835851D01*
X828545Y835871D01*
X828543Y835892D01*
X828547Y835952D01*
X828547Y847579D01*
X828535Y847678D01*
X828532Y847777D01*
X828515Y847835D01*
X828507Y847895D01*
X828471Y847987D01*
X828443Y848082D01*
X828413Y848134D01*
X828390Y848191D01*
X828332Y848271D01*
X828282Y848356D01*
X828216Y848431D01*
X828204Y848448D01*
X828194Y848456D01*
X828176Y848477D01*
X826291Y850361D01*
X825293Y852771D01*
X825293Y855379D01*
X826291Y857789D01*
X828176Y859673D01*
X828236Y859751D01*
X828304Y859824D01*
X828333Y859877D01*
X828370Y859924D01*
X828410Y860015D01*
X828458Y860102D01*
X828473Y860161D01*
X828497Y860216D01*
X828512Y860314D01*
X828537Y860410D01*
X828543Y860510D01*
X828547Y860530D01*
X828545Y860543D01*
X828547Y860571D01*
X828547Y871698D01*
X828532Y871816D01*
X828525Y871935D01*
X828512Y871973D01*
X828507Y872014D01*
X828464Y872124D01*
X828427Y872237D01*
X828405Y872272D01*
X828390Y872309D01*
X828321Y872405D01*
X828257Y872506D01*
X828227Y872534D01*
X828204Y872567D01*
X828112Y872643D01*
X828025Y872724D01*
X827990Y872744D01*
X827959Y872769D01*
X827851Y872820D01*
X827747Y872878D01*
X827707Y872888D01*
X827671Y872905D01*
X827554Y872927D01*
X827439Y872957D01*
X827379Y872961D01*
X827359Y872965D01*
X827338Y872963D01*
X827278Y872967D01*
X826008Y872967D01*
X824817Y874158D01*
X824817Y886842D01*
X825802Y887826D01*
X825879Y887926D01*
X825961Y888021D01*
X825976Y888051D01*
X825997Y888078D01*
X826047Y888193D01*
X826103Y888306D01*
X826110Y888339D01*
X826123Y888370D01*
X826143Y888494D01*
X826169Y888617D01*
X826168Y888650D01*
X826173Y888684D01*
X826161Y888809D01*
X826156Y888934D01*
X826146Y888967D01*
X826143Y889000D01*
X826101Y889119D01*
X826064Y889239D01*
X826047Y889268D01*
X826036Y889300D01*
X825965Y889404D01*
X825900Y889511D01*
X825876Y889535D01*
X825857Y889563D01*
X825763Y889646D01*
X825673Y889734D01*
X825632Y889761D01*
X825619Y889773D01*
X825599Y889783D01*
X825539Y889823D01*
X825290Y889967D01*
X824817Y890440D01*
X824482Y891019D01*
X824309Y891666D01*
X824309Y895001D01*
X830620Y895001D01*
X830738Y895016D01*
X830857Y895023D01*
X830895Y895035D01*
X830935Y895041D01*
X831046Y895084D01*
X831159Y895121D01*
X831193Y895143D01*
X831231Y895158D01*
X831327Y895227D01*
X831428Y895291D01*
X831456Y895321D01*
X831488Y895344D01*
X831564Y895436D01*
X831646Y895523D01*
X831665Y895558D01*
X831691Y895589D01*
X831742Y895697D01*
X831799Y895801D01*
X831809Y895841D01*
X831827Y895877D01*
X831847Y895984D01*
X831851Y895954D01*
X831895Y895844D01*
X831931Y895731D01*
X831953Y895696D01*
X831968Y895659D01*
X832038Y895562D01*
X832101Y895462D01*
X832131Y895434D01*
X832155Y895401D01*
X832246Y895325D01*
X832333Y895244D01*
X832368Y895224D01*
X832400Y895199D01*
X832507Y895148D01*
X832612Y895090D01*
X832651Y895080D01*
X832687Y895063D01*
X832804Y895041D01*
X832920Y895011D01*
X832980Y895007D01*
X833000Y895003D01*
X833020Y895005D01*
X833080Y895001D01*
X839391Y895001D01*
X839391Y891666D01*
X839218Y891019D01*
X838883Y890440D01*
X838410Y889967D01*
X838161Y889823D01*
X838061Y889747D01*
X837957Y889677D01*
X837935Y889651D01*
X837908Y889631D01*
X837830Y889532D01*
X837746Y889438D01*
X837731Y889408D01*
X837710Y889382D01*
X837659Y889267D01*
X837602Y889155D01*
X837594Y889122D01*
X837581Y889091D01*
X837560Y888967D01*
X837532Y888845D01*
X837533Y888811D01*
X837528Y888778D01*
X837538Y888652D01*
X837542Y888527D01*
X837551Y888494D01*
X837554Y888461D01*
X837595Y888342D01*
X837630Y888221D01*
X837647Y888192D01*
X837658Y888160D01*
X837728Y888056D01*
X837792Y887947D01*
X837824Y887911D01*
X837834Y887895D01*
X837850Y887881D01*
X837898Y887826D01*
X838883Y886842D01*
X838883Y874158D01*
X837692Y872967D01*
X836422Y872967D01*
X836304Y872952D01*
X836185Y872945D01*
X836147Y872932D01*
X836106Y872927D01*
X835996Y872884D01*
X835883Y872847D01*
X835848Y872825D01*
X835811Y872810D01*
X835715Y872741D01*
X835614Y872677D01*
X835586Y872647D01*
X835553Y872624D01*
X835477Y872532D01*
X835396Y872445D01*
X835376Y872410D01*
X835351Y872379D01*
X835300Y872271D01*
X835242Y872167D01*
X835232Y872127D01*
X835215Y872091D01*
X835193Y871974D01*
X835163Y871859D01*
X835159Y871799D01*
X835155Y871779D01*
X835157Y871758D01*
X835153Y871698D01*
X835153Y860571D01*
X835165Y860472D01*
X835168Y860373D01*
X835185Y860315D01*
X835193Y860255D01*
X835229Y860163D01*
X835257Y860068D01*
X835287Y860016D01*
X835310Y859959D01*
X835368Y859879D01*
X835418Y859794D01*
X835484Y859719D01*
X835496Y859702D01*
X835506Y859694D01*
X835524Y859673D01*
X837409Y857789D01*
X838407Y855379D01*
X838407Y852771D01*
X837409Y850361D01*
X835524Y848477D01*
X835464Y848399D01*
X835396Y848326D01*
X835367Y848273D01*
X835330Y848226D01*
X835290Y848135D01*
X835242Y848048D01*
X835227Y847989D01*
X835203Y847934D01*
X835188Y847836D01*
X835163Y847740D01*
X835157Y847640D01*
X835153Y847620D01*
X835155Y847607D01*
X835153Y847579D01*
X835153Y835952D01*
X835168Y835834D01*
X835175Y835715D01*
X835188Y835677D01*
X835193Y835636D01*
X835236Y835526D01*
X835273Y835413D01*
X835295Y835378D01*
X835310Y835341D01*
X835379Y835245D01*
X835443Y835144D01*
X835473Y835116D01*
X835496Y835083D01*
X835588Y835007D01*
X835675Y834926D01*
X835710Y834906D01*
X835741Y834881D01*
X835849Y834830D01*
X835953Y834772D01*
X835993Y834762D01*
X836029Y834745D01*
X836146Y834723D01*
X836261Y834693D01*
X836321Y834689D01*
X836341Y834685D01*
X836362Y834687D01*
X836422Y834683D01*
X838192Y834683D01*
X839383Y833492D01*
X839383Y821808D01*
X838192Y820617D01*
X825508Y820617D01*
G37*
%LPD*%
%LPC*%
G36*
X912205Y843042D02*
X912205Y843042D01*
X908150Y844722D01*
X905047Y847825D01*
X903367Y851880D01*
X903367Y856270D01*
X905047Y860325D01*
X908150Y863428D01*
X912205Y865108D01*
X916595Y865108D01*
X920650Y863428D01*
X923753Y860325D01*
X925433Y856270D01*
X925433Y851880D01*
X923753Y847825D01*
X920650Y844722D01*
X916595Y843042D01*
X912205Y843042D01*
G37*
%LPD*%
%LPC*%
G36*
X939808Y820617D02*
X939808Y820617D01*
X938617Y821808D01*
X938617Y833492D01*
X939808Y834683D01*
X941578Y834683D01*
X941696Y834698D01*
X941815Y834705D01*
X941853Y834718D01*
X941894Y834723D01*
X942004Y834766D01*
X942117Y834803D01*
X942152Y834825D01*
X942189Y834840D01*
X942285Y834909D01*
X942386Y834973D01*
X942414Y835003D01*
X942447Y835026D01*
X942523Y835118D01*
X942604Y835205D01*
X942624Y835240D01*
X942649Y835271D01*
X942700Y835379D01*
X942758Y835483D01*
X942768Y835523D01*
X942785Y835559D01*
X942807Y835676D01*
X942837Y835791D01*
X942841Y835851D01*
X942845Y835871D01*
X942843Y835892D01*
X942847Y835952D01*
X942847Y838054D01*
X942835Y838153D01*
X942832Y838252D01*
X942815Y838310D01*
X942807Y838370D01*
X942771Y838462D01*
X942743Y838557D01*
X942713Y838609D01*
X942690Y838666D01*
X942632Y838746D01*
X942582Y838831D01*
X942516Y838906D01*
X942504Y838923D01*
X942494Y838931D01*
X942476Y838952D01*
X940591Y840836D01*
X939593Y843246D01*
X939593Y845854D01*
X940591Y848264D01*
X942436Y850109D01*
X944846Y851107D01*
X947454Y851107D01*
X949864Y850109D01*
X951709Y848264D01*
X952707Y845854D01*
X952707Y843246D01*
X951709Y840836D01*
X949824Y838952D01*
X949764Y838874D01*
X949696Y838801D01*
X949667Y838748D01*
X949630Y838701D01*
X949590Y838610D01*
X949542Y838523D01*
X949527Y838464D01*
X949503Y838409D01*
X949488Y838311D01*
X949463Y838215D01*
X949457Y838115D01*
X949453Y838095D01*
X949455Y838082D01*
X949453Y838054D01*
X949453Y835952D01*
X949468Y835834D01*
X949475Y835715D01*
X949488Y835677D01*
X949493Y835636D01*
X949536Y835526D01*
X949573Y835413D01*
X949595Y835378D01*
X949610Y835341D01*
X949679Y835245D01*
X949743Y835144D01*
X949773Y835116D01*
X949796Y835083D01*
X949888Y835007D01*
X949975Y834926D01*
X950010Y834906D01*
X950041Y834881D01*
X950149Y834830D01*
X950253Y834772D01*
X950293Y834762D01*
X950329Y834745D01*
X950446Y834723D01*
X950561Y834693D01*
X950621Y834689D01*
X950641Y834685D01*
X950662Y834687D01*
X950722Y834683D01*
X952492Y834683D01*
X953683Y833492D01*
X953683Y821808D01*
X952492Y820617D01*
X939808Y820617D01*
G37*
%LPD*%
%LPC*%
G36*
X865794Y748791D02*
X865794Y748791D01*
X859916Y754669D01*
X859916Y762981D01*
X865794Y768859D01*
X874106Y768859D01*
X879984Y762981D01*
X879984Y754669D01*
X874106Y748791D01*
X865794Y748791D01*
G37*
%LPD*%
%LPC*%
G36*
X891539Y882014D02*
X891539Y882014D01*
X891539Y890757D01*
X891703Y890732D01*
X893430Y890170D01*
X895049Y889346D01*
X895391Y889097D01*
X896518Y888278D01*
X897803Y886993D01*
X898871Y885524D01*
X899695Y883905D01*
X900257Y882178D01*
X900282Y882014D01*
X891539Y882014D01*
G37*
%LPD*%
%LPC*%
G36*
X877718Y882014D02*
X877718Y882014D01*
X877743Y882178D01*
X878305Y883905D01*
X879129Y885524D01*
X880197Y886993D01*
X881482Y888278D01*
X882951Y889346D01*
X884570Y890170D01*
X886297Y890732D01*
X886461Y890757D01*
X886461Y882014D01*
X877718Y882014D01*
G37*
%LPD*%
%LPC*%
G36*
X891539Y876936D02*
X891539Y876936D01*
X900282Y876936D01*
X900257Y876772D01*
X899695Y875045D01*
X898871Y873426D01*
X897803Y871957D01*
X896518Y870672D01*
X895049Y869604D01*
X893430Y868780D01*
X891703Y868218D01*
X891539Y868193D01*
X891539Y876936D01*
G37*
%LPD*%
%LPC*%
G36*
X886297Y868218D02*
X886297Y868218D01*
X884570Y868780D01*
X882951Y869604D01*
X881482Y870672D01*
X880197Y871957D01*
X879129Y873426D01*
X878305Y875045D01*
X877743Y876772D01*
X877718Y876936D01*
X886461Y876936D01*
X886461Y868193D01*
X886297Y868218D01*
G37*
%LPD*%
%LPC*%
G36*
X891285Y789685D02*
X891285Y789685D01*
X891285Y797942D01*
X893367Y797942D01*
X899542Y791767D01*
X899542Y789685D01*
X891285Y789685D01*
G37*
%LPD*%
%LPC*%
G36*
X878458Y789685D02*
X878458Y789685D01*
X878458Y791767D01*
X884633Y797942D01*
X886715Y797942D01*
X886715Y789685D01*
X878458Y789685D01*
G37*
%LPD*%
%LPC*%
G36*
X891285Y776858D02*
X891285Y776858D01*
X891285Y785115D01*
X899542Y785115D01*
X899542Y783033D01*
X893367Y776858D01*
X891285Y776858D01*
G37*
%LPD*%
%LPC*%
G36*
X884633Y776858D02*
X884633Y776858D01*
X878458Y783033D01*
X878458Y785115D01*
X886715Y785115D01*
X886715Y776858D01*
X884633Y776858D01*
G37*
%LPD*%
%LPC*%
G36*
X865758Y734821D02*
X865758Y734821D01*
X865758Y738760D01*
X874602Y738760D01*
X875249Y738587D01*
X875828Y738252D01*
X876301Y737779D01*
X876636Y737200D01*
X876809Y736553D01*
X876809Y734821D01*
X865758Y734821D01*
G37*
%LPD*%
%LPC*%
G36*
X865758Y728090D02*
X865758Y728090D01*
X865758Y732029D01*
X876809Y732029D01*
X876809Y730297D01*
X876636Y729650D01*
X876301Y729071D01*
X875828Y728598D01*
X875249Y728263D01*
X874602Y728090D01*
X865758Y728090D01*
G37*
%LPD*%
%LPC*%
G36*
X834349Y899999D02*
X834349Y899999D01*
X834349Y905541D01*
X837184Y905541D01*
X837831Y905368D01*
X838410Y905033D01*
X838883Y904560D01*
X839218Y903981D01*
X839391Y903334D01*
X839391Y899999D01*
X834349Y899999D01*
G37*
%LPD*%
%LPC*%
G36*
X948649Y669259D02*
X948649Y669259D01*
X948649Y674801D01*
X953691Y674801D01*
X953691Y671466D01*
X953518Y670819D01*
X953183Y670240D01*
X952710Y669767D01*
X952131Y669432D01*
X951484Y669259D01*
X948649Y669259D01*
G37*
%LPD*%
%LPC*%
G36*
X824309Y899999D02*
X824309Y899999D01*
X824309Y903334D01*
X824482Y903981D01*
X824817Y904560D01*
X825290Y905033D01*
X825869Y905368D01*
X826516Y905541D01*
X829351Y905541D01*
X829351Y899999D01*
X824309Y899999D01*
G37*
%LPD*%
%LPC*%
G36*
X940816Y669259D02*
X940816Y669259D01*
X940169Y669432D01*
X939590Y669767D01*
X939117Y670240D01*
X938782Y670819D01*
X938609Y671466D01*
X938609Y674801D01*
X943651Y674801D01*
X943651Y669259D01*
X940816Y669259D01*
G37*
%LPD*%
%LPC*%
G36*
X888999Y879474D02*
X888999Y879474D01*
X888999Y879476D01*
X889001Y879476D01*
X889001Y879474D01*
X888999Y879474D01*
G37*
%LPD*%
D10*
X845725Y656175D02*
X845730Y656543D01*
X845743Y656911D01*
X845766Y657278D01*
X845797Y657645D01*
X845838Y658011D01*
X845887Y658376D01*
X845946Y658739D01*
X846013Y659101D01*
X846089Y659462D01*
X846175Y659820D01*
X846268Y660176D01*
X846371Y660529D01*
X846482Y660880D01*
X846602Y661228D01*
X846730Y661573D01*
X846867Y661915D01*
X847012Y662254D01*
X847165Y662588D01*
X847327Y662919D01*
X847496Y663246D01*
X847674Y663568D01*
X847859Y663887D01*
X848052Y664200D01*
X848253Y664509D01*
X848461Y664812D01*
X848677Y665110D01*
X848900Y665403D01*
X849130Y665691D01*
X849367Y665973D01*
X849611Y666248D01*
X849861Y666518D01*
X850118Y666782D01*
X850382Y667039D01*
X850652Y667289D01*
X850927Y667533D01*
X851209Y667770D01*
X851497Y668000D01*
X851790Y668223D01*
X852088Y668439D01*
X852391Y668647D01*
X852700Y668848D01*
X853013Y669041D01*
X853332Y669226D01*
X853654Y669404D01*
X853981Y669573D01*
X854312Y669735D01*
X854646Y669888D01*
X854985Y670033D01*
X855327Y670170D01*
X855672Y670298D01*
X856020Y670418D01*
X856371Y670529D01*
X856724Y670632D01*
X857080Y670725D01*
X857438Y670811D01*
X857799Y670887D01*
X858161Y670954D01*
X858524Y671013D01*
X858889Y671062D01*
X859255Y671103D01*
X859622Y671134D01*
X859989Y671157D01*
X860357Y671170D01*
X860725Y671175D01*
X861093Y671170D01*
X861461Y671157D01*
X861828Y671134D01*
X862195Y671103D01*
X862561Y671062D01*
X862926Y671013D01*
X863289Y670954D01*
X863651Y670887D01*
X864012Y670811D01*
X864370Y670725D01*
X864726Y670632D01*
X865079Y670529D01*
X865430Y670418D01*
X865778Y670298D01*
X866123Y670170D01*
X866465Y670033D01*
X866804Y669888D01*
X867138Y669735D01*
X867469Y669573D01*
X867796Y669404D01*
X868118Y669226D01*
X868437Y669041D01*
X868750Y668848D01*
X869059Y668647D01*
X869362Y668439D01*
X869660Y668223D01*
X869953Y668000D01*
X870241Y667770D01*
X870523Y667533D01*
X870798Y667289D01*
X871068Y667039D01*
X871332Y666782D01*
X871589Y666518D01*
X871839Y666248D01*
X872083Y665973D01*
X872320Y665691D01*
X872550Y665403D01*
X872773Y665110D01*
X872989Y664812D01*
X873197Y664509D01*
X873398Y664200D01*
X873591Y663887D01*
X873776Y663568D01*
X873954Y663246D01*
X874123Y662919D01*
X874285Y662588D01*
X874438Y662254D01*
X874583Y661915D01*
X874720Y661573D01*
X874848Y661228D01*
X874968Y660880D01*
X875079Y660529D01*
X875182Y660176D01*
X875275Y659820D01*
X875361Y659462D01*
X875437Y659101D01*
X875504Y658739D01*
X875563Y658376D01*
X875612Y658011D01*
X875653Y657645D01*
X875684Y657278D01*
X875707Y656911D01*
X875720Y656543D01*
X875725Y656175D01*
X875720Y655807D01*
X875707Y655439D01*
X875684Y655072D01*
X875653Y654705D01*
X875612Y654339D01*
X875563Y653974D01*
X875504Y653611D01*
X875437Y653249D01*
X875361Y652888D01*
X875275Y652530D01*
X875182Y652174D01*
X875079Y651821D01*
X874968Y651470D01*
X874848Y651122D01*
X874720Y650777D01*
X874583Y650435D01*
X874438Y650096D01*
X874285Y649762D01*
X874123Y649431D01*
X873954Y649104D01*
X873776Y648782D01*
X873591Y648463D01*
X873398Y648150D01*
X873197Y647841D01*
X872989Y647538D01*
X872773Y647240D01*
X872550Y646947D01*
X872320Y646659D01*
X872083Y646377D01*
X871839Y646102D01*
X871589Y645832D01*
X871332Y645568D01*
X871068Y645311D01*
X870798Y645061D01*
X870523Y644817D01*
X870241Y644580D01*
X869953Y644350D01*
X869660Y644127D01*
X869362Y643911D01*
X869059Y643703D01*
X868750Y643502D01*
X868437Y643309D01*
X868118Y643124D01*
X867796Y642946D01*
X867469Y642777D01*
X867138Y642615D01*
X866804Y642462D01*
X866465Y642317D01*
X866123Y642180D01*
X865778Y642052D01*
X865430Y641932D01*
X865079Y641821D01*
X864726Y641718D01*
X864370Y641625D01*
X864012Y641539D01*
X863651Y641463D01*
X863289Y641396D01*
X862926Y641337D01*
X862561Y641288D01*
X862195Y641247D01*
X861828Y641216D01*
X861461Y641193D01*
X861093Y641180D01*
X860725Y641175D01*
X860357Y641180D01*
X859989Y641193D01*
X859622Y641216D01*
X859255Y641247D01*
X858889Y641288D01*
X858524Y641337D01*
X858161Y641396D01*
X857799Y641463D01*
X857438Y641539D01*
X857080Y641625D01*
X856724Y641718D01*
X856371Y641821D01*
X856020Y641932D01*
X855672Y642052D01*
X855327Y642180D01*
X854985Y642317D01*
X854646Y642462D01*
X854312Y642615D01*
X853981Y642777D01*
X853654Y642946D01*
X853332Y643124D01*
X853013Y643309D01*
X852700Y643502D01*
X852391Y643703D01*
X852088Y643911D01*
X851790Y644127D01*
X851497Y644350D01*
X851209Y644580D01*
X850927Y644817D01*
X850652Y645061D01*
X850382Y645311D01*
X850118Y645568D01*
X849861Y645832D01*
X849611Y646102D01*
X849367Y646377D01*
X849130Y646659D01*
X848900Y646947D01*
X848677Y647240D01*
X848461Y647538D01*
X848253Y647841D01*
X848052Y648150D01*
X847859Y648463D01*
X847674Y648782D01*
X847496Y649104D01*
X847327Y649431D01*
X847165Y649762D01*
X847012Y650096D01*
X846867Y650435D01*
X846730Y650777D01*
X846602Y651122D01*
X846482Y651470D01*
X846371Y651821D01*
X846268Y652174D01*
X846175Y652530D01*
X846089Y652888D01*
X846013Y653249D01*
X845946Y653611D01*
X845887Y653974D01*
X845838Y654339D01*
X845797Y654705D01*
X845766Y655072D01*
X845743Y655439D01*
X845730Y655807D01*
X845725Y656175D01*
X902875Y656175D02*
X902880Y656543D01*
X902893Y656911D01*
X902916Y657278D01*
X902947Y657645D01*
X902988Y658011D01*
X903037Y658376D01*
X903096Y658739D01*
X903163Y659101D01*
X903239Y659462D01*
X903325Y659820D01*
X903418Y660176D01*
X903521Y660529D01*
X903632Y660880D01*
X903752Y661228D01*
X903880Y661573D01*
X904017Y661915D01*
X904162Y662254D01*
X904315Y662588D01*
X904477Y662919D01*
X904646Y663246D01*
X904824Y663568D01*
X905009Y663887D01*
X905202Y664200D01*
X905403Y664509D01*
X905611Y664812D01*
X905827Y665110D01*
X906050Y665403D01*
X906280Y665691D01*
X906517Y665973D01*
X906761Y666248D01*
X907011Y666518D01*
X907268Y666782D01*
X907532Y667039D01*
X907802Y667289D01*
X908077Y667533D01*
X908359Y667770D01*
X908647Y668000D01*
X908940Y668223D01*
X909238Y668439D01*
X909541Y668647D01*
X909850Y668848D01*
X910163Y669041D01*
X910482Y669226D01*
X910804Y669404D01*
X911131Y669573D01*
X911462Y669735D01*
X911796Y669888D01*
X912135Y670033D01*
X912477Y670170D01*
X912822Y670298D01*
X913170Y670418D01*
X913521Y670529D01*
X913874Y670632D01*
X914230Y670725D01*
X914588Y670811D01*
X914949Y670887D01*
X915311Y670954D01*
X915674Y671013D01*
X916039Y671062D01*
X916405Y671103D01*
X916772Y671134D01*
X917139Y671157D01*
X917507Y671170D01*
X917875Y671175D01*
X918243Y671170D01*
X918611Y671157D01*
X918978Y671134D01*
X919345Y671103D01*
X919711Y671062D01*
X920076Y671013D01*
X920439Y670954D01*
X920801Y670887D01*
X921162Y670811D01*
X921520Y670725D01*
X921876Y670632D01*
X922229Y670529D01*
X922580Y670418D01*
X922928Y670298D01*
X923273Y670170D01*
X923615Y670033D01*
X923954Y669888D01*
X924288Y669735D01*
X924619Y669573D01*
X924946Y669404D01*
X925268Y669226D01*
X925587Y669041D01*
X925900Y668848D01*
X926209Y668647D01*
X926512Y668439D01*
X926810Y668223D01*
X927103Y668000D01*
X927391Y667770D01*
X927673Y667533D01*
X927948Y667289D01*
X928218Y667039D01*
X928482Y666782D01*
X928739Y666518D01*
X928989Y666248D01*
X929233Y665973D01*
X929470Y665691D01*
X929700Y665403D01*
X929923Y665110D01*
X930139Y664812D01*
X930347Y664509D01*
X930548Y664200D01*
X930741Y663887D01*
X930926Y663568D01*
X931104Y663246D01*
X931273Y662919D01*
X931435Y662588D01*
X931588Y662254D01*
X931733Y661915D01*
X931870Y661573D01*
X931998Y661228D01*
X932118Y660880D01*
X932229Y660529D01*
X932332Y660176D01*
X932425Y659820D01*
X932511Y659462D01*
X932587Y659101D01*
X932654Y658739D01*
X932713Y658376D01*
X932762Y658011D01*
X932803Y657645D01*
X932834Y657278D01*
X932857Y656911D01*
X932870Y656543D01*
X932875Y656175D01*
X932870Y655807D01*
X932857Y655439D01*
X932834Y655072D01*
X932803Y654705D01*
X932762Y654339D01*
X932713Y653974D01*
X932654Y653611D01*
X932587Y653249D01*
X932511Y652888D01*
X932425Y652530D01*
X932332Y652174D01*
X932229Y651821D01*
X932118Y651470D01*
X931998Y651122D01*
X931870Y650777D01*
X931733Y650435D01*
X931588Y650096D01*
X931435Y649762D01*
X931273Y649431D01*
X931104Y649104D01*
X930926Y648782D01*
X930741Y648463D01*
X930548Y648150D01*
X930347Y647841D01*
X930139Y647538D01*
X929923Y647240D01*
X929700Y646947D01*
X929470Y646659D01*
X929233Y646377D01*
X928989Y646102D01*
X928739Y645832D01*
X928482Y645568D01*
X928218Y645311D01*
X927948Y645061D01*
X927673Y644817D01*
X927391Y644580D01*
X927103Y644350D01*
X926810Y644127D01*
X926512Y643911D01*
X926209Y643703D01*
X925900Y643502D01*
X925587Y643309D01*
X925268Y643124D01*
X924946Y642946D01*
X924619Y642777D01*
X924288Y642615D01*
X923954Y642462D01*
X923615Y642317D01*
X923273Y642180D01*
X922928Y642052D01*
X922580Y641932D01*
X922229Y641821D01*
X921876Y641718D01*
X921520Y641625D01*
X921162Y641539D01*
X920801Y641463D01*
X920439Y641396D01*
X920076Y641337D01*
X919711Y641288D01*
X919345Y641247D01*
X918978Y641216D01*
X918611Y641193D01*
X918243Y641180D01*
X917875Y641175D01*
X917507Y641180D01*
X917139Y641193D01*
X916772Y641216D01*
X916405Y641247D01*
X916039Y641288D01*
X915674Y641337D01*
X915311Y641396D01*
X914949Y641463D01*
X914588Y641539D01*
X914230Y641625D01*
X913874Y641718D01*
X913521Y641821D01*
X913170Y641932D01*
X912822Y642052D01*
X912477Y642180D01*
X912135Y642317D01*
X911796Y642462D01*
X911462Y642615D01*
X911131Y642777D01*
X910804Y642946D01*
X910482Y643124D01*
X910163Y643309D01*
X909850Y643502D01*
X909541Y643703D01*
X909238Y643911D01*
X908940Y644127D01*
X908647Y644350D01*
X908359Y644580D01*
X908077Y644817D01*
X907802Y645061D01*
X907532Y645311D01*
X907268Y645568D01*
X907011Y645832D01*
X906761Y646102D01*
X906517Y646377D01*
X906280Y646659D01*
X906050Y646947D01*
X905827Y647240D01*
X905611Y647538D01*
X905403Y647841D01*
X905202Y648150D01*
X905009Y648463D01*
X904824Y648782D01*
X904646Y649104D01*
X904477Y649431D01*
X904315Y649762D01*
X904162Y650096D01*
X904017Y650435D01*
X903880Y650777D01*
X903752Y651122D01*
X903632Y651470D01*
X903521Y651821D01*
X903418Y652174D01*
X903325Y652530D01*
X903239Y652888D01*
X903163Y653249D01*
X903096Y653611D01*
X903037Y653974D01*
X902988Y654339D01*
X902947Y654705D01*
X902916Y655072D01*
X902893Y655439D01*
X902880Y655807D01*
X902875Y656175D01*
X968375Y914400D02*
X809625Y914400D01*
X809625Y635000D01*
X968375Y635000D02*
X968375Y914400D01*
X968375Y635000D02*
X809625Y635000D01*
D11*
X863600Y854075D03*
X889000Y828675D03*
X914400Y854075D03*
X889000Y879475D03*
D12*
X831850Y897500D03*
X831850Y880500D03*
X946150Y694300D03*
X946150Y677300D03*
D13*
X946150Y827650D03*
X946150Y810650D03*
X831850Y827650D03*
X831850Y810650D03*
D14*
X864362Y695325D03*
X864362Y708025D03*
X864362Y720725D03*
X864362Y733425D03*
X913638Y733425D03*
X913638Y720725D03*
X913638Y708025D03*
X913638Y695325D03*
D15*
X927100Y787400D03*
X908050Y758825D03*
X889000Y787400D03*
X869950Y758825D03*
X850900Y787400D03*
D16*
X913638Y695325D02*
X945125Y695325D01*
X946150Y694300D01*
X895350Y746125D02*
X908050Y758825D01*
X895350Y701675D02*
X901700Y695325D01*
X913638Y695325D01*
X895350Y701675D02*
X895350Y746125D01*
X831850Y827650D02*
X831850Y854075D01*
D17*
X831850Y854075D03*
D16*
X946150Y844550D02*
X946150Y827650D01*
D17*
X946150Y844550D03*
D16*
X831850Y854075D02*
X831850Y880500D01*
X850900Y787400D02*
X847725Y784225D01*
X847725Y727075D01*
X854075Y720725D01*
X864362Y720725D01*
X864362Y708025D01*
X913638Y720725D02*
X913638Y733425D01*
X927100Y753237D02*
X927100Y787400D01*
X927100Y753237D02*
X913638Y739775D01*
X913638Y733425D01*
X850900Y695325D02*
X831850Y714375D01*
X831850Y810650D02*
X870975Y810650D01*
X889000Y828675D01*
X831850Y810650D02*
X831850Y714375D01*
X850900Y695325D02*
X864362Y695325D01*
X927100Y708025D02*
X946150Y727075D01*
X889000Y854075D02*
X863600Y854075D01*
X889000Y854075D02*
X932425Y810650D01*
X946150Y810650D01*
X946150Y727075D01*
X927100Y708025D02*
X913638Y708025D01*
M02*
