G04 EAGLE Gerber RS-274X export*
G75*
%MOMM*%
%FSLAX34Y34*%
%LPD*%
%INTop Layer*%
%IPPOS*%
%AMOC8*
5,1,8,0,0,1.08239X$1,22.5*%
G01*
%ADD10C,0.000000*%
%ADD11C,1.800000*%
%ADD12P,1.732040X8X22.500000*%
%ADD13C,0.254000*%
%ADD14C,0.904800*%

G36*
X845494Y640098D02*
X845494Y640098D01*
X845633Y640111D01*
X845652Y640118D01*
X845672Y640121D01*
X845801Y640172D01*
X845932Y640219D01*
X845949Y640230D01*
X845968Y640238D01*
X846080Y640319D01*
X846195Y640397D01*
X846209Y640413D01*
X846225Y640424D01*
X846314Y640532D01*
X846406Y640636D01*
X846415Y640654D01*
X846428Y640669D01*
X846487Y640795D01*
X846550Y640919D01*
X846555Y640939D01*
X846564Y640957D01*
X846590Y641093D01*
X846620Y641229D01*
X846619Y641250D01*
X846623Y641269D01*
X846615Y641408D01*
X846610Y641547D01*
X846605Y641567D01*
X846604Y641587D01*
X846561Y641719D01*
X846522Y641853D01*
X846512Y641870D01*
X846506Y641889D01*
X846431Y642007D01*
X846360Y642127D01*
X846342Y642148D01*
X846335Y642158D01*
X846320Y642172D01*
X846254Y642247D01*
X843701Y644800D01*
X840644Y652181D01*
X840644Y660169D01*
X843701Y667550D01*
X849350Y673199D01*
X856731Y676256D01*
X864719Y676256D01*
X872100Y673199D01*
X877749Y667550D01*
X880806Y660169D01*
X880806Y652181D01*
X877749Y644800D01*
X875196Y642247D01*
X875111Y642138D01*
X875022Y642031D01*
X875013Y642012D01*
X875001Y641996D01*
X874946Y641868D01*
X874886Y641743D01*
X874883Y641723D01*
X874875Y641704D01*
X874853Y641566D01*
X874827Y641430D01*
X874828Y641410D01*
X874825Y641390D01*
X874838Y641251D01*
X874846Y641113D01*
X874853Y641094D01*
X874855Y641074D01*
X874902Y640942D01*
X874944Y640811D01*
X874955Y640793D01*
X874962Y640774D01*
X875040Y640659D01*
X875115Y640542D01*
X875129Y640528D01*
X875141Y640511D01*
X875245Y640419D01*
X875346Y640324D01*
X875364Y640314D01*
X875379Y640301D01*
X875503Y640237D01*
X875625Y640170D01*
X875644Y640165D01*
X875662Y640156D01*
X875798Y640126D01*
X875933Y640091D01*
X875961Y640089D01*
X875973Y640086D01*
X875993Y640087D01*
X876093Y640081D01*
X902507Y640081D01*
X902644Y640098D01*
X902783Y640111D01*
X902802Y640118D01*
X902822Y640121D01*
X902951Y640172D01*
X903082Y640219D01*
X903099Y640230D01*
X903118Y640238D01*
X903230Y640319D01*
X903345Y640397D01*
X903359Y640413D01*
X903375Y640424D01*
X903464Y640532D01*
X903556Y640636D01*
X903565Y640654D01*
X903578Y640669D01*
X903637Y640795D01*
X903700Y640919D01*
X903705Y640939D01*
X903714Y640957D01*
X903740Y641093D01*
X903770Y641229D01*
X903769Y641250D01*
X903773Y641269D01*
X903765Y641408D01*
X903760Y641547D01*
X903755Y641567D01*
X903754Y641587D01*
X903711Y641719D01*
X903672Y641853D01*
X903662Y641870D01*
X903656Y641889D01*
X903581Y642007D01*
X903510Y642127D01*
X903492Y642148D01*
X903485Y642158D01*
X903470Y642172D01*
X903404Y642247D01*
X900851Y644800D01*
X897794Y652181D01*
X897794Y660169D01*
X900851Y667550D01*
X906500Y673199D01*
X913881Y676256D01*
X921869Y676256D01*
X929250Y673199D01*
X934899Y667550D01*
X937956Y660169D01*
X937956Y652181D01*
X934899Y644800D01*
X932346Y642247D01*
X932261Y642138D01*
X932172Y642031D01*
X932163Y642012D01*
X932151Y641996D01*
X932096Y641868D01*
X932036Y641743D01*
X932033Y641723D01*
X932025Y641704D01*
X932003Y641566D01*
X931977Y641430D01*
X931978Y641410D01*
X931975Y641390D01*
X931988Y641251D01*
X931996Y641113D01*
X932003Y641094D01*
X932005Y641074D01*
X932052Y640942D01*
X932094Y640811D01*
X932105Y640793D01*
X932112Y640774D01*
X932190Y640659D01*
X932265Y640542D01*
X932279Y640528D01*
X932291Y640511D01*
X932395Y640419D01*
X932496Y640324D01*
X932514Y640314D01*
X932529Y640301D01*
X932653Y640237D01*
X932775Y640170D01*
X932794Y640165D01*
X932812Y640156D01*
X932948Y640126D01*
X933083Y640091D01*
X933111Y640089D01*
X933123Y640086D01*
X933143Y640087D01*
X933243Y640081D01*
X962025Y640081D01*
X962143Y640096D01*
X962262Y640103D01*
X962300Y640116D01*
X962341Y640121D01*
X962451Y640164D01*
X962564Y640201D01*
X962599Y640223D01*
X962636Y640238D01*
X962732Y640307D01*
X962833Y640371D01*
X962861Y640401D01*
X962894Y640424D01*
X962970Y640516D01*
X963051Y640603D01*
X963071Y640638D01*
X963096Y640669D01*
X963147Y640777D01*
X963205Y640881D01*
X963215Y640921D01*
X963232Y640957D01*
X963254Y641074D01*
X963284Y641189D01*
X963288Y641249D01*
X963292Y641269D01*
X963290Y641290D01*
X963294Y641350D01*
X963294Y908050D01*
X963279Y908168D01*
X963272Y908287D01*
X963259Y908325D01*
X963254Y908366D01*
X963211Y908476D01*
X963174Y908589D01*
X963152Y908624D01*
X963137Y908661D01*
X963068Y908757D01*
X963004Y908858D01*
X962974Y908886D01*
X962951Y908919D01*
X962859Y908995D01*
X962772Y909076D01*
X962737Y909096D01*
X962706Y909121D01*
X962598Y909172D01*
X962494Y909230D01*
X962454Y909240D01*
X962418Y909257D01*
X962301Y909279D01*
X962186Y909309D01*
X962126Y909313D01*
X962106Y909317D01*
X962085Y909315D01*
X962025Y909319D01*
X815975Y909319D01*
X815857Y909304D01*
X815738Y909297D01*
X815700Y909284D01*
X815659Y909279D01*
X815549Y909236D01*
X815436Y909199D01*
X815401Y909177D01*
X815364Y909162D01*
X815268Y909093D01*
X815167Y909029D01*
X815139Y908999D01*
X815106Y908976D01*
X815030Y908884D01*
X814949Y908797D01*
X814929Y908762D01*
X814904Y908731D01*
X814853Y908623D01*
X814795Y908519D01*
X814785Y908479D01*
X814768Y908443D01*
X814746Y908326D01*
X814716Y908211D01*
X814712Y908151D01*
X814708Y908131D01*
X814710Y908110D01*
X814706Y908050D01*
X814706Y641350D01*
X814721Y641232D01*
X814728Y641113D01*
X814741Y641075D01*
X814746Y641034D01*
X814789Y640924D01*
X814826Y640811D01*
X814848Y640776D01*
X814863Y640739D01*
X814932Y640643D01*
X814996Y640542D01*
X815026Y640514D01*
X815049Y640481D01*
X815141Y640405D01*
X815228Y640324D01*
X815263Y640304D01*
X815294Y640279D01*
X815402Y640228D01*
X815506Y640170D01*
X815546Y640160D01*
X815582Y640143D01*
X815699Y640121D01*
X815814Y640091D01*
X815874Y640087D01*
X815894Y640083D01*
X815915Y640085D01*
X815975Y640081D01*
X845357Y640081D01*
X845494Y640098D01*
G37*
%LPC*%
G36*
X865794Y748791D02*
X865794Y748791D01*
X859916Y754669D01*
X859916Y762981D01*
X865794Y768859D01*
X874106Y768859D01*
X880162Y762803D01*
X880256Y762730D01*
X880345Y762651D01*
X880381Y762633D01*
X880413Y762608D01*
X880523Y762560D01*
X880629Y762506D01*
X880668Y762498D01*
X880705Y762481D01*
X880823Y762463D01*
X880939Y762437D01*
X880979Y762438D01*
X881019Y762432D01*
X881138Y762443D01*
X881257Y762446D01*
X881296Y762458D01*
X881336Y762461D01*
X881448Y762502D01*
X881562Y762535D01*
X881597Y762555D01*
X881635Y762569D01*
X881734Y762636D01*
X881836Y762696D01*
X881881Y762736D01*
X881898Y762748D01*
X881912Y762763D01*
X881957Y762803D01*
X893846Y774692D01*
X893931Y774801D01*
X894020Y774908D01*
X894028Y774927D01*
X894041Y774943D01*
X894096Y775071D01*
X894155Y775196D01*
X894159Y775216D01*
X894167Y775235D01*
X894189Y775373D01*
X894215Y775509D01*
X894214Y775529D01*
X894217Y775549D01*
X894204Y775688D01*
X894195Y775826D01*
X894189Y775845D01*
X894187Y775865D01*
X894140Y775997D01*
X894097Y776128D01*
X894086Y776146D01*
X894079Y776165D01*
X894001Y776280D01*
X893927Y776397D01*
X893912Y776411D01*
X893901Y776428D01*
X893797Y776520D01*
X893695Y776615D01*
X893678Y776625D01*
X893662Y776638D01*
X893539Y776701D01*
X893417Y776769D01*
X893397Y776774D01*
X893379Y776783D01*
X893243Y776813D01*
X893109Y776848D01*
X893081Y776850D01*
X893069Y776853D01*
X893048Y776852D01*
X892948Y776858D01*
X891285Y776858D01*
X891285Y785115D01*
X899542Y785115D01*
X899542Y783452D01*
X899559Y783314D01*
X899572Y783175D01*
X899579Y783156D01*
X899582Y783136D01*
X899633Y783007D01*
X899680Y782876D01*
X899691Y782859D01*
X899699Y782841D01*
X899780Y782728D01*
X899858Y782613D01*
X899874Y782600D01*
X899885Y782583D01*
X899993Y782494D01*
X900097Y782402D01*
X900115Y782393D01*
X900130Y782380D01*
X900256Y782321D01*
X900380Y782258D01*
X900400Y782253D01*
X900418Y782245D01*
X900554Y782219D01*
X900690Y782188D01*
X900711Y782189D01*
X900730Y782185D01*
X900869Y782194D01*
X901008Y782198D01*
X901028Y782204D01*
X901048Y782205D01*
X901180Y782248D01*
X901314Y782286D01*
X901331Y782297D01*
X901350Y782303D01*
X901468Y782377D01*
X901588Y782448D01*
X901609Y782466D01*
X901619Y782473D01*
X901633Y782488D01*
X901708Y782554D01*
X904376Y785221D01*
X904436Y785300D01*
X904504Y785372D01*
X904533Y785425D01*
X904570Y785473D01*
X904610Y785564D01*
X904658Y785650D01*
X904673Y785709D01*
X904697Y785764D01*
X904712Y785862D01*
X904737Y785958D01*
X904743Y786058D01*
X904747Y786079D01*
X904745Y786091D01*
X904747Y786119D01*
X904747Y817343D01*
X910726Y823321D01*
X910786Y823400D01*
X910854Y823472D01*
X910883Y823525D01*
X910920Y823573D01*
X910960Y823664D01*
X911008Y823750D01*
X911023Y823809D01*
X911047Y823864D01*
X911062Y823962D01*
X911087Y824058D01*
X911093Y824158D01*
X911097Y824179D01*
X911095Y824191D01*
X911097Y824219D01*
X911097Y842653D01*
X911094Y842682D01*
X911096Y842712D01*
X911074Y842840D01*
X911057Y842969D01*
X911047Y842996D01*
X911042Y843025D01*
X910988Y843144D01*
X910940Y843264D01*
X910923Y843288D01*
X910911Y843315D01*
X910830Y843417D01*
X910754Y843522D01*
X910731Y843541D01*
X910712Y843564D01*
X910609Y843642D01*
X910509Y843725D01*
X910482Y843737D01*
X910458Y843755D01*
X910314Y843826D01*
X908150Y844722D01*
X905047Y847825D01*
X904151Y849989D01*
X904136Y850014D01*
X904127Y850042D01*
X904058Y850152D01*
X903993Y850265D01*
X903973Y850286D01*
X903957Y850311D01*
X903862Y850400D01*
X903772Y850493D01*
X903747Y850509D01*
X903725Y850529D01*
X903612Y850592D01*
X903501Y850660D01*
X903473Y850668D01*
X903447Y850683D01*
X903321Y850715D01*
X903197Y850753D01*
X903168Y850755D01*
X903139Y850762D01*
X902978Y850772D01*
X887632Y850772D01*
X872527Y865878D01*
X872448Y865938D01*
X872376Y866006D01*
X872323Y866035D01*
X872275Y866072D01*
X872184Y866112D01*
X872098Y866160D01*
X872039Y866175D01*
X871984Y866199D01*
X871886Y866214D01*
X871790Y866239D01*
X871690Y866245D01*
X871669Y866249D01*
X871657Y866247D01*
X871629Y866249D01*
X869420Y866249D01*
X869350Y866241D01*
X869280Y866242D01*
X869193Y866221D01*
X869104Y866209D01*
X869039Y866184D01*
X868971Y866167D01*
X868892Y866125D01*
X868808Y866092D01*
X868752Y866051D01*
X868690Y866019D01*
X868624Y865958D01*
X868551Y865906D01*
X868506Y865852D01*
X868455Y865805D01*
X868405Y865730D01*
X868348Y865661D01*
X868318Y865597D01*
X868280Y865539D01*
X868251Y865454D01*
X868213Y865373D01*
X868200Y865304D01*
X868177Y865238D01*
X868170Y865149D01*
X868153Y865061D01*
X868157Y864991D01*
X868152Y864921D01*
X868167Y864833D01*
X868173Y864743D01*
X868194Y864677D01*
X868206Y864608D01*
X868243Y864526D01*
X868271Y864441D01*
X868308Y864382D01*
X868337Y864318D01*
X868393Y864248D01*
X868441Y864172D01*
X868492Y864124D01*
X868535Y864070D01*
X868607Y864015D01*
X868672Y863954D01*
X868733Y863920D01*
X868789Y863878D01*
X868934Y863807D01*
X869850Y863428D01*
X872953Y860325D01*
X874633Y856270D01*
X874633Y851880D01*
X872953Y847825D01*
X869850Y844722D01*
X865795Y843042D01*
X861405Y843042D01*
X857350Y844722D01*
X854247Y847825D01*
X852567Y851880D01*
X852567Y856270D01*
X854247Y860325D01*
X857350Y863428D01*
X858266Y863807D01*
X858327Y863842D01*
X858392Y863868D01*
X858464Y863920D01*
X858542Y863965D01*
X858593Y864013D01*
X858649Y864054D01*
X858706Y864124D01*
X858771Y864186D01*
X858807Y864246D01*
X858852Y864299D01*
X858890Y864381D01*
X858937Y864457D01*
X858958Y864524D01*
X858987Y864587D01*
X859004Y864675D01*
X859031Y864761D01*
X859034Y864831D01*
X859047Y864900D01*
X859042Y864989D01*
X859046Y865079D01*
X859032Y865147D01*
X859027Y865217D01*
X859000Y865302D01*
X858982Y865390D01*
X858951Y865453D01*
X858929Y865519D01*
X858881Y865595D01*
X858842Y865676D01*
X858797Y865729D01*
X858759Y865788D01*
X858694Y865850D01*
X858636Y865918D01*
X858578Y865958D01*
X858528Y866006D01*
X858449Y866049D01*
X858375Y866101D01*
X858310Y866126D01*
X858249Y866160D01*
X858162Y866182D01*
X858078Y866214D01*
X858009Y866222D01*
X857941Y866239D01*
X857780Y866249D01*
X849221Y866249D01*
X849123Y866237D01*
X849024Y866234D01*
X848965Y866217D01*
X848905Y866209D01*
X848813Y866173D01*
X848718Y866145D01*
X848666Y866115D01*
X848610Y866092D01*
X848530Y866034D01*
X848444Y865984D01*
X848369Y865918D01*
X848352Y865906D01*
X848344Y865896D01*
X848323Y865878D01*
X838778Y856333D01*
X838718Y856254D01*
X838650Y856182D01*
X838621Y856129D01*
X838584Y856081D01*
X838544Y855990D01*
X838496Y855904D01*
X838481Y855845D01*
X838457Y855790D01*
X838442Y855692D01*
X838417Y855596D01*
X838411Y855496D01*
X838407Y855475D01*
X838409Y855463D01*
X838407Y855435D01*
X838407Y852771D01*
X837409Y850361D01*
X835564Y848516D01*
X833154Y847518D01*
X830546Y847518D01*
X828136Y848516D01*
X826291Y850361D01*
X825293Y852771D01*
X825293Y855379D01*
X826291Y857789D01*
X828136Y859634D01*
X830546Y860632D01*
X833210Y860632D01*
X833308Y860644D01*
X833407Y860647D01*
X833466Y860664D01*
X833526Y860672D01*
X833618Y860708D01*
X833713Y860736D01*
X833765Y860766D01*
X833821Y860789D01*
X833901Y860847D01*
X833987Y860897D01*
X834062Y860963D01*
X834079Y860975D01*
X834087Y860985D01*
X834108Y861003D01*
X845959Y872855D01*
X874891Y872855D01*
X889996Y857749D01*
X890075Y857689D01*
X890147Y857621D01*
X890200Y857592D01*
X890248Y857555D01*
X890339Y857515D01*
X890425Y857467D01*
X890484Y857452D01*
X890539Y857428D01*
X890637Y857413D01*
X890733Y857388D01*
X890833Y857382D01*
X890854Y857378D01*
X890866Y857380D01*
X890894Y857378D01*
X902978Y857378D01*
X903007Y857381D01*
X903037Y857379D01*
X903165Y857401D01*
X903294Y857418D01*
X903321Y857428D01*
X903350Y857433D01*
X903469Y857487D01*
X903589Y857535D01*
X903613Y857552D01*
X903640Y857564D01*
X903742Y857645D01*
X903847Y857721D01*
X903866Y857744D01*
X903889Y857763D01*
X903967Y857866D01*
X904050Y857966D01*
X904062Y857993D01*
X904080Y858017D01*
X904151Y858161D01*
X905047Y860325D01*
X908150Y863428D01*
X912205Y865108D01*
X916595Y865108D01*
X920650Y863428D01*
X923753Y860325D01*
X924649Y858161D01*
X924664Y858136D01*
X924673Y858108D01*
X924742Y857998D01*
X924807Y857885D01*
X924827Y857864D01*
X924843Y857839D01*
X924938Y857750D01*
X925028Y857657D01*
X925053Y857641D01*
X925075Y857621D01*
X925188Y857558D01*
X925299Y857490D01*
X925327Y857482D01*
X925353Y857467D01*
X925479Y857435D01*
X925603Y857397D01*
X925632Y857395D01*
X925661Y857388D01*
X925822Y857378D01*
X937993Y857378D01*
X943892Y851478D01*
X943971Y851418D01*
X944043Y851350D01*
X944096Y851321D01*
X944144Y851284D01*
X944235Y851244D01*
X944321Y851196D01*
X944380Y851181D01*
X944435Y851157D01*
X944533Y851142D01*
X944629Y851117D01*
X944729Y851111D01*
X944750Y851107D01*
X944762Y851109D01*
X944790Y851107D01*
X947454Y851107D01*
X949864Y850109D01*
X951709Y848264D01*
X952707Y845854D01*
X952707Y843246D01*
X951709Y840836D01*
X949864Y838991D01*
X947454Y837993D01*
X944846Y837993D01*
X942436Y838991D01*
X940591Y840836D01*
X939593Y843246D01*
X939593Y845910D01*
X939581Y846008D01*
X939578Y846107D01*
X939561Y846166D01*
X939553Y846226D01*
X939517Y846318D01*
X939489Y846413D01*
X939459Y846465D01*
X939436Y846521D01*
X939378Y846601D01*
X939328Y846687D01*
X939262Y846762D01*
X939250Y846779D01*
X939240Y846787D01*
X939222Y846808D01*
X935629Y850401D01*
X935550Y850461D01*
X935478Y850529D01*
X935425Y850558D01*
X935377Y850595D01*
X935286Y850635D01*
X935200Y850683D01*
X935141Y850698D01*
X935086Y850722D01*
X934988Y850737D01*
X934892Y850762D01*
X934792Y850768D01*
X934771Y850772D01*
X934759Y850770D01*
X934731Y850772D01*
X925822Y850772D01*
X925793Y850769D01*
X925763Y850771D01*
X925635Y850749D01*
X925506Y850732D01*
X925479Y850722D01*
X925450Y850717D01*
X925331Y850663D01*
X925211Y850615D01*
X925187Y850598D01*
X925160Y850586D01*
X925058Y850505D01*
X924953Y850429D01*
X924934Y850406D01*
X924911Y850387D01*
X924833Y850284D01*
X924750Y850184D01*
X924738Y850157D01*
X924720Y850133D01*
X924649Y849989D01*
X923753Y847825D01*
X920650Y844722D01*
X918486Y843826D01*
X918461Y843811D01*
X918433Y843802D01*
X918323Y843733D01*
X918210Y843668D01*
X918189Y843648D01*
X918164Y843632D01*
X918075Y843537D01*
X917982Y843447D01*
X917966Y843422D01*
X917946Y843400D01*
X917883Y843287D01*
X917815Y843176D01*
X917807Y843148D01*
X917792Y843122D01*
X917760Y842996D01*
X917722Y842872D01*
X917720Y842843D01*
X917713Y842814D01*
X917703Y842653D01*
X917703Y820957D01*
X911724Y814979D01*
X911664Y814900D01*
X911596Y814828D01*
X911567Y814775D01*
X911530Y814727D01*
X911490Y814636D01*
X911442Y814550D01*
X911427Y814491D01*
X911403Y814436D01*
X911388Y814338D01*
X911363Y814242D01*
X911357Y814142D01*
X911353Y814121D01*
X911355Y814109D01*
X911353Y814081D01*
X911353Y782857D01*
X884018Y755522D01*
X881253Y755522D01*
X881135Y755507D01*
X881016Y755500D01*
X880978Y755487D01*
X880937Y755482D01*
X880827Y755439D01*
X880714Y755402D01*
X880679Y755380D01*
X880642Y755365D01*
X880546Y755296D01*
X880445Y755232D01*
X880417Y755202D01*
X880384Y755179D01*
X880308Y755087D01*
X880227Y755000D01*
X880207Y754965D01*
X880182Y754934D01*
X880131Y754826D01*
X880119Y754804D01*
X874106Y748791D01*
X865794Y748791D01*
G37*
%LPD*%
%LPC*%
G36*
X886805Y817642D02*
X886805Y817642D01*
X882750Y819322D01*
X879647Y822425D01*
X877967Y826480D01*
X877967Y830870D01*
X879647Y834925D01*
X882750Y838028D01*
X886805Y839708D01*
X891195Y839708D01*
X895250Y838028D01*
X898353Y834925D01*
X900033Y830870D01*
X900033Y826480D01*
X898353Y822425D01*
X895250Y819322D01*
X891195Y817642D01*
X886805Y817642D01*
G37*
%LPD*%
%LPC*%
G36*
X922944Y777366D02*
X922944Y777366D01*
X917066Y783244D01*
X917066Y791556D01*
X922944Y797434D01*
X931256Y797434D01*
X937134Y791556D01*
X937134Y783244D01*
X931256Y777366D01*
X922944Y777366D01*
G37*
%LPD*%
%LPC*%
G36*
X846744Y777366D02*
X846744Y777366D01*
X840866Y783244D01*
X840866Y791556D01*
X846744Y797434D01*
X855056Y797434D01*
X860934Y791556D01*
X860934Y783244D01*
X855056Y777366D01*
X846744Y777366D01*
G37*
%LPD*%
%LPC*%
G36*
X903894Y748791D02*
X903894Y748791D01*
X898016Y754669D01*
X898016Y762981D01*
X903894Y768859D01*
X912206Y768859D01*
X918084Y762981D01*
X918084Y754669D01*
X912206Y748791D01*
X903894Y748791D01*
G37*
%LPD*%
%LPC*%
G36*
X891539Y882014D02*
X891539Y882014D01*
X891539Y890757D01*
X891703Y890732D01*
X893430Y890170D01*
X895049Y889346D01*
X895391Y889097D01*
X896518Y888278D01*
X897803Y886993D01*
X898871Y885524D01*
X899695Y883905D01*
X900257Y882178D01*
X900282Y882014D01*
X891539Y882014D01*
G37*
%LPD*%
%LPC*%
G36*
X877718Y882014D02*
X877718Y882014D01*
X877743Y882178D01*
X878305Y883905D01*
X879129Y885524D01*
X880197Y886993D01*
X881482Y888278D01*
X882951Y889346D01*
X884570Y890170D01*
X886297Y890732D01*
X886461Y890757D01*
X886461Y882014D01*
X877718Y882014D01*
G37*
%LPD*%
%LPC*%
G36*
X891539Y876936D02*
X891539Y876936D01*
X900282Y876936D01*
X900257Y876772D01*
X899695Y875045D01*
X898871Y873426D01*
X897803Y871957D01*
X896518Y870672D01*
X895049Y869604D01*
X893430Y868780D01*
X891703Y868218D01*
X891539Y868193D01*
X891539Y876936D01*
G37*
%LPD*%
%LPC*%
G36*
X886297Y868218D02*
X886297Y868218D01*
X884570Y868780D01*
X882951Y869604D01*
X881482Y870672D01*
X880197Y871957D01*
X879129Y873426D01*
X878305Y875045D01*
X877743Y876772D01*
X877718Y876936D01*
X886461Y876936D01*
X886461Y868193D01*
X886297Y868218D01*
G37*
%LPD*%
%LPC*%
G36*
X891285Y789685D02*
X891285Y789685D01*
X891285Y797942D01*
X893367Y797942D01*
X899542Y791767D01*
X899542Y789685D01*
X891285Y789685D01*
G37*
%LPD*%
%LPC*%
G36*
X878458Y789685D02*
X878458Y789685D01*
X878458Y791767D01*
X884633Y797942D01*
X886715Y797942D01*
X886715Y789685D01*
X878458Y789685D01*
G37*
%LPD*%
%LPC*%
G36*
X884633Y776858D02*
X884633Y776858D01*
X878458Y783033D01*
X878458Y785115D01*
X886715Y785115D01*
X886715Y776858D01*
X884633Y776858D01*
G37*
%LPD*%
%LPC*%
G36*
X888999Y879474D02*
X888999Y879474D01*
X888999Y879476D01*
X889001Y879476D01*
X889001Y879474D01*
X888999Y879474D01*
G37*
%LPD*%
D10*
X845725Y656175D02*
X845730Y656543D01*
X845743Y656911D01*
X845766Y657278D01*
X845797Y657645D01*
X845838Y658011D01*
X845887Y658376D01*
X845946Y658739D01*
X846013Y659101D01*
X846089Y659462D01*
X846175Y659820D01*
X846268Y660176D01*
X846371Y660529D01*
X846482Y660880D01*
X846602Y661228D01*
X846730Y661573D01*
X846867Y661915D01*
X847012Y662254D01*
X847165Y662588D01*
X847327Y662919D01*
X847496Y663246D01*
X847674Y663568D01*
X847859Y663887D01*
X848052Y664200D01*
X848253Y664509D01*
X848461Y664812D01*
X848677Y665110D01*
X848900Y665403D01*
X849130Y665691D01*
X849367Y665973D01*
X849611Y666248D01*
X849861Y666518D01*
X850118Y666782D01*
X850382Y667039D01*
X850652Y667289D01*
X850927Y667533D01*
X851209Y667770D01*
X851497Y668000D01*
X851790Y668223D01*
X852088Y668439D01*
X852391Y668647D01*
X852700Y668848D01*
X853013Y669041D01*
X853332Y669226D01*
X853654Y669404D01*
X853981Y669573D01*
X854312Y669735D01*
X854646Y669888D01*
X854985Y670033D01*
X855327Y670170D01*
X855672Y670298D01*
X856020Y670418D01*
X856371Y670529D01*
X856724Y670632D01*
X857080Y670725D01*
X857438Y670811D01*
X857799Y670887D01*
X858161Y670954D01*
X858524Y671013D01*
X858889Y671062D01*
X859255Y671103D01*
X859622Y671134D01*
X859989Y671157D01*
X860357Y671170D01*
X860725Y671175D01*
X861093Y671170D01*
X861461Y671157D01*
X861828Y671134D01*
X862195Y671103D01*
X862561Y671062D01*
X862926Y671013D01*
X863289Y670954D01*
X863651Y670887D01*
X864012Y670811D01*
X864370Y670725D01*
X864726Y670632D01*
X865079Y670529D01*
X865430Y670418D01*
X865778Y670298D01*
X866123Y670170D01*
X866465Y670033D01*
X866804Y669888D01*
X867138Y669735D01*
X867469Y669573D01*
X867796Y669404D01*
X868118Y669226D01*
X868437Y669041D01*
X868750Y668848D01*
X869059Y668647D01*
X869362Y668439D01*
X869660Y668223D01*
X869953Y668000D01*
X870241Y667770D01*
X870523Y667533D01*
X870798Y667289D01*
X871068Y667039D01*
X871332Y666782D01*
X871589Y666518D01*
X871839Y666248D01*
X872083Y665973D01*
X872320Y665691D01*
X872550Y665403D01*
X872773Y665110D01*
X872989Y664812D01*
X873197Y664509D01*
X873398Y664200D01*
X873591Y663887D01*
X873776Y663568D01*
X873954Y663246D01*
X874123Y662919D01*
X874285Y662588D01*
X874438Y662254D01*
X874583Y661915D01*
X874720Y661573D01*
X874848Y661228D01*
X874968Y660880D01*
X875079Y660529D01*
X875182Y660176D01*
X875275Y659820D01*
X875361Y659462D01*
X875437Y659101D01*
X875504Y658739D01*
X875563Y658376D01*
X875612Y658011D01*
X875653Y657645D01*
X875684Y657278D01*
X875707Y656911D01*
X875720Y656543D01*
X875725Y656175D01*
X875720Y655807D01*
X875707Y655439D01*
X875684Y655072D01*
X875653Y654705D01*
X875612Y654339D01*
X875563Y653974D01*
X875504Y653611D01*
X875437Y653249D01*
X875361Y652888D01*
X875275Y652530D01*
X875182Y652174D01*
X875079Y651821D01*
X874968Y651470D01*
X874848Y651122D01*
X874720Y650777D01*
X874583Y650435D01*
X874438Y650096D01*
X874285Y649762D01*
X874123Y649431D01*
X873954Y649104D01*
X873776Y648782D01*
X873591Y648463D01*
X873398Y648150D01*
X873197Y647841D01*
X872989Y647538D01*
X872773Y647240D01*
X872550Y646947D01*
X872320Y646659D01*
X872083Y646377D01*
X871839Y646102D01*
X871589Y645832D01*
X871332Y645568D01*
X871068Y645311D01*
X870798Y645061D01*
X870523Y644817D01*
X870241Y644580D01*
X869953Y644350D01*
X869660Y644127D01*
X869362Y643911D01*
X869059Y643703D01*
X868750Y643502D01*
X868437Y643309D01*
X868118Y643124D01*
X867796Y642946D01*
X867469Y642777D01*
X867138Y642615D01*
X866804Y642462D01*
X866465Y642317D01*
X866123Y642180D01*
X865778Y642052D01*
X865430Y641932D01*
X865079Y641821D01*
X864726Y641718D01*
X864370Y641625D01*
X864012Y641539D01*
X863651Y641463D01*
X863289Y641396D01*
X862926Y641337D01*
X862561Y641288D01*
X862195Y641247D01*
X861828Y641216D01*
X861461Y641193D01*
X861093Y641180D01*
X860725Y641175D01*
X860357Y641180D01*
X859989Y641193D01*
X859622Y641216D01*
X859255Y641247D01*
X858889Y641288D01*
X858524Y641337D01*
X858161Y641396D01*
X857799Y641463D01*
X857438Y641539D01*
X857080Y641625D01*
X856724Y641718D01*
X856371Y641821D01*
X856020Y641932D01*
X855672Y642052D01*
X855327Y642180D01*
X854985Y642317D01*
X854646Y642462D01*
X854312Y642615D01*
X853981Y642777D01*
X853654Y642946D01*
X853332Y643124D01*
X853013Y643309D01*
X852700Y643502D01*
X852391Y643703D01*
X852088Y643911D01*
X851790Y644127D01*
X851497Y644350D01*
X851209Y644580D01*
X850927Y644817D01*
X850652Y645061D01*
X850382Y645311D01*
X850118Y645568D01*
X849861Y645832D01*
X849611Y646102D01*
X849367Y646377D01*
X849130Y646659D01*
X848900Y646947D01*
X848677Y647240D01*
X848461Y647538D01*
X848253Y647841D01*
X848052Y648150D01*
X847859Y648463D01*
X847674Y648782D01*
X847496Y649104D01*
X847327Y649431D01*
X847165Y649762D01*
X847012Y650096D01*
X846867Y650435D01*
X846730Y650777D01*
X846602Y651122D01*
X846482Y651470D01*
X846371Y651821D01*
X846268Y652174D01*
X846175Y652530D01*
X846089Y652888D01*
X846013Y653249D01*
X845946Y653611D01*
X845887Y653974D01*
X845838Y654339D01*
X845797Y654705D01*
X845766Y655072D01*
X845743Y655439D01*
X845730Y655807D01*
X845725Y656175D01*
X902875Y656175D02*
X902880Y656543D01*
X902893Y656911D01*
X902916Y657278D01*
X902947Y657645D01*
X902988Y658011D01*
X903037Y658376D01*
X903096Y658739D01*
X903163Y659101D01*
X903239Y659462D01*
X903325Y659820D01*
X903418Y660176D01*
X903521Y660529D01*
X903632Y660880D01*
X903752Y661228D01*
X903880Y661573D01*
X904017Y661915D01*
X904162Y662254D01*
X904315Y662588D01*
X904477Y662919D01*
X904646Y663246D01*
X904824Y663568D01*
X905009Y663887D01*
X905202Y664200D01*
X905403Y664509D01*
X905611Y664812D01*
X905827Y665110D01*
X906050Y665403D01*
X906280Y665691D01*
X906517Y665973D01*
X906761Y666248D01*
X907011Y666518D01*
X907268Y666782D01*
X907532Y667039D01*
X907802Y667289D01*
X908077Y667533D01*
X908359Y667770D01*
X908647Y668000D01*
X908940Y668223D01*
X909238Y668439D01*
X909541Y668647D01*
X909850Y668848D01*
X910163Y669041D01*
X910482Y669226D01*
X910804Y669404D01*
X911131Y669573D01*
X911462Y669735D01*
X911796Y669888D01*
X912135Y670033D01*
X912477Y670170D01*
X912822Y670298D01*
X913170Y670418D01*
X913521Y670529D01*
X913874Y670632D01*
X914230Y670725D01*
X914588Y670811D01*
X914949Y670887D01*
X915311Y670954D01*
X915674Y671013D01*
X916039Y671062D01*
X916405Y671103D01*
X916772Y671134D01*
X917139Y671157D01*
X917507Y671170D01*
X917875Y671175D01*
X918243Y671170D01*
X918611Y671157D01*
X918978Y671134D01*
X919345Y671103D01*
X919711Y671062D01*
X920076Y671013D01*
X920439Y670954D01*
X920801Y670887D01*
X921162Y670811D01*
X921520Y670725D01*
X921876Y670632D01*
X922229Y670529D01*
X922580Y670418D01*
X922928Y670298D01*
X923273Y670170D01*
X923615Y670033D01*
X923954Y669888D01*
X924288Y669735D01*
X924619Y669573D01*
X924946Y669404D01*
X925268Y669226D01*
X925587Y669041D01*
X925900Y668848D01*
X926209Y668647D01*
X926512Y668439D01*
X926810Y668223D01*
X927103Y668000D01*
X927391Y667770D01*
X927673Y667533D01*
X927948Y667289D01*
X928218Y667039D01*
X928482Y666782D01*
X928739Y666518D01*
X928989Y666248D01*
X929233Y665973D01*
X929470Y665691D01*
X929700Y665403D01*
X929923Y665110D01*
X930139Y664812D01*
X930347Y664509D01*
X930548Y664200D01*
X930741Y663887D01*
X930926Y663568D01*
X931104Y663246D01*
X931273Y662919D01*
X931435Y662588D01*
X931588Y662254D01*
X931733Y661915D01*
X931870Y661573D01*
X931998Y661228D01*
X932118Y660880D01*
X932229Y660529D01*
X932332Y660176D01*
X932425Y659820D01*
X932511Y659462D01*
X932587Y659101D01*
X932654Y658739D01*
X932713Y658376D01*
X932762Y658011D01*
X932803Y657645D01*
X932834Y657278D01*
X932857Y656911D01*
X932870Y656543D01*
X932875Y656175D01*
X932870Y655807D01*
X932857Y655439D01*
X932834Y655072D01*
X932803Y654705D01*
X932762Y654339D01*
X932713Y653974D01*
X932654Y653611D01*
X932587Y653249D01*
X932511Y652888D01*
X932425Y652530D01*
X932332Y652174D01*
X932229Y651821D01*
X932118Y651470D01*
X931998Y651122D01*
X931870Y650777D01*
X931733Y650435D01*
X931588Y650096D01*
X931435Y649762D01*
X931273Y649431D01*
X931104Y649104D01*
X930926Y648782D01*
X930741Y648463D01*
X930548Y648150D01*
X930347Y647841D01*
X930139Y647538D01*
X929923Y647240D01*
X929700Y646947D01*
X929470Y646659D01*
X929233Y646377D01*
X928989Y646102D01*
X928739Y645832D01*
X928482Y645568D01*
X928218Y645311D01*
X927948Y645061D01*
X927673Y644817D01*
X927391Y644580D01*
X927103Y644350D01*
X926810Y644127D01*
X926512Y643911D01*
X926209Y643703D01*
X925900Y643502D01*
X925587Y643309D01*
X925268Y643124D01*
X924946Y642946D01*
X924619Y642777D01*
X924288Y642615D01*
X923954Y642462D01*
X923615Y642317D01*
X923273Y642180D01*
X922928Y642052D01*
X922580Y641932D01*
X922229Y641821D01*
X921876Y641718D01*
X921520Y641625D01*
X921162Y641539D01*
X920801Y641463D01*
X920439Y641396D01*
X920076Y641337D01*
X919711Y641288D01*
X919345Y641247D01*
X918978Y641216D01*
X918611Y641193D01*
X918243Y641180D01*
X917875Y641175D01*
X917507Y641180D01*
X917139Y641193D01*
X916772Y641216D01*
X916405Y641247D01*
X916039Y641288D01*
X915674Y641337D01*
X915311Y641396D01*
X914949Y641463D01*
X914588Y641539D01*
X914230Y641625D01*
X913874Y641718D01*
X913521Y641821D01*
X913170Y641932D01*
X912822Y642052D01*
X912477Y642180D01*
X912135Y642317D01*
X911796Y642462D01*
X911462Y642615D01*
X911131Y642777D01*
X910804Y642946D01*
X910482Y643124D01*
X910163Y643309D01*
X909850Y643502D01*
X909541Y643703D01*
X909238Y643911D01*
X908940Y644127D01*
X908647Y644350D01*
X908359Y644580D01*
X908077Y644817D01*
X907802Y645061D01*
X907532Y645311D01*
X907268Y645568D01*
X907011Y645832D01*
X906761Y646102D01*
X906517Y646377D01*
X906280Y646659D01*
X906050Y646947D01*
X905827Y647240D01*
X905611Y647538D01*
X905403Y647841D01*
X905202Y648150D01*
X905009Y648463D01*
X904824Y648782D01*
X904646Y649104D01*
X904477Y649431D01*
X904315Y649762D01*
X904162Y650096D01*
X904017Y650435D01*
X903880Y650777D01*
X903752Y651122D01*
X903632Y651470D01*
X903521Y651821D01*
X903418Y652174D01*
X903325Y652530D01*
X903239Y652888D01*
X903163Y653249D01*
X903096Y653611D01*
X903037Y653974D01*
X902988Y654339D01*
X902947Y654705D01*
X902916Y655072D01*
X902893Y655439D01*
X902880Y655807D01*
X902875Y656175D01*
X968375Y914400D02*
X809625Y914400D01*
X809625Y635000D01*
X968375Y635000D02*
X968375Y914400D01*
X968375Y635000D02*
X809625Y635000D01*
D11*
X863600Y854075D03*
X889000Y828675D03*
X914400Y854075D03*
X889000Y879475D03*
D12*
X927100Y787400D03*
X908050Y758825D03*
X889000Y787400D03*
X869950Y758825D03*
X850900Y787400D03*
D13*
X914400Y822325D02*
X914400Y854075D01*
X914400Y822325D02*
X908050Y815975D01*
X908050Y784225D02*
X882650Y758825D01*
X869950Y758825D01*
X908050Y784225D02*
X908050Y815975D01*
D14*
X831850Y854075D03*
D13*
X889000Y854075D02*
X914400Y854075D01*
X889000Y854075D02*
X873523Y869552D01*
X847327Y869552D01*
X831850Y854075D01*
D14*
X946150Y844550D03*
D13*
X936625Y854075D01*
X914400Y854075D01*
M02*
