G04 EAGLE Gerber RS-274X export*
G75*
%MOMM*%
%FSLAX34Y34*%
%LPD*%
%INSilk bottom*%
%IPPOS*%
%AMOC8*
5,1,8,0,0,1.08239X$1,22.5*%
G01*
%ADD10C,0.000000*%
%ADD11C,0.076200*%
%ADD12C,0.152400*%


D10*
X845725Y656175D02*
X845730Y656543D01*
X845743Y656911D01*
X845766Y657278D01*
X845797Y657645D01*
X845838Y658011D01*
X845887Y658376D01*
X845946Y658739D01*
X846013Y659101D01*
X846089Y659462D01*
X846175Y659820D01*
X846268Y660176D01*
X846371Y660529D01*
X846482Y660880D01*
X846602Y661228D01*
X846730Y661573D01*
X846867Y661915D01*
X847012Y662254D01*
X847165Y662588D01*
X847327Y662919D01*
X847496Y663246D01*
X847674Y663568D01*
X847859Y663887D01*
X848052Y664200D01*
X848253Y664509D01*
X848461Y664812D01*
X848677Y665110D01*
X848900Y665403D01*
X849130Y665691D01*
X849367Y665973D01*
X849611Y666248D01*
X849861Y666518D01*
X850118Y666782D01*
X850382Y667039D01*
X850652Y667289D01*
X850927Y667533D01*
X851209Y667770D01*
X851497Y668000D01*
X851790Y668223D01*
X852088Y668439D01*
X852391Y668647D01*
X852700Y668848D01*
X853013Y669041D01*
X853332Y669226D01*
X853654Y669404D01*
X853981Y669573D01*
X854312Y669735D01*
X854646Y669888D01*
X854985Y670033D01*
X855327Y670170D01*
X855672Y670298D01*
X856020Y670418D01*
X856371Y670529D01*
X856724Y670632D01*
X857080Y670725D01*
X857438Y670811D01*
X857799Y670887D01*
X858161Y670954D01*
X858524Y671013D01*
X858889Y671062D01*
X859255Y671103D01*
X859622Y671134D01*
X859989Y671157D01*
X860357Y671170D01*
X860725Y671175D01*
X861093Y671170D01*
X861461Y671157D01*
X861828Y671134D01*
X862195Y671103D01*
X862561Y671062D01*
X862926Y671013D01*
X863289Y670954D01*
X863651Y670887D01*
X864012Y670811D01*
X864370Y670725D01*
X864726Y670632D01*
X865079Y670529D01*
X865430Y670418D01*
X865778Y670298D01*
X866123Y670170D01*
X866465Y670033D01*
X866804Y669888D01*
X867138Y669735D01*
X867469Y669573D01*
X867796Y669404D01*
X868118Y669226D01*
X868437Y669041D01*
X868750Y668848D01*
X869059Y668647D01*
X869362Y668439D01*
X869660Y668223D01*
X869953Y668000D01*
X870241Y667770D01*
X870523Y667533D01*
X870798Y667289D01*
X871068Y667039D01*
X871332Y666782D01*
X871589Y666518D01*
X871839Y666248D01*
X872083Y665973D01*
X872320Y665691D01*
X872550Y665403D01*
X872773Y665110D01*
X872989Y664812D01*
X873197Y664509D01*
X873398Y664200D01*
X873591Y663887D01*
X873776Y663568D01*
X873954Y663246D01*
X874123Y662919D01*
X874285Y662588D01*
X874438Y662254D01*
X874583Y661915D01*
X874720Y661573D01*
X874848Y661228D01*
X874968Y660880D01*
X875079Y660529D01*
X875182Y660176D01*
X875275Y659820D01*
X875361Y659462D01*
X875437Y659101D01*
X875504Y658739D01*
X875563Y658376D01*
X875612Y658011D01*
X875653Y657645D01*
X875684Y657278D01*
X875707Y656911D01*
X875720Y656543D01*
X875725Y656175D01*
X875720Y655807D01*
X875707Y655439D01*
X875684Y655072D01*
X875653Y654705D01*
X875612Y654339D01*
X875563Y653974D01*
X875504Y653611D01*
X875437Y653249D01*
X875361Y652888D01*
X875275Y652530D01*
X875182Y652174D01*
X875079Y651821D01*
X874968Y651470D01*
X874848Y651122D01*
X874720Y650777D01*
X874583Y650435D01*
X874438Y650096D01*
X874285Y649762D01*
X874123Y649431D01*
X873954Y649104D01*
X873776Y648782D01*
X873591Y648463D01*
X873398Y648150D01*
X873197Y647841D01*
X872989Y647538D01*
X872773Y647240D01*
X872550Y646947D01*
X872320Y646659D01*
X872083Y646377D01*
X871839Y646102D01*
X871589Y645832D01*
X871332Y645568D01*
X871068Y645311D01*
X870798Y645061D01*
X870523Y644817D01*
X870241Y644580D01*
X869953Y644350D01*
X869660Y644127D01*
X869362Y643911D01*
X869059Y643703D01*
X868750Y643502D01*
X868437Y643309D01*
X868118Y643124D01*
X867796Y642946D01*
X867469Y642777D01*
X867138Y642615D01*
X866804Y642462D01*
X866465Y642317D01*
X866123Y642180D01*
X865778Y642052D01*
X865430Y641932D01*
X865079Y641821D01*
X864726Y641718D01*
X864370Y641625D01*
X864012Y641539D01*
X863651Y641463D01*
X863289Y641396D01*
X862926Y641337D01*
X862561Y641288D01*
X862195Y641247D01*
X861828Y641216D01*
X861461Y641193D01*
X861093Y641180D01*
X860725Y641175D01*
X860357Y641180D01*
X859989Y641193D01*
X859622Y641216D01*
X859255Y641247D01*
X858889Y641288D01*
X858524Y641337D01*
X858161Y641396D01*
X857799Y641463D01*
X857438Y641539D01*
X857080Y641625D01*
X856724Y641718D01*
X856371Y641821D01*
X856020Y641932D01*
X855672Y642052D01*
X855327Y642180D01*
X854985Y642317D01*
X854646Y642462D01*
X854312Y642615D01*
X853981Y642777D01*
X853654Y642946D01*
X853332Y643124D01*
X853013Y643309D01*
X852700Y643502D01*
X852391Y643703D01*
X852088Y643911D01*
X851790Y644127D01*
X851497Y644350D01*
X851209Y644580D01*
X850927Y644817D01*
X850652Y645061D01*
X850382Y645311D01*
X850118Y645568D01*
X849861Y645832D01*
X849611Y646102D01*
X849367Y646377D01*
X849130Y646659D01*
X848900Y646947D01*
X848677Y647240D01*
X848461Y647538D01*
X848253Y647841D01*
X848052Y648150D01*
X847859Y648463D01*
X847674Y648782D01*
X847496Y649104D01*
X847327Y649431D01*
X847165Y649762D01*
X847012Y650096D01*
X846867Y650435D01*
X846730Y650777D01*
X846602Y651122D01*
X846482Y651470D01*
X846371Y651821D01*
X846268Y652174D01*
X846175Y652530D01*
X846089Y652888D01*
X846013Y653249D01*
X845946Y653611D01*
X845887Y653974D01*
X845838Y654339D01*
X845797Y654705D01*
X845766Y655072D01*
X845743Y655439D01*
X845730Y655807D01*
X845725Y656175D01*
X902875Y656175D02*
X902880Y656543D01*
X902893Y656911D01*
X902916Y657278D01*
X902947Y657645D01*
X902988Y658011D01*
X903037Y658376D01*
X903096Y658739D01*
X903163Y659101D01*
X903239Y659462D01*
X903325Y659820D01*
X903418Y660176D01*
X903521Y660529D01*
X903632Y660880D01*
X903752Y661228D01*
X903880Y661573D01*
X904017Y661915D01*
X904162Y662254D01*
X904315Y662588D01*
X904477Y662919D01*
X904646Y663246D01*
X904824Y663568D01*
X905009Y663887D01*
X905202Y664200D01*
X905403Y664509D01*
X905611Y664812D01*
X905827Y665110D01*
X906050Y665403D01*
X906280Y665691D01*
X906517Y665973D01*
X906761Y666248D01*
X907011Y666518D01*
X907268Y666782D01*
X907532Y667039D01*
X907802Y667289D01*
X908077Y667533D01*
X908359Y667770D01*
X908647Y668000D01*
X908940Y668223D01*
X909238Y668439D01*
X909541Y668647D01*
X909850Y668848D01*
X910163Y669041D01*
X910482Y669226D01*
X910804Y669404D01*
X911131Y669573D01*
X911462Y669735D01*
X911796Y669888D01*
X912135Y670033D01*
X912477Y670170D01*
X912822Y670298D01*
X913170Y670418D01*
X913521Y670529D01*
X913874Y670632D01*
X914230Y670725D01*
X914588Y670811D01*
X914949Y670887D01*
X915311Y670954D01*
X915674Y671013D01*
X916039Y671062D01*
X916405Y671103D01*
X916772Y671134D01*
X917139Y671157D01*
X917507Y671170D01*
X917875Y671175D01*
X918243Y671170D01*
X918611Y671157D01*
X918978Y671134D01*
X919345Y671103D01*
X919711Y671062D01*
X920076Y671013D01*
X920439Y670954D01*
X920801Y670887D01*
X921162Y670811D01*
X921520Y670725D01*
X921876Y670632D01*
X922229Y670529D01*
X922580Y670418D01*
X922928Y670298D01*
X923273Y670170D01*
X923615Y670033D01*
X923954Y669888D01*
X924288Y669735D01*
X924619Y669573D01*
X924946Y669404D01*
X925268Y669226D01*
X925587Y669041D01*
X925900Y668848D01*
X926209Y668647D01*
X926512Y668439D01*
X926810Y668223D01*
X927103Y668000D01*
X927391Y667770D01*
X927673Y667533D01*
X927948Y667289D01*
X928218Y667039D01*
X928482Y666782D01*
X928739Y666518D01*
X928989Y666248D01*
X929233Y665973D01*
X929470Y665691D01*
X929700Y665403D01*
X929923Y665110D01*
X930139Y664812D01*
X930347Y664509D01*
X930548Y664200D01*
X930741Y663887D01*
X930926Y663568D01*
X931104Y663246D01*
X931273Y662919D01*
X931435Y662588D01*
X931588Y662254D01*
X931733Y661915D01*
X931870Y661573D01*
X931998Y661228D01*
X932118Y660880D01*
X932229Y660529D01*
X932332Y660176D01*
X932425Y659820D01*
X932511Y659462D01*
X932587Y659101D01*
X932654Y658739D01*
X932713Y658376D01*
X932762Y658011D01*
X932803Y657645D01*
X932834Y657278D01*
X932857Y656911D01*
X932870Y656543D01*
X932875Y656175D01*
X932870Y655807D01*
X932857Y655439D01*
X932834Y655072D01*
X932803Y654705D01*
X932762Y654339D01*
X932713Y653974D01*
X932654Y653611D01*
X932587Y653249D01*
X932511Y652888D01*
X932425Y652530D01*
X932332Y652174D01*
X932229Y651821D01*
X932118Y651470D01*
X931998Y651122D01*
X931870Y650777D01*
X931733Y650435D01*
X931588Y650096D01*
X931435Y649762D01*
X931273Y649431D01*
X931104Y649104D01*
X930926Y648782D01*
X930741Y648463D01*
X930548Y648150D01*
X930347Y647841D01*
X930139Y647538D01*
X929923Y647240D01*
X929700Y646947D01*
X929470Y646659D01*
X929233Y646377D01*
X928989Y646102D01*
X928739Y645832D01*
X928482Y645568D01*
X928218Y645311D01*
X927948Y645061D01*
X927673Y644817D01*
X927391Y644580D01*
X927103Y644350D01*
X926810Y644127D01*
X926512Y643911D01*
X926209Y643703D01*
X925900Y643502D01*
X925587Y643309D01*
X925268Y643124D01*
X924946Y642946D01*
X924619Y642777D01*
X924288Y642615D01*
X923954Y642462D01*
X923615Y642317D01*
X923273Y642180D01*
X922928Y642052D01*
X922580Y641932D01*
X922229Y641821D01*
X921876Y641718D01*
X921520Y641625D01*
X921162Y641539D01*
X920801Y641463D01*
X920439Y641396D01*
X920076Y641337D01*
X919711Y641288D01*
X919345Y641247D01*
X918978Y641216D01*
X918611Y641193D01*
X918243Y641180D01*
X917875Y641175D01*
X917507Y641180D01*
X917139Y641193D01*
X916772Y641216D01*
X916405Y641247D01*
X916039Y641288D01*
X915674Y641337D01*
X915311Y641396D01*
X914949Y641463D01*
X914588Y641539D01*
X914230Y641625D01*
X913874Y641718D01*
X913521Y641821D01*
X913170Y641932D01*
X912822Y642052D01*
X912477Y642180D01*
X912135Y642317D01*
X911796Y642462D01*
X911462Y642615D01*
X911131Y642777D01*
X910804Y642946D01*
X910482Y643124D01*
X910163Y643309D01*
X909850Y643502D01*
X909541Y643703D01*
X909238Y643911D01*
X908940Y644127D01*
X908647Y644350D01*
X908359Y644580D01*
X908077Y644817D01*
X907802Y645061D01*
X907532Y645311D01*
X907268Y645568D01*
X907011Y645832D01*
X906761Y646102D01*
X906517Y646377D01*
X906280Y646659D01*
X906050Y646947D01*
X905827Y647240D01*
X905611Y647538D01*
X905403Y647841D01*
X905202Y648150D01*
X905009Y648463D01*
X904824Y648782D01*
X904646Y649104D01*
X904477Y649431D01*
X904315Y649762D01*
X904162Y650096D01*
X904017Y650435D01*
X903880Y650777D01*
X903752Y651122D01*
X903632Y651470D01*
X903521Y651821D01*
X903418Y652174D01*
X903325Y652530D01*
X903239Y652888D01*
X903163Y653249D01*
X903096Y653611D01*
X903037Y653974D01*
X902988Y654339D01*
X902947Y654705D01*
X902916Y655072D01*
X902893Y655439D01*
X902880Y655807D01*
X902875Y656175D01*
X968375Y914400D02*
X809625Y914400D01*
X809625Y635000D01*
X968375Y635000D02*
X968375Y914400D01*
X968375Y635000D02*
X809625Y635000D01*
D11*
X844931Y884668D02*
X844931Y886305D01*
X844931Y884668D02*
X844933Y884590D01*
X844938Y884512D01*
X844948Y884435D01*
X844961Y884358D01*
X844977Y884282D01*
X844997Y884207D01*
X845021Y884133D01*
X845048Y884060D01*
X845079Y883988D01*
X845113Y883918D01*
X845150Y883850D01*
X845191Y883783D01*
X845235Y883718D01*
X845281Y883656D01*
X845331Y883596D01*
X845383Y883538D01*
X845438Y883483D01*
X845496Y883431D01*
X845556Y883381D01*
X845618Y883335D01*
X845683Y883291D01*
X845750Y883250D01*
X845818Y883213D01*
X845888Y883179D01*
X845960Y883148D01*
X846033Y883121D01*
X846107Y883097D01*
X846182Y883077D01*
X846258Y883061D01*
X846335Y883048D01*
X846412Y883038D01*
X846490Y883033D01*
X846568Y883031D01*
X850660Y883031D01*
X850738Y883033D01*
X850816Y883038D01*
X850893Y883048D01*
X850970Y883061D01*
X851046Y883077D01*
X851121Y883097D01*
X851195Y883121D01*
X851268Y883148D01*
X851340Y883179D01*
X851410Y883213D01*
X851479Y883250D01*
X851545Y883291D01*
X851610Y883335D01*
X851672Y883381D01*
X851732Y883431D01*
X851790Y883483D01*
X851845Y883538D01*
X851897Y883596D01*
X851947Y883656D01*
X851993Y883718D01*
X852037Y883783D01*
X852078Y883850D01*
X852115Y883918D01*
X852149Y883988D01*
X852180Y884060D01*
X852207Y884133D01*
X852231Y884207D01*
X852251Y884282D01*
X852267Y884358D01*
X852280Y884435D01*
X852290Y884512D01*
X852295Y884590D01*
X852297Y884668D01*
X852297Y886305D01*
X852298Y891401D02*
X852296Y891486D01*
X852290Y891571D01*
X852280Y891655D01*
X852267Y891739D01*
X852249Y891823D01*
X852228Y891905D01*
X852203Y891986D01*
X852174Y892066D01*
X852141Y892145D01*
X852105Y892222D01*
X852065Y892297D01*
X852022Y892371D01*
X851976Y892442D01*
X851926Y892511D01*
X851873Y892578D01*
X851817Y892642D01*
X851758Y892703D01*
X851697Y892762D01*
X851633Y892818D01*
X851566Y892871D01*
X851497Y892921D01*
X851426Y892967D01*
X851352Y893010D01*
X851277Y893050D01*
X851200Y893086D01*
X851121Y893119D01*
X851041Y893148D01*
X850960Y893173D01*
X850878Y893194D01*
X850794Y893212D01*
X850710Y893225D01*
X850626Y893235D01*
X850541Y893241D01*
X850456Y893243D01*
X852297Y891401D02*
X852295Y891305D01*
X852289Y891209D01*
X852279Y891114D01*
X852266Y891019D01*
X852248Y890924D01*
X852227Y890831D01*
X852202Y890738D01*
X852173Y890647D01*
X852141Y890556D01*
X852105Y890467D01*
X852065Y890380D01*
X852022Y890294D01*
X851976Y890210D01*
X851926Y890128D01*
X851872Y890048D01*
X851816Y889971D01*
X851756Y889896D01*
X851694Y889823D01*
X851628Y889753D01*
X851560Y889685D01*
X851489Y889620D01*
X851416Y889559D01*
X851340Y889500D01*
X851261Y889444D01*
X851181Y889392D01*
X851098Y889343D01*
X851014Y889297D01*
X850928Y889255D01*
X850840Y889217D01*
X850751Y889182D01*
X850660Y889150D01*
X849024Y892628D02*
X849083Y892688D01*
X849145Y892745D01*
X849209Y892800D01*
X849276Y892851D01*
X849345Y892900D01*
X849415Y892946D01*
X849488Y892989D01*
X849562Y893029D01*
X849638Y893065D01*
X849716Y893098D01*
X849795Y893128D01*
X849875Y893155D01*
X849956Y893178D01*
X850038Y893197D01*
X850120Y893213D01*
X850204Y893226D01*
X850288Y893235D01*
X850372Y893240D01*
X850456Y893242D01*
X849023Y892628D02*
X844931Y889150D01*
X844931Y893242D01*
X927481Y683105D02*
X927481Y681468D01*
X927483Y681390D01*
X927488Y681312D01*
X927498Y681235D01*
X927511Y681158D01*
X927527Y681082D01*
X927547Y681007D01*
X927571Y680933D01*
X927598Y680860D01*
X927629Y680788D01*
X927663Y680718D01*
X927700Y680650D01*
X927741Y680583D01*
X927785Y680518D01*
X927831Y680456D01*
X927881Y680396D01*
X927933Y680338D01*
X927988Y680283D01*
X928046Y680231D01*
X928106Y680181D01*
X928168Y680135D01*
X928233Y680091D01*
X928300Y680050D01*
X928368Y680013D01*
X928438Y679979D01*
X928510Y679948D01*
X928583Y679921D01*
X928657Y679897D01*
X928732Y679877D01*
X928808Y679861D01*
X928885Y679848D01*
X928962Y679838D01*
X929040Y679833D01*
X929118Y679831D01*
X933210Y679831D01*
X933288Y679833D01*
X933366Y679838D01*
X933443Y679848D01*
X933520Y679861D01*
X933596Y679877D01*
X933671Y679897D01*
X933745Y679921D01*
X933818Y679948D01*
X933890Y679979D01*
X933960Y680013D01*
X934029Y680050D01*
X934095Y680091D01*
X934160Y680135D01*
X934222Y680181D01*
X934282Y680231D01*
X934340Y680283D01*
X934395Y680338D01*
X934447Y680396D01*
X934497Y680456D01*
X934543Y680518D01*
X934587Y680583D01*
X934628Y680650D01*
X934665Y680718D01*
X934699Y680788D01*
X934730Y680860D01*
X934757Y680933D01*
X934781Y681007D01*
X934801Y681082D01*
X934817Y681158D01*
X934830Y681235D01*
X934840Y681312D01*
X934845Y681390D01*
X934847Y681468D01*
X934847Y683105D01*
X933210Y685950D02*
X934847Y687996D01*
X927481Y687996D01*
X927481Y685950D02*
X927481Y690042D01*
X927481Y813181D02*
X934847Y813181D01*
X934847Y815227D01*
X934845Y815316D01*
X934839Y815405D01*
X934829Y815494D01*
X934816Y815582D01*
X934799Y815670D01*
X934777Y815757D01*
X934752Y815842D01*
X934724Y815927D01*
X934691Y816010D01*
X934655Y816092D01*
X934616Y816172D01*
X934573Y816250D01*
X934527Y816326D01*
X934477Y816401D01*
X934424Y816473D01*
X934368Y816542D01*
X934309Y816609D01*
X934248Y816674D01*
X934183Y816735D01*
X934116Y816794D01*
X934047Y816850D01*
X933975Y816903D01*
X933900Y816953D01*
X933824Y816999D01*
X933746Y817042D01*
X933666Y817081D01*
X933584Y817117D01*
X933501Y817150D01*
X933416Y817178D01*
X933331Y817203D01*
X933244Y817225D01*
X933156Y817242D01*
X933068Y817255D01*
X932979Y817265D01*
X932890Y817271D01*
X932801Y817273D01*
X932712Y817271D01*
X932623Y817265D01*
X932534Y817255D01*
X932446Y817242D01*
X932358Y817225D01*
X932271Y817203D01*
X932186Y817178D01*
X932101Y817150D01*
X932018Y817117D01*
X931936Y817081D01*
X931856Y817042D01*
X931778Y816999D01*
X931702Y816953D01*
X931627Y816903D01*
X931555Y816850D01*
X931486Y816794D01*
X931419Y816735D01*
X931354Y816674D01*
X931293Y816609D01*
X931234Y816542D01*
X931178Y816473D01*
X931125Y816401D01*
X931075Y816326D01*
X931029Y816250D01*
X930986Y816172D01*
X930947Y816092D01*
X930911Y816010D01*
X930878Y815927D01*
X930850Y815842D01*
X930825Y815757D01*
X930803Y815670D01*
X930786Y815582D01*
X930773Y815494D01*
X930763Y815405D01*
X930757Y815316D01*
X930755Y815227D01*
X930755Y813181D01*
X930755Y815636D02*
X927481Y817273D01*
X933210Y820445D02*
X934847Y822491D01*
X927481Y822491D01*
X927481Y820445D02*
X927481Y824537D01*
X852297Y813181D02*
X844931Y813181D01*
X852297Y813181D02*
X852297Y815227D01*
X852295Y815316D01*
X852289Y815405D01*
X852279Y815494D01*
X852266Y815582D01*
X852249Y815670D01*
X852227Y815757D01*
X852202Y815842D01*
X852174Y815927D01*
X852141Y816010D01*
X852105Y816092D01*
X852066Y816172D01*
X852023Y816250D01*
X851977Y816326D01*
X851927Y816401D01*
X851874Y816473D01*
X851818Y816542D01*
X851759Y816609D01*
X851698Y816674D01*
X851633Y816735D01*
X851566Y816794D01*
X851497Y816850D01*
X851425Y816903D01*
X851350Y816953D01*
X851274Y816999D01*
X851196Y817042D01*
X851116Y817081D01*
X851034Y817117D01*
X850951Y817150D01*
X850866Y817178D01*
X850781Y817203D01*
X850694Y817225D01*
X850606Y817242D01*
X850518Y817255D01*
X850429Y817265D01*
X850340Y817271D01*
X850251Y817273D01*
X850162Y817271D01*
X850073Y817265D01*
X849984Y817255D01*
X849896Y817242D01*
X849808Y817225D01*
X849721Y817203D01*
X849636Y817178D01*
X849551Y817150D01*
X849468Y817117D01*
X849386Y817081D01*
X849306Y817042D01*
X849228Y816999D01*
X849152Y816953D01*
X849077Y816903D01*
X849005Y816850D01*
X848936Y816794D01*
X848869Y816735D01*
X848804Y816674D01*
X848743Y816609D01*
X848684Y816542D01*
X848628Y816473D01*
X848575Y816401D01*
X848525Y816326D01*
X848479Y816250D01*
X848436Y816172D01*
X848397Y816092D01*
X848361Y816010D01*
X848328Y815927D01*
X848300Y815842D01*
X848275Y815757D01*
X848253Y815670D01*
X848236Y815582D01*
X848223Y815494D01*
X848213Y815405D01*
X848207Y815316D01*
X848205Y815227D01*
X848205Y813181D01*
X848205Y815636D02*
X844931Y817273D01*
X850456Y824538D02*
X850541Y824536D01*
X850626Y824530D01*
X850710Y824520D01*
X850794Y824507D01*
X850878Y824489D01*
X850960Y824468D01*
X851041Y824443D01*
X851121Y824414D01*
X851200Y824381D01*
X851277Y824345D01*
X851352Y824305D01*
X851426Y824262D01*
X851497Y824216D01*
X851566Y824166D01*
X851633Y824113D01*
X851697Y824057D01*
X851758Y823998D01*
X851817Y823937D01*
X851873Y823873D01*
X851926Y823806D01*
X851976Y823737D01*
X852022Y823666D01*
X852065Y823592D01*
X852105Y823517D01*
X852141Y823440D01*
X852174Y823361D01*
X852203Y823281D01*
X852228Y823200D01*
X852249Y823118D01*
X852267Y823034D01*
X852280Y822950D01*
X852290Y822866D01*
X852296Y822781D01*
X852298Y822696D01*
X852297Y822696D02*
X852295Y822600D01*
X852289Y822504D01*
X852279Y822409D01*
X852266Y822314D01*
X852248Y822219D01*
X852227Y822126D01*
X852202Y822033D01*
X852173Y821942D01*
X852141Y821851D01*
X852105Y821762D01*
X852065Y821675D01*
X852022Y821589D01*
X851976Y821505D01*
X851926Y821423D01*
X851872Y821343D01*
X851816Y821266D01*
X851756Y821191D01*
X851694Y821118D01*
X851628Y821048D01*
X851560Y820980D01*
X851489Y820915D01*
X851416Y820854D01*
X851340Y820795D01*
X851261Y820739D01*
X851181Y820687D01*
X851098Y820638D01*
X851014Y820592D01*
X850928Y820550D01*
X850840Y820512D01*
X850751Y820477D01*
X850660Y820445D01*
X849024Y823923D02*
X849083Y823983D01*
X849145Y824040D01*
X849209Y824095D01*
X849276Y824146D01*
X849345Y824195D01*
X849415Y824241D01*
X849488Y824284D01*
X849562Y824324D01*
X849638Y824360D01*
X849716Y824393D01*
X849795Y824423D01*
X849875Y824450D01*
X849956Y824473D01*
X850038Y824492D01*
X850120Y824508D01*
X850204Y824521D01*
X850288Y824530D01*
X850372Y824535D01*
X850456Y824537D01*
X849023Y823923D02*
X844931Y820445D01*
X844931Y824537D01*
D12*
X875284Y739267D02*
X902716Y739267D01*
X902716Y689483D02*
X892048Y689483D01*
X885952Y689483D01*
X875284Y689483D01*
D10*
X885952Y689483D02*
X885954Y689592D01*
X885960Y689700D01*
X885969Y689809D01*
X885983Y689917D01*
X886000Y690024D01*
X886022Y690131D01*
X886047Y690237D01*
X886075Y690342D01*
X886108Y690446D01*
X886144Y690548D01*
X886184Y690649D01*
X886227Y690749D01*
X886274Y690847D01*
X886325Y690944D01*
X886379Y691038D01*
X886436Y691131D01*
X886496Y691221D01*
X886560Y691310D01*
X886627Y691396D01*
X886696Y691479D01*
X886769Y691560D01*
X886845Y691638D01*
X886923Y691714D01*
X887004Y691787D01*
X887087Y691856D01*
X887173Y691923D01*
X887262Y691987D01*
X887352Y692047D01*
X887445Y692104D01*
X887539Y692158D01*
X887636Y692209D01*
X887734Y692256D01*
X887834Y692299D01*
X887935Y692339D01*
X888037Y692375D01*
X888141Y692408D01*
X888246Y692436D01*
X888352Y692461D01*
X888459Y692483D01*
X888566Y692500D01*
X888674Y692514D01*
X888783Y692523D01*
X888891Y692529D01*
X889000Y692531D01*
X889109Y692529D01*
X889217Y692523D01*
X889326Y692514D01*
X889434Y692500D01*
X889541Y692483D01*
X889648Y692461D01*
X889754Y692436D01*
X889859Y692408D01*
X889963Y692375D01*
X890065Y692339D01*
X890166Y692299D01*
X890266Y692256D01*
X890364Y692209D01*
X890461Y692158D01*
X890555Y692104D01*
X890648Y692047D01*
X890738Y691987D01*
X890827Y691923D01*
X890913Y691856D01*
X890996Y691787D01*
X891077Y691714D01*
X891155Y691638D01*
X891231Y691560D01*
X891304Y691479D01*
X891373Y691396D01*
X891440Y691310D01*
X891504Y691221D01*
X891564Y691131D01*
X891621Y691038D01*
X891675Y690944D01*
X891726Y690847D01*
X891773Y690749D01*
X891816Y690649D01*
X891856Y690548D01*
X891892Y690446D01*
X891925Y690342D01*
X891953Y690237D01*
X891978Y690131D01*
X892000Y690024D01*
X892017Y689917D01*
X892031Y689809D01*
X892040Y689700D01*
X892046Y689592D01*
X892048Y689483D01*
D11*
X894969Y684022D02*
X894969Y678702D01*
X894967Y678613D01*
X894961Y678524D01*
X894951Y678435D01*
X894938Y678347D01*
X894921Y678259D01*
X894899Y678172D01*
X894874Y678087D01*
X894846Y678002D01*
X894813Y677919D01*
X894777Y677837D01*
X894738Y677757D01*
X894695Y677679D01*
X894649Y677603D01*
X894599Y677528D01*
X894546Y677456D01*
X894490Y677387D01*
X894431Y677320D01*
X894370Y677255D01*
X894305Y677194D01*
X894238Y677135D01*
X894169Y677079D01*
X894097Y677026D01*
X894022Y676976D01*
X893946Y676930D01*
X893868Y676887D01*
X893788Y676848D01*
X893706Y676812D01*
X893623Y676779D01*
X893538Y676751D01*
X893453Y676726D01*
X893366Y676704D01*
X893278Y676687D01*
X893190Y676674D01*
X893101Y676664D01*
X893012Y676658D01*
X892923Y676656D01*
X892834Y676658D01*
X892745Y676664D01*
X892656Y676674D01*
X892568Y676687D01*
X892480Y676704D01*
X892393Y676726D01*
X892308Y676751D01*
X892223Y676779D01*
X892140Y676812D01*
X892058Y676848D01*
X891978Y676887D01*
X891900Y676930D01*
X891824Y676976D01*
X891749Y677026D01*
X891677Y677079D01*
X891608Y677135D01*
X891541Y677194D01*
X891476Y677255D01*
X891415Y677320D01*
X891356Y677387D01*
X891300Y677456D01*
X891247Y677528D01*
X891197Y677603D01*
X891151Y677679D01*
X891108Y677757D01*
X891069Y677837D01*
X891033Y677919D01*
X891000Y678002D01*
X890972Y678087D01*
X890947Y678172D01*
X890925Y678259D01*
X890908Y678347D01*
X890895Y678435D01*
X890885Y678524D01*
X890879Y678613D01*
X890877Y678702D01*
X890877Y684022D01*
X887410Y682385D02*
X885364Y684022D01*
X885364Y676656D01*
X887410Y676656D02*
X883318Y676656D01*
M02*
