G04 EAGLE Gerber RS-274X export*
G75*
%MOMM*%
%FSLAX34Y34*%
%LPD*%
%INSoldermask Top*%
%IPPOS*%
%AMOC8*
5,1,8,0,0,1.08239X$1,22.5*%
G01*
%ADD10R,1.203200X1.303200*%
%ADD11R,1.303200X1.203200*%
%ADD12R,2.603200X1.803200*%
%ADD13R,1.703200X1.503200*%
%ADD14R,1.574800X0.609600*%
%ADD15C,2.003200*%
%ADD16C,0.903200*%
%ADD17R,0.603200X1.703200*%
%ADD18R,1.422400X2.438400*%
%ADD19R,3.803200X2.403200*%
%ADD20R,1.403200X0.753200*%
%ADD21R,0.762000X1.473200*%
%ADD22R,0.762000X2.184400*%
%ADD23R,1.727200X4.267200*%
%ADD24R,1.473200X4.267200*%
%ADD25R,0.508000X1.193800*%
%ADD26R,0.457200X1.270000*%
%ADD27R,2.203200X2.203200*%
%ADD28R,1.503200X1.703200*%
%ADD29R,2.200000X1.150000*%
%ADD30R,3.050000X1.300000*%
%ADD31R,1.003200X0.503200*%
%ADD32R,1.803200X2.603200*%
%ADD33R,0.558800X1.676400*%
%ADD34R,1.003200X2.003200*%
%ADD35R,1.403200X0.903200*%
%ADD36R,1.003200X1.203200*%
%ADD37R,1.403200X1.203200*%
%ADD38R,3.003200X1.203200*%
%ADD39R,2.103200X1.503200*%
%ADD40C,3.083200*%
%ADD41C,1.823200*%
%ADD42C,3.403200*%
%ADD43R,1.703200X2.703200*%
%ADD44R,1.003200X1.003200*%
%ADD45R,0.703200X1.103200*%
%ADD46R,1.203200X1.603200*%
%ADD47R,1.503200X1.303200*%
%ADD48R,2.039200X2.039200*%
%ADD49C,2.039200*%
%ADD50C,3.203200*%
%ADD51R,0.495200X1.109200*%
%ADD52C,0.495200*%
%ADD53R,2.003200X1.203200*%
%ADD54R,1.311200X1.311200*%
%ADD55C,1.311200*%
%ADD56R,1.113200X1.423200*%
%ADD57R,1.423200X1.113200*%
%ADD58R,1.603200X2.003200*%
%ADD59R,1.203200X1.403200*%
%ADD60R,0.803200X1.103200*%
%ADD61R,1.203200X0.803200*%
%ADD62R,0.803200X0.803200*%
%ADD63R,0.553200X1.053200*%
%ADD64R,1.053200X0.553200*%
%ADD65C,0.390319*%
%ADD66R,1.092200X0.990600*%
%ADD67R,0.762200X0.927200*%
%ADD68R,1.203200X1.803200*%
%ADD69R,1.703200X3.403200*%
%ADD70R,1.803400X1.371600*%
%ADD71R,1.828800X0.152400*%
%ADD72R,1.603200X1.203200*%
%ADD73C,0.481788*%
%ADD74R,0.903200X0.453200*%
%ADD75R,0.453200X0.903200*%
%ADD76C,0.855600*%
%ADD77C,1.155600*%


D10*
X528320Y361560D03*
X528320Y344560D03*
X899160Y34680D03*
X899160Y51680D03*
D11*
X814460Y657860D03*
X831460Y657860D03*
D10*
X591820Y446160D03*
X591820Y463160D03*
X469900Y323460D03*
X469900Y306460D03*
X508000Y361560D03*
X508000Y344560D03*
D11*
X488560Y355600D03*
X471560Y355600D03*
D12*
X114300Y451880D03*
X114300Y421880D03*
X193040Y424420D03*
X193040Y454420D03*
D11*
X613800Y396240D03*
X630800Y396240D03*
X138820Y363220D03*
X155820Y363220D03*
X65160Y426720D03*
X82160Y426720D03*
X613800Y421640D03*
X630800Y421640D03*
D10*
X619760Y616340D03*
X619760Y633340D03*
D13*
X91440Y276200D03*
X91440Y257200D03*
D10*
X116840Y323460D03*
X116840Y306460D03*
X210820Y183760D03*
X210820Y166760D03*
X317500Y212480D03*
X317500Y229480D03*
D11*
X458080Y375920D03*
X441080Y375920D03*
D10*
X208280Y381880D03*
X208280Y364880D03*
D11*
X819540Y248920D03*
X836540Y248920D03*
D14*
X43815Y398780D03*
X43815Y405193D03*
X43815Y385955D03*
D15*
X27256Y434896D02*
X9256Y434896D01*
X9256Y362664D02*
X27256Y362664D01*
D14*
X43815Y392368D03*
X43815Y411605D03*
D16*
X44450Y422989D03*
X44450Y374571D03*
D17*
X595970Y630610D03*
X589470Y630610D03*
X582970Y630610D03*
X576470Y630610D03*
X569970Y630610D03*
X563470Y630610D03*
X556970Y630610D03*
X550470Y630610D03*
X543970Y630610D03*
X537470Y630610D03*
X530970Y630610D03*
X524470Y630610D03*
X517970Y630610D03*
X511470Y630610D03*
X511470Y558110D03*
X517970Y558110D03*
X524470Y558110D03*
X530970Y558110D03*
X537470Y558110D03*
X543970Y558110D03*
X550470Y558110D03*
X556970Y558110D03*
X563470Y558110D03*
X569970Y558110D03*
X576470Y558110D03*
X582970Y558110D03*
X589470Y558110D03*
X595970Y558110D03*
D18*
X233426Y362712D03*
X256540Y362712D03*
X279654Y362712D03*
D19*
X256540Y424690D03*
D20*
X165401Y381660D03*
X165401Y391160D03*
X165401Y400660D03*
X139399Y400660D03*
X139399Y381660D03*
D10*
X80400Y342900D03*
X97400Y342900D03*
D11*
X922020Y69460D03*
X922020Y52460D03*
D10*
X488560Y375920D03*
X471560Y375920D03*
D11*
X63500Y275980D03*
X63500Y292980D03*
X152400Y433460D03*
X152400Y450460D03*
X63500Y333620D03*
X63500Y316620D03*
D10*
X184540Y401320D03*
X201540Y401320D03*
D11*
X185420Y364880D03*
X185420Y381880D03*
D10*
X492370Y584200D03*
X475370Y584200D03*
D21*
X229362Y169926D03*
X238760Y169926D03*
X248158Y169926D03*
X248158Y195834D03*
X238760Y195834D03*
X229362Y195834D03*
X285242Y169926D03*
X294640Y169926D03*
X304038Y169926D03*
X304038Y195834D03*
X294640Y195834D03*
X285242Y195834D03*
D22*
X402590Y267462D03*
X415290Y267462D03*
X427990Y267462D03*
X440690Y267462D03*
X440690Y316738D03*
X427990Y316738D03*
X415290Y316738D03*
X402590Y316738D03*
D23*
X982980Y20320D03*
X932180Y20320D03*
D24*
X957580Y20320D03*
D25*
X518050Y196818D03*
X511550Y196818D03*
X505050Y196818D03*
X498550Y196818D03*
X492050Y196818D03*
X485550Y196818D03*
X479050Y196818D03*
X472550Y196818D03*
X472550Y138462D03*
X479050Y138462D03*
X485550Y138462D03*
X492050Y138462D03*
X498550Y138462D03*
X505050Y138462D03*
X511550Y138462D03*
X518050Y138462D03*
D26*
X541020Y273304D03*
X535940Y273304D03*
X530860Y273304D03*
X525780Y273304D03*
X525780Y244856D03*
X530860Y244856D03*
X535940Y244856D03*
X541020Y244856D03*
D27*
X90960Y637540D03*
X30960Y637540D03*
D28*
X156820Y256540D03*
X137820Y256540D03*
D29*
X356980Y437370D03*
D30*
X352730Y449120D03*
D29*
X356980Y593870D03*
D30*
X352730Y582120D03*
D31*
X372980Y563120D03*
X372980Y558120D03*
X372980Y553120D03*
X372980Y548120D03*
X372980Y543120D03*
X372980Y538120D03*
X372980Y533120D03*
X372980Y528120D03*
X372980Y523120D03*
X372980Y518120D03*
X372980Y513120D03*
X372980Y508120D03*
X372980Y503120D03*
X372980Y498120D03*
X372980Y493120D03*
X372980Y488120D03*
X372980Y483120D03*
X372980Y478120D03*
X372980Y473120D03*
X372980Y468120D03*
D11*
X486020Y248920D03*
X469020Y248920D03*
D10*
X601980Y245500D03*
X601980Y262500D03*
D32*
X487440Y223520D03*
X457440Y223520D03*
D33*
X541782Y138430D03*
X548386Y138430D03*
X554736Y138430D03*
X561340Y138430D03*
X567944Y138430D03*
X574294Y138430D03*
X580898Y138430D03*
X580898Y196850D03*
X574294Y196850D03*
X567944Y196850D03*
X561340Y196850D03*
X554736Y196850D03*
X548386Y196850D03*
X541782Y196850D03*
X448818Y196850D03*
X442214Y196850D03*
X435864Y196850D03*
X429260Y196850D03*
X422656Y196850D03*
X416306Y196850D03*
X409702Y196850D03*
X409702Y138430D03*
X416306Y138430D03*
X422656Y138430D03*
X429260Y138430D03*
X435864Y138430D03*
X442214Y138430D03*
X448818Y138430D03*
D11*
X405520Y223520D03*
X422520Y223520D03*
D10*
X508000Y103260D03*
X508000Y120260D03*
D34*
X827700Y93480D03*
X838700Y93480D03*
X849700Y93480D03*
X860700Y93480D03*
X871700Y93480D03*
X882700Y93480D03*
X893700Y93480D03*
X923700Y93480D03*
X934700Y93480D03*
X945700Y93480D03*
X956700Y93480D03*
X967700Y93480D03*
X967700Y213480D03*
X956700Y213480D03*
X945700Y213480D03*
X934700Y213480D03*
X923700Y213480D03*
X893700Y213480D03*
X882700Y213480D03*
X871700Y213480D03*
X860700Y213480D03*
X849700Y213480D03*
X838700Y213480D03*
X827700Y213480D03*
D20*
X804879Y621640D03*
X804879Y612140D03*
X804879Y602640D03*
X830881Y602640D03*
X830881Y621640D03*
D35*
X862060Y623820D03*
X862060Y612820D03*
X862060Y601820D03*
X862060Y590820D03*
X862060Y579820D03*
X862060Y568820D03*
X862060Y557820D03*
X862060Y546820D03*
D36*
X967060Y527820D03*
D35*
X862060Y537320D03*
D37*
X862060Y639320D03*
X905060Y527820D03*
D38*
X1008560Y527820D03*
D39*
X1013060Y662820D03*
D40*
X181580Y38100D03*
X26180Y38100D03*
D41*
X72130Y157500D03*
X148330Y157500D03*
X122930Y157500D03*
X135630Y132100D03*
X110230Y132100D03*
X59430Y132100D03*
X84830Y132100D03*
X97530Y157500D03*
D42*
X161030Y68700D03*
X46730Y68700D03*
D43*
X140180Y299720D03*
X200180Y299720D03*
D44*
X939800Y53340D03*
X955040Y53340D03*
D45*
X754950Y650350D03*
X746950Y650350D03*
X738950Y650350D03*
X730950Y650350D03*
X730950Y632350D03*
X738950Y632350D03*
X746950Y632350D03*
X754950Y632350D03*
X246950Y650350D03*
X238950Y650350D03*
X230950Y650350D03*
X222950Y650350D03*
X222950Y632350D03*
X230950Y632350D03*
X238950Y632350D03*
X246950Y632350D03*
X269940Y211980D03*
X277940Y211980D03*
X285940Y211980D03*
X293940Y211980D03*
X293940Y229980D03*
X285940Y229980D03*
X277940Y229980D03*
X269940Y229980D03*
D11*
X421640Y623960D03*
X421640Y640960D03*
X421640Y607940D03*
X421640Y590940D03*
D10*
X814460Y637540D03*
X831460Y637540D03*
D11*
X579120Y245500D03*
X579120Y262500D03*
X556260Y262500D03*
X556260Y245500D03*
X510540Y262500D03*
X510540Y245500D03*
X226060Y133740D03*
X226060Y150740D03*
X251460Y133740D03*
X251460Y150740D03*
X302260Y133740D03*
X302260Y150740D03*
X266700Y186300D03*
X266700Y169300D03*
X276860Y133740D03*
X276860Y150740D03*
X327660Y133740D03*
X327660Y150740D03*
X370840Y206620D03*
X370840Y189620D03*
X337820Y206620D03*
X337820Y189620D03*
D10*
X415680Y528320D03*
X432680Y528320D03*
X948300Y469900D03*
X931300Y469900D03*
X914400Y481720D03*
X914400Y498720D03*
X853440Y481720D03*
X853440Y498720D03*
D11*
X956700Y444500D03*
X973700Y444500D03*
D10*
X956700Y375920D03*
X973700Y375920D03*
X853440Y443620D03*
X853440Y460620D03*
D12*
X868680Y368060D03*
X868680Y338060D03*
D11*
X896620Y344560D03*
X896620Y361560D03*
D44*
X1008380Y345560D03*
X1008380Y360560D03*
D10*
X956700Y340360D03*
X973700Y340360D03*
D44*
X1008380Y426600D03*
X1008380Y411600D03*
X1008380Y378580D03*
X1008380Y393580D03*
D10*
X956700Y424180D03*
X973700Y424180D03*
D46*
X739140Y143940D03*
X729640Y165940D03*
X748640Y165940D03*
D11*
X805180Y504580D03*
X805180Y521580D03*
X825500Y504580D03*
X825500Y521580D03*
D10*
X805180Y535060D03*
X805180Y552060D03*
X825500Y535060D03*
X825500Y552060D03*
D11*
X818760Y431800D03*
X801760Y431800D03*
D47*
X892880Y499220D03*
X869880Y499220D03*
X869880Y481220D03*
X892880Y481220D03*
D10*
X38980Y309880D03*
X21980Y309880D03*
D48*
X601500Y78760D03*
D49*
X571500Y78760D03*
X541500Y78760D03*
X601500Y108760D03*
X571500Y108760D03*
X541500Y108760D03*
D50*
X571500Y35560D03*
D48*
X449100Y78760D03*
D49*
X419100Y78760D03*
X389100Y78760D03*
X449100Y108760D03*
X419100Y108760D03*
X389100Y108760D03*
D50*
X419100Y35560D03*
D48*
X296700Y78760D03*
D49*
X266700Y78760D03*
X236700Y78760D03*
X296700Y108760D03*
X266700Y108760D03*
X236700Y108760D03*
D50*
X266700Y35560D03*
D20*
X477821Y615340D03*
X477821Y624840D03*
X477821Y634340D03*
X451819Y634340D03*
X451819Y615340D03*
D51*
X805590Y448250D03*
D52*
X812090Y445180D02*
X812090Y451320D01*
X818590Y451320D02*
X818590Y445180D01*
X825090Y445180D02*
X825090Y451320D01*
X825090Y473240D02*
X825090Y479380D01*
X818590Y479380D02*
X818590Y473240D01*
X812090Y473240D02*
X812090Y479380D01*
X805590Y479380D02*
X805590Y473240D01*
D12*
X815340Y462280D03*
D53*
X591820Y421640D03*
X591820Y396640D03*
D54*
X617220Y369570D03*
D55*
X617220Y356870D03*
X604520Y369570D03*
X604520Y356870D03*
X591820Y369570D03*
X591820Y356870D03*
X579120Y369570D03*
X579120Y356870D03*
X566420Y369570D03*
X566420Y356870D03*
D56*
X46855Y256540D03*
X14105Y256540D03*
D57*
X116840Y260485D03*
X116840Y293235D03*
D58*
X118600Y363220D03*
X84600Y363220D03*
D59*
X63500Y244680D03*
X63500Y222680D03*
X637540Y443660D03*
X637540Y465660D03*
D60*
X100940Y316300D03*
X91440Y316300D03*
X81940Y316300D03*
X81940Y293300D03*
X91440Y293300D03*
X100940Y293300D03*
D61*
X66160Y390820D03*
D62*
X83160Y390820D03*
X83160Y411820D03*
X64160Y411820D03*
D63*
X916120Y456720D03*
X909620Y456720D03*
X903120Y456720D03*
X896620Y456720D03*
X890120Y456720D03*
X883620Y456720D03*
X877120Y456720D03*
D64*
X866620Y446220D03*
X866620Y439720D03*
X866620Y433220D03*
X866620Y426720D03*
X866620Y420220D03*
X866620Y413720D03*
X866620Y407220D03*
D63*
X877120Y396720D03*
X883620Y396720D03*
X890120Y396720D03*
X896620Y396720D03*
X903120Y396720D03*
X909620Y396720D03*
X916120Y396720D03*
D64*
X926620Y407220D03*
X926620Y413720D03*
X926620Y420220D03*
X926620Y426720D03*
X926620Y433220D03*
X926620Y439720D03*
X926620Y446220D03*
D65*
X879055Y444285D02*
X879055Y409155D01*
X879055Y444285D02*
X914185Y444285D01*
X914185Y409155D01*
X879055Y409155D01*
X879055Y412863D02*
X914185Y412863D01*
X914185Y416571D02*
X879055Y416571D01*
X879055Y420279D02*
X914185Y420279D01*
X914185Y423987D02*
X879055Y423987D01*
X879055Y427695D02*
X914185Y427695D01*
X914185Y431403D02*
X879055Y431403D01*
X879055Y435111D02*
X914185Y435111D01*
X914185Y438819D02*
X879055Y438819D01*
X879055Y442527D02*
X914185Y442527D01*
D66*
X124460Y391414D03*
X104140Y381762D03*
X104140Y401066D03*
D46*
X121920Y671400D03*
X131420Y649400D03*
X112420Y649400D03*
X121920Y606220D03*
X112420Y628220D03*
X131420Y628220D03*
D67*
X39980Y294320D03*
X20980Y294320D03*
X30480Y274640D03*
D10*
X163440Y627380D03*
X146440Y627380D03*
X163440Y650240D03*
X146440Y650240D03*
D11*
X21980Y330200D03*
X38980Y330200D03*
D68*
X61280Y449580D03*
X91280Y449580D03*
D69*
X66200Y195580D03*
X108700Y195580D03*
D13*
X617220Y445160D03*
X617220Y464160D03*
D11*
X784860Y465700D03*
X784860Y448700D03*
D10*
X956700Y396240D03*
X973700Y396240D03*
D70*
X937260Y368300D03*
X937260Y383540D03*
D71*
X937260Y375920D03*
D72*
X789100Y393700D03*
X811100Y403200D03*
X811100Y384200D03*
X789100Y358140D03*
X811100Y367640D03*
X811100Y348640D03*
D10*
X773040Y393700D03*
X756040Y393700D03*
X773040Y358140D03*
X756040Y358140D03*
D11*
X833120Y402200D03*
X833120Y385200D03*
X833120Y366640D03*
X833120Y349640D03*
X716280Y469020D03*
X716280Y486020D03*
X716280Y433460D03*
X716280Y450460D03*
D10*
X735720Y436880D03*
X752720Y436880D03*
X785740Y482600D03*
X768740Y482600D03*
D21*
X734822Y456946D03*
X744220Y456946D03*
X753618Y456946D03*
X753618Y482854D03*
X734822Y482854D03*
D73*
X545057Y448537D02*
X496343Y448537D01*
X545057Y448537D02*
X545057Y399823D01*
X496343Y399823D01*
X496343Y448537D01*
X496343Y404400D02*
X545057Y404400D01*
X545057Y408977D02*
X496343Y408977D01*
X496343Y413554D02*
X545057Y413554D01*
X545057Y418131D02*
X496343Y418131D01*
X496343Y422708D02*
X545057Y422708D01*
X545057Y427285D02*
X496343Y427285D01*
X496343Y431862D02*
X545057Y431862D01*
X545057Y436439D02*
X496343Y436439D01*
X496343Y441016D02*
X545057Y441016D01*
X545057Y445593D02*
X496343Y445593D01*
D74*
X554700Y396680D03*
X554700Y401680D03*
X554700Y406680D03*
X554700Y411680D03*
X554700Y416680D03*
X554700Y421680D03*
X554700Y426680D03*
X554700Y431680D03*
X554700Y436680D03*
X554700Y441680D03*
X554700Y446680D03*
X554700Y451680D03*
D75*
X548200Y458180D03*
X543200Y458180D03*
X538200Y458180D03*
X533200Y458180D03*
X528200Y458180D03*
X523200Y458180D03*
X518200Y458180D03*
X513200Y458180D03*
X508200Y458180D03*
X503200Y458180D03*
X498200Y458180D03*
X493200Y458180D03*
D74*
X486700Y451680D03*
X486700Y446680D03*
X486700Y441680D03*
X486700Y436680D03*
X486700Y431680D03*
X486700Y426680D03*
X486700Y421680D03*
X486700Y416680D03*
X486700Y411680D03*
X486700Y406680D03*
X486700Y401680D03*
X486700Y396680D03*
D75*
X493200Y390180D03*
X498200Y390180D03*
X503200Y390180D03*
X508200Y390180D03*
X513200Y390180D03*
X518200Y390180D03*
X523200Y390180D03*
X528200Y390180D03*
X533200Y390180D03*
X538200Y390180D03*
X543200Y390180D03*
X548200Y390180D03*
D48*
X753900Y78760D03*
D49*
X723900Y78760D03*
X693900Y78760D03*
X753900Y108760D03*
X723900Y108760D03*
X693900Y108760D03*
D50*
X723900Y35560D03*
D46*
X693420Y143940D03*
X683920Y165940D03*
X702920Y165940D03*
D28*
X15900Y233680D03*
X34900Y233680D03*
X15900Y213360D03*
X34900Y213360D03*
X15900Y193040D03*
X34900Y193040D03*
D76*
X528320Y193040D03*
X386080Y482600D03*
X279400Y332740D03*
X495300Y175260D03*
X838200Y429260D03*
X434340Y175260D03*
X614680Y175260D03*
X678180Y238760D03*
X337820Y175260D03*
X370840Y175260D03*
X187960Y200660D03*
X820420Y193040D03*
X820420Y177800D03*
X820420Y162560D03*
X820420Y147320D03*
X820420Y132080D03*
X820420Y116840D03*
X835660Y193040D03*
X866140Y193040D03*
X896620Y193040D03*
X927100Y193040D03*
X957580Y193040D03*
X850900Y193040D03*
X850900Y177800D03*
X850900Y162560D03*
X850900Y147320D03*
X850900Y132080D03*
X850900Y116840D03*
X835660Y116840D03*
X881380Y193040D03*
X911860Y193040D03*
X942340Y193040D03*
X972820Y193040D03*
X972820Y177800D03*
X972820Y162560D03*
X972820Y147320D03*
X972820Y132080D03*
X972820Y116840D03*
X957580Y116840D03*
X942340Y116840D03*
X927100Y116840D03*
X911860Y116840D03*
X896620Y116840D03*
X881380Y116840D03*
X866140Y116840D03*
X881380Y132080D03*
X881380Y147320D03*
X881380Y162560D03*
X881380Y177800D03*
X911860Y177800D03*
X911860Y162560D03*
X911860Y147320D03*
X911860Y132080D03*
X942340Y132080D03*
X942340Y147320D03*
X942340Y162560D03*
X942340Y177800D03*
X988060Y124460D03*
X988060Y109220D03*
X988060Y93980D03*
X988060Y78740D03*
X972820Y71120D03*
X942340Y73660D03*
X972820Y55880D03*
X988060Y53340D03*
X1003300Y53340D03*
X1003300Y38100D03*
X1003300Y22860D03*
X805180Y124460D03*
X805180Y109220D03*
X805180Y93980D03*
X805180Y78740D03*
X820420Y73660D03*
X835660Y73660D03*
X850900Y73660D03*
X866140Y73660D03*
X881380Y73660D03*
X896620Y73660D03*
X805180Y139700D03*
X805180Y154940D03*
X805180Y170180D03*
X988060Y139700D03*
X988060Y154940D03*
X988060Y170180D03*
X988060Y185420D03*
X988060Y200660D03*
X988060Y215900D03*
X988060Y231140D03*
X972820Y231140D03*
X957580Y231140D03*
X942340Y231140D03*
X927100Y231140D03*
X911860Y231140D03*
X896620Y231140D03*
X878840Y640080D03*
X881380Y231140D03*
X805180Y185420D03*
X805180Y200660D03*
X805180Y215900D03*
X805180Y231140D03*
X820420Y231140D03*
X995680Y246380D03*
X980440Y246380D03*
X965200Y246380D03*
X949960Y246380D03*
X934720Y246380D03*
X919480Y246380D03*
X904240Y246380D03*
X889000Y246380D03*
X988060Y261620D03*
X1003300Y261620D03*
X995680Y276860D03*
X1003300Y116840D03*
X1003300Y101600D03*
X1003300Y86360D03*
X1003300Y71120D03*
X1003300Y132080D03*
X1003300Y147320D03*
X1003300Y162560D03*
X1003300Y177800D03*
X1003300Y193040D03*
X1003300Y208280D03*
X1003300Y223520D03*
X538480Y612140D03*
X358140Y515620D03*
X462280Y149860D03*
X497840Y624840D03*
X132080Y243840D03*
X91440Y243840D03*
X76200Y251460D03*
X106680Y271780D03*
X127000Y271780D03*
X137160Y271780D03*
X116840Y271780D03*
X101600Y243840D03*
X111760Y243840D03*
X121920Y243840D03*
X142240Y243840D03*
X76200Y261620D03*
X91440Y327660D03*
X63500Y345440D03*
X132080Y327660D03*
X132080Y353060D03*
X154940Y353060D03*
X63500Y304800D03*
X520700Y574040D03*
X800100Y665480D03*
X876300Y568960D03*
X937260Y353060D03*
X985520Y444500D03*
X914400Y510540D03*
X853440Y513080D03*
X726440Y419100D03*
X868680Y322580D03*
X866140Y388620D03*
X939800Y449580D03*
X693420Y132080D03*
X739140Y132080D03*
X360680Y558800D03*
X360680Y472440D03*
X525780Y508000D03*
X563880Y414020D03*
X464820Y388620D03*
X513080Y378460D03*
X528320Y332740D03*
X508000Y332740D03*
X485140Y307340D03*
X548640Y274320D03*
X601980Y274320D03*
X469900Y259080D03*
X396240Y210820D03*
X99060Y619760D03*
X175260Y650240D03*
X152400Y421640D03*
X193040Y469900D03*
X93980Y426720D03*
X213360Y401320D03*
X208280Y345440D03*
X792480Y551180D03*
X619760Y645160D03*
X797560Y462280D03*
X787400Y406400D03*
X495300Y119380D03*
X530860Y205740D03*
X563880Y210820D03*
X510540Y276860D03*
X378460Y259080D03*
X375920Y236220D03*
X990600Y513080D03*
X601980Y342900D03*
X541020Y368300D03*
X581660Y408940D03*
X576580Y457200D03*
X558800Y462280D03*
X434340Y454660D03*
X431800Y406400D03*
X345440Y375920D03*
X408940Y502920D03*
X439420Y642620D03*
X485140Y645160D03*
X853440Y398780D03*
X909320Y353060D03*
X421640Y515620D03*
X485140Y472440D03*
X500380Y472440D03*
X454660Y520700D03*
X464820Y538480D03*
X497840Y505460D03*
X71120Y109220D03*
X236220Y35560D03*
X297180Y35560D03*
X160020Y314960D03*
X180340Y314960D03*
X180340Y284480D03*
X160020Y284480D03*
X83820Y304800D03*
X99060Y304800D03*
X30480Y256540D03*
X81280Y243840D03*
X68580Y378460D03*
X170180Y365760D03*
X243840Y220980D03*
X637540Y477520D03*
X995680Y325120D03*
X995680Y365760D03*
X995680Y469900D03*
X838200Y525780D03*
X784860Y525780D03*
X444500Y528320D03*
X444500Y574040D03*
X543560Y355600D03*
X457200Y358140D03*
X622300Y220980D03*
D77*
X241300Y447040D03*
X256540Y447040D03*
X271780Y447040D03*
X271780Y401320D03*
X256540Y401320D03*
X241300Y401320D03*
D76*
X838200Y276860D03*
X106680Y325120D03*
X99060Y363220D03*
X942340Y436880D03*
X396240Y518160D03*
X485140Y340360D03*
X383540Y406400D03*
X93980Y411480D03*
X444500Y398780D03*
X93980Y391160D03*
X462280Y398780D03*
X358140Y421640D03*
X330200Y421640D03*
X480060Y497840D03*
X789940Y624840D03*
X497840Y515620D03*
X769620Y617220D03*
X528320Y520700D03*
X876300Y601980D03*
X500380Y492760D03*
X513200Y518040D03*
X877000Y579820D03*
X386080Y281940D03*
X452120Y307340D03*
X436880Y477520D03*
X347980Y345440D03*
X416560Y485140D03*
X340360Y350520D03*
X548640Y472440D03*
X363220Y335280D03*
X848360Y683260D03*
X703580Y683260D03*
X645160Y683260D03*
X571500Y673100D03*
X467360Y469900D03*
X355600Y340360D03*
X541020Y233680D03*
X579120Y233680D03*
X477520Y683260D03*
X375920Y683260D03*
X274320Y683260D03*
X172720Y683260D03*
X896620Y383540D03*
X431800Y444500D03*
X906780Y375920D03*
X449580Y436880D03*
X805180Y487680D03*
X744220Y287020D03*
X825500Y487680D03*
X759460Y287020D03*
X734060Y393700D03*
X728980Y287020D03*
X53340Y518160D03*
X40640Y345440D03*
X566420Y472440D03*
X175260Y627380D03*
X849700Y229940D03*
X769620Y655320D03*
X749300Y665480D03*
X731520Y665480D03*
X718820Y655320D03*
X259080Y655320D03*
X246380Y665480D03*
X228600Y665480D03*
X210820Y655320D03*
X787400Y375920D03*
X698500Y287020D03*
X772160Y375920D03*
X713740Y287020D03*
M02*
