G04 EAGLE Gerber RS-274X export*
G75*
%MOMM*%
%FSLAX34Y34*%
%LPD*%
%INBottom Copper*%
%IPPOS*%
%AMOC8*
5,1,8,0,0,1.08239X$1,22.5*%
G01*
%ADD10C,1.800000*%
%ADD11R,1.524000X4.064000*%
%ADD12C,2.880000*%
%ADD13C,1.620000*%
%ADD14R,0.800000X0.800000*%
%ADD15R,3.200000X3.200000*%
%ADD16R,3.900000X3.900000*%
%ADD17R,1.836000X1.836000*%
%ADD18C,1.836000*%
%ADD19R,1.108000X1.108000*%
%ADD20C,1.108000*%
%ADD21C,0.508000*%
%ADD22C,0.652400*%
%ADD23C,0.254000*%
%ADD24C,0.952400*%

G36*
X921062Y2549D02*
X921062Y2549D01*
X921120Y2547D01*
X921202Y2569D01*
X921286Y2581D01*
X921339Y2604D01*
X921395Y2619D01*
X921468Y2662D01*
X921545Y2697D01*
X921590Y2735D01*
X921640Y2764D01*
X921698Y2826D01*
X921762Y2880D01*
X921794Y2929D01*
X921834Y2972D01*
X921873Y3047D01*
X921920Y3117D01*
X921937Y3173D01*
X921964Y3225D01*
X921975Y3293D01*
X922005Y3388D01*
X922008Y3488D01*
X922019Y3556D01*
X922019Y18289D01*
X931164Y18289D01*
X931222Y18297D01*
X931280Y18295D01*
X931362Y18317D01*
X931445Y18329D01*
X931499Y18353D01*
X931555Y18367D01*
X931628Y18410D01*
X931705Y18445D01*
X931749Y18483D01*
X931800Y18513D01*
X931857Y18574D01*
X931922Y18629D01*
X931954Y18677D01*
X931994Y18720D01*
X932033Y18795D01*
X932079Y18865D01*
X932097Y18921D01*
X932124Y18973D01*
X932135Y19041D01*
X932165Y19136D01*
X932168Y19236D01*
X932179Y19304D01*
X932179Y20321D01*
X932181Y20321D01*
X932181Y19304D01*
X932189Y19246D01*
X932188Y19188D01*
X932209Y19106D01*
X932221Y19023D01*
X932245Y18969D01*
X932259Y18913D01*
X932302Y18840D01*
X932337Y18763D01*
X932375Y18718D01*
X932405Y18668D01*
X932466Y18610D01*
X932521Y18546D01*
X932569Y18514D01*
X932612Y18474D01*
X932687Y18435D01*
X932757Y18389D01*
X932813Y18371D01*
X932865Y18344D01*
X932933Y18333D01*
X933028Y18303D01*
X933128Y18300D01*
X933196Y18289D01*
X942341Y18289D01*
X942341Y3556D01*
X942349Y3498D01*
X942347Y3440D01*
X942369Y3358D01*
X942381Y3274D01*
X942404Y3221D01*
X942419Y3165D01*
X942462Y3092D01*
X942497Y3015D01*
X942535Y2970D01*
X942564Y2920D01*
X942626Y2862D01*
X942680Y2798D01*
X942729Y2766D01*
X942772Y2726D01*
X942847Y2687D01*
X942917Y2640D01*
X942973Y2623D01*
X943025Y2596D01*
X943093Y2585D01*
X943188Y2555D01*
X943288Y2552D01*
X943356Y2541D01*
X971804Y2541D01*
X971862Y2549D01*
X971920Y2547D01*
X972002Y2569D01*
X972086Y2581D01*
X972139Y2604D01*
X972195Y2619D01*
X972268Y2662D01*
X972345Y2697D01*
X972390Y2735D01*
X972440Y2764D01*
X972498Y2826D01*
X972562Y2880D01*
X972594Y2929D01*
X972634Y2972D01*
X972673Y3047D01*
X972720Y3117D01*
X972737Y3173D01*
X972764Y3225D01*
X972775Y3293D01*
X972805Y3388D01*
X972808Y3488D01*
X972819Y3556D01*
X972819Y18289D01*
X981964Y18289D01*
X982022Y18297D01*
X982080Y18295D01*
X982162Y18317D01*
X982245Y18329D01*
X982299Y18353D01*
X982355Y18367D01*
X982428Y18410D01*
X982505Y18445D01*
X982549Y18483D01*
X982600Y18513D01*
X982657Y18574D01*
X982722Y18629D01*
X982754Y18677D01*
X982794Y18720D01*
X982833Y18795D01*
X982879Y18865D01*
X982897Y18921D01*
X982924Y18973D01*
X982935Y19041D01*
X982965Y19136D01*
X982968Y19236D01*
X982979Y19304D01*
X982979Y20321D01*
X982981Y20321D01*
X982981Y19304D01*
X982989Y19246D01*
X982988Y19188D01*
X983009Y19106D01*
X983021Y19023D01*
X983045Y18969D01*
X983059Y18913D01*
X983102Y18840D01*
X983137Y18763D01*
X983175Y18718D01*
X983205Y18668D01*
X983266Y18610D01*
X983321Y18546D01*
X983369Y18514D01*
X983412Y18474D01*
X983487Y18435D01*
X983557Y18389D01*
X983613Y18371D01*
X983665Y18344D01*
X983733Y18333D01*
X983828Y18303D01*
X983928Y18300D01*
X983996Y18289D01*
X993141Y18289D01*
X993141Y3556D01*
X993149Y3498D01*
X993147Y3440D01*
X993169Y3358D01*
X993181Y3274D01*
X993204Y3221D01*
X993219Y3165D01*
X993262Y3092D01*
X993297Y3015D01*
X993335Y2970D01*
X993364Y2920D01*
X993426Y2862D01*
X993480Y2798D01*
X993529Y2766D01*
X993572Y2726D01*
X993647Y2687D01*
X993717Y2640D01*
X993773Y2623D01*
X993825Y2596D01*
X993893Y2585D01*
X993988Y2555D01*
X994088Y2552D01*
X994156Y2541D01*
X1017524Y2541D01*
X1017582Y2549D01*
X1017640Y2547D01*
X1017722Y2569D01*
X1017806Y2581D01*
X1017859Y2604D01*
X1017915Y2619D01*
X1017988Y2662D01*
X1018065Y2697D01*
X1018110Y2735D01*
X1018160Y2764D01*
X1018218Y2826D01*
X1018282Y2880D01*
X1018314Y2929D01*
X1018354Y2972D01*
X1018393Y3047D01*
X1018440Y3117D01*
X1018457Y3173D01*
X1018484Y3225D01*
X1018495Y3293D01*
X1018525Y3388D01*
X1018528Y3488D01*
X1018539Y3556D01*
X1018539Y694944D01*
X1018531Y695001D01*
X1018533Y695058D01*
X1018533Y695060D01*
X1018511Y695142D01*
X1018499Y695226D01*
X1018476Y695279D01*
X1018461Y695335D01*
X1018418Y695408D01*
X1018383Y695485D01*
X1018345Y695530D01*
X1018316Y695580D01*
X1018254Y695638D01*
X1018200Y695702D01*
X1018151Y695734D01*
X1018108Y695774D01*
X1018033Y695813D01*
X1017963Y695860D01*
X1017907Y695877D01*
X1017855Y695904D01*
X1017787Y695915D01*
X1017692Y695945D01*
X1017592Y695948D01*
X1017524Y695959D01*
X3556Y695959D01*
X3498Y695951D01*
X3440Y695953D01*
X3358Y695931D01*
X3274Y695919D01*
X3221Y695896D01*
X3165Y695881D01*
X3092Y695838D01*
X3015Y695803D01*
X2970Y695765D01*
X2920Y695736D01*
X2862Y695674D01*
X2798Y695620D01*
X2766Y695571D01*
X2726Y695528D01*
X2687Y695453D01*
X2640Y695383D01*
X2623Y695327D01*
X2596Y695275D01*
X2585Y695207D01*
X2555Y695112D01*
X2552Y695012D01*
X2541Y694944D01*
X2541Y582676D01*
X2549Y582618D01*
X2547Y582560D01*
X2569Y582478D01*
X2581Y582394D01*
X2604Y582341D01*
X2619Y582285D01*
X2662Y582212D01*
X2697Y582135D01*
X2735Y582090D01*
X2764Y582040D01*
X2826Y581982D01*
X2880Y581918D01*
X2929Y581886D01*
X2972Y581846D01*
X3047Y581807D01*
X3117Y581760D01*
X3173Y581743D01*
X3225Y581716D01*
X3293Y581705D01*
X3388Y581675D01*
X3488Y581672D01*
X3556Y581661D01*
X39152Y581661D01*
X40641Y580172D01*
X40641Y451068D01*
X39152Y449579D01*
X3556Y449579D01*
X3498Y449571D01*
X3440Y449573D01*
X3358Y449551D01*
X3274Y449539D01*
X3221Y449516D01*
X3165Y449501D01*
X3092Y449458D01*
X3015Y449423D01*
X2970Y449385D01*
X2920Y449356D01*
X2862Y449294D01*
X2798Y449240D01*
X2766Y449191D01*
X2726Y449148D01*
X2687Y449073D01*
X2640Y449003D01*
X2623Y448947D01*
X2596Y448895D01*
X2585Y448827D01*
X2555Y448732D01*
X2552Y448632D01*
X2541Y448564D01*
X2541Y446083D01*
X2542Y446071D01*
X2541Y446058D01*
X2562Y445930D01*
X2581Y445802D01*
X2586Y445790D01*
X2588Y445778D01*
X2644Y445661D01*
X2697Y445542D01*
X2705Y445533D01*
X2710Y445522D01*
X2797Y445424D01*
X2880Y445325D01*
X2891Y445318D01*
X2899Y445309D01*
X3009Y445240D01*
X3117Y445168D01*
X3129Y445164D01*
X3139Y445157D01*
X3264Y445121D01*
X3388Y445082D01*
X3401Y445081D01*
X3412Y445078D01*
X3542Y445078D01*
X3672Y445075D01*
X3684Y445078D01*
X3697Y445078D01*
X3757Y445097D01*
X3947Y445146D01*
X3984Y445168D01*
X4017Y445178D01*
X4826Y445591D01*
X6554Y446152D01*
X8348Y446436D01*
X16225Y446436D01*
X16225Y435912D01*
X16233Y435854D01*
X16232Y435795D01*
X16253Y435714D01*
X16265Y435630D01*
X16289Y435577D01*
X16304Y435520D01*
X16347Y435448D01*
X16381Y435371D01*
X16419Y435326D01*
X16449Y435276D01*
X16510Y435218D01*
X16565Y435154D01*
X16613Y435121D01*
X16656Y435081D01*
X16731Y435043D01*
X16801Y434996D01*
X16857Y434979D01*
X16909Y434952D01*
X16977Y434941D01*
X17072Y434910D01*
X17172Y434908D01*
X17240Y434897D01*
X18257Y434897D01*
X18257Y434895D01*
X17240Y434895D01*
X17182Y434887D01*
X17124Y434888D01*
X17042Y434867D01*
X16959Y434855D01*
X16905Y434831D01*
X16849Y434816D01*
X16776Y434773D01*
X16699Y434739D01*
X16655Y434701D01*
X16604Y434671D01*
X16547Y434609D01*
X16482Y434555D01*
X16450Y434506D01*
X16410Y434464D01*
X16372Y434389D01*
X16325Y434318D01*
X16307Y434263D01*
X16281Y434211D01*
X16269Y434143D01*
X16239Y434047D01*
X16236Y433948D01*
X16225Y433879D01*
X16225Y423355D01*
X8348Y423355D01*
X6554Y423639D01*
X4826Y424200D01*
X4017Y424613D01*
X4005Y424617D01*
X3995Y424624D01*
X3871Y424663D01*
X3748Y424705D01*
X3736Y424706D01*
X3724Y424709D01*
X3594Y424713D01*
X3464Y424719D01*
X3452Y424716D01*
X3440Y424717D01*
X3314Y424684D01*
X3187Y424654D01*
X3176Y424648D01*
X3165Y424645D01*
X3053Y424579D01*
X2940Y424515D01*
X2931Y424506D01*
X2920Y424500D01*
X2831Y424405D01*
X2740Y424312D01*
X2734Y424301D01*
X2726Y424292D01*
X2666Y424176D01*
X2605Y424062D01*
X2602Y424050D01*
X2596Y424039D01*
X2586Y423977D01*
X2544Y423785D01*
X2546Y423742D01*
X2541Y423708D01*
X2541Y373852D01*
X2542Y373839D01*
X2541Y373827D01*
X2562Y373699D01*
X2581Y373570D01*
X2586Y373559D01*
X2588Y373547D01*
X2644Y373429D01*
X2697Y373311D01*
X2705Y373301D01*
X2710Y373290D01*
X2797Y373193D01*
X2880Y373094D01*
X2891Y373087D01*
X2899Y373078D01*
X3009Y373008D01*
X3117Y372936D01*
X3129Y372933D01*
X3139Y372926D01*
X3264Y372890D01*
X3388Y372851D01*
X3401Y372850D01*
X3412Y372847D01*
X3542Y372847D01*
X3672Y372843D01*
X3684Y372846D01*
X3697Y372846D01*
X3757Y372865D01*
X3947Y372915D01*
X3984Y372937D01*
X4017Y372947D01*
X4826Y373360D01*
X6554Y373921D01*
X8348Y374205D01*
X16225Y374205D01*
X16225Y363681D01*
X16233Y363623D01*
X16232Y363564D01*
X16253Y363483D01*
X16265Y363399D01*
X16289Y363346D01*
X16304Y363289D01*
X16347Y363217D01*
X16381Y363140D01*
X16419Y363095D01*
X16449Y363045D01*
X16510Y362987D01*
X16565Y362923D01*
X16613Y362890D01*
X16656Y362850D01*
X16731Y362812D01*
X16801Y362765D01*
X16857Y362747D01*
X16909Y362721D01*
X16977Y362709D01*
X17072Y362679D01*
X17172Y362677D01*
X17240Y362665D01*
X18257Y362665D01*
X18257Y362663D01*
X17240Y362663D01*
X17182Y362655D01*
X17124Y362657D01*
X17042Y362635D01*
X16959Y362624D01*
X16905Y362600D01*
X16849Y362585D01*
X16776Y362542D01*
X16699Y362507D01*
X16655Y362470D01*
X16604Y362440D01*
X16547Y362378D01*
X16482Y362324D01*
X16450Y362275D01*
X16410Y362232D01*
X16372Y362157D01*
X16325Y362087D01*
X16307Y362031D01*
X16281Y361979D01*
X16269Y361911D01*
X16239Y361816D01*
X16236Y361716D01*
X16225Y361648D01*
X16225Y351124D01*
X8348Y351124D01*
X6554Y351408D01*
X4826Y351969D01*
X4017Y352382D01*
X4005Y352386D01*
X3995Y352392D01*
X3871Y352432D01*
X3748Y352474D01*
X3736Y352474D01*
X3724Y352478D01*
X3594Y352482D01*
X3464Y352488D01*
X3452Y352485D01*
X3440Y352485D01*
X3314Y352453D01*
X3187Y352423D01*
X3176Y352417D01*
X3165Y352414D01*
X3053Y352348D01*
X2940Y352284D01*
X2931Y352275D01*
X2920Y352268D01*
X2831Y352173D01*
X2740Y352081D01*
X2734Y352070D01*
X2726Y352061D01*
X2666Y351945D01*
X2605Y351831D01*
X2602Y351819D01*
X2596Y351808D01*
X2586Y351746D01*
X2544Y351553D01*
X2546Y351511D01*
X2541Y351477D01*
X2541Y3556D01*
X2549Y3498D01*
X2547Y3440D01*
X2569Y3358D01*
X2581Y3274D01*
X2604Y3221D01*
X2619Y3165D01*
X2662Y3092D01*
X2697Y3015D01*
X2735Y2970D01*
X2764Y2920D01*
X2826Y2862D01*
X2880Y2798D01*
X2929Y2766D01*
X2972Y2726D01*
X3047Y2687D01*
X3117Y2640D01*
X3173Y2623D01*
X3225Y2596D01*
X3293Y2585D01*
X3388Y2555D01*
X3488Y2552D01*
X3556Y2541D01*
X921004Y2541D01*
X921062Y2549D01*
G37*
%LPC*%
G36*
X697346Y281217D02*
X697346Y281217D01*
X695213Y282101D01*
X693581Y283733D01*
X692697Y285866D01*
X692697Y288174D01*
X693581Y290307D01*
X695213Y291939D01*
X697346Y292823D01*
X698493Y292823D01*
X698580Y292835D01*
X698667Y292838D01*
X698720Y292855D01*
X698775Y292863D01*
X698854Y292898D01*
X698938Y292925D01*
X698977Y292953D01*
X699034Y292979D01*
X699147Y293075D01*
X699211Y293120D01*
X774645Y368554D01*
X774697Y368623D01*
X774756Y368686D01*
X774782Y368736D01*
X774816Y368782D01*
X774847Y368862D01*
X774886Y368938D01*
X774897Y368994D01*
X774917Y369047D01*
X774925Y369133D01*
X774941Y369217D01*
X774936Y369274D01*
X774941Y369331D01*
X774924Y369415D01*
X774917Y369501D01*
X774896Y369554D01*
X774885Y369609D01*
X774846Y369686D01*
X774815Y369766D01*
X774780Y369811D01*
X774754Y369862D01*
X774695Y369924D01*
X774643Y369993D01*
X774597Y370027D01*
X774558Y370068D01*
X774484Y370111D01*
X774415Y370163D01*
X774362Y370183D01*
X774313Y370212D01*
X774230Y370233D01*
X774149Y370263D01*
X774093Y370268D01*
X774037Y370282D01*
X773952Y370279D01*
X773866Y370286D01*
X773818Y370275D01*
X773753Y370273D01*
X773615Y370228D01*
X773539Y370210D01*
X773314Y370117D01*
X771006Y370117D01*
X768873Y371001D01*
X767241Y372633D01*
X766357Y374766D01*
X766357Y377074D01*
X767241Y379207D01*
X768873Y380839D01*
X771006Y381723D01*
X772153Y381723D01*
X772240Y381735D01*
X772327Y381738D01*
X772380Y381755D01*
X772435Y381763D01*
X772514Y381798D01*
X772598Y381825D01*
X772637Y381853D01*
X772694Y381879D01*
X772807Y381975D01*
X772871Y382020D01*
X779007Y388156D01*
X779025Y388180D01*
X779047Y388199D01*
X779110Y388293D01*
X779178Y388383D01*
X779188Y388411D01*
X779205Y388435D01*
X779239Y388543D01*
X779279Y388649D01*
X779282Y388678D01*
X779290Y388706D01*
X779293Y388820D01*
X779303Y388932D01*
X779297Y388961D01*
X779298Y388990D01*
X779269Y389100D01*
X779247Y389211D01*
X779233Y389237D01*
X779226Y389265D01*
X779168Y389363D01*
X779116Y389463D01*
X779096Y389485D01*
X779081Y389510D01*
X778998Y389587D01*
X778920Y389669D01*
X778895Y389684D01*
X778873Y389704D01*
X778772Y389756D01*
X778675Y389813D01*
X778646Y389820D01*
X778620Y389834D01*
X778543Y389847D01*
X778399Y389883D01*
X778337Y389881D01*
X778289Y389889D01*
X738876Y389889D01*
X738789Y389877D01*
X738702Y389874D01*
X738649Y389857D01*
X738595Y389849D01*
X738515Y389814D01*
X738432Y389787D01*
X738392Y389759D01*
X738335Y389733D01*
X738222Y389637D01*
X738158Y389592D01*
X737347Y388781D01*
X735214Y387897D01*
X732906Y387897D01*
X730773Y388781D01*
X729141Y390413D01*
X728257Y392546D01*
X728257Y394854D01*
X729141Y396987D01*
X730773Y398619D01*
X732906Y399503D01*
X735214Y399503D01*
X737347Y398619D01*
X738158Y397808D01*
X738228Y397756D01*
X738292Y397696D01*
X738341Y397670D01*
X738385Y397637D01*
X738467Y397606D01*
X738545Y397566D01*
X738593Y397558D01*
X738651Y397536D01*
X738799Y397524D01*
X738876Y397511D01*
X799138Y397511D01*
X801668Y394981D01*
X807256Y389393D01*
X807280Y389375D01*
X807299Y389353D01*
X807393Y389290D01*
X807483Y389222D01*
X807511Y389212D01*
X807535Y389195D01*
X807643Y389161D01*
X807749Y389121D01*
X807778Y389118D01*
X807806Y389110D01*
X807920Y389107D01*
X808032Y389097D01*
X808061Y389103D01*
X808090Y389102D01*
X808200Y389131D01*
X808311Y389153D01*
X808337Y389167D01*
X808365Y389174D01*
X808463Y389232D01*
X808563Y389284D01*
X808585Y389304D01*
X808610Y389319D01*
X808687Y389402D01*
X808769Y389480D01*
X808784Y389505D01*
X808804Y389527D01*
X808856Y389628D01*
X808913Y389725D01*
X808920Y389754D01*
X808934Y389780D01*
X808947Y389857D01*
X808983Y390001D01*
X808981Y390063D01*
X808989Y390111D01*
X808989Y478061D01*
X808977Y478148D01*
X808974Y478235D01*
X808957Y478288D01*
X808949Y478343D01*
X808914Y478422D01*
X808887Y478506D01*
X808859Y478545D01*
X808833Y478602D01*
X808737Y478715D01*
X808692Y478779D01*
X805891Y481580D01*
X805821Y481632D01*
X805757Y481692D01*
X805708Y481718D01*
X805664Y481751D01*
X805582Y481782D01*
X805504Y481822D01*
X805457Y481830D01*
X805398Y481852D01*
X805250Y481864D01*
X805173Y481877D01*
X804026Y481877D01*
X801893Y482761D01*
X800261Y484393D01*
X799377Y486526D01*
X799377Y488834D01*
X800261Y490967D01*
X801590Y492296D01*
X801607Y492320D01*
X801630Y492339D01*
X801693Y492433D01*
X801761Y492523D01*
X801771Y492551D01*
X801787Y492575D01*
X801822Y492683D01*
X801862Y492789D01*
X801864Y492818D01*
X801873Y492846D01*
X801876Y492960D01*
X801886Y493072D01*
X801880Y493101D01*
X801881Y493130D01*
X801852Y493240D01*
X801830Y493351D01*
X801816Y493377D01*
X801809Y493405D01*
X801751Y493503D01*
X801699Y493603D01*
X801678Y493625D01*
X801663Y493650D01*
X801581Y493727D01*
X801503Y493809D01*
X801478Y493824D01*
X801456Y493844D01*
X801355Y493896D01*
X801258Y493953D01*
X801229Y493960D01*
X801203Y493974D01*
X801126Y493987D01*
X800982Y494023D01*
X800920Y494021D01*
X800872Y494029D01*
X789399Y494029D01*
X789312Y494017D01*
X789225Y494014D01*
X789172Y493997D01*
X789117Y493989D01*
X789038Y493954D01*
X788954Y493927D01*
X788915Y493899D01*
X788858Y493873D01*
X788745Y493777D01*
X788681Y493732D01*
X623868Y328919D01*
X621338Y326389D01*
X575002Y326389D01*
X565139Y336252D01*
X565069Y336304D01*
X565005Y336364D01*
X564956Y336390D01*
X564912Y336423D01*
X564830Y336454D01*
X564752Y336494D01*
X564705Y336502D01*
X564646Y336524D01*
X564498Y336536D01*
X564421Y336549D01*
X489956Y336549D01*
X489869Y336537D01*
X489782Y336534D01*
X489729Y336517D01*
X489675Y336509D01*
X489595Y336474D01*
X489512Y336447D01*
X489472Y336419D01*
X489415Y336393D01*
X489302Y336297D01*
X489238Y336252D01*
X488427Y335441D01*
X486294Y334557D01*
X483986Y334557D01*
X481853Y335441D01*
X480221Y337073D01*
X479337Y339206D01*
X479337Y341514D01*
X480221Y343647D01*
X481853Y345279D01*
X483986Y346163D01*
X486294Y346163D01*
X488427Y345279D01*
X489238Y344468D01*
X489308Y344416D01*
X489372Y344356D01*
X489421Y344330D01*
X489465Y344297D01*
X489547Y344266D01*
X489625Y344226D01*
X489673Y344218D01*
X489731Y344196D01*
X489879Y344184D01*
X489956Y344171D01*
X561594Y344171D01*
X561652Y344179D01*
X561710Y344177D01*
X561792Y344199D01*
X561876Y344211D01*
X561929Y344234D01*
X561985Y344249D01*
X562058Y344292D01*
X562135Y344327D01*
X562180Y344365D01*
X562230Y344394D01*
X562288Y344456D01*
X562352Y344510D01*
X562384Y344559D01*
X562424Y344602D01*
X562463Y344677D01*
X562510Y344747D01*
X562527Y344803D01*
X562554Y344855D01*
X562565Y344923D01*
X562595Y345018D01*
X562598Y345118D01*
X562609Y345186D01*
X562609Y349024D01*
X562609Y349025D01*
X562609Y349027D01*
X562589Y349167D01*
X562569Y349305D01*
X562569Y349307D01*
X562569Y349308D01*
X562512Y349433D01*
X562453Y349564D01*
X562452Y349566D01*
X562451Y349567D01*
X562361Y349674D01*
X562270Y349781D01*
X562268Y349782D01*
X562267Y349784D01*
X562255Y349791D01*
X562033Y349939D01*
X562004Y349948D01*
X561983Y349962D01*
X561843Y350020D01*
X559570Y352293D01*
X558339Y355263D01*
X558339Y358477D01*
X559569Y361447D01*
X560624Y362502D01*
X560659Y362549D01*
X560702Y362589D01*
X560744Y362662D01*
X560795Y362729D01*
X560816Y362784D01*
X560846Y362834D01*
X560866Y362916D01*
X560896Y362995D01*
X560901Y363053D01*
X560916Y363110D01*
X560913Y363194D01*
X560920Y363278D01*
X560908Y363336D01*
X560907Y363394D01*
X560881Y363474D01*
X560864Y363557D01*
X560837Y363609D01*
X560819Y363665D01*
X560779Y363721D01*
X560733Y363809D01*
X560664Y363882D01*
X560624Y363938D01*
X560143Y364419D01*
X559259Y365742D01*
X558650Y367213D01*
X558479Y368071D01*
X565936Y368071D01*
X565994Y368079D01*
X566052Y368077D01*
X566134Y368099D01*
X566217Y368111D01*
X566271Y368134D01*
X566327Y368149D01*
X566400Y368192D01*
X566477Y368227D01*
X566521Y368265D01*
X566572Y368294D01*
X566629Y368356D01*
X566694Y368410D01*
X566726Y368459D01*
X566766Y368502D01*
X566805Y368577D01*
X566851Y368647D01*
X566869Y368703D01*
X566896Y368755D01*
X566907Y368823D01*
X566937Y368918D01*
X566940Y369018D01*
X566944Y369045D01*
X566962Y369047D01*
X567020Y369046D01*
X567102Y369067D01*
X567186Y369079D01*
X567239Y369103D01*
X567295Y369117D01*
X567368Y369161D01*
X567445Y369195D01*
X567490Y369233D01*
X567540Y369263D01*
X567598Y369324D01*
X567662Y369379D01*
X567694Y369427D01*
X567734Y369470D01*
X567773Y369545D01*
X567820Y369615D01*
X567837Y369671D01*
X567864Y369723D01*
X567875Y369791D01*
X567905Y369886D01*
X567908Y369986D01*
X567919Y370054D01*
X567919Y377511D01*
X568777Y377340D01*
X570248Y376731D01*
X571571Y375847D01*
X572052Y375366D01*
X572099Y375331D01*
X572139Y375288D01*
X572212Y375246D01*
X572279Y375195D01*
X572334Y375174D01*
X572384Y375144D01*
X572466Y375124D01*
X572545Y375094D01*
X572603Y375089D01*
X572660Y375074D01*
X572744Y375077D01*
X572828Y375070D01*
X572886Y375082D01*
X572944Y375083D01*
X573024Y375109D01*
X573107Y375126D01*
X573159Y375153D01*
X573215Y375171D01*
X573271Y375211D01*
X573359Y375257D01*
X573432Y375326D01*
X573488Y375366D01*
X574543Y376421D01*
X577513Y377651D01*
X580727Y377651D01*
X583697Y376421D01*
X584752Y375366D01*
X584799Y375331D01*
X584839Y375288D01*
X584912Y375246D01*
X584979Y375195D01*
X585034Y375174D01*
X585084Y375144D01*
X585166Y375124D01*
X585245Y375094D01*
X585303Y375089D01*
X585360Y375074D01*
X585444Y375077D01*
X585528Y375070D01*
X585586Y375082D01*
X585644Y375083D01*
X585724Y375109D01*
X585807Y375126D01*
X585859Y375153D01*
X585915Y375171D01*
X585971Y375211D01*
X586059Y375257D01*
X586132Y375326D01*
X586188Y375366D01*
X586669Y375847D01*
X587992Y376731D01*
X589463Y377340D01*
X590321Y377511D01*
X590321Y370054D01*
X590329Y369997D01*
X590327Y369945D01*
X590328Y369944D01*
X590327Y369938D01*
X590349Y369856D01*
X590361Y369773D01*
X590384Y369719D01*
X590399Y369663D01*
X590442Y369590D01*
X590477Y369513D01*
X590515Y369469D01*
X590544Y369418D01*
X590606Y369361D01*
X590660Y369296D01*
X590709Y369264D01*
X590752Y369224D01*
X590827Y369185D01*
X590897Y369139D01*
X590953Y369121D01*
X591005Y369094D01*
X591073Y369083D01*
X591168Y369053D01*
X591268Y369050D01*
X591295Y369046D01*
X591297Y369028D01*
X591296Y368970D01*
X591317Y368888D01*
X591329Y368804D01*
X591353Y368751D01*
X591367Y368695D01*
X591411Y368622D01*
X591445Y368545D01*
X591483Y368500D01*
X591513Y368450D01*
X591574Y368392D01*
X591629Y368328D01*
X591677Y368296D01*
X591720Y368256D01*
X591795Y368217D01*
X591865Y368170D01*
X591921Y368153D01*
X591973Y368126D01*
X592041Y368115D01*
X592136Y368085D01*
X592236Y368082D01*
X592304Y368071D01*
X604036Y368071D01*
X604094Y368079D01*
X604152Y368077D01*
X604234Y368099D01*
X604317Y368111D01*
X604371Y368134D01*
X604427Y368149D01*
X604500Y368192D01*
X604577Y368227D01*
X604621Y368265D01*
X604672Y368294D01*
X604729Y368356D01*
X604794Y368410D01*
X604826Y368459D01*
X604866Y368502D01*
X604905Y368577D01*
X604951Y368647D01*
X604969Y368703D01*
X604996Y368755D01*
X605007Y368823D01*
X605037Y368918D01*
X605040Y369018D01*
X605044Y369045D01*
X605062Y369047D01*
X605120Y369046D01*
X605202Y369067D01*
X605286Y369079D01*
X605339Y369103D01*
X605395Y369117D01*
X605468Y369161D01*
X605545Y369195D01*
X605590Y369233D01*
X605640Y369263D01*
X605698Y369324D01*
X605762Y369379D01*
X605794Y369427D01*
X605834Y369470D01*
X605873Y369545D01*
X605920Y369615D01*
X605937Y369671D01*
X605964Y369723D01*
X605975Y369791D01*
X606005Y369886D01*
X606008Y369986D01*
X606019Y370054D01*
X606019Y377511D01*
X606877Y377340D01*
X608348Y376731D01*
X608470Y376649D01*
X608561Y376605D01*
X608649Y376554D01*
X608689Y376544D01*
X608726Y376526D01*
X608826Y376509D01*
X608924Y376484D01*
X608966Y376485D01*
X609007Y376478D01*
X609107Y376490D01*
X609208Y376493D01*
X609248Y376506D01*
X609289Y376511D01*
X609383Y376549D01*
X609479Y376581D01*
X609509Y376602D01*
X609552Y376620D01*
X609697Y376736D01*
X609752Y376775D01*
X610916Y377939D01*
X610951Y377986D01*
X610994Y378026D01*
X611036Y378099D01*
X611087Y378166D01*
X611108Y378221D01*
X611137Y378271D01*
X611158Y378353D01*
X611188Y378432D01*
X611193Y378490D01*
X611207Y378547D01*
X611205Y378631D01*
X611212Y378715D01*
X611200Y378773D01*
X611198Y378831D01*
X611172Y378911D01*
X611156Y378994D01*
X611129Y379046D01*
X611111Y379102D01*
X611071Y379158D01*
X611025Y379246D01*
X610956Y379319D01*
X610916Y379375D01*
X608319Y381972D01*
X608249Y382024D01*
X608185Y382084D01*
X608136Y382110D01*
X608092Y382143D01*
X608010Y382174D01*
X607932Y382214D01*
X607885Y382222D01*
X607826Y382244D01*
X607678Y382256D01*
X607601Y382269D01*
X553466Y382269D01*
X553408Y382261D01*
X553350Y382263D01*
X553268Y382241D01*
X553184Y382229D01*
X553131Y382206D01*
X553075Y382191D01*
X553002Y382148D01*
X552925Y382113D01*
X552880Y382075D01*
X552830Y382046D01*
X552772Y381984D01*
X552708Y381930D01*
X552676Y381881D01*
X552636Y381838D01*
X552597Y381763D01*
X552550Y381693D01*
X552533Y381637D01*
X552506Y381585D01*
X552495Y381517D01*
X552465Y381422D01*
X552462Y381322D01*
X552451Y381254D01*
X552451Y359102D01*
X549660Y356311D01*
X549608Y356241D01*
X549548Y356177D01*
X549522Y356128D01*
X549489Y356084D01*
X549458Y356002D01*
X549418Y355924D01*
X549410Y355877D01*
X549388Y355818D01*
X549376Y355670D01*
X549363Y355593D01*
X549363Y354446D01*
X548479Y352313D01*
X546847Y350681D01*
X544714Y349797D01*
X542406Y349797D01*
X540273Y350681D01*
X538641Y352313D01*
X537757Y354446D01*
X537757Y356754D01*
X538641Y358887D01*
X540273Y360519D01*
X542406Y361403D01*
X543553Y361403D01*
X543640Y361415D01*
X543727Y361418D01*
X543780Y361435D01*
X543835Y361443D01*
X543914Y361478D01*
X543998Y361505D01*
X544037Y361533D01*
X544094Y361559D01*
X544207Y361655D01*
X544271Y361700D01*
X544532Y361961D01*
X544584Y362031D01*
X544644Y362095D01*
X544670Y362144D01*
X544703Y362188D01*
X544734Y362270D01*
X544774Y362348D01*
X544782Y362395D01*
X544804Y362454D01*
X544816Y362602D01*
X544829Y362679D01*
X544829Y381254D01*
X544822Y381308D01*
X544823Y381345D01*
X544822Y381348D01*
X544823Y381370D01*
X544801Y381452D01*
X544789Y381536D01*
X544766Y381589D01*
X544751Y381645D01*
X544708Y381718D01*
X544673Y381795D01*
X544635Y381840D01*
X544606Y381890D01*
X544544Y381948D01*
X544490Y382012D01*
X544441Y382044D01*
X544398Y382084D01*
X544323Y382123D01*
X544253Y382170D01*
X544197Y382187D01*
X544145Y382214D01*
X544077Y382225D01*
X543982Y382255D01*
X543882Y382258D01*
X543814Y382269D01*
X487139Y382269D01*
X487052Y382257D01*
X486965Y382254D01*
X486912Y382237D01*
X486857Y382229D01*
X486778Y382194D01*
X486694Y382167D01*
X486655Y382139D01*
X486598Y382113D01*
X486485Y382017D01*
X486421Y381972D01*
X463300Y358851D01*
X463248Y358781D01*
X463188Y358717D01*
X463162Y358668D01*
X463129Y358624D01*
X463098Y358542D01*
X463058Y358464D01*
X463050Y358417D01*
X463028Y358358D01*
X463016Y358210D01*
X463003Y358133D01*
X463003Y356986D01*
X462119Y354853D01*
X460487Y353221D01*
X458354Y352337D01*
X456046Y352337D01*
X453913Y353221D01*
X452281Y354853D01*
X451397Y356986D01*
X451397Y359294D01*
X452281Y361427D01*
X453913Y363059D01*
X456046Y363943D01*
X457193Y363943D01*
X457280Y363955D01*
X457367Y363958D01*
X457420Y363975D01*
X457475Y363983D01*
X457554Y364018D01*
X457638Y364045D01*
X457677Y364073D01*
X457734Y364099D01*
X457847Y364195D01*
X457911Y364240D01*
X483562Y389891D01*
X611178Y389891D01*
X621031Y380038D01*
X621031Y378666D01*
X621039Y378608D01*
X621037Y378550D01*
X621059Y378468D01*
X621071Y378384D01*
X621094Y378331D01*
X621109Y378275D01*
X621152Y378202D01*
X621187Y378125D01*
X621225Y378080D01*
X621254Y378030D01*
X621316Y377972D01*
X621370Y377908D01*
X621419Y377876D01*
X621462Y377836D01*
X621537Y377797D01*
X621607Y377750D01*
X621663Y377733D01*
X621715Y377706D01*
X621783Y377695D01*
X621878Y377665D01*
X621978Y377662D01*
X622046Y377651D01*
X623812Y377651D01*
X625301Y376162D01*
X625301Y362978D01*
X624462Y362139D01*
X624461Y362138D01*
X624460Y362137D01*
X624375Y362023D01*
X624291Y361912D01*
X624291Y361911D01*
X624290Y361909D01*
X624241Y361779D01*
X624190Y361646D01*
X624190Y361645D01*
X624190Y361643D01*
X624178Y361500D01*
X624167Y361363D01*
X624167Y361362D01*
X624167Y361360D01*
X624170Y361344D01*
X624223Y361084D01*
X624237Y361057D01*
X624242Y361033D01*
X625301Y358477D01*
X625301Y355263D01*
X624070Y352293D01*
X621797Y350020D01*
X618827Y348789D01*
X615613Y348789D01*
X612643Y350020D01*
X611588Y351074D01*
X611541Y351109D01*
X611501Y351152D01*
X611428Y351194D01*
X611361Y351245D01*
X611306Y351266D01*
X611256Y351296D01*
X611174Y351316D01*
X611095Y351346D01*
X611037Y351351D01*
X610980Y351366D01*
X610896Y351363D01*
X610812Y351370D01*
X610754Y351358D01*
X610696Y351357D01*
X610616Y351331D01*
X610533Y351314D01*
X610481Y351287D01*
X610425Y351269D01*
X610369Y351229D01*
X610281Y351183D01*
X610208Y351114D01*
X610152Y351074D01*
X609097Y350019D01*
X606127Y348789D01*
X602913Y348789D01*
X599943Y350019D01*
X598888Y351074D01*
X598841Y351109D01*
X598801Y351152D01*
X598728Y351194D01*
X598661Y351245D01*
X598606Y351266D01*
X598556Y351296D01*
X598474Y351316D01*
X598395Y351346D01*
X598337Y351351D01*
X598280Y351366D01*
X598196Y351363D01*
X598112Y351370D01*
X598054Y351358D01*
X597996Y351357D01*
X597916Y351331D01*
X597833Y351314D01*
X597781Y351287D01*
X597725Y351269D01*
X597669Y351229D01*
X597581Y351183D01*
X597508Y351114D01*
X597452Y351074D01*
X596397Y350020D01*
X593427Y348789D01*
X590213Y348789D01*
X587243Y350019D01*
X586188Y351074D01*
X586141Y351109D01*
X586101Y351152D01*
X586028Y351194D01*
X585961Y351245D01*
X585906Y351266D01*
X585856Y351296D01*
X585774Y351316D01*
X585695Y351346D01*
X585637Y351351D01*
X585580Y351366D01*
X585496Y351363D01*
X585412Y351370D01*
X585354Y351358D01*
X585296Y351357D01*
X585216Y351331D01*
X585133Y351314D01*
X585081Y351287D01*
X585025Y351269D01*
X584969Y351229D01*
X584881Y351183D01*
X584808Y351114D01*
X584752Y351074D01*
X583697Y350020D01*
X580727Y348789D01*
X577513Y348789D01*
X574543Y350019D01*
X573488Y351074D01*
X573441Y351109D01*
X573401Y351152D01*
X573328Y351194D01*
X573261Y351245D01*
X573206Y351266D01*
X573156Y351296D01*
X573074Y351316D01*
X572995Y351346D01*
X572937Y351351D01*
X572880Y351366D01*
X572796Y351363D01*
X572712Y351370D01*
X572654Y351358D01*
X572596Y351357D01*
X572516Y351331D01*
X572433Y351314D01*
X572381Y351287D01*
X572325Y351269D01*
X572269Y351229D01*
X572181Y351183D01*
X572108Y351114D01*
X572052Y351074D01*
X570997Y350020D01*
X570857Y349962D01*
X570856Y349961D01*
X570855Y349960D01*
X570738Y349891D01*
X570613Y349817D01*
X570611Y349816D01*
X570610Y349815D01*
X570515Y349714D01*
X570417Y349610D01*
X570417Y349609D01*
X570416Y349608D01*
X570351Y349482D01*
X570287Y349358D01*
X570287Y349356D01*
X570286Y349355D01*
X570284Y349340D01*
X570232Y349079D01*
X570235Y349048D01*
X570231Y349024D01*
X570231Y342359D01*
X570243Y342272D01*
X570246Y342185D01*
X570263Y342132D01*
X570271Y342077D01*
X570306Y341998D01*
X570333Y341914D01*
X570361Y341875D01*
X570387Y341818D01*
X570483Y341705D01*
X570528Y341641D01*
X577861Y334308D01*
X577931Y334256D01*
X577995Y334196D01*
X578044Y334170D01*
X578088Y334137D01*
X578170Y334106D01*
X578248Y334066D01*
X578295Y334058D01*
X578354Y334036D01*
X578502Y334024D01*
X578579Y334011D01*
X617761Y334011D01*
X617848Y334023D01*
X617935Y334026D01*
X617988Y334043D01*
X618043Y334051D01*
X618122Y334086D01*
X618206Y334113D01*
X618245Y334141D01*
X618302Y334167D01*
X618415Y334263D01*
X618479Y334308D01*
X715507Y431336D01*
X715525Y431360D01*
X715547Y431379D01*
X715610Y431473D01*
X715678Y431563D01*
X715688Y431591D01*
X715705Y431615D01*
X715739Y431723D01*
X715779Y431829D01*
X715782Y431858D01*
X715790Y431886D01*
X715793Y432000D01*
X715803Y432112D01*
X715797Y432141D01*
X715798Y432170D01*
X715769Y432280D01*
X715747Y432391D01*
X715733Y432417D01*
X715726Y432445D01*
X715668Y432543D01*
X715616Y432643D01*
X715596Y432665D01*
X715581Y432690D01*
X715498Y432767D01*
X715420Y432849D01*
X715395Y432864D01*
X715373Y432884D01*
X715272Y432936D01*
X715175Y432993D01*
X715146Y433000D01*
X715120Y433014D01*
X715043Y433027D01*
X714899Y433063D01*
X714837Y433061D01*
X714789Y433069D01*
X454396Y433069D01*
X454309Y433057D01*
X454222Y433054D01*
X454169Y433037D01*
X454115Y433029D01*
X454035Y432994D01*
X453952Y432967D01*
X453912Y432939D01*
X453855Y432913D01*
X453742Y432817D01*
X453678Y432772D01*
X452867Y431961D01*
X450734Y431077D01*
X448426Y431077D01*
X446293Y431961D01*
X444661Y433593D01*
X443777Y435726D01*
X443777Y438034D01*
X444296Y439285D01*
X444324Y439397D01*
X444359Y439506D01*
X444360Y439534D01*
X444367Y439561D01*
X444363Y439675D01*
X444366Y439790D01*
X444359Y439817D01*
X444358Y439845D01*
X444323Y439954D01*
X444294Y440065D01*
X444280Y440089D01*
X444272Y440116D01*
X444208Y440211D01*
X444149Y440310D01*
X444129Y440329D01*
X444113Y440352D01*
X444025Y440426D01*
X443942Y440504D01*
X443917Y440517D01*
X443896Y440535D01*
X443791Y440581D01*
X443689Y440634D01*
X443664Y440638D01*
X443636Y440650D01*
X443372Y440687D01*
X443358Y440689D01*
X436616Y440689D01*
X436529Y440677D01*
X436442Y440674D01*
X436389Y440657D01*
X436335Y440649D01*
X436255Y440614D01*
X436172Y440587D01*
X436132Y440559D01*
X436075Y440533D01*
X435962Y440437D01*
X435898Y440392D01*
X435087Y439581D01*
X432954Y438697D01*
X430646Y438697D01*
X428513Y439581D01*
X426881Y441213D01*
X425997Y443346D01*
X425997Y445654D01*
X426881Y447787D01*
X428513Y449419D01*
X430646Y450303D01*
X432954Y450303D01*
X435087Y449419D01*
X435898Y448608D01*
X435968Y448556D01*
X436032Y448496D01*
X436081Y448470D01*
X436125Y448437D01*
X436207Y448406D01*
X436285Y448366D01*
X436333Y448358D01*
X436391Y448336D01*
X436539Y448324D01*
X436616Y448311D01*
X711741Y448311D01*
X711828Y448323D01*
X711915Y448326D01*
X711968Y448343D01*
X712023Y448351D01*
X712102Y448386D01*
X712186Y448413D01*
X712225Y448441D01*
X712282Y448467D01*
X712395Y448563D01*
X712459Y448608D01*
X780742Y516891D01*
X842318Y516891D01*
X900431Y458778D01*
X900431Y388356D01*
X900443Y388269D01*
X900446Y388182D01*
X900463Y388129D01*
X900471Y388075D01*
X900506Y387995D01*
X900533Y387912D01*
X900561Y387872D01*
X900587Y387815D01*
X900652Y387738D01*
X900675Y387700D01*
X900703Y387674D01*
X900728Y387638D01*
X901539Y386827D01*
X902423Y384694D01*
X902423Y382386D01*
X902366Y382248D01*
X902358Y382220D01*
X902345Y382194D01*
X902323Y382083D01*
X902295Y381973D01*
X902296Y381944D01*
X902290Y381915D01*
X902300Y381802D01*
X902303Y381689D01*
X902312Y381661D01*
X902314Y381632D01*
X902355Y381526D01*
X902390Y381418D01*
X902406Y381394D01*
X902417Y381366D01*
X902485Y381276D01*
X902548Y381182D01*
X902570Y381163D01*
X902588Y381140D01*
X902679Y381072D01*
X902765Y380999D01*
X902792Y380987D01*
X902816Y380970D01*
X902922Y380929D01*
X903025Y380884D01*
X903054Y380880D01*
X903082Y380869D01*
X903195Y380860D01*
X903307Y380845D01*
X903336Y380849D01*
X903365Y380846D01*
X903442Y380864D01*
X903588Y380885D01*
X903645Y380911D01*
X903692Y380922D01*
X905626Y381723D01*
X907934Y381723D01*
X910067Y380839D01*
X911699Y379207D01*
X912583Y377074D01*
X912583Y374766D01*
X912490Y374541D01*
X912468Y374458D01*
X912438Y374378D01*
X912433Y374321D01*
X912419Y374266D01*
X912421Y374180D01*
X912414Y374094D01*
X912425Y374039D01*
X912427Y373982D01*
X912453Y373900D01*
X912470Y373816D01*
X912496Y373765D01*
X912514Y373711D01*
X912561Y373639D01*
X912601Y373563D01*
X912640Y373522D01*
X912672Y373475D01*
X912738Y373419D01*
X912797Y373357D01*
X912846Y373328D01*
X912889Y373292D01*
X912968Y373257D01*
X913042Y373213D01*
X913097Y373199D01*
X913149Y373176D01*
X913234Y373164D01*
X913318Y373143D01*
X913374Y373145D01*
X913431Y373137D01*
X913516Y373150D01*
X913602Y373152D01*
X913656Y373170D01*
X913712Y373178D01*
X913791Y373213D01*
X913872Y373240D01*
X913912Y373269D01*
X913971Y373295D01*
X914082Y373389D01*
X914146Y373435D01*
X938232Y397521D01*
X938284Y397591D01*
X938344Y397655D01*
X938370Y397704D01*
X938403Y397748D01*
X938434Y397830D01*
X938474Y397908D01*
X938482Y397955D01*
X938504Y398014D01*
X938516Y398162D01*
X938529Y398239D01*
X938529Y432064D01*
X938517Y432151D01*
X938514Y432238D01*
X938497Y432291D01*
X938489Y432345D01*
X938454Y432425D01*
X938427Y432508D01*
X938399Y432548D01*
X938373Y432605D01*
X938277Y432718D01*
X938232Y432782D01*
X937421Y433593D01*
X936537Y435726D01*
X936537Y438034D01*
X937421Y440167D01*
X939053Y441799D01*
X941186Y442683D01*
X943494Y442683D01*
X945627Y441799D01*
X947259Y440167D01*
X948143Y438034D01*
X948143Y435726D01*
X947259Y433593D01*
X946448Y432782D01*
X946396Y432712D01*
X946336Y432648D01*
X946310Y432599D01*
X946277Y432555D01*
X946246Y432473D01*
X946206Y432395D01*
X946198Y432347D01*
X946176Y432289D01*
X946165Y432161D01*
X946165Y432159D01*
X946164Y432151D01*
X946164Y432141D01*
X946151Y432064D01*
X946151Y394662D01*
X913438Y361949D01*
X889962Y361949D01*
X877569Y374342D01*
X877569Y450121D01*
X877557Y450208D01*
X877554Y450295D01*
X877537Y450348D01*
X877529Y450403D01*
X877494Y450482D01*
X877467Y450566D01*
X877439Y450605D01*
X877413Y450662D01*
X877317Y450775D01*
X877272Y450839D01*
X834379Y493732D01*
X834309Y493784D01*
X834245Y493844D01*
X834196Y493870D01*
X834152Y493903D01*
X834070Y493934D01*
X833992Y493974D01*
X833945Y493982D01*
X833886Y494004D01*
X833738Y494016D01*
X833661Y494029D01*
X829808Y494029D01*
X829779Y494025D01*
X829750Y494028D01*
X829639Y494005D01*
X829527Y493989D01*
X829500Y493977D01*
X829471Y493972D01*
X829370Y493919D01*
X829267Y493873D01*
X829245Y493854D01*
X829219Y493841D01*
X829137Y493763D01*
X829050Y493690D01*
X829034Y493665D01*
X829013Y493645D01*
X828955Y493547D01*
X828893Y493453D01*
X828884Y493425D01*
X828869Y493400D01*
X828841Y493290D01*
X828807Y493182D01*
X828806Y493152D01*
X828799Y493124D01*
X828802Y493011D01*
X828799Y492898D01*
X828807Y492869D01*
X828808Y492840D01*
X828843Y492732D01*
X828871Y492623D01*
X828886Y492597D01*
X828895Y492569D01*
X828941Y492505D01*
X829017Y492378D01*
X829062Y492335D01*
X829090Y492296D01*
X830419Y490967D01*
X831303Y488834D01*
X831303Y486526D01*
X830419Y484393D01*
X829608Y483582D01*
X829556Y483512D01*
X829496Y483448D01*
X829470Y483399D01*
X829437Y483355D01*
X829406Y483273D01*
X829366Y483195D01*
X829358Y483147D01*
X829336Y483089D01*
X829324Y482941D01*
X829311Y482864D01*
X829311Y351482D01*
X765560Y287731D01*
X765508Y287661D01*
X765448Y287597D01*
X765422Y287548D01*
X765389Y287504D01*
X765358Y287422D01*
X765318Y287344D01*
X765310Y287297D01*
X765288Y287238D01*
X765276Y287090D01*
X765263Y287013D01*
X765263Y285866D01*
X764379Y283733D01*
X762747Y282101D01*
X760614Y281217D01*
X758306Y281217D01*
X756173Y282101D01*
X754541Y283733D01*
X753657Y285866D01*
X753657Y288174D01*
X753750Y288399D01*
X753772Y288482D01*
X753802Y288562D01*
X753807Y288619D01*
X753821Y288674D01*
X753819Y288760D01*
X753826Y288846D01*
X753815Y288901D01*
X753813Y288958D01*
X753787Y289040D01*
X753770Y289124D01*
X753744Y289175D01*
X753727Y289229D01*
X753679Y289301D01*
X753639Y289377D01*
X753600Y289418D01*
X753568Y289465D01*
X753502Y289520D01*
X753443Y289583D01*
X753394Y289612D01*
X753351Y289648D01*
X753272Y289683D01*
X753198Y289727D01*
X753143Y289741D01*
X753091Y289764D01*
X753006Y289776D01*
X752922Y289797D01*
X752866Y289795D01*
X752809Y289803D01*
X752724Y289790D01*
X752638Y289788D01*
X752584Y289770D01*
X752528Y289762D01*
X752449Y289727D01*
X752368Y289700D01*
X752328Y289671D01*
X752269Y289645D01*
X752158Y289551D01*
X752094Y289505D01*
X750320Y287731D01*
X750268Y287661D01*
X750208Y287597D01*
X750182Y287548D01*
X750149Y287504D01*
X750118Y287422D01*
X750078Y287344D01*
X750070Y287297D01*
X750048Y287238D01*
X750036Y287090D01*
X750023Y287013D01*
X750023Y285866D01*
X749139Y283733D01*
X747507Y282101D01*
X745374Y281217D01*
X743066Y281217D01*
X740933Y282101D01*
X739301Y283733D01*
X738417Y285866D01*
X738417Y288174D01*
X738510Y288399D01*
X738532Y288482D01*
X738562Y288562D01*
X738567Y288619D01*
X738581Y288674D01*
X738579Y288760D01*
X738586Y288846D01*
X738575Y288901D01*
X738573Y288958D01*
X738547Y289040D01*
X738530Y289124D01*
X738504Y289175D01*
X738486Y289229D01*
X738439Y289300D01*
X738399Y289377D01*
X738360Y289418D01*
X738328Y289465D01*
X738262Y289521D01*
X738203Y289583D01*
X738154Y289612D01*
X738111Y289648D01*
X738032Y289683D01*
X737958Y289727D01*
X737903Y289741D01*
X737851Y289764D01*
X737766Y289776D01*
X737682Y289797D01*
X737626Y289795D01*
X737569Y289803D01*
X737484Y289790D01*
X737398Y289788D01*
X737344Y289770D01*
X737288Y289762D01*
X737210Y289727D01*
X737128Y289700D01*
X737087Y289671D01*
X737029Y289645D01*
X736918Y289551D01*
X736854Y289505D01*
X735080Y287731D01*
X735028Y287661D01*
X734968Y287597D01*
X734942Y287548D01*
X734909Y287504D01*
X734878Y287422D01*
X734838Y287344D01*
X734830Y287297D01*
X734808Y287238D01*
X734796Y287090D01*
X734783Y287013D01*
X734783Y285866D01*
X733899Y283733D01*
X732267Y282101D01*
X730134Y281217D01*
X727826Y281217D01*
X725693Y282101D01*
X724061Y283733D01*
X723177Y285866D01*
X723177Y288174D01*
X723270Y288399D01*
X723292Y288482D01*
X723322Y288562D01*
X723327Y288619D01*
X723341Y288674D01*
X723339Y288760D01*
X723346Y288846D01*
X723335Y288901D01*
X723333Y288958D01*
X723307Y289040D01*
X723290Y289124D01*
X723264Y289175D01*
X723246Y289229D01*
X723199Y289300D01*
X723159Y289377D01*
X723120Y289418D01*
X723088Y289465D01*
X723022Y289521D01*
X722963Y289583D01*
X722914Y289612D01*
X722871Y289648D01*
X722792Y289683D01*
X722718Y289727D01*
X722663Y289741D01*
X722611Y289764D01*
X722526Y289776D01*
X722442Y289797D01*
X722386Y289795D01*
X722329Y289803D01*
X722244Y289790D01*
X722158Y289788D01*
X722104Y289770D01*
X722048Y289762D01*
X721970Y289727D01*
X721888Y289700D01*
X721847Y289671D01*
X721789Y289645D01*
X721678Y289551D01*
X721614Y289505D01*
X719840Y287731D01*
X719788Y287661D01*
X719728Y287597D01*
X719702Y287548D01*
X719669Y287504D01*
X719638Y287422D01*
X719598Y287344D01*
X719590Y287297D01*
X719568Y287238D01*
X719556Y287090D01*
X719543Y287013D01*
X719543Y285866D01*
X718659Y283733D01*
X717027Y282101D01*
X714894Y281217D01*
X712586Y281217D01*
X710453Y282101D01*
X708821Y283733D01*
X707937Y285866D01*
X707937Y288174D01*
X708030Y288399D01*
X708052Y288482D01*
X708082Y288562D01*
X708087Y288619D01*
X708101Y288674D01*
X708099Y288760D01*
X708106Y288846D01*
X708095Y288901D01*
X708093Y288958D01*
X708067Y289040D01*
X708050Y289124D01*
X708024Y289175D01*
X708007Y289229D01*
X707959Y289301D01*
X707919Y289377D01*
X707880Y289418D01*
X707848Y289465D01*
X707782Y289520D01*
X707723Y289583D01*
X707674Y289612D01*
X707631Y289648D01*
X707552Y289683D01*
X707478Y289727D01*
X707423Y289741D01*
X707371Y289764D01*
X707286Y289776D01*
X707202Y289797D01*
X707146Y289795D01*
X707089Y289803D01*
X707004Y289790D01*
X706918Y289788D01*
X706864Y289770D01*
X706808Y289762D01*
X706729Y289727D01*
X706648Y289700D01*
X706608Y289671D01*
X706549Y289645D01*
X706438Y289551D01*
X706374Y289505D01*
X704600Y287731D01*
X704548Y287661D01*
X704488Y287597D01*
X704462Y287548D01*
X704429Y287504D01*
X704398Y287422D01*
X704358Y287344D01*
X704350Y287297D01*
X704328Y287238D01*
X704316Y287090D01*
X704303Y287013D01*
X704303Y285866D01*
X703419Y283733D01*
X701787Y282101D01*
X699654Y281217D01*
X697346Y281217D01*
G37*
%LPD*%
%LPC*%
G36*
X95413Y146859D02*
X95413Y146859D01*
X91502Y148479D01*
X88509Y151472D01*
X86889Y155383D01*
X86889Y159617D01*
X88509Y163528D01*
X91502Y166521D01*
X91822Y166653D01*
X91824Y166654D01*
X91825Y166655D01*
X91943Y166724D01*
X92067Y166798D01*
X92068Y166799D01*
X92070Y166800D01*
X92165Y166901D01*
X92263Y167004D01*
X92263Y167006D01*
X92264Y167007D01*
X92326Y167128D01*
X92393Y167257D01*
X92393Y167259D01*
X92394Y167260D01*
X92396Y167275D01*
X92448Y167536D01*
X92445Y167567D01*
X92449Y167591D01*
X92449Y173751D01*
X93223Y175618D01*
X142892Y225287D01*
X144759Y226061D01*
X240741Y226061D01*
X240771Y226065D01*
X240802Y226063D01*
X240879Y226080D01*
X241022Y226101D01*
X241081Y226127D01*
X241129Y226138D01*
X242686Y226783D01*
X244994Y226783D01*
X246551Y226138D01*
X246581Y226130D01*
X246608Y226116D01*
X246686Y226103D01*
X246826Y226067D01*
X246890Y226069D01*
X246939Y226061D01*
X539147Y226061D01*
X539232Y226073D01*
X539318Y226075D01*
X539372Y226093D01*
X539429Y226101D01*
X539507Y226136D01*
X539589Y226162D01*
X539636Y226194D01*
X539688Y226217D01*
X539754Y226272D01*
X539825Y226320D01*
X539862Y226364D01*
X539905Y226400D01*
X539953Y226472D01*
X540008Y226538D01*
X540031Y226590D01*
X540063Y226637D01*
X540089Y226719D01*
X540124Y226798D01*
X540131Y226854D01*
X540149Y226908D01*
X540151Y226994D01*
X540163Y227079D01*
X540154Y227135D01*
X540156Y227192D01*
X540134Y227275D01*
X540122Y227360D01*
X540098Y227412D01*
X540084Y227467D01*
X540040Y227541D01*
X540005Y227620D01*
X539968Y227663D01*
X539939Y227712D01*
X539876Y227771D01*
X539820Y227836D01*
X539778Y227862D01*
X539731Y227906D01*
X539602Y227972D01*
X539536Y228014D01*
X537733Y228761D01*
X536101Y230393D01*
X535217Y232526D01*
X535217Y234834D01*
X536101Y236967D01*
X537733Y238599D01*
X539866Y239483D01*
X542174Y239483D01*
X544307Y238599D01*
X545118Y237788D01*
X545188Y237736D01*
X545252Y237676D01*
X545301Y237650D01*
X545345Y237617D01*
X545427Y237586D01*
X545505Y237546D01*
X545553Y237538D01*
X545611Y237516D01*
X545759Y237504D01*
X545836Y237491D01*
X574304Y237491D01*
X574391Y237503D01*
X574478Y237506D01*
X574531Y237523D01*
X574585Y237531D01*
X574665Y237566D01*
X574748Y237593D01*
X574788Y237621D01*
X574845Y237647D01*
X574958Y237743D01*
X575022Y237788D01*
X575833Y238599D01*
X577966Y239483D01*
X580274Y239483D01*
X582407Y238599D01*
X584039Y236967D01*
X584923Y234834D01*
X584923Y232526D01*
X584039Y230393D01*
X582407Y228761D01*
X580604Y228014D01*
X580530Y227970D01*
X580452Y227935D01*
X580408Y227898D01*
X580359Y227869D01*
X580300Y227807D01*
X580235Y227751D01*
X580203Y227704D01*
X580164Y227663D01*
X580125Y227586D01*
X580077Y227515D01*
X580060Y227461D01*
X580034Y227410D01*
X580017Y227326D01*
X579991Y227244D01*
X579990Y227187D01*
X579979Y227131D01*
X579986Y227046D01*
X579984Y226960D01*
X579999Y226905D01*
X580003Y226848D01*
X580034Y226768D01*
X580056Y226685D01*
X580085Y226636D01*
X580105Y226583D01*
X580157Y226514D01*
X580201Y226440D01*
X580243Y226401D01*
X580277Y226356D01*
X580346Y226304D01*
X580409Y226246D01*
X580459Y226220D01*
X580505Y226186D01*
X580585Y226155D01*
X580662Y226116D01*
X580710Y226108D01*
X580771Y226085D01*
X580915Y226074D01*
X580993Y226061D01*
X619201Y226061D01*
X619231Y226065D01*
X619262Y226063D01*
X619339Y226080D01*
X619482Y226101D01*
X619541Y226127D01*
X619589Y226138D01*
X621146Y226783D01*
X623454Y226783D01*
X625011Y226138D01*
X625041Y226130D01*
X625068Y226116D01*
X625146Y226103D01*
X625286Y226067D01*
X625350Y226069D01*
X625399Y226061D01*
X762015Y226061D01*
X762102Y226073D01*
X762189Y226076D01*
X762242Y226093D01*
X762296Y226101D01*
X762376Y226136D01*
X762459Y226163D01*
X762499Y226191D01*
X762556Y226217D01*
X762669Y226313D01*
X762733Y226358D01*
X817542Y281167D01*
X819409Y281941D01*
X835101Y281941D01*
X835131Y281945D01*
X835162Y281943D01*
X835239Y281960D01*
X835382Y281981D01*
X835441Y282007D01*
X835489Y282018D01*
X837046Y282663D01*
X839354Y282663D01*
X840911Y282018D01*
X840941Y282010D01*
X840968Y281996D01*
X841046Y281983D01*
X841186Y281947D01*
X841250Y281949D01*
X841299Y281941D01*
X944895Y281941D01*
X944982Y281953D01*
X945069Y281956D01*
X945122Y281973D01*
X945176Y281981D01*
X945256Y282016D01*
X945339Y282043D01*
X945379Y282071D01*
X945436Y282097D01*
X945549Y282193D01*
X945613Y282238D01*
X989896Y326521D01*
X989914Y326546D01*
X989938Y326566D01*
X989980Y326633D01*
X990067Y326748D01*
X990090Y326809D01*
X990116Y326851D01*
X990522Y327831D01*
X990530Y327861D01*
X990544Y327888D01*
X990557Y327966D01*
X990593Y328106D01*
X990591Y328170D01*
X990599Y328219D01*
X990599Y362661D01*
X990595Y362691D01*
X990597Y362722D01*
X990580Y362799D01*
X990559Y362942D01*
X990533Y363001D01*
X990522Y363049D01*
X989877Y364606D01*
X989877Y366914D01*
X990522Y368471D01*
X990530Y368501D01*
X990544Y368528D01*
X990557Y368606D01*
X990593Y368746D01*
X990591Y368810D01*
X990599Y368859D01*
X990599Y466801D01*
X990595Y466831D01*
X990597Y466862D01*
X990580Y466939D01*
X990559Y467082D01*
X990533Y467141D01*
X990522Y467189D01*
X989877Y468746D01*
X989877Y471054D01*
X990522Y472611D01*
X990530Y472641D01*
X990544Y472668D01*
X990557Y472746D01*
X990593Y472886D01*
X990591Y472950D01*
X990599Y472999D01*
X990599Y482615D01*
X990587Y482702D01*
X990584Y482789D01*
X990567Y482842D01*
X990559Y482896D01*
X990524Y482976D01*
X990497Y483060D01*
X990469Y483099D01*
X990443Y483156D01*
X990347Y483269D01*
X990302Y483333D01*
X953233Y520402D01*
X953163Y520454D01*
X953099Y520514D01*
X953050Y520540D01*
X953006Y520573D01*
X952924Y520604D01*
X952846Y520644D01*
X952798Y520652D01*
X952740Y520674D01*
X952592Y520686D01*
X952515Y520699D01*
X841299Y520699D01*
X841269Y520695D01*
X841238Y520697D01*
X841161Y520680D01*
X841018Y520659D01*
X840959Y520633D01*
X840911Y520622D01*
X839354Y519977D01*
X837046Y519977D01*
X835489Y520622D01*
X835459Y520630D01*
X835432Y520644D01*
X835354Y520657D01*
X835214Y520693D01*
X835150Y520691D01*
X835101Y520699D01*
X787959Y520699D01*
X787929Y520695D01*
X787898Y520697D01*
X787821Y520680D01*
X787678Y520659D01*
X787619Y520633D01*
X787571Y520622D01*
X786014Y519977D01*
X783706Y519977D01*
X782149Y520622D01*
X782119Y520630D01*
X782092Y520644D01*
X782014Y520657D01*
X781874Y520693D01*
X781810Y520691D01*
X781761Y520699D01*
X688325Y520699D01*
X688238Y520687D01*
X688151Y520684D01*
X688098Y520667D01*
X688044Y520659D01*
X687964Y520624D01*
X687881Y520597D01*
X687841Y520569D01*
X687784Y520543D01*
X687671Y520447D01*
X687607Y520402D01*
X643324Y476119D01*
X643306Y476094D01*
X643282Y476074D01*
X643240Y476007D01*
X643153Y475892D01*
X643130Y475831D01*
X643104Y475789D01*
X642459Y474233D01*
X640827Y472601D01*
X638694Y471717D01*
X636386Y471717D01*
X634253Y472601D01*
X632621Y474233D01*
X631737Y476366D01*
X631737Y478674D01*
X632621Y480807D01*
X634253Y482439D01*
X635809Y483084D01*
X635836Y483100D01*
X635866Y483109D01*
X635929Y483155D01*
X636054Y483229D01*
X636099Y483275D01*
X636139Y483304D01*
X682922Y530087D01*
X684789Y530861D01*
X781761Y530861D01*
X781791Y530865D01*
X781822Y530863D01*
X781899Y530880D01*
X782042Y530901D01*
X782101Y530927D01*
X782149Y530938D01*
X783706Y531583D01*
X786014Y531583D01*
X787571Y530938D01*
X787601Y530930D01*
X787628Y530916D01*
X787706Y530903D01*
X787846Y530867D01*
X787910Y530869D01*
X787959Y530861D01*
X835101Y530861D01*
X835131Y530865D01*
X835162Y530863D01*
X835239Y530880D01*
X835382Y530901D01*
X835441Y530927D01*
X835489Y530938D01*
X837046Y531583D01*
X839354Y531583D01*
X840911Y530938D01*
X840941Y530930D01*
X840968Y530916D01*
X841046Y530903D01*
X841186Y530867D01*
X841250Y530869D01*
X841299Y530861D01*
X956051Y530861D01*
X957918Y530087D01*
X959490Y528515D01*
X998415Y489590D01*
X999987Y488018D01*
X1000761Y486151D01*
X1000761Y472999D01*
X1000765Y472969D01*
X1000763Y472938D01*
X1000780Y472861D01*
X1000801Y472718D01*
X1000827Y472659D01*
X1000838Y472611D01*
X1001483Y471054D01*
X1001483Y468746D01*
X1000838Y467189D01*
X1000830Y467159D01*
X1000816Y467132D01*
X1000803Y467054D01*
X1000767Y466914D01*
X1000769Y466850D01*
X1000761Y466801D01*
X1000761Y368859D01*
X1000765Y368829D01*
X1000763Y368798D01*
X1000780Y368721D01*
X1000801Y368578D01*
X1000827Y368519D01*
X1000838Y368471D01*
X1001483Y366914D01*
X1001483Y364606D01*
X1000838Y363049D01*
X1000830Y363019D01*
X1000816Y362992D01*
X1000803Y362914D01*
X1000767Y362774D01*
X1000769Y362710D01*
X1000761Y362661D01*
X1000761Y328219D01*
X1000765Y328189D01*
X1000763Y328158D01*
X1000780Y328081D01*
X1000801Y327938D01*
X1000827Y327879D01*
X1000838Y327831D01*
X1001483Y326274D01*
X1001483Y323966D01*
X1000599Y321833D01*
X998967Y320201D01*
X997411Y319556D01*
X997384Y319540D01*
X997354Y319531D01*
X997291Y319485D01*
X997166Y319411D01*
X997121Y319365D01*
X997081Y319336D01*
X950298Y272553D01*
X948431Y271779D01*
X841299Y271779D01*
X841269Y271775D01*
X841238Y271777D01*
X841161Y271760D01*
X841018Y271739D01*
X840959Y271713D01*
X840911Y271702D01*
X839354Y271057D01*
X837046Y271057D01*
X835489Y271702D01*
X835459Y271710D01*
X835432Y271724D01*
X835354Y271737D01*
X835214Y271773D01*
X835150Y271771D01*
X835101Y271779D01*
X822945Y271779D01*
X822858Y271767D01*
X822771Y271764D01*
X822718Y271747D01*
X822664Y271739D01*
X822584Y271704D01*
X822501Y271677D01*
X822461Y271649D01*
X822404Y271623D01*
X822291Y271527D01*
X822227Y271482D01*
X767418Y216673D01*
X765551Y215899D01*
X625399Y215899D01*
X625369Y215895D01*
X625338Y215897D01*
X625261Y215880D01*
X625118Y215859D01*
X625059Y215833D01*
X625011Y215822D01*
X623454Y215177D01*
X621146Y215177D01*
X619589Y215822D01*
X619559Y215830D01*
X619532Y215844D01*
X619454Y215857D01*
X619314Y215893D01*
X619250Y215891D01*
X619201Y215899D01*
X246939Y215899D01*
X246909Y215895D01*
X246878Y215897D01*
X246801Y215880D01*
X246658Y215859D01*
X246599Y215833D01*
X246551Y215822D01*
X244994Y215177D01*
X242686Y215177D01*
X241129Y215822D01*
X241099Y215830D01*
X241072Y215844D01*
X240994Y215857D01*
X240854Y215893D01*
X240790Y215891D01*
X240741Y215899D01*
X148295Y215899D01*
X148208Y215887D01*
X148121Y215884D01*
X148068Y215867D01*
X148014Y215859D01*
X147934Y215824D01*
X147851Y215797D01*
X147811Y215769D01*
X147754Y215743D01*
X147641Y215647D01*
X147577Y215602D01*
X102908Y170933D01*
X102856Y170863D01*
X102796Y170799D01*
X102770Y170750D01*
X102737Y170706D01*
X102706Y170624D01*
X102666Y170546D01*
X102658Y170498D01*
X102636Y170440D01*
X102624Y170292D01*
X102611Y170215D01*
X102611Y167591D01*
X102611Y167590D01*
X102611Y167588D01*
X102631Y167447D01*
X102651Y167310D01*
X102651Y167308D01*
X102651Y167307D01*
X102710Y167177D01*
X102767Y167050D01*
X102768Y167049D01*
X102769Y167048D01*
X102863Y166937D01*
X102950Y166833D01*
X102952Y166833D01*
X102953Y166831D01*
X102966Y166823D01*
X103187Y166676D01*
X103216Y166667D01*
X103238Y166653D01*
X103558Y166521D01*
X106551Y163528D01*
X108171Y159617D01*
X108171Y155383D01*
X106551Y151472D01*
X103558Y148479D01*
X99647Y146859D01*
X95413Y146859D01*
G37*
%LPD*%
%LPC*%
G36*
X499226Y486957D02*
X499226Y486957D01*
X497093Y487841D01*
X495461Y489473D01*
X494577Y491606D01*
X494577Y493914D01*
X495461Y496047D01*
X497093Y497679D01*
X499226Y498563D01*
X500373Y498563D01*
X500460Y498575D01*
X500547Y498578D01*
X500600Y498595D01*
X500655Y498603D01*
X500734Y498638D01*
X500818Y498665D01*
X500857Y498693D01*
X500914Y498719D01*
X501027Y498815D01*
X501091Y498860D01*
X512735Y510504D01*
X512753Y510528D01*
X512775Y510547D01*
X512838Y510641D01*
X512906Y510731D01*
X512916Y510759D01*
X512933Y510783D01*
X512967Y510891D01*
X513007Y510997D01*
X513010Y511026D01*
X513018Y511054D01*
X513021Y511168D01*
X513031Y511280D01*
X513025Y511309D01*
X513026Y511338D01*
X512997Y511448D01*
X512975Y511559D01*
X512961Y511585D01*
X512954Y511613D01*
X512896Y511711D01*
X512844Y511811D01*
X512824Y511833D01*
X512809Y511858D01*
X512726Y511935D01*
X512648Y512017D01*
X512623Y512032D01*
X512601Y512052D01*
X512500Y512104D01*
X512403Y512161D01*
X512374Y512168D01*
X512348Y512182D01*
X512271Y512195D01*
X512127Y512231D01*
X512065Y512229D01*
X509913Y513121D01*
X508281Y514753D01*
X507397Y516886D01*
X507397Y517337D01*
X507393Y517366D01*
X507396Y517395D01*
X507373Y517506D01*
X507357Y517619D01*
X507345Y517645D01*
X507340Y517674D01*
X507287Y517775D01*
X507241Y517878D01*
X507222Y517900D01*
X507209Y517926D01*
X507131Y518009D01*
X507058Y518095D01*
X507033Y518111D01*
X507013Y518133D01*
X506915Y518190D01*
X506821Y518253D01*
X506793Y518261D01*
X506768Y518276D01*
X506658Y518304D01*
X506550Y518338D01*
X506520Y518339D01*
X506492Y518346D01*
X506379Y518343D01*
X506266Y518346D01*
X506237Y518338D01*
X506208Y518337D01*
X506100Y518302D01*
X505991Y518274D01*
X505965Y518259D01*
X505937Y518250D01*
X505873Y518204D01*
X505746Y518129D01*
X505703Y518083D01*
X505664Y518055D01*
X503940Y516331D01*
X503888Y516261D01*
X503828Y516197D01*
X503802Y516148D01*
X503769Y516104D01*
X503738Y516022D01*
X503698Y515944D01*
X503690Y515897D01*
X503668Y515838D01*
X503656Y515690D01*
X503643Y515613D01*
X503643Y514466D01*
X502759Y512333D01*
X501127Y510701D01*
X498994Y509817D01*
X496686Y509817D01*
X494553Y510701D01*
X492921Y512333D01*
X492037Y514466D01*
X492037Y514677D01*
X492033Y514706D01*
X492036Y514735D01*
X492013Y514846D01*
X491997Y514959D01*
X491985Y514985D01*
X491980Y515014D01*
X491928Y515115D01*
X491881Y515218D01*
X491862Y515240D01*
X491849Y515266D01*
X491771Y515348D01*
X491698Y515435D01*
X491673Y515451D01*
X491653Y515473D01*
X491555Y515530D01*
X491461Y515593D01*
X491433Y515601D01*
X491408Y515616D01*
X491298Y515644D01*
X491190Y515678D01*
X491160Y515679D01*
X491132Y515686D01*
X491019Y515683D01*
X490906Y515686D01*
X490877Y515678D01*
X490848Y515677D01*
X490740Y515642D01*
X490631Y515614D01*
X490605Y515599D01*
X490577Y515590D01*
X490514Y515544D01*
X490386Y515469D01*
X490343Y515423D01*
X490304Y515395D01*
X484168Y509259D01*
X484116Y509189D01*
X484056Y509125D01*
X484030Y509076D01*
X483997Y509032D01*
X483966Y508950D01*
X483926Y508872D01*
X483918Y508825D01*
X483896Y508766D01*
X483884Y508618D01*
X483871Y508541D01*
X483871Y502656D01*
X483883Y502569D01*
X483886Y502482D01*
X483903Y502429D01*
X483911Y502375D01*
X483946Y502295D01*
X483973Y502212D01*
X484001Y502172D01*
X484027Y502115D01*
X484123Y502002D01*
X484168Y501938D01*
X484979Y501127D01*
X485863Y498994D01*
X485863Y496686D01*
X484979Y494553D01*
X483347Y492921D01*
X481214Y492037D01*
X478906Y492037D01*
X476773Y492921D01*
X475141Y494553D01*
X474257Y496686D01*
X474257Y498994D01*
X475141Y501127D01*
X475952Y501938D01*
X476004Y502008D01*
X476064Y502072D01*
X476090Y502121D01*
X476123Y502165D01*
X476154Y502247D01*
X476194Y502325D01*
X476202Y502373D01*
X476224Y502431D01*
X476236Y502579D01*
X476249Y502656D01*
X476249Y512118D01*
X592782Y628651D01*
X785124Y628651D01*
X785211Y628663D01*
X785298Y628666D01*
X785351Y628683D01*
X785405Y628691D01*
X785485Y628726D01*
X785568Y628753D01*
X785608Y628781D01*
X785665Y628807D01*
X785778Y628903D01*
X785842Y628948D01*
X786653Y629759D01*
X788786Y630643D01*
X791094Y630643D01*
X793227Y629759D01*
X794859Y628127D01*
X795743Y625994D01*
X795743Y623686D01*
X794859Y621553D01*
X793227Y619921D01*
X791094Y619037D01*
X788786Y619037D01*
X786653Y619921D01*
X785842Y620732D01*
X785772Y620784D01*
X785708Y620844D01*
X785659Y620870D01*
X785615Y620903D01*
X785533Y620934D01*
X785455Y620974D01*
X785407Y620982D01*
X785349Y621004D01*
X785201Y621016D01*
X785124Y621029D01*
X775842Y621029D01*
X775729Y621013D01*
X775614Y621003D01*
X775588Y620993D01*
X775561Y620989D01*
X775456Y620942D01*
X775349Y620901D01*
X775327Y620885D01*
X775301Y620873D01*
X775214Y620799D01*
X775122Y620730D01*
X775106Y620707D01*
X775084Y620690D01*
X775021Y620594D01*
X774952Y620502D01*
X774942Y620476D01*
X774927Y620453D01*
X774892Y620343D01*
X774852Y620236D01*
X774849Y620208D01*
X774841Y620182D01*
X774838Y620067D01*
X774829Y619953D01*
X774835Y619928D01*
X774834Y619898D01*
X774901Y619641D01*
X774904Y619625D01*
X775423Y618374D01*
X775423Y616066D01*
X774904Y614815D01*
X774876Y614703D01*
X774841Y614594D01*
X774840Y614566D01*
X774833Y614539D01*
X774837Y614425D01*
X774834Y614310D01*
X774841Y614283D01*
X774842Y614255D01*
X774877Y614146D01*
X774906Y614035D01*
X774920Y614011D01*
X774928Y613984D01*
X774992Y613889D01*
X775051Y613790D01*
X775071Y613771D01*
X775087Y613748D01*
X775175Y613674D01*
X775258Y613596D01*
X775283Y613583D01*
X775304Y613565D01*
X775409Y613519D01*
X775511Y613466D01*
X775536Y613462D01*
X775564Y613450D01*
X775828Y613413D01*
X775842Y613411D01*
X885498Y613411D01*
X892811Y606098D01*
X892811Y590242D01*
X883100Y580531D01*
X883048Y580461D01*
X882988Y580397D01*
X882962Y580348D01*
X882929Y580304D01*
X882898Y580222D01*
X882858Y580144D01*
X882850Y580097D01*
X882828Y580038D01*
X882816Y579890D01*
X882803Y579813D01*
X882803Y578666D01*
X881919Y576533D01*
X880287Y574901D01*
X878154Y574017D01*
X875846Y574017D01*
X873713Y574901D01*
X872081Y576533D01*
X871197Y578666D01*
X871197Y580974D01*
X872081Y583107D01*
X873713Y584739D01*
X875846Y585623D01*
X876993Y585623D01*
X877080Y585635D01*
X877167Y585638D01*
X877220Y585655D01*
X877275Y585663D01*
X877354Y585698D01*
X877438Y585725D01*
X877477Y585753D01*
X877534Y585779D01*
X877647Y585875D01*
X877711Y585920D01*
X884892Y593101D01*
X884944Y593171D01*
X885004Y593235D01*
X885030Y593284D01*
X885063Y593328D01*
X885094Y593410D01*
X885134Y593488D01*
X885142Y593535D01*
X885164Y593594D01*
X885176Y593742D01*
X885189Y593819D01*
X885189Y602521D01*
X885177Y602608D01*
X885174Y602695D01*
X885157Y602748D01*
X885149Y602803D01*
X885114Y602882D01*
X885087Y602966D01*
X885059Y603005D01*
X885033Y603062D01*
X884951Y603159D01*
X884933Y603189D01*
X884916Y603206D01*
X884892Y603239D01*
X883666Y604465D01*
X883597Y604517D01*
X883534Y604576D01*
X883484Y604602D01*
X883438Y604636D01*
X883358Y604667D01*
X883282Y604706D01*
X883226Y604717D01*
X883173Y604737D01*
X883087Y604745D01*
X883003Y604761D01*
X882946Y604756D01*
X882889Y604761D01*
X882805Y604744D01*
X882719Y604737D01*
X882666Y604716D01*
X882611Y604705D01*
X882534Y604666D01*
X882454Y604635D01*
X882409Y604600D01*
X882358Y604574D01*
X882296Y604515D01*
X882227Y604463D01*
X882193Y604417D01*
X882152Y604378D01*
X882109Y604304D01*
X882057Y604235D01*
X882037Y604182D01*
X882008Y604133D01*
X881987Y604050D01*
X881957Y603969D01*
X881952Y603913D01*
X881938Y603857D01*
X881941Y603772D01*
X881934Y603686D01*
X881945Y603638D01*
X881947Y603573D01*
X881992Y603435D01*
X882010Y603359D01*
X882103Y603134D01*
X882103Y600826D01*
X881219Y598693D01*
X879587Y597061D01*
X877454Y596177D01*
X875146Y596177D01*
X873013Y597061D01*
X872202Y597872D01*
X872132Y597924D01*
X872068Y597984D01*
X872019Y598010D01*
X871975Y598043D01*
X871893Y598074D01*
X871815Y598114D01*
X871767Y598122D01*
X871709Y598144D01*
X871561Y598156D01*
X871484Y598169D01*
X611599Y598169D01*
X611512Y598157D01*
X611425Y598154D01*
X611372Y598137D01*
X611317Y598129D01*
X611238Y598094D01*
X611154Y598067D01*
X611115Y598039D01*
X611058Y598013D01*
X610945Y597917D01*
X610881Y597872D01*
X534420Y521411D01*
X534368Y521341D01*
X534308Y521277D01*
X534282Y521228D01*
X534249Y521184D01*
X534218Y521102D01*
X534178Y521024D01*
X534170Y520977D01*
X534148Y520918D01*
X534136Y520770D01*
X534123Y520693D01*
X534123Y519546D01*
X533239Y517413D01*
X531607Y515781D01*
X529474Y514897D01*
X528327Y514897D01*
X528240Y514885D01*
X528153Y514882D01*
X528100Y514865D01*
X528045Y514857D01*
X527966Y514822D01*
X527882Y514795D01*
X527843Y514767D01*
X527786Y514741D01*
X527673Y514645D01*
X527609Y514600D01*
X506480Y493471D01*
X506428Y493401D01*
X506368Y493337D01*
X506342Y493288D01*
X506309Y493244D01*
X506278Y493162D01*
X506238Y493084D01*
X506230Y493037D01*
X506208Y492978D01*
X506196Y492830D01*
X506183Y492753D01*
X506183Y491606D01*
X505299Y489473D01*
X503667Y487841D01*
X501534Y486957D01*
X499226Y486957D01*
G37*
%LPD*%
%LPC*%
G36*
X278246Y326937D02*
X278246Y326937D01*
X276113Y327821D01*
X274481Y329453D01*
X273597Y331586D01*
X273597Y333894D01*
X274481Y336027D01*
X276113Y337659D01*
X278246Y338543D01*
X280554Y338543D01*
X282687Y337659D01*
X283498Y336848D01*
X283568Y336796D01*
X283632Y336736D01*
X283681Y336710D01*
X283725Y336677D01*
X283807Y336646D01*
X283885Y336606D01*
X283933Y336598D01*
X283991Y336576D01*
X284139Y336564D01*
X284216Y336551D01*
X285021Y336551D01*
X285108Y336563D01*
X285195Y336566D01*
X285248Y336583D01*
X285303Y336591D01*
X285382Y336626D01*
X285466Y336653D01*
X285505Y336681D01*
X285562Y336707D01*
X285675Y336803D01*
X285739Y336848D01*
X364192Y415301D01*
X364244Y415371D01*
X364304Y415435D01*
X364330Y415484D01*
X364363Y415528D01*
X364394Y415610D01*
X364434Y415688D01*
X364442Y415735D01*
X364464Y415794D01*
X364476Y415942D01*
X364489Y416019D01*
X364489Y417332D01*
X364485Y417361D01*
X364488Y417390D01*
X364465Y417501D01*
X364449Y417613D01*
X364437Y417640D01*
X364432Y417669D01*
X364379Y417770D01*
X364333Y417873D01*
X364314Y417895D01*
X364301Y417921D01*
X364223Y418003D01*
X364150Y418090D01*
X364125Y418106D01*
X364105Y418127D01*
X364007Y418185D01*
X363913Y418247D01*
X363885Y418256D01*
X363860Y418271D01*
X363750Y418299D01*
X363642Y418333D01*
X363612Y418334D01*
X363584Y418341D01*
X363471Y418338D01*
X363358Y418341D01*
X363329Y418333D01*
X363300Y418332D01*
X363192Y418297D01*
X363083Y418269D01*
X363057Y418254D01*
X363029Y418245D01*
X362965Y418199D01*
X362838Y418123D01*
X362795Y418078D01*
X362756Y418050D01*
X361427Y416721D01*
X359294Y415837D01*
X356986Y415837D01*
X354853Y416721D01*
X354042Y417532D01*
X353972Y417584D01*
X353908Y417644D01*
X353859Y417670D01*
X353815Y417703D01*
X353733Y417734D01*
X353655Y417774D01*
X353607Y417782D01*
X353549Y417804D01*
X353401Y417816D01*
X353324Y417829D01*
X335016Y417829D01*
X334929Y417817D01*
X334842Y417814D01*
X334789Y417797D01*
X334735Y417789D01*
X334655Y417754D01*
X334572Y417727D01*
X334532Y417699D01*
X334475Y417673D01*
X334362Y417577D01*
X334298Y417532D01*
X333487Y416721D01*
X331354Y415837D01*
X329046Y415837D01*
X326913Y416721D01*
X325281Y418353D01*
X324397Y420486D01*
X324397Y422794D01*
X325281Y424927D01*
X326913Y426559D01*
X329046Y427443D01*
X331354Y427443D01*
X333487Y426559D01*
X334298Y425748D01*
X334368Y425696D01*
X334432Y425636D01*
X334481Y425610D01*
X334525Y425577D01*
X334607Y425546D01*
X334685Y425506D01*
X334733Y425498D01*
X334791Y425476D01*
X334939Y425464D01*
X335016Y425451D01*
X353324Y425451D01*
X353411Y425463D01*
X353498Y425466D01*
X353551Y425483D01*
X353605Y425491D01*
X353685Y425526D01*
X353768Y425553D01*
X353808Y425581D01*
X353865Y425607D01*
X353978Y425703D01*
X354042Y425748D01*
X354853Y426559D01*
X356986Y427443D01*
X359294Y427443D01*
X361427Y426559D01*
X362756Y425230D01*
X362780Y425213D01*
X362799Y425190D01*
X362893Y425127D01*
X362983Y425059D01*
X363011Y425049D01*
X363035Y425033D01*
X363143Y424998D01*
X363249Y424958D01*
X363278Y424956D01*
X363306Y424947D01*
X363420Y424944D01*
X363532Y424934D01*
X363561Y424940D01*
X363590Y424939D01*
X363700Y424968D01*
X363811Y424990D01*
X363837Y425004D01*
X363865Y425011D01*
X363963Y425069D01*
X364063Y425121D01*
X364085Y425142D01*
X364110Y425157D01*
X364187Y425239D01*
X364269Y425317D01*
X364284Y425342D01*
X364304Y425364D01*
X364356Y425465D01*
X364413Y425562D01*
X364420Y425591D01*
X364434Y425617D01*
X364447Y425694D01*
X364483Y425838D01*
X364481Y425900D01*
X364489Y425948D01*
X364489Y466398D01*
X379980Y481889D01*
X380032Y481959D01*
X380092Y482023D01*
X380118Y482072D01*
X380151Y482116D01*
X380182Y482198D01*
X380222Y482276D01*
X380230Y482323D01*
X380252Y482382D01*
X380264Y482530D01*
X380277Y482607D01*
X380277Y483754D01*
X381161Y485887D01*
X382793Y487519D01*
X384926Y488403D01*
X387234Y488403D01*
X389367Y487519D01*
X390696Y486190D01*
X390720Y486173D01*
X390739Y486150D01*
X390833Y486087D01*
X390923Y486019D01*
X390951Y486009D01*
X390975Y485993D01*
X391083Y485958D01*
X391189Y485918D01*
X391218Y485916D01*
X391246Y485907D01*
X391360Y485904D01*
X391472Y485894D01*
X391501Y485900D01*
X391530Y485899D01*
X391640Y485928D01*
X391751Y485950D01*
X391777Y485964D01*
X391805Y485971D01*
X391903Y486029D01*
X392003Y486081D01*
X392025Y486102D01*
X392050Y486117D01*
X392127Y486199D01*
X392209Y486277D01*
X392224Y486302D01*
X392244Y486324D01*
X392296Y486425D01*
X392353Y486522D01*
X392360Y486551D01*
X392374Y486577D01*
X392387Y486654D01*
X392423Y486798D01*
X392421Y486860D01*
X392429Y486908D01*
X392429Y513344D01*
X392417Y513431D01*
X392414Y513518D01*
X392397Y513571D01*
X392389Y513625D01*
X392354Y513705D01*
X392327Y513788D01*
X392299Y513828D01*
X392273Y513885D01*
X392177Y513998D01*
X392132Y514062D01*
X391321Y514873D01*
X390437Y517006D01*
X390437Y519314D01*
X391321Y521447D01*
X392953Y523079D01*
X395086Y523963D01*
X397394Y523963D01*
X399527Y523079D01*
X401159Y521447D01*
X402043Y519314D01*
X402043Y517006D01*
X401159Y514873D01*
X400348Y514062D01*
X400296Y513992D01*
X400236Y513928D01*
X400210Y513879D01*
X400177Y513835D01*
X400146Y513753D01*
X400106Y513675D01*
X400098Y513627D01*
X400076Y513569D01*
X400064Y513421D01*
X400051Y513344D01*
X400051Y476471D01*
X400055Y476442D01*
X400052Y476413D01*
X400075Y476302D01*
X400091Y476189D01*
X400103Y476163D01*
X400108Y476134D01*
X400160Y476033D01*
X400207Y475930D01*
X400226Y475908D01*
X400239Y475882D01*
X400317Y475800D01*
X400390Y475713D01*
X400415Y475697D01*
X400435Y475675D01*
X400533Y475618D01*
X400627Y475555D01*
X400655Y475547D01*
X400680Y475532D01*
X400790Y475504D01*
X400898Y475470D01*
X400928Y475469D01*
X400956Y475462D01*
X401069Y475465D01*
X401182Y475462D01*
X401211Y475470D01*
X401240Y475471D01*
X401348Y475506D01*
X401457Y475534D01*
X401483Y475549D01*
X401511Y475558D01*
X401574Y475604D01*
X401702Y475679D01*
X401745Y475725D01*
X401784Y475753D01*
X410460Y484429D01*
X410512Y484499D01*
X410572Y484563D01*
X410598Y484612D01*
X410631Y484656D01*
X410662Y484738D01*
X410702Y484816D01*
X410710Y484863D01*
X410732Y484922D01*
X410744Y485070D01*
X410757Y485147D01*
X410757Y486294D01*
X411641Y488427D01*
X413273Y490059D01*
X415406Y490943D01*
X417714Y490943D01*
X419847Y490059D01*
X421479Y488427D01*
X422363Y486294D01*
X422363Y483986D01*
X421844Y482735D01*
X421816Y482623D01*
X421781Y482514D01*
X421780Y482486D01*
X421773Y482459D01*
X421777Y482345D01*
X421774Y482230D01*
X421781Y482203D01*
X421782Y482175D01*
X421817Y482066D01*
X421846Y481955D01*
X421860Y481931D01*
X421868Y481904D01*
X421932Y481809D01*
X421991Y481710D01*
X422011Y481691D01*
X422027Y481668D01*
X422115Y481594D01*
X422198Y481516D01*
X422223Y481503D01*
X422244Y481485D01*
X422349Y481439D01*
X422451Y481386D01*
X422476Y481382D01*
X422504Y481370D01*
X422768Y481333D01*
X422782Y481331D01*
X432064Y481331D01*
X432151Y481343D01*
X432238Y481346D01*
X432291Y481363D01*
X432345Y481371D01*
X432425Y481406D01*
X432508Y481433D01*
X432548Y481461D01*
X432605Y481487D01*
X432718Y481583D01*
X432782Y481628D01*
X433593Y482439D01*
X435726Y483323D01*
X438034Y483323D01*
X440167Y482439D01*
X441799Y480807D01*
X442683Y478674D01*
X442683Y476366D01*
X442164Y475115D01*
X442136Y475003D01*
X442101Y474894D01*
X442100Y474866D01*
X442093Y474839D01*
X442097Y474725D01*
X442094Y474610D01*
X442101Y474583D01*
X442102Y474555D01*
X442137Y474446D01*
X442166Y474335D01*
X442180Y474311D01*
X442188Y474284D01*
X442252Y474189D01*
X442311Y474090D01*
X442331Y474071D01*
X442347Y474048D01*
X442435Y473974D01*
X442518Y473896D01*
X442543Y473883D01*
X442564Y473865D01*
X442669Y473819D01*
X442771Y473766D01*
X442796Y473762D01*
X442824Y473750D01*
X443088Y473713D01*
X443102Y473711D01*
X462544Y473711D01*
X462631Y473723D01*
X462718Y473726D01*
X462771Y473743D01*
X462825Y473751D01*
X462905Y473786D01*
X462988Y473813D01*
X463028Y473841D01*
X463085Y473867D01*
X463198Y473963D01*
X463262Y474008D01*
X464073Y474819D01*
X466206Y475703D01*
X468514Y475703D01*
X470647Y474819D01*
X472279Y473187D01*
X473163Y471054D01*
X473163Y468746D01*
X472644Y467495D01*
X472616Y467383D01*
X472581Y467274D01*
X472580Y467246D01*
X472574Y467219D01*
X472577Y467105D01*
X472574Y466990D01*
X472581Y466963D01*
X472582Y466935D01*
X472617Y466826D01*
X472646Y466715D01*
X472660Y466691D01*
X472668Y466664D01*
X472732Y466569D01*
X472791Y466470D01*
X472811Y466451D01*
X472827Y466428D01*
X472914Y466354D01*
X472998Y466276D01*
X473023Y466263D01*
X473044Y466245D01*
X473149Y466199D01*
X473251Y466146D01*
X473276Y466142D01*
X473304Y466130D01*
X473568Y466093D01*
X473582Y466091D01*
X536481Y466091D01*
X536568Y466103D01*
X536655Y466106D01*
X536708Y466123D01*
X536763Y466131D01*
X536842Y466166D01*
X536926Y466193D01*
X536965Y466221D01*
X537022Y466247D01*
X537135Y466343D01*
X537199Y466388D01*
X542540Y471729D01*
X542592Y471799D01*
X542652Y471863D01*
X542678Y471912D01*
X542711Y471956D01*
X542742Y472038D01*
X542782Y472116D01*
X542790Y472163D01*
X542812Y472222D01*
X542824Y472370D01*
X542837Y472447D01*
X542837Y473594D01*
X543721Y475727D01*
X545353Y477359D01*
X547486Y478243D01*
X549794Y478243D01*
X551927Y477359D01*
X553559Y475727D01*
X554443Y473594D01*
X554443Y471286D01*
X553559Y469153D01*
X551927Y467521D01*
X549794Y466637D01*
X548647Y466637D01*
X548560Y466625D01*
X548473Y466622D01*
X548420Y466605D01*
X548365Y466597D01*
X548286Y466562D01*
X548202Y466535D01*
X548163Y466507D01*
X548106Y466481D01*
X547993Y466385D01*
X547929Y466340D01*
X540058Y458469D01*
X431259Y458469D01*
X431172Y458457D01*
X431085Y458454D01*
X431032Y458437D01*
X430977Y458429D01*
X430898Y458394D01*
X430814Y458367D01*
X430775Y458339D01*
X430718Y458313D01*
X430605Y458217D01*
X430541Y458172D01*
X423208Y450839D01*
X423156Y450769D01*
X423096Y450705D01*
X423070Y450656D01*
X423037Y450612D01*
X423006Y450530D01*
X422966Y450452D01*
X422958Y450405D01*
X422936Y450346D01*
X422924Y450198D01*
X422911Y450121D01*
X422911Y389582D01*
X369320Y335991D01*
X369268Y335921D01*
X369208Y335857D01*
X369182Y335808D01*
X369149Y335764D01*
X369118Y335682D01*
X369078Y335604D01*
X369070Y335557D01*
X369048Y335498D01*
X369036Y335350D01*
X369023Y335273D01*
X369023Y334126D01*
X368139Y331993D01*
X366507Y330361D01*
X364374Y329477D01*
X362066Y329477D01*
X359933Y330361D01*
X358301Y331993D01*
X357498Y333931D01*
X357497Y333932D01*
X357497Y333933D01*
X357425Y334054D01*
X357354Y334175D01*
X357352Y334176D01*
X357352Y334178D01*
X357250Y334273D01*
X357147Y334371D01*
X357146Y334371D01*
X357144Y334372D01*
X357019Y334437D01*
X356894Y334501D01*
X356893Y334501D01*
X356891Y334502D01*
X356876Y334504D01*
X356615Y334556D01*
X356585Y334553D01*
X356560Y334557D01*
X354446Y334557D01*
X352313Y335441D01*
X350681Y337073D01*
X349878Y339011D01*
X349877Y339012D01*
X349877Y339013D01*
X349805Y339134D01*
X349734Y339255D01*
X349732Y339256D01*
X349732Y339258D01*
X349628Y339355D01*
X349527Y339451D01*
X349526Y339451D01*
X349524Y339452D01*
X349399Y339517D01*
X349274Y339581D01*
X349273Y339581D01*
X349271Y339582D01*
X349256Y339584D01*
X348995Y339636D01*
X348965Y339633D01*
X348940Y339637D01*
X346826Y339637D01*
X344693Y340521D01*
X343061Y342153D01*
X342258Y344091D01*
X342257Y344092D01*
X342257Y344093D01*
X342185Y344214D01*
X342114Y344335D01*
X342112Y344336D01*
X342112Y344338D01*
X342010Y344433D01*
X341907Y344531D01*
X341906Y344531D01*
X341904Y344532D01*
X341779Y344597D01*
X341654Y344661D01*
X341653Y344661D01*
X341651Y344662D01*
X341636Y344664D01*
X341375Y344716D01*
X341345Y344713D01*
X341320Y344717D01*
X339206Y344717D01*
X337073Y345601D01*
X335441Y347233D01*
X334557Y349366D01*
X334557Y351674D01*
X335441Y353807D01*
X337073Y355439D01*
X339206Y356323D01*
X340353Y356323D01*
X340440Y356335D01*
X340527Y356338D01*
X340580Y356355D01*
X340635Y356363D01*
X340714Y356398D01*
X340798Y356425D01*
X340837Y356453D01*
X340894Y356479D01*
X341007Y356575D01*
X341071Y356620D01*
X383315Y398864D01*
X383333Y398888D01*
X383355Y398907D01*
X383418Y399001D01*
X383486Y399091D01*
X383496Y399119D01*
X383513Y399143D01*
X383547Y399251D01*
X383587Y399357D01*
X383590Y399386D01*
X383598Y399414D01*
X383601Y399528D01*
X383611Y399640D01*
X383605Y399669D01*
X383606Y399698D01*
X383577Y399808D01*
X383555Y399919D01*
X383541Y399945D01*
X383534Y399973D01*
X383476Y400071D01*
X383424Y400171D01*
X383404Y400193D01*
X383389Y400218D01*
X383306Y400295D01*
X383228Y400377D01*
X383203Y400392D01*
X383181Y400412D01*
X383080Y400464D01*
X382983Y400521D01*
X382954Y400528D01*
X382928Y400542D01*
X382851Y400555D01*
X382707Y400591D01*
X382645Y400589D01*
X382597Y400597D01*
X382386Y400597D01*
X380253Y401481D01*
X378621Y403113D01*
X377737Y405246D01*
X377737Y407554D01*
X378621Y409687D01*
X379432Y410498D01*
X379484Y410568D01*
X379544Y410632D01*
X379570Y410681D01*
X379603Y410725D01*
X379634Y410807D01*
X379674Y410885D01*
X379682Y410933D01*
X379704Y410991D01*
X379716Y411139D01*
X379729Y411216D01*
X379729Y466398D01*
X388565Y475234D01*
X388617Y475303D01*
X388676Y475366D01*
X388702Y475416D01*
X388736Y475462D01*
X388767Y475542D01*
X388806Y475618D01*
X388817Y475674D01*
X388837Y475727D01*
X388845Y475813D01*
X388861Y475897D01*
X388856Y475954D01*
X388861Y476011D01*
X388844Y476095D01*
X388837Y476181D01*
X388816Y476234D01*
X388805Y476289D01*
X388766Y476366D01*
X388735Y476446D01*
X388700Y476491D01*
X388674Y476542D01*
X388615Y476604D01*
X388563Y476673D01*
X388517Y476707D01*
X388478Y476748D01*
X388404Y476791D01*
X388335Y476843D01*
X388282Y476863D01*
X388233Y476892D01*
X388150Y476913D01*
X388069Y476943D01*
X388013Y476948D01*
X387957Y476962D01*
X387872Y476959D01*
X387786Y476966D01*
X387738Y476955D01*
X387673Y476953D01*
X387535Y476908D01*
X387459Y476890D01*
X387234Y476797D01*
X386087Y476797D01*
X386000Y476785D01*
X385913Y476782D01*
X385860Y476765D01*
X385805Y476757D01*
X385726Y476722D01*
X385642Y476695D01*
X385603Y476667D01*
X385546Y476641D01*
X385433Y476545D01*
X385369Y476500D01*
X372408Y463539D01*
X372356Y463469D01*
X372296Y463405D01*
X372270Y463356D01*
X372237Y463312D01*
X372206Y463230D01*
X372166Y463152D01*
X372158Y463105D01*
X372136Y463046D01*
X372124Y462898D01*
X372111Y462821D01*
X372111Y412442D01*
X291128Y331459D01*
X288598Y328929D01*
X284216Y328929D01*
X284129Y328917D01*
X284042Y328914D01*
X283989Y328897D01*
X283935Y328889D01*
X283855Y328854D01*
X283772Y328827D01*
X283732Y328799D01*
X283675Y328773D01*
X283562Y328677D01*
X283498Y328632D01*
X282687Y327821D01*
X280554Y326937D01*
X278246Y326937D01*
G37*
%LPD*%
%LPC*%
G36*
X234369Y97039D02*
X234369Y97039D01*
X230061Y98824D01*
X226764Y102121D01*
X224979Y106429D01*
X224979Y111091D01*
X226764Y115399D01*
X230061Y118696D01*
X230993Y119082D01*
X230994Y119083D01*
X230995Y119084D01*
X231114Y119154D01*
X231237Y119227D01*
X231238Y119228D01*
X231240Y119229D01*
X231334Y119329D01*
X231433Y119434D01*
X231433Y119435D01*
X231434Y119436D01*
X231498Y119560D01*
X231563Y119686D01*
X231563Y119688D01*
X231564Y119689D01*
X231566Y119704D01*
X231618Y119965D01*
X231615Y119996D01*
X231619Y120020D01*
X231619Y169164D01*
X231611Y169222D01*
X231613Y169280D01*
X231591Y169362D01*
X231579Y169446D01*
X231556Y169499D01*
X231541Y169555D01*
X231498Y169628D01*
X231463Y169705D01*
X231425Y169750D01*
X231396Y169800D01*
X231334Y169858D01*
X231280Y169922D01*
X231231Y169954D01*
X231188Y169994D01*
X231113Y170033D01*
X231043Y170080D01*
X230987Y170097D01*
X230935Y170124D01*
X230867Y170135D01*
X230772Y170165D01*
X230672Y170168D01*
X230604Y170179D01*
X143215Y170179D01*
X143128Y170167D01*
X143041Y170164D01*
X142988Y170147D01*
X142934Y170139D01*
X142854Y170104D01*
X142771Y170077D01*
X142731Y170049D01*
X142674Y170023D01*
X142561Y169927D01*
X142497Y169882D01*
X133658Y161043D01*
X133657Y161042D01*
X133656Y161041D01*
X133571Y160927D01*
X133487Y160816D01*
X133487Y160814D01*
X133486Y160813D01*
X133436Y160681D01*
X133386Y160550D01*
X133386Y160549D01*
X133385Y160547D01*
X133374Y160403D01*
X133363Y160267D01*
X133363Y160265D01*
X133363Y160264D01*
X133366Y160248D01*
X133418Y159988D01*
X133433Y159961D01*
X133438Y159937D01*
X133571Y159617D01*
X133571Y155383D01*
X131951Y151472D01*
X128958Y148479D01*
X125047Y146859D01*
X120813Y146859D01*
X116902Y148479D01*
X113909Y151472D01*
X112289Y155383D01*
X112289Y159617D01*
X113909Y163528D01*
X116902Y166521D01*
X120813Y168141D01*
X125047Y168141D01*
X125367Y168008D01*
X125368Y168008D01*
X125370Y168007D01*
X125503Y167973D01*
X125642Y167937D01*
X125644Y167937D01*
X125645Y167937D01*
X125786Y167941D01*
X125926Y167945D01*
X125928Y167946D01*
X125929Y167946D01*
X126062Y167989D01*
X126197Y168032D01*
X126198Y168033D01*
X126200Y168033D01*
X126212Y168042D01*
X126433Y168190D01*
X126453Y168214D01*
X126473Y168228D01*
X136240Y177995D01*
X137812Y179567D01*
X139679Y180341D01*
X181864Y180341D01*
X181922Y180349D01*
X181980Y180347D01*
X182062Y180369D01*
X182146Y180381D01*
X182199Y180404D01*
X182255Y180419D01*
X182328Y180462D01*
X182405Y180497D01*
X182450Y180535D01*
X182500Y180564D01*
X182558Y180626D01*
X182622Y180680D01*
X182654Y180729D01*
X182694Y180772D01*
X182733Y180847D01*
X182780Y180917D01*
X182797Y180973D01*
X182824Y181025D01*
X182835Y181093D01*
X182865Y181188D01*
X182868Y181288D01*
X182879Y181356D01*
X182879Y197561D01*
X182875Y197591D01*
X182877Y197622D01*
X182860Y197699D01*
X182839Y197842D01*
X182813Y197901D01*
X182802Y197949D01*
X182157Y199506D01*
X182157Y201814D01*
X183041Y203947D01*
X184673Y205579D01*
X186806Y206463D01*
X189114Y206463D01*
X191247Y205579D01*
X192879Y203947D01*
X193763Y201814D01*
X193763Y199506D01*
X193118Y197949D01*
X193110Y197919D01*
X193096Y197892D01*
X193083Y197814D01*
X193047Y197674D01*
X193049Y197610D01*
X193041Y197561D01*
X193041Y181356D01*
X193049Y181298D01*
X193047Y181240D01*
X193069Y181158D01*
X193081Y181074D01*
X193104Y181021D01*
X193119Y180965D01*
X193162Y180892D01*
X193197Y180815D01*
X193235Y180770D01*
X193264Y180720D01*
X193326Y180662D01*
X193380Y180598D01*
X193429Y180566D01*
X193472Y180526D01*
X193547Y180487D01*
X193617Y180440D01*
X193673Y180423D01*
X193725Y180396D01*
X193793Y180385D01*
X193888Y180355D01*
X193988Y180352D01*
X194056Y180341D01*
X334721Y180341D01*
X334751Y180345D01*
X334782Y180343D01*
X334859Y180360D01*
X335002Y180381D01*
X335061Y180407D01*
X335109Y180418D01*
X336666Y181063D01*
X338974Y181063D01*
X340531Y180418D01*
X340561Y180410D01*
X340588Y180396D01*
X340666Y180383D01*
X340806Y180347D01*
X340870Y180349D01*
X340919Y180341D01*
X367741Y180341D01*
X367771Y180345D01*
X367802Y180343D01*
X367879Y180360D01*
X368022Y180381D01*
X368081Y180407D01*
X368129Y180418D01*
X369686Y181063D01*
X371994Y181063D01*
X373551Y180418D01*
X373581Y180410D01*
X373608Y180396D01*
X373686Y180383D01*
X373826Y180347D01*
X373890Y180349D01*
X373939Y180341D01*
X431241Y180341D01*
X431271Y180345D01*
X431302Y180343D01*
X431379Y180360D01*
X431522Y180381D01*
X431581Y180407D01*
X431629Y180418D01*
X433186Y181063D01*
X435494Y181063D01*
X437051Y180418D01*
X437081Y180410D01*
X437108Y180396D01*
X437186Y180383D01*
X437326Y180347D01*
X437390Y180349D01*
X437439Y180341D01*
X492201Y180341D01*
X492231Y180345D01*
X492262Y180343D01*
X492339Y180360D01*
X492482Y180381D01*
X492541Y180407D01*
X492589Y180418D01*
X494146Y181063D01*
X496454Y181063D01*
X498011Y180418D01*
X498041Y180410D01*
X498068Y180396D01*
X498146Y180383D01*
X498286Y180347D01*
X498350Y180349D01*
X498399Y180341D01*
X523494Y180341D01*
X523552Y180349D01*
X523610Y180347D01*
X523692Y180369D01*
X523776Y180381D01*
X523829Y180404D01*
X523885Y180419D01*
X523958Y180462D01*
X524035Y180497D01*
X524080Y180535D01*
X524130Y180564D01*
X524188Y180626D01*
X524252Y180680D01*
X524284Y180729D01*
X524324Y180772D01*
X524363Y180847D01*
X524410Y180917D01*
X524427Y180973D01*
X524454Y181025D01*
X524465Y181093D01*
X524495Y181188D01*
X524498Y181288D01*
X524509Y181356D01*
X524509Y188224D01*
X524497Y188311D01*
X524494Y188398D01*
X524477Y188451D01*
X524469Y188505D01*
X524434Y188585D01*
X524407Y188668D01*
X524379Y188708D01*
X524353Y188765D01*
X524257Y188878D01*
X524212Y188942D01*
X523401Y189753D01*
X522517Y191886D01*
X522517Y194194D01*
X523401Y196327D01*
X525033Y197959D01*
X527166Y198843D01*
X529474Y198843D01*
X531607Y197959D01*
X533239Y196327D01*
X534123Y194194D01*
X534123Y191886D01*
X533239Y189753D01*
X532428Y188942D01*
X532376Y188872D01*
X532316Y188808D01*
X532290Y188759D01*
X532257Y188715D01*
X532226Y188633D01*
X532186Y188555D01*
X532178Y188507D01*
X532156Y188449D01*
X532144Y188301D01*
X532131Y188224D01*
X532131Y181356D01*
X532139Y181298D01*
X532137Y181240D01*
X532159Y181158D01*
X532171Y181074D01*
X532194Y181021D01*
X532209Y180965D01*
X532252Y180892D01*
X532287Y180815D01*
X532325Y180770D01*
X532354Y180720D01*
X532416Y180662D01*
X532470Y180598D01*
X532519Y180566D01*
X532562Y180526D01*
X532637Y180487D01*
X532707Y180440D01*
X532763Y180423D01*
X532815Y180396D01*
X532883Y180385D01*
X532978Y180355D01*
X533078Y180352D01*
X533146Y180341D01*
X611581Y180341D01*
X611611Y180345D01*
X611642Y180343D01*
X611719Y180360D01*
X611862Y180381D01*
X611921Y180407D01*
X611969Y180418D01*
X613526Y181063D01*
X615834Y181063D01*
X617967Y180179D01*
X619599Y178547D01*
X620483Y176414D01*
X620483Y174106D01*
X619599Y171973D01*
X617967Y170341D01*
X615834Y169457D01*
X613526Y169457D01*
X611969Y170102D01*
X611939Y170110D01*
X611912Y170124D01*
X611834Y170137D01*
X611694Y170173D01*
X611630Y170171D01*
X611581Y170179D01*
X547596Y170179D01*
X547538Y170171D01*
X547480Y170173D01*
X547398Y170151D01*
X547314Y170139D01*
X547261Y170116D01*
X547205Y170101D01*
X547132Y170058D01*
X547055Y170023D01*
X547010Y169985D01*
X546960Y169956D01*
X546902Y169894D01*
X546838Y169840D01*
X546806Y169791D01*
X546766Y169748D01*
X546727Y169673D01*
X546680Y169603D01*
X546663Y169547D01*
X546636Y169495D01*
X546625Y169427D01*
X546595Y169332D01*
X546592Y169232D01*
X546581Y169164D01*
X546581Y120020D01*
X546581Y120019D01*
X546581Y120017D01*
X546601Y119875D01*
X546621Y119739D01*
X546621Y119737D01*
X546621Y119736D01*
X546680Y119606D01*
X546737Y119479D01*
X546738Y119478D01*
X546739Y119477D01*
X546829Y119370D01*
X546920Y119262D01*
X546922Y119261D01*
X546923Y119260D01*
X546935Y119252D01*
X547157Y119105D01*
X547186Y119096D01*
X547207Y119082D01*
X548139Y118696D01*
X551436Y115399D01*
X553221Y111091D01*
X553221Y106429D01*
X551436Y102121D01*
X548139Y98824D01*
X543831Y97039D01*
X539169Y97039D01*
X534861Y98824D01*
X531564Y102121D01*
X529779Y106429D01*
X529779Y111091D01*
X531564Y115399D01*
X534861Y118696D01*
X535793Y119082D01*
X535794Y119083D01*
X535795Y119084D01*
X535912Y119153D01*
X536037Y119227D01*
X536039Y119228D01*
X536040Y119229D01*
X536134Y119329D01*
X536233Y119433D01*
X536233Y119435D01*
X536234Y119436D01*
X536299Y119562D01*
X536363Y119686D01*
X536363Y119688D01*
X536364Y119689D01*
X536366Y119704D01*
X536418Y119965D01*
X536415Y119996D01*
X536419Y120020D01*
X536419Y169164D01*
X536411Y169222D01*
X536413Y169280D01*
X536391Y169362D01*
X536379Y169446D01*
X536356Y169499D01*
X536341Y169555D01*
X536298Y169628D01*
X536263Y169705D01*
X536225Y169750D01*
X536196Y169800D01*
X536134Y169858D01*
X536080Y169922D01*
X536031Y169954D01*
X535988Y169994D01*
X535913Y170033D01*
X535843Y170080D01*
X535787Y170097D01*
X535735Y170124D01*
X535667Y170135D01*
X535572Y170165D01*
X535472Y170168D01*
X535404Y170179D01*
X498399Y170179D01*
X498369Y170175D01*
X498338Y170177D01*
X498261Y170160D01*
X498118Y170139D01*
X498059Y170113D01*
X498011Y170102D01*
X496454Y169457D01*
X494146Y169457D01*
X492589Y170102D01*
X492559Y170110D01*
X492532Y170124D01*
X492454Y170137D01*
X492314Y170173D01*
X492250Y170171D01*
X492201Y170179D01*
X437439Y170179D01*
X437409Y170175D01*
X437378Y170177D01*
X437301Y170160D01*
X437158Y170139D01*
X437099Y170113D01*
X437051Y170102D01*
X435494Y169457D01*
X433186Y169457D01*
X431629Y170102D01*
X431599Y170110D01*
X431572Y170124D01*
X431494Y170137D01*
X431354Y170173D01*
X431290Y170171D01*
X431241Y170179D01*
X395196Y170179D01*
X395138Y170171D01*
X395080Y170173D01*
X394998Y170151D01*
X394914Y170139D01*
X394861Y170116D01*
X394805Y170101D01*
X394732Y170058D01*
X394655Y170023D01*
X394610Y169985D01*
X394560Y169956D01*
X394502Y169894D01*
X394438Y169840D01*
X394406Y169791D01*
X394366Y169748D01*
X394327Y169673D01*
X394280Y169603D01*
X394263Y169547D01*
X394236Y169495D01*
X394225Y169427D01*
X394195Y169332D01*
X394192Y169232D01*
X394181Y169164D01*
X394181Y120020D01*
X394181Y120019D01*
X394181Y120017D01*
X394201Y119875D01*
X394221Y119739D01*
X394221Y119737D01*
X394221Y119736D01*
X394278Y119610D01*
X394337Y119479D01*
X394338Y119478D01*
X394339Y119477D01*
X394430Y119370D01*
X394520Y119262D01*
X394522Y119262D01*
X394523Y119260D01*
X394536Y119252D01*
X394757Y119105D01*
X394786Y119096D01*
X394807Y119082D01*
X395739Y118696D01*
X399036Y115399D01*
X400821Y111091D01*
X400821Y106429D01*
X399036Y102121D01*
X395739Y98824D01*
X391431Y97039D01*
X386769Y97039D01*
X382461Y98824D01*
X379164Y102121D01*
X377379Y106429D01*
X377379Y111091D01*
X379164Y115399D01*
X382461Y118696D01*
X383393Y119082D01*
X383394Y119083D01*
X383395Y119084D01*
X383514Y119154D01*
X383637Y119227D01*
X383638Y119228D01*
X383640Y119229D01*
X383734Y119329D01*
X383833Y119434D01*
X383833Y119435D01*
X383834Y119436D01*
X383898Y119560D01*
X383963Y119686D01*
X383963Y119688D01*
X383964Y119689D01*
X383966Y119704D01*
X384018Y119965D01*
X384015Y119996D01*
X384019Y120020D01*
X384019Y169164D01*
X384011Y169222D01*
X384013Y169280D01*
X383991Y169362D01*
X383979Y169446D01*
X383956Y169499D01*
X383941Y169555D01*
X383898Y169628D01*
X383863Y169705D01*
X383825Y169750D01*
X383796Y169800D01*
X383734Y169858D01*
X383680Y169922D01*
X383631Y169954D01*
X383588Y169994D01*
X383513Y170033D01*
X383443Y170080D01*
X383387Y170097D01*
X383335Y170124D01*
X383267Y170135D01*
X383172Y170165D01*
X383072Y170168D01*
X383004Y170179D01*
X373939Y170179D01*
X373909Y170175D01*
X373878Y170177D01*
X373801Y170160D01*
X373658Y170139D01*
X373599Y170113D01*
X373551Y170102D01*
X371994Y169457D01*
X369686Y169457D01*
X368129Y170102D01*
X368099Y170110D01*
X368072Y170124D01*
X367994Y170137D01*
X367854Y170173D01*
X367790Y170171D01*
X367741Y170179D01*
X340919Y170179D01*
X340889Y170175D01*
X340858Y170177D01*
X340781Y170160D01*
X340638Y170139D01*
X340579Y170113D01*
X340531Y170102D01*
X338974Y169457D01*
X336666Y169457D01*
X335109Y170102D01*
X335079Y170110D01*
X335052Y170124D01*
X334974Y170137D01*
X334834Y170173D01*
X334770Y170171D01*
X334721Y170179D01*
X242796Y170179D01*
X242738Y170171D01*
X242680Y170173D01*
X242598Y170151D01*
X242514Y170139D01*
X242461Y170116D01*
X242405Y170101D01*
X242332Y170058D01*
X242255Y170023D01*
X242210Y169985D01*
X242160Y169956D01*
X242102Y169894D01*
X242038Y169840D01*
X242006Y169791D01*
X241966Y169748D01*
X241927Y169673D01*
X241880Y169603D01*
X241863Y169547D01*
X241836Y169495D01*
X241825Y169427D01*
X241795Y169332D01*
X241792Y169232D01*
X241781Y169164D01*
X241781Y120020D01*
X241781Y120019D01*
X241781Y120017D01*
X241801Y119875D01*
X241821Y119739D01*
X241821Y119737D01*
X241821Y119736D01*
X241878Y119610D01*
X241937Y119479D01*
X241938Y119478D01*
X241939Y119477D01*
X242030Y119370D01*
X242120Y119262D01*
X242122Y119262D01*
X242123Y119260D01*
X242136Y119252D01*
X242357Y119105D01*
X242386Y119096D01*
X242407Y119082D01*
X243339Y118696D01*
X246636Y115399D01*
X248421Y111091D01*
X248421Y106429D01*
X246636Y102121D01*
X243339Y98824D01*
X239031Y97039D01*
X234369Y97039D01*
G37*
%LPD*%
%LPC*%
G36*
X848546Y224137D02*
X848546Y224137D01*
X846413Y225021D01*
X844781Y226653D01*
X843897Y228786D01*
X843897Y231094D01*
X844781Y233227D01*
X845592Y234038D01*
X845644Y234108D01*
X845704Y234172D01*
X845730Y234221D01*
X845763Y234265D01*
X845794Y234347D01*
X845834Y234425D01*
X845842Y234473D01*
X845864Y234531D01*
X845876Y234679D01*
X845889Y234756D01*
X845889Y244218D01*
X864562Y262891D01*
X955581Y262891D01*
X955668Y262903D01*
X955755Y262906D01*
X955808Y262923D01*
X955863Y262931D01*
X955942Y262966D01*
X956026Y262993D01*
X956065Y263021D01*
X956122Y263047D01*
X956235Y263143D01*
X956299Y263188D01*
X1004272Y311161D01*
X1004324Y311231D01*
X1004384Y311295D01*
X1004410Y311344D01*
X1004443Y311388D01*
X1004474Y311470D01*
X1004514Y311548D01*
X1004522Y311595D01*
X1004544Y311654D01*
X1004556Y311802D01*
X1004569Y311879D01*
X1004569Y521241D01*
X1004557Y521328D01*
X1004554Y521415D01*
X1004537Y521468D01*
X1004529Y521523D01*
X1004494Y521602D01*
X1004467Y521686D01*
X1004439Y521725D01*
X1004413Y521782D01*
X1004317Y521895D01*
X1004272Y521959D01*
X974079Y552152D01*
X974009Y552204D01*
X973945Y552264D01*
X973896Y552290D01*
X973852Y552323D01*
X973770Y552354D01*
X973692Y552394D01*
X973645Y552402D01*
X973586Y552424D01*
X973438Y552436D01*
X973361Y552449D01*
X840696Y552449D01*
X840638Y552441D01*
X840580Y552443D01*
X840498Y552421D01*
X840414Y552409D01*
X840361Y552386D01*
X840305Y552371D01*
X840232Y552328D01*
X840155Y552293D01*
X840110Y552255D01*
X840060Y552226D01*
X840002Y552164D01*
X839938Y552110D01*
X839906Y552061D01*
X839866Y552018D01*
X839827Y551943D01*
X839780Y551873D01*
X839763Y551817D01*
X839736Y551765D01*
X839725Y551697D01*
X839695Y551602D01*
X839692Y551502D01*
X839681Y551434D01*
X839681Y539208D01*
X838192Y537719D01*
X804088Y537719D01*
X802599Y539208D01*
X802599Y568991D01*
X802587Y569078D01*
X802584Y569165D01*
X802567Y569218D01*
X802559Y569273D01*
X802524Y569352D01*
X802497Y569436D01*
X802469Y569475D01*
X802443Y569532D01*
X802347Y569645D01*
X802302Y569709D01*
X786839Y585172D01*
X786769Y585224D01*
X786705Y585284D01*
X786656Y585310D01*
X786612Y585343D01*
X786530Y585374D01*
X786452Y585414D01*
X786405Y585422D01*
X786346Y585444D01*
X786198Y585456D01*
X786121Y585469D01*
X692159Y585469D01*
X692072Y585457D01*
X691985Y585454D01*
X691932Y585437D01*
X691877Y585429D01*
X691798Y585394D01*
X691714Y585367D01*
X691675Y585339D01*
X691618Y585313D01*
X691505Y585217D01*
X691441Y585172D01*
X675978Y569709D01*
X675926Y569639D01*
X675866Y569575D01*
X675840Y569526D01*
X675807Y569482D01*
X675776Y569400D01*
X675736Y569322D01*
X675728Y569275D01*
X675706Y569216D01*
X675694Y569068D01*
X675681Y568991D01*
X675681Y539208D01*
X674192Y537719D01*
X640088Y537719D01*
X638599Y539208D01*
X638599Y573312D01*
X640088Y574801D01*
X669871Y574801D01*
X669958Y574813D01*
X670045Y574816D01*
X670098Y574833D01*
X670153Y574841D01*
X670232Y574876D01*
X670316Y574903D01*
X670355Y574931D01*
X670412Y574957D01*
X670525Y575053D01*
X670589Y575098D01*
X688582Y593091D01*
X789698Y593091D01*
X807691Y575098D01*
X807761Y575046D01*
X807825Y574986D01*
X807874Y574960D01*
X807918Y574927D01*
X808000Y574896D01*
X808078Y574856D01*
X808125Y574848D01*
X808184Y574826D01*
X808332Y574814D01*
X808409Y574801D01*
X838192Y574801D01*
X839681Y573312D01*
X839681Y561086D01*
X839689Y561028D01*
X839687Y560970D01*
X839709Y560888D01*
X839721Y560804D01*
X839744Y560751D01*
X839759Y560695D01*
X839802Y560622D01*
X839837Y560545D01*
X839875Y560500D01*
X839904Y560450D01*
X839966Y560392D01*
X840020Y560328D01*
X840069Y560296D01*
X840112Y560256D01*
X840187Y560217D01*
X840257Y560170D01*
X840313Y560153D01*
X840365Y560126D01*
X840433Y560115D01*
X840528Y560085D01*
X840628Y560082D01*
X840696Y560071D01*
X976938Y560071D01*
X1012191Y524818D01*
X1012191Y308302D01*
X959158Y255269D01*
X868139Y255269D01*
X868052Y255257D01*
X867965Y255254D01*
X867912Y255237D01*
X867857Y255229D01*
X867778Y255194D01*
X867694Y255167D01*
X867655Y255139D01*
X867598Y255113D01*
X867485Y255017D01*
X867421Y254972D01*
X853808Y241359D01*
X853756Y241289D01*
X853696Y241225D01*
X853670Y241176D01*
X853637Y241132D01*
X853606Y241050D01*
X853566Y240972D01*
X853558Y240925D01*
X853536Y240866D01*
X853524Y240718D01*
X853511Y240641D01*
X853511Y234756D01*
X853523Y234669D01*
X853526Y234582D01*
X853543Y234529D01*
X853551Y234475D01*
X853586Y234395D01*
X853613Y234312D01*
X853641Y234272D01*
X853667Y234215D01*
X853763Y234102D01*
X853808Y234038D01*
X854619Y233227D01*
X855503Y231094D01*
X855503Y228786D01*
X854619Y226653D01*
X852987Y225021D01*
X850854Y224137D01*
X848546Y224137D01*
G37*
%LPD*%
%LPC*%
G36*
X234642Y384809D02*
X234642Y384809D01*
X227329Y392122D01*
X227329Y453698D01*
X232102Y458471D01*
X280978Y458471D01*
X285751Y453698D01*
X285751Y392122D01*
X278438Y384809D01*
X234642Y384809D01*
G37*
%LPD*%
%LPC*%
G36*
X565266Y466637D02*
X565266Y466637D01*
X563133Y467521D01*
X561501Y469153D01*
X560617Y471286D01*
X560617Y472433D01*
X560605Y472520D01*
X560602Y472607D01*
X560585Y472660D01*
X560577Y472715D01*
X560542Y472794D01*
X560515Y472878D01*
X560487Y472917D01*
X560461Y472974D01*
X560365Y473087D01*
X560320Y473151D01*
X552439Y481032D01*
X552369Y481084D01*
X552305Y481144D01*
X552256Y481170D01*
X552212Y481203D01*
X552130Y481234D01*
X552052Y481274D01*
X552005Y481282D01*
X551946Y481304D01*
X551798Y481316D01*
X551721Y481329D01*
X535399Y481329D01*
X535312Y481317D01*
X535225Y481314D01*
X535172Y481297D01*
X535117Y481289D01*
X535038Y481254D01*
X534954Y481227D01*
X534915Y481199D01*
X534858Y481173D01*
X534745Y481077D01*
X534681Y481032D01*
X529898Y476249D01*
X473402Y476249D01*
X326379Y623272D01*
X326309Y623324D01*
X326245Y623384D01*
X326196Y623410D01*
X326152Y623443D01*
X326070Y623474D01*
X325992Y623514D01*
X325945Y623522D01*
X325886Y623544D01*
X325738Y623556D01*
X325661Y623569D01*
X180076Y623569D01*
X179989Y623557D01*
X179902Y623554D01*
X179849Y623537D01*
X179795Y623529D01*
X179715Y623494D01*
X179632Y623467D01*
X179592Y623439D01*
X179535Y623413D01*
X179422Y623317D01*
X179358Y623272D01*
X178547Y622461D01*
X176414Y621577D01*
X174106Y621577D01*
X171973Y622461D01*
X170341Y624093D01*
X169457Y626226D01*
X169457Y628534D01*
X170341Y630667D01*
X171973Y632299D01*
X174106Y633183D01*
X176414Y633183D01*
X178547Y632299D01*
X179358Y631488D01*
X179428Y631436D01*
X179492Y631376D01*
X179541Y631350D01*
X179585Y631317D01*
X179667Y631286D01*
X179745Y631246D01*
X179793Y631238D01*
X179851Y631216D01*
X179999Y631204D01*
X180076Y631191D01*
X329238Y631191D01*
X476261Y484168D01*
X476331Y484116D01*
X476395Y484056D01*
X476444Y484030D01*
X476488Y483997D01*
X476570Y483966D01*
X476648Y483926D01*
X476695Y483918D01*
X476754Y483896D01*
X476902Y483884D01*
X476979Y483871D01*
X526321Y483871D01*
X526408Y483883D01*
X526495Y483886D01*
X526548Y483903D01*
X526603Y483911D01*
X526682Y483946D01*
X526766Y483973D01*
X526805Y484001D01*
X526862Y484027D01*
X526975Y484123D01*
X527039Y484168D01*
X531822Y488951D01*
X555298Y488951D01*
X565709Y478540D01*
X565779Y478488D01*
X565843Y478428D01*
X565892Y478402D01*
X565936Y478369D01*
X566018Y478338D01*
X566096Y478298D01*
X566143Y478290D01*
X566202Y478268D01*
X566350Y478256D01*
X566427Y478243D01*
X567574Y478243D01*
X569707Y477359D01*
X571339Y475727D01*
X572223Y473594D01*
X572223Y471286D01*
X571339Y469153D01*
X569707Y467521D01*
X567574Y466637D01*
X565266Y466637D01*
G37*
%LPD*%
G36*
X276958Y387363D02*
X276958Y387363D01*
X277057Y387366D01*
X277115Y387383D01*
X277176Y387391D01*
X277268Y387427D01*
X277363Y387455D01*
X277415Y387485D01*
X277471Y387508D01*
X277551Y387566D01*
X277637Y387616D01*
X277712Y387682D01*
X277729Y387694D01*
X277736Y387704D01*
X277758Y387723D01*
X282838Y392803D01*
X282898Y392881D01*
X282966Y392953D01*
X282987Y392990D01*
X283008Y393016D01*
X283016Y393033D01*
X283032Y393054D01*
X283072Y393145D01*
X283120Y393231D01*
X283132Y393278D01*
X283144Y393304D01*
X283146Y393317D01*
X283159Y393346D01*
X283174Y393444D01*
X283199Y393539D01*
X283205Y393639D01*
X283209Y393660D01*
X283207Y393672D01*
X283209Y393700D01*
X283209Y452120D01*
X283197Y452218D01*
X283194Y452317D01*
X283177Y452375D01*
X283169Y452436D01*
X283133Y452528D01*
X283105Y452623D01*
X283075Y452675D01*
X283052Y452731D01*
X282994Y452811D01*
X282944Y452897D01*
X282878Y452972D01*
X282866Y452989D01*
X282856Y452996D01*
X282838Y453018D01*
X280298Y455558D01*
X280219Y455618D01*
X280147Y455686D01*
X280094Y455715D01*
X280046Y455752D01*
X279955Y455792D01*
X279869Y455840D01*
X279810Y455855D01*
X279754Y455879D01*
X279656Y455894D01*
X279561Y455919D01*
X279461Y455925D01*
X279440Y455929D01*
X279428Y455927D01*
X279400Y455929D01*
X233680Y455929D01*
X233582Y455917D01*
X233483Y455914D01*
X233425Y455897D01*
X233364Y455889D01*
X233272Y455853D01*
X233177Y455825D01*
X233125Y455795D01*
X233069Y455772D01*
X232989Y455714D01*
X232903Y455664D01*
X232828Y455598D01*
X232811Y455586D01*
X232804Y455576D01*
X232783Y455558D01*
X230243Y453018D01*
X230182Y452939D01*
X230114Y452867D01*
X230085Y452814D01*
X230048Y452766D01*
X230008Y452675D01*
X229960Y452589D01*
X229945Y452530D01*
X229921Y452474D01*
X229906Y452376D01*
X229881Y452281D01*
X229875Y452181D01*
X229871Y452160D01*
X229873Y452148D01*
X229871Y452120D01*
X229871Y393700D01*
X229883Y393602D01*
X229886Y393503D01*
X229895Y393471D01*
X229896Y393460D01*
X229904Y393435D01*
X229911Y393384D01*
X229947Y393292D01*
X229975Y393197D01*
X229989Y393172D01*
X229994Y393158D01*
X230011Y393131D01*
X230028Y393089D01*
X230086Y393009D01*
X230136Y392923D01*
X230159Y392898D01*
X230164Y392889D01*
X230177Y392877D01*
X230202Y392848D01*
X230214Y392831D01*
X230224Y392824D01*
X230243Y392803D01*
X235323Y387723D01*
X235401Y387662D01*
X235473Y387594D01*
X235526Y387565D01*
X235574Y387528D01*
X235665Y387488D01*
X235751Y387440D01*
X235810Y387425D01*
X235866Y387401D01*
X235964Y387386D01*
X236059Y387361D01*
X236159Y387355D01*
X236180Y387351D01*
X236192Y387353D01*
X236220Y387351D01*
X276860Y387351D01*
X276958Y387363D01*
G37*
%LPC*%
G36*
X262582Y300989D02*
X262582Y300989D01*
X176519Y387052D01*
X176449Y387104D01*
X176385Y387164D01*
X176336Y387190D01*
X176292Y387223D01*
X176210Y387254D01*
X176132Y387294D01*
X176085Y387302D01*
X176026Y387324D01*
X175878Y387336D01*
X175801Y387349D01*
X98796Y387349D01*
X98709Y387337D01*
X98622Y387334D01*
X98569Y387317D01*
X98515Y387309D01*
X98435Y387274D01*
X98352Y387247D01*
X98312Y387219D01*
X98255Y387193D01*
X98142Y387097D01*
X98078Y387052D01*
X97267Y386241D01*
X95134Y385357D01*
X92826Y385357D01*
X90693Y386241D01*
X89061Y387873D01*
X88177Y390006D01*
X88177Y392314D01*
X89061Y394447D01*
X90693Y396079D01*
X92826Y396963D01*
X95134Y396963D01*
X97267Y396079D01*
X98078Y395268D01*
X98148Y395216D01*
X98212Y395156D01*
X98261Y395130D01*
X98305Y395097D01*
X98387Y395066D01*
X98465Y395026D01*
X98513Y395018D01*
X98571Y394996D01*
X98719Y394984D01*
X98796Y394971D01*
X179378Y394971D01*
X265441Y308908D01*
X265511Y308856D01*
X265575Y308796D01*
X265624Y308770D01*
X265668Y308737D01*
X265750Y308706D01*
X265828Y308666D01*
X265875Y308658D01*
X265934Y308636D01*
X266082Y308624D01*
X266159Y308611D01*
X366301Y308611D01*
X366388Y308623D01*
X366475Y308626D01*
X366528Y308643D01*
X366583Y308651D01*
X366662Y308686D01*
X366746Y308713D01*
X366785Y308741D01*
X366842Y308767D01*
X366955Y308863D01*
X367019Y308908D01*
X456180Y398069D01*
X456232Y398139D01*
X456292Y398203D01*
X456318Y398252D01*
X456351Y398296D01*
X456382Y398378D01*
X456422Y398456D01*
X456430Y398503D01*
X456452Y398562D01*
X456464Y398710D01*
X456477Y398787D01*
X456477Y399934D01*
X457361Y402067D01*
X458993Y403699D01*
X461126Y404583D01*
X463434Y404583D01*
X465567Y403699D01*
X467199Y402067D01*
X468083Y399934D01*
X468083Y397626D01*
X467199Y395493D01*
X465567Y393861D01*
X463434Y392977D01*
X462287Y392977D01*
X462200Y392965D01*
X462113Y392962D01*
X462060Y392945D01*
X462005Y392937D01*
X461926Y392902D01*
X461842Y392875D01*
X461803Y392847D01*
X461746Y392821D01*
X461633Y392725D01*
X461569Y392680D01*
X369878Y300989D01*
X262582Y300989D01*
G37*
%LPD*%
%LPC*%
G36*
X267662Y311149D02*
X267662Y311149D01*
X171439Y407372D01*
X171369Y407424D01*
X171305Y407484D01*
X171256Y407510D01*
X171212Y407543D01*
X171130Y407574D01*
X171052Y407614D01*
X171005Y407622D01*
X170946Y407644D01*
X170798Y407656D01*
X170721Y407669D01*
X98796Y407669D01*
X98709Y407657D01*
X98622Y407654D01*
X98569Y407637D01*
X98515Y407629D01*
X98435Y407594D01*
X98352Y407567D01*
X98312Y407539D01*
X98255Y407513D01*
X98142Y407417D01*
X98078Y407372D01*
X97267Y406561D01*
X95134Y405677D01*
X92826Y405677D01*
X90693Y406561D01*
X89061Y408193D01*
X88177Y410326D01*
X88177Y412634D01*
X89061Y414767D01*
X90693Y416399D01*
X92826Y417283D01*
X95134Y417283D01*
X97267Y416399D01*
X98078Y415588D01*
X98148Y415536D01*
X98212Y415476D01*
X98261Y415450D01*
X98305Y415417D01*
X98387Y415386D01*
X98465Y415346D01*
X98513Y415338D01*
X98571Y415316D01*
X98719Y415304D01*
X98796Y415291D01*
X174298Y415291D01*
X270521Y319068D01*
X270591Y319016D01*
X270655Y318956D01*
X270704Y318930D01*
X270748Y318897D01*
X270830Y318866D01*
X270908Y318826D01*
X270955Y318818D01*
X271014Y318796D01*
X271162Y318784D01*
X271239Y318771D01*
X358681Y318771D01*
X358768Y318783D01*
X358855Y318786D01*
X358908Y318803D01*
X358963Y318811D01*
X359042Y318846D01*
X359126Y318873D01*
X359165Y318901D01*
X359222Y318927D01*
X359335Y319023D01*
X359399Y319068D01*
X438400Y398069D01*
X438452Y398139D01*
X438512Y398203D01*
X438538Y398252D01*
X438571Y398296D01*
X438602Y398378D01*
X438642Y398456D01*
X438650Y398503D01*
X438672Y398562D01*
X438684Y398710D01*
X438697Y398787D01*
X438697Y399934D01*
X439581Y402067D01*
X441213Y403699D01*
X443346Y404583D01*
X445654Y404583D01*
X447787Y403699D01*
X449419Y402067D01*
X450303Y399934D01*
X450303Y397626D01*
X449419Y395493D01*
X447787Y393861D01*
X445654Y392977D01*
X444507Y392977D01*
X444420Y392965D01*
X444333Y392962D01*
X444280Y392945D01*
X444225Y392937D01*
X444146Y392902D01*
X444062Y392875D01*
X444023Y392847D01*
X443966Y392821D01*
X443853Y392725D01*
X443789Y392680D01*
X364788Y313679D01*
X362258Y311149D01*
X267662Y311149D01*
G37*
%LPD*%
%LPC*%
G36*
X257926Y649517D02*
X257926Y649517D01*
X255793Y650401D01*
X254161Y652033D01*
X253277Y654166D01*
X253277Y656474D01*
X254161Y658607D01*
X255490Y659936D01*
X255507Y659960D01*
X255530Y659979D01*
X255593Y660073D01*
X255661Y660163D01*
X255671Y660191D01*
X255687Y660215D01*
X255722Y660323D01*
X255762Y660429D01*
X255764Y660458D01*
X255773Y660486D01*
X255776Y660600D01*
X255786Y660712D01*
X255780Y660741D01*
X255781Y660770D01*
X255752Y660880D01*
X255730Y660991D01*
X255716Y661017D01*
X255709Y661045D01*
X255651Y661143D01*
X255599Y661243D01*
X255578Y661265D01*
X255563Y661290D01*
X255481Y661367D01*
X255403Y661449D01*
X255378Y661464D01*
X255356Y661484D01*
X255255Y661536D01*
X255158Y661593D01*
X255129Y661600D01*
X255103Y661614D01*
X255026Y661627D01*
X254882Y661663D01*
X254820Y661661D01*
X254772Y661669D01*
X251196Y661669D01*
X251109Y661657D01*
X251022Y661654D01*
X250969Y661637D01*
X250915Y661629D01*
X250835Y661594D01*
X250752Y661567D01*
X250712Y661539D01*
X250655Y661513D01*
X250542Y661417D01*
X250478Y661372D01*
X249667Y660561D01*
X247534Y659677D01*
X245226Y659677D01*
X243093Y660561D01*
X241461Y662193D01*
X240577Y664326D01*
X240577Y666634D01*
X241461Y668767D01*
X243093Y670399D01*
X245226Y671283D01*
X247534Y671283D01*
X249667Y670399D01*
X250478Y669588D01*
X250548Y669536D01*
X250612Y669476D01*
X250661Y669450D01*
X250705Y669417D01*
X250787Y669386D01*
X250865Y669346D01*
X250913Y669338D01*
X250971Y669316D01*
X251119Y669304D01*
X251196Y669291D01*
X310421Y669291D01*
X310508Y669303D01*
X310595Y669306D01*
X310648Y669323D01*
X310703Y669331D01*
X310782Y669366D01*
X310866Y669393D01*
X310905Y669421D01*
X310962Y669447D01*
X311075Y669543D01*
X311139Y669588D01*
X328622Y687071D01*
X343084Y687071D01*
X343142Y687079D01*
X343200Y687077D01*
X343282Y687099D01*
X343366Y687111D01*
X343419Y687134D01*
X343475Y687149D01*
X343548Y687192D01*
X343625Y687227D01*
X343670Y687265D01*
X343720Y687294D01*
X343778Y687356D01*
X343842Y687410D01*
X343874Y687459D01*
X343914Y687502D01*
X343953Y687577D01*
X344000Y687647D01*
X344017Y687703D01*
X344044Y687755D01*
X344055Y687823D01*
X344085Y687918D01*
X344088Y688018D01*
X344099Y688086D01*
X344099Y688312D01*
X345588Y689801D01*
X355692Y689801D01*
X357422Y688071D01*
X357469Y688036D01*
X357509Y687993D01*
X357582Y687951D01*
X357649Y687900D01*
X357704Y687879D01*
X357754Y687850D01*
X357836Y687829D01*
X357915Y687799D01*
X357973Y687794D01*
X358030Y687780D01*
X358114Y687782D01*
X358198Y687775D01*
X358256Y687787D01*
X358314Y687789D01*
X358394Y687815D01*
X358477Y687831D01*
X358529Y687858D01*
X358585Y687876D01*
X358641Y687916D01*
X358729Y687962D01*
X358802Y688031D01*
X358858Y688071D01*
X360588Y689801D01*
X370692Y689801D01*
X371928Y688566D01*
X371929Y688565D01*
X371930Y688563D01*
X372045Y688477D01*
X372155Y688395D01*
X372156Y688394D01*
X372158Y688393D01*
X372288Y688344D01*
X372420Y688293D01*
X372422Y688293D01*
X372424Y688293D01*
X372567Y688281D01*
X372704Y688270D01*
X372705Y688270D01*
X372707Y688270D01*
X372723Y688274D01*
X372983Y688326D01*
X373010Y688340D01*
X373034Y688345D01*
X374766Y689063D01*
X377074Y689063D01*
X379207Y688179D01*
X380839Y686547D01*
X381723Y684414D01*
X381723Y682106D01*
X380839Y679973D01*
X379207Y678341D01*
X377074Y677457D01*
X374766Y677457D01*
X373034Y678175D01*
X373032Y678175D01*
X373031Y678176D01*
X372898Y678210D01*
X372759Y678246D01*
X372757Y678245D01*
X372756Y678246D01*
X372615Y678241D01*
X372475Y678237D01*
X372473Y678237D01*
X372471Y678237D01*
X372336Y678193D01*
X372204Y678151D01*
X372202Y678150D01*
X372201Y678149D01*
X372188Y678140D01*
X371968Y677992D01*
X371948Y677969D01*
X371928Y677954D01*
X370692Y676719D01*
X360588Y676719D01*
X358858Y678449D01*
X358811Y678484D01*
X358771Y678527D01*
X358698Y678569D01*
X358631Y678620D01*
X358576Y678641D01*
X358526Y678670D01*
X358444Y678691D01*
X358365Y678721D01*
X358307Y678726D01*
X358250Y678740D01*
X358166Y678738D01*
X358082Y678745D01*
X358024Y678733D01*
X357966Y678731D01*
X357886Y678705D01*
X357803Y678689D01*
X357751Y678662D01*
X357695Y678644D01*
X357639Y678604D01*
X357551Y678558D01*
X357478Y678489D01*
X357422Y678449D01*
X355692Y676719D01*
X345588Y676719D01*
X344099Y678208D01*
X344099Y678434D01*
X344091Y678492D01*
X344093Y678550D01*
X344071Y678632D01*
X344059Y678716D01*
X344036Y678769D01*
X344021Y678825D01*
X343978Y678898D01*
X343943Y678975D01*
X343905Y679020D01*
X343876Y679070D01*
X343814Y679128D01*
X343760Y679192D01*
X343711Y679224D01*
X343668Y679264D01*
X343593Y679303D01*
X343523Y679350D01*
X343467Y679367D01*
X343415Y679394D01*
X343347Y679405D01*
X343252Y679435D01*
X343152Y679438D01*
X343084Y679449D01*
X332199Y679449D01*
X332112Y679437D01*
X332025Y679434D01*
X331972Y679417D01*
X331917Y679409D01*
X331838Y679374D01*
X331754Y679347D01*
X331715Y679319D01*
X331658Y679293D01*
X331545Y679197D01*
X331481Y679152D01*
X318273Y665944D01*
X318255Y665920D01*
X318233Y665901D01*
X318170Y665807D01*
X318102Y665717D01*
X318092Y665689D01*
X318075Y665665D01*
X318041Y665557D01*
X318001Y665451D01*
X317998Y665422D01*
X317990Y665394D01*
X317987Y665280D01*
X317977Y665168D01*
X317983Y665139D01*
X317982Y665110D01*
X318011Y665000D01*
X318033Y664889D01*
X318047Y664863D01*
X318054Y664835D01*
X318112Y664737D01*
X318164Y664637D01*
X318184Y664615D01*
X318199Y664590D01*
X318282Y664513D01*
X318360Y664431D01*
X318385Y664416D01*
X318407Y664396D01*
X318508Y664344D01*
X318605Y664287D01*
X318634Y664280D01*
X318660Y664266D01*
X318737Y664253D01*
X318881Y664217D01*
X318943Y664219D01*
X318991Y664211D01*
X406941Y664211D01*
X407028Y664223D01*
X407115Y664226D01*
X407168Y664243D01*
X407223Y664251D01*
X407302Y664286D01*
X407386Y664313D01*
X407425Y664341D01*
X407482Y664367D01*
X407595Y664463D01*
X407659Y664508D01*
X430222Y687071D01*
X444684Y687071D01*
X444742Y687079D01*
X444800Y687077D01*
X444882Y687099D01*
X444966Y687111D01*
X445019Y687134D01*
X445075Y687149D01*
X445148Y687192D01*
X445225Y687227D01*
X445270Y687265D01*
X445320Y687294D01*
X445378Y687356D01*
X445442Y687410D01*
X445474Y687459D01*
X445514Y687502D01*
X445553Y687577D01*
X445600Y687647D01*
X445617Y687703D01*
X445644Y687755D01*
X445655Y687823D01*
X445685Y687918D01*
X445688Y688018D01*
X445699Y688086D01*
X445699Y688312D01*
X447188Y689801D01*
X457292Y689801D01*
X459022Y688071D01*
X459069Y688036D01*
X459109Y687993D01*
X459182Y687951D01*
X459249Y687900D01*
X459304Y687879D01*
X459354Y687850D01*
X459436Y687829D01*
X459515Y687799D01*
X459573Y687794D01*
X459630Y687780D01*
X459714Y687782D01*
X459798Y687775D01*
X459856Y687787D01*
X459914Y687789D01*
X459994Y687815D01*
X460077Y687831D01*
X460129Y687858D01*
X460185Y687876D01*
X460241Y687916D01*
X460329Y687962D01*
X460402Y688031D01*
X460458Y688071D01*
X462188Y689801D01*
X472292Y689801D01*
X473528Y688566D01*
X473529Y688565D01*
X473530Y688563D01*
X473645Y688477D01*
X473755Y688395D01*
X473756Y688394D01*
X473758Y688393D01*
X473888Y688344D01*
X474020Y688293D01*
X474022Y688293D01*
X474024Y688293D01*
X474167Y688281D01*
X474304Y688270D01*
X474305Y688270D01*
X474307Y688270D01*
X474323Y688274D01*
X474583Y688326D01*
X474610Y688340D01*
X474634Y688345D01*
X476366Y689063D01*
X478674Y689063D01*
X480807Y688179D01*
X482439Y686547D01*
X483323Y684414D01*
X483323Y682106D01*
X482439Y679973D01*
X480807Y678341D01*
X478674Y677457D01*
X476366Y677457D01*
X474634Y678175D01*
X474632Y678175D01*
X474631Y678176D01*
X474498Y678210D01*
X474359Y678246D01*
X474357Y678245D01*
X474356Y678246D01*
X474215Y678241D01*
X474075Y678237D01*
X474073Y678237D01*
X474071Y678237D01*
X473936Y678193D01*
X473804Y678151D01*
X473802Y678150D01*
X473801Y678149D01*
X473788Y678140D01*
X473568Y677992D01*
X473548Y677969D01*
X473528Y677954D01*
X472292Y676719D01*
X462188Y676719D01*
X460458Y678449D01*
X460411Y678484D01*
X460371Y678527D01*
X460298Y678569D01*
X460231Y678620D01*
X460176Y678641D01*
X460126Y678670D01*
X460044Y678691D01*
X459965Y678721D01*
X459907Y678726D01*
X459850Y678740D01*
X459766Y678738D01*
X459682Y678745D01*
X459624Y678733D01*
X459566Y678731D01*
X459486Y678705D01*
X459403Y678689D01*
X459351Y678662D01*
X459295Y678644D01*
X459239Y678604D01*
X459151Y678558D01*
X459078Y678489D01*
X459022Y678449D01*
X457292Y676719D01*
X447188Y676719D01*
X445699Y678208D01*
X445699Y678434D01*
X445691Y678492D01*
X445693Y678550D01*
X445671Y678632D01*
X445659Y678716D01*
X445636Y678769D01*
X445621Y678825D01*
X445578Y678898D01*
X445543Y678975D01*
X445505Y679020D01*
X445476Y679070D01*
X445414Y679128D01*
X445360Y679192D01*
X445311Y679224D01*
X445268Y679264D01*
X445193Y679303D01*
X445123Y679350D01*
X445067Y679367D01*
X445015Y679394D01*
X444947Y679405D01*
X444852Y679435D01*
X444752Y679438D01*
X444684Y679449D01*
X433799Y679449D01*
X433712Y679437D01*
X433625Y679434D01*
X433572Y679417D01*
X433517Y679409D01*
X433438Y679374D01*
X433354Y679347D01*
X433315Y679319D01*
X433258Y679293D01*
X433145Y679197D01*
X433081Y679152D01*
X410518Y656589D01*
X266159Y656589D01*
X266072Y656577D01*
X265985Y656574D01*
X265932Y656557D01*
X265877Y656549D01*
X265798Y656514D01*
X265714Y656487D01*
X265675Y656459D01*
X265618Y656433D01*
X265505Y656337D01*
X265441Y656292D01*
X265180Y656031D01*
X265128Y655961D01*
X265068Y655897D01*
X265042Y655848D01*
X265009Y655804D01*
X264978Y655722D01*
X264938Y655644D01*
X264930Y655597D01*
X264908Y655538D01*
X264896Y655390D01*
X264883Y655313D01*
X264883Y654166D01*
X263999Y652033D01*
X262367Y650401D01*
X260234Y649517D01*
X257926Y649517D01*
G37*
%LPD*%
%LPC*%
G36*
X717666Y649517D02*
X717666Y649517D01*
X715533Y650401D01*
X713901Y652033D01*
X713017Y654166D01*
X713017Y655313D01*
X713005Y655400D01*
X713002Y655487D01*
X712985Y655540D01*
X712977Y655595D01*
X712942Y655674D01*
X712915Y655758D01*
X712887Y655797D01*
X712861Y655854D01*
X712778Y655952D01*
X712760Y655982D01*
X712743Y655998D01*
X712720Y656031D01*
X712459Y656292D01*
X712389Y656344D01*
X712325Y656404D01*
X712276Y656430D01*
X712232Y656463D01*
X712150Y656494D01*
X712072Y656534D01*
X712025Y656542D01*
X711966Y656564D01*
X711818Y656576D01*
X711741Y656589D01*
X605482Y656589D01*
X582919Y679152D01*
X582849Y679204D01*
X582785Y679264D01*
X582736Y679290D01*
X582692Y679323D01*
X582610Y679354D01*
X582532Y679394D01*
X582485Y679402D01*
X582426Y679424D01*
X582278Y679436D01*
X582201Y679449D01*
X576396Y679449D01*
X576338Y679441D01*
X576280Y679443D01*
X576198Y679421D01*
X576114Y679409D01*
X576061Y679386D01*
X576005Y679371D01*
X575932Y679328D01*
X575855Y679293D01*
X575810Y679255D01*
X575760Y679226D01*
X575702Y679164D01*
X575638Y679110D01*
X575606Y679061D01*
X575566Y679018D01*
X575527Y678943D01*
X575480Y678873D01*
X575463Y678817D01*
X575436Y678765D01*
X575425Y678697D01*
X575395Y678602D01*
X575392Y678502D01*
X575381Y678434D01*
X575381Y677846D01*
X575393Y677759D01*
X575396Y677672D01*
X575413Y677619D01*
X575421Y677565D01*
X575456Y677485D01*
X575483Y677402D01*
X575511Y677362D01*
X575537Y677305D01*
X575633Y677192D01*
X575678Y677128D01*
X576419Y676387D01*
X577303Y674254D01*
X577303Y671946D01*
X576419Y669813D01*
X574787Y668181D01*
X572654Y667297D01*
X570346Y667297D01*
X568213Y668181D01*
X567402Y668992D01*
X567332Y669044D01*
X567268Y669104D01*
X567219Y669130D01*
X567175Y669163D01*
X567093Y669194D01*
X567015Y669234D01*
X566967Y669242D01*
X566909Y669264D01*
X566761Y669276D01*
X566684Y669289D01*
X562422Y669289D01*
X555289Y676422D01*
X555219Y676474D01*
X555155Y676534D01*
X555106Y676560D01*
X555062Y676593D01*
X554980Y676624D01*
X554902Y676664D01*
X554855Y676672D01*
X554796Y676694D01*
X554648Y676706D01*
X554571Y676719D01*
X548788Y676719D01*
X547299Y678208D01*
X547299Y688312D01*
X548788Y689801D01*
X558892Y689801D01*
X560622Y688071D01*
X560669Y688036D01*
X560709Y687993D01*
X560782Y687951D01*
X560849Y687900D01*
X560904Y687879D01*
X560954Y687850D01*
X561036Y687829D01*
X561115Y687799D01*
X561173Y687794D01*
X561230Y687780D01*
X561314Y687782D01*
X561398Y687775D01*
X561456Y687787D01*
X561514Y687789D01*
X561594Y687815D01*
X561677Y687831D01*
X561729Y687858D01*
X561785Y687876D01*
X561841Y687916D01*
X561929Y687962D01*
X562002Y688031D01*
X562058Y688071D01*
X563788Y689801D01*
X573892Y689801D01*
X575381Y688312D01*
X575381Y688086D01*
X575389Y688028D01*
X575387Y687970D01*
X575409Y687888D01*
X575421Y687804D01*
X575444Y687751D01*
X575459Y687695D01*
X575502Y687622D01*
X575537Y687545D01*
X575575Y687500D01*
X575604Y687450D01*
X575666Y687392D01*
X575720Y687328D01*
X575769Y687296D01*
X575812Y687256D01*
X575887Y687217D01*
X575957Y687170D01*
X576013Y687153D01*
X576065Y687126D01*
X576133Y687115D01*
X576228Y687085D01*
X576328Y687082D01*
X576396Y687071D01*
X585778Y687071D01*
X608341Y664508D01*
X608411Y664456D01*
X608475Y664396D01*
X608524Y664370D01*
X608568Y664337D01*
X608650Y664306D01*
X608728Y664266D01*
X608775Y664258D01*
X608834Y664236D01*
X608982Y664224D01*
X609059Y664211D01*
X681649Y664211D01*
X681678Y664215D01*
X681707Y664212D01*
X681818Y664235D01*
X681931Y664251D01*
X681957Y664263D01*
X681986Y664268D01*
X682087Y664320D01*
X682190Y664367D01*
X682212Y664386D01*
X682238Y664399D01*
X682321Y664477D01*
X682407Y664550D01*
X682423Y664575D01*
X682445Y664595D01*
X682502Y664693D01*
X682565Y664787D01*
X682573Y664815D01*
X682588Y664840D01*
X682616Y664950D01*
X682650Y665058D01*
X682651Y665088D01*
X682658Y665116D01*
X682655Y665229D01*
X682658Y665342D01*
X682650Y665371D01*
X682649Y665400D01*
X682614Y665508D01*
X682586Y665617D01*
X682571Y665643D01*
X682562Y665671D01*
X682516Y665734D01*
X682441Y665862D01*
X682395Y665905D01*
X682367Y665944D01*
X671889Y676422D01*
X671819Y676474D01*
X671755Y676534D01*
X671706Y676560D01*
X671662Y676593D01*
X671580Y676624D01*
X671502Y676664D01*
X671455Y676672D01*
X671396Y676694D01*
X671248Y676706D01*
X671171Y676719D01*
X665388Y676719D01*
X663658Y678449D01*
X663611Y678484D01*
X663571Y678527D01*
X663498Y678569D01*
X663431Y678620D01*
X663376Y678641D01*
X663326Y678670D01*
X663244Y678691D01*
X663165Y678721D01*
X663107Y678726D01*
X663050Y678740D01*
X662966Y678738D01*
X662882Y678745D01*
X662824Y678733D01*
X662766Y678731D01*
X662686Y678705D01*
X662603Y678689D01*
X662551Y678662D01*
X662495Y678644D01*
X662439Y678604D01*
X662351Y678558D01*
X662278Y678489D01*
X662222Y678449D01*
X660492Y676719D01*
X650388Y676719D01*
X649152Y677954D01*
X649151Y677955D01*
X649150Y677957D01*
X649037Y678042D01*
X648925Y678125D01*
X648924Y678126D01*
X648922Y678127D01*
X648793Y678176D01*
X648660Y678227D01*
X648658Y678227D01*
X648656Y678227D01*
X648513Y678239D01*
X648376Y678250D01*
X648375Y678250D01*
X648373Y678250D01*
X648357Y678246D01*
X648097Y678194D01*
X648070Y678180D01*
X648046Y678175D01*
X646314Y677457D01*
X644006Y677457D01*
X641873Y678341D01*
X640241Y679973D01*
X639357Y682106D01*
X639357Y684414D01*
X640241Y686547D01*
X641873Y688179D01*
X644006Y689063D01*
X646314Y689063D01*
X648046Y688345D01*
X648048Y688345D01*
X648049Y688344D01*
X648182Y688310D01*
X648321Y688274D01*
X648323Y688275D01*
X648324Y688274D01*
X648465Y688279D01*
X648605Y688283D01*
X648607Y688283D01*
X648609Y688283D01*
X648744Y688327D01*
X648876Y688369D01*
X648878Y688370D01*
X648879Y688371D01*
X648892Y688380D01*
X649112Y688528D01*
X649132Y688551D01*
X649152Y688566D01*
X650388Y689801D01*
X660492Y689801D01*
X662222Y688071D01*
X662269Y688036D01*
X662309Y687993D01*
X662382Y687951D01*
X662449Y687900D01*
X662504Y687879D01*
X662554Y687850D01*
X662636Y687829D01*
X662715Y687799D01*
X662773Y687794D01*
X662830Y687780D01*
X662914Y687782D01*
X662998Y687775D01*
X663056Y687787D01*
X663114Y687789D01*
X663194Y687815D01*
X663277Y687831D01*
X663329Y687858D01*
X663385Y687876D01*
X663441Y687916D01*
X663529Y687962D01*
X663602Y688031D01*
X663658Y688071D01*
X665388Y689801D01*
X675492Y689801D01*
X676981Y688312D01*
X676981Y682529D01*
X676993Y682442D01*
X676996Y682355D01*
X677013Y682302D01*
X677021Y682247D01*
X677056Y682168D01*
X677083Y682084D01*
X677111Y682045D01*
X677137Y681988D01*
X677233Y681875D01*
X677278Y681811D01*
X686961Y672128D01*
X687031Y672076D01*
X687095Y672016D01*
X687144Y671990D01*
X687188Y671957D01*
X687270Y671926D01*
X687348Y671886D01*
X687395Y671878D01*
X687454Y671856D01*
X687602Y671844D01*
X687679Y671831D01*
X730558Y671831D01*
X730809Y671580D01*
X730879Y671528D01*
X730943Y671468D01*
X730992Y671442D01*
X731036Y671409D01*
X731118Y671378D01*
X731196Y671338D01*
X731243Y671330D01*
X731302Y671308D01*
X731450Y671296D01*
X731527Y671283D01*
X732674Y671283D01*
X734807Y670399D01*
X736439Y668767D01*
X737323Y666634D01*
X737323Y664326D01*
X736439Y662193D01*
X734807Y660561D01*
X732674Y659677D01*
X730366Y659677D01*
X728233Y660561D01*
X726601Y662193D01*
X726025Y663583D01*
X726024Y663584D01*
X726024Y663585D01*
X725954Y663704D01*
X725881Y663827D01*
X725879Y663828D01*
X725879Y663830D01*
X725775Y663927D01*
X725674Y664023D01*
X725672Y664023D01*
X725671Y664024D01*
X725545Y664089D01*
X725421Y664153D01*
X725420Y664153D01*
X725418Y664154D01*
X725403Y664156D01*
X725142Y664208D01*
X725112Y664205D01*
X725087Y664209D01*
X717771Y664209D01*
X717742Y664205D01*
X717713Y664208D01*
X717602Y664185D01*
X717489Y664169D01*
X717463Y664157D01*
X717434Y664152D01*
X717333Y664099D01*
X717230Y664053D01*
X717208Y664034D01*
X717182Y664021D01*
X717099Y663943D01*
X717013Y663870D01*
X716997Y663845D01*
X716975Y663825D01*
X716918Y663727D01*
X716855Y663633D01*
X716847Y663605D01*
X716832Y663580D01*
X716804Y663470D01*
X716770Y663362D01*
X716769Y663332D01*
X716762Y663304D01*
X716765Y663191D01*
X716762Y663078D01*
X716770Y663049D01*
X716771Y663020D01*
X716806Y662912D01*
X716834Y662803D01*
X716849Y662777D01*
X716858Y662749D01*
X716904Y662685D01*
X716979Y662558D01*
X717025Y662515D01*
X717053Y662476D01*
X717848Y661681D01*
X718109Y661420D01*
X718179Y661368D01*
X718243Y661308D01*
X718292Y661282D01*
X718336Y661249D01*
X718418Y661218D01*
X718496Y661178D01*
X718543Y661170D01*
X718602Y661148D01*
X718750Y661136D01*
X718827Y661123D01*
X719974Y661123D01*
X722107Y660239D01*
X723739Y658607D01*
X724623Y656474D01*
X724623Y654166D01*
X723739Y652033D01*
X722107Y650401D01*
X719974Y649517D01*
X717666Y649517D01*
G37*
%LPD*%
%LPC*%
G36*
X677026Y232957D02*
X677026Y232957D01*
X674893Y233841D01*
X673261Y235473D01*
X672377Y237606D01*
X672377Y239914D01*
X673261Y242047D01*
X674893Y243679D01*
X677026Y244563D01*
X679334Y244563D01*
X681467Y243679D01*
X682278Y242868D01*
X682348Y242816D01*
X682412Y242756D01*
X682461Y242730D01*
X682505Y242697D01*
X682587Y242666D01*
X682665Y242626D01*
X682713Y242618D01*
X682771Y242596D01*
X682919Y242584D01*
X682996Y242571D01*
X754921Y242571D01*
X755008Y242583D01*
X755095Y242586D01*
X755148Y242603D01*
X755203Y242611D01*
X755282Y242646D01*
X755366Y242673D01*
X755405Y242701D01*
X755462Y242727D01*
X755575Y242823D01*
X755639Y242868D01*
X834092Y321321D01*
X834144Y321391D01*
X834204Y321455D01*
X834230Y321504D01*
X834263Y321548D01*
X834294Y321630D01*
X834334Y321708D01*
X834342Y321755D01*
X834364Y321814D01*
X834376Y321962D01*
X834389Y322039D01*
X834389Y424444D01*
X834377Y424531D01*
X834374Y424618D01*
X834357Y424671D01*
X834349Y424725D01*
X834314Y424805D01*
X834287Y424888D01*
X834259Y424928D01*
X834233Y424985D01*
X834137Y425098D01*
X834092Y425162D01*
X833281Y425973D01*
X832397Y428106D01*
X832397Y430414D01*
X833281Y432547D01*
X834913Y434179D01*
X837046Y435063D01*
X839354Y435063D01*
X841487Y434179D01*
X843119Y432547D01*
X844003Y430414D01*
X844003Y428106D01*
X843119Y425973D01*
X842308Y425162D01*
X842256Y425092D01*
X842196Y425028D01*
X842170Y424979D01*
X842137Y424935D01*
X842106Y424853D01*
X842066Y424775D01*
X842058Y424727D01*
X842036Y424669D01*
X842024Y424521D01*
X842011Y424444D01*
X842011Y318462D01*
X758498Y234949D01*
X682996Y234949D01*
X682909Y234937D01*
X682822Y234934D01*
X682769Y234917D01*
X682715Y234909D01*
X682635Y234874D01*
X682552Y234847D01*
X682512Y234819D01*
X682455Y234793D01*
X682342Y234697D01*
X682278Y234652D01*
X681467Y233841D01*
X679334Y232957D01*
X677026Y232957D01*
G37*
%LPD*%
%LPC*%
G36*
X22810Y21159D02*
X22810Y21159D01*
X16584Y23738D01*
X11818Y28504D01*
X9239Y34730D01*
X9239Y41470D01*
X11818Y47696D01*
X16584Y52462D01*
X22810Y55041D01*
X29550Y55041D01*
X32719Y53728D01*
X32803Y53706D01*
X32883Y53676D01*
X32940Y53671D01*
X32995Y53657D01*
X33081Y53659D01*
X33166Y53652D01*
X33222Y53663D01*
X33279Y53665D01*
X33361Y53691D01*
X33445Y53708D01*
X33495Y53734D01*
X33550Y53752D01*
X33621Y53800D01*
X33697Y53839D01*
X33738Y53878D01*
X33786Y53910D01*
X33841Y53976D01*
X33903Y54035D01*
X33932Y54084D01*
X33969Y54128D01*
X34004Y54206D01*
X34047Y54280D01*
X34061Y54335D01*
X34084Y54387D01*
X34096Y54473D01*
X34117Y54556D01*
X34115Y54612D01*
X34123Y54669D01*
X34111Y54754D01*
X34108Y54840D01*
X34091Y54894D01*
X34082Y54950D01*
X34047Y55029D01*
X34021Y55110D01*
X33992Y55151D01*
X33965Y55209D01*
X33871Y55320D01*
X33826Y55384D01*
X31012Y58198D01*
X28189Y65012D01*
X28189Y72388D01*
X31012Y79203D01*
X36227Y84418D01*
X43042Y87241D01*
X50418Y87241D01*
X57233Y84418D01*
X62448Y79203D01*
X65271Y72388D01*
X65271Y65012D01*
X62448Y58197D01*
X57233Y52982D01*
X50418Y50159D01*
X43042Y50159D01*
X39284Y51716D01*
X39201Y51737D01*
X39121Y51768D01*
X39064Y51773D01*
X39009Y51787D01*
X38923Y51784D01*
X38838Y51791D01*
X38782Y51780D01*
X38725Y51779D01*
X38643Y51752D01*
X38559Y51735D01*
X38508Y51709D01*
X38454Y51692D01*
X38383Y51644D01*
X38307Y51604D01*
X38265Y51565D01*
X38218Y51534D01*
X38163Y51468D01*
X38100Y51409D01*
X38072Y51360D01*
X38035Y51316D01*
X38000Y51238D01*
X37957Y51163D01*
X37943Y51108D01*
X37920Y51056D01*
X37908Y50971D01*
X37887Y50888D01*
X37888Y50831D01*
X37881Y50775D01*
X37893Y50690D01*
X37896Y50604D01*
X37913Y50550D01*
X37921Y50493D01*
X37957Y50415D01*
X37983Y50333D01*
X38012Y50293D01*
X38038Y50234D01*
X38133Y50124D01*
X38178Y50060D01*
X40542Y47696D01*
X43121Y41470D01*
X43121Y34730D01*
X40542Y28504D01*
X35776Y23738D01*
X29550Y21159D01*
X22810Y21159D01*
G37*
%LPD*%
%LPC*%
G36*
X178210Y21159D02*
X178210Y21159D01*
X171984Y23738D01*
X167218Y28504D01*
X164639Y34730D01*
X164639Y41470D01*
X167218Y47696D01*
X169582Y50060D01*
X169634Y50128D01*
X169693Y50191D01*
X169719Y50242D01*
X169753Y50287D01*
X169784Y50367D01*
X169823Y50444D01*
X169834Y50500D01*
X169854Y50553D01*
X169861Y50638D01*
X169878Y50723D01*
X169873Y50779D01*
X169878Y50836D01*
X169861Y50920D01*
X169853Y51006D01*
X169833Y51059D01*
X169822Y51115D01*
X169782Y51191D01*
X169751Y51271D01*
X169717Y51317D01*
X169691Y51367D01*
X169632Y51429D01*
X169580Y51498D01*
X169534Y51532D01*
X169495Y51573D01*
X169421Y51617D01*
X169352Y51668D01*
X169299Y51688D01*
X169250Y51717D01*
X169167Y51738D01*
X169086Y51768D01*
X169029Y51773D01*
X168974Y51787D01*
X168889Y51784D01*
X168803Y51791D01*
X168754Y51780D01*
X168690Y51778D01*
X168552Y51733D01*
X168476Y51716D01*
X164718Y50159D01*
X157342Y50159D01*
X150527Y52982D01*
X145312Y58197D01*
X142489Y65012D01*
X142489Y72388D01*
X145312Y79203D01*
X150527Y84418D01*
X157342Y87241D01*
X164718Y87241D01*
X171533Y84418D01*
X176748Y79203D01*
X179571Y72388D01*
X179571Y65012D01*
X176748Y58198D01*
X173934Y55384D01*
X173883Y55315D01*
X173824Y55253D01*
X173798Y55202D01*
X173763Y55157D01*
X173733Y55076D01*
X173693Y55000D01*
X173682Y54944D01*
X173662Y54891D01*
X173655Y54805D01*
X173638Y54721D01*
X173643Y54664D01*
X173639Y54608D01*
X173655Y54523D01*
X173663Y54438D01*
X173683Y54385D01*
X173694Y54329D01*
X173734Y54253D01*
X173765Y54172D01*
X173799Y54127D01*
X173825Y54076D01*
X173885Y54014D01*
X173936Y53946D01*
X173982Y53912D01*
X174021Y53870D01*
X174095Y53827D01*
X174164Y53775D01*
X174217Y53755D01*
X174266Y53727D01*
X174350Y53705D01*
X174430Y53675D01*
X174487Y53671D01*
X174542Y53657D01*
X174628Y53659D01*
X174714Y53652D01*
X174762Y53664D01*
X174826Y53666D01*
X174964Y53710D01*
X175041Y53728D01*
X178210Y55041D01*
X184950Y55041D01*
X191176Y52462D01*
X195942Y47696D01*
X198521Y41470D01*
X198521Y34730D01*
X195942Y28504D01*
X191176Y23738D01*
X184950Y21159D01*
X178210Y21159D01*
G37*
%LPD*%
%LPC*%
G36*
X39486Y339637D02*
X39486Y339637D01*
X37353Y340521D01*
X35721Y342153D01*
X34837Y344286D01*
X34837Y346594D01*
X35721Y348727D01*
X37353Y350359D01*
X39486Y351243D01*
X40633Y351243D01*
X40720Y351255D01*
X40807Y351258D01*
X40860Y351275D01*
X40915Y351283D01*
X40994Y351318D01*
X41078Y351345D01*
X41117Y351373D01*
X41174Y351399D01*
X41287Y351495D01*
X41351Y351540D01*
X49232Y359421D01*
X49284Y359491D01*
X49344Y359555D01*
X49370Y359604D01*
X49403Y359648D01*
X49434Y359730D01*
X49474Y359808D01*
X49482Y359855D01*
X49504Y359914D01*
X49516Y360062D01*
X49529Y360139D01*
X49529Y368656D01*
X49525Y368685D01*
X49528Y368715D01*
X49505Y368825D01*
X49489Y368938D01*
X49477Y368964D01*
X49472Y368993D01*
X49419Y369094D01*
X49373Y369197D01*
X49354Y369219D01*
X49341Y369246D01*
X49263Y369328D01*
X49190Y369414D01*
X49165Y369430D01*
X49145Y369452D01*
X49047Y369509D01*
X48953Y369572D01*
X48925Y369580D01*
X48899Y369595D01*
X48790Y369623D01*
X48682Y369657D01*
X48652Y369658D01*
X48624Y369665D01*
X48511Y369662D01*
X48398Y369665D01*
X48369Y369657D01*
X48340Y369656D01*
X48232Y369621D01*
X48123Y369593D01*
X48097Y369578D01*
X48069Y369569D01*
X48005Y369523D01*
X47904Y369463D01*
X45652Y368530D01*
X43248Y368530D01*
X41028Y369450D01*
X39329Y371149D01*
X38409Y373369D01*
X38409Y375772D01*
X39329Y377992D01*
X41028Y379692D01*
X43248Y380611D01*
X45652Y380611D01*
X47925Y379670D01*
X47933Y379665D01*
X48023Y379597D01*
X48051Y379586D01*
X48075Y379570D01*
X48183Y379536D01*
X48289Y379495D01*
X48318Y379493D01*
X48346Y379484D01*
X48459Y379481D01*
X48572Y379472D01*
X48601Y379477D01*
X48630Y379477D01*
X48740Y379505D01*
X48851Y379527D01*
X48877Y379541D01*
X48905Y379548D01*
X49003Y379606D01*
X49103Y379658D01*
X49125Y379679D01*
X49150Y379694D01*
X49227Y379776D01*
X49309Y379854D01*
X49324Y379880D01*
X49344Y379901D01*
X49396Y380002D01*
X49453Y380099D01*
X49460Y380128D01*
X49474Y380154D01*
X49487Y380231D01*
X49523Y380375D01*
X49521Y380438D01*
X49529Y380485D01*
X49529Y417075D01*
X49525Y417104D01*
X49528Y417133D01*
X49505Y417244D01*
X49489Y417356D01*
X49477Y417383D01*
X49472Y417412D01*
X49419Y417512D01*
X49373Y417616D01*
X49354Y417638D01*
X49341Y417664D01*
X49263Y417746D01*
X49190Y417833D01*
X49165Y417849D01*
X49145Y417870D01*
X49047Y417927D01*
X48953Y417990D01*
X48925Y417999D01*
X48899Y418014D01*
X48790Y418042D01*
X48682Y418076D01*
X48652Y418077D01*
X48624Y418084D01*
X48511Y418080D01*
X48398Y418083D01*
X48369Y418076D01*
X48340Y418075D01*
X48232Y418040D01*
X48123Y418012D01*
X48097Y417997D01*
X48069Y417987D01*
X48005Y417942D01*
X47904Y417882D01*
X45652Y416949D01*
X43248Y416949D01*
X41028Y417868D01*
X39329Y419568D01*
X38409Y421788D01*
X38409Y424191D01*
X39329Y426411D01*
X41028Y428110D01*
X43248Y429030D01*
X45652Y429030D01*
X47925Y428088D01*
X47933Y428083D01*
X48023Y428015D01*
X48051Y428005D01*
X48075Y427988D01*
X48183Y427954D01*
X48289Y427914D01*
X48318Y427912D01*
X48346Y427903D01*
X48459Y427900D01*
X48572Y427890D01*
X48601Y427896D01*
X48630Y427895D01*
X48740Y427924D01*
X48851Y427946D01*
X48877Y427960D01*
X48905Y427967D01*
X49003Y428025D01*
X49103Y428077D01*
X49125Y428097D01*
X49150Y428112D01*
X49227Y428195D01*
X49309Y428273D01*
X49324Y428298D01*
X49344Y428320D01*
X49396Y428421D01*
X49453Y428518D01*
X49460Y428547D01*
X49474Y428573D01*
X49487Y428650D01*
X49523Y428794D01*
X49521Y428856D01*
X49529Y428904D01*
X49529Y513344D01*
X49517Y513431D01*
X49514Y513518D01*
X49497Y513571D01*
X49489Y513625D01*
X49454Y513705D01*
X49427Y513788D01*
X49399Y513828D01*
X49373Y513885D01*
X49277Y513998D01*
X49232Y514062D01*
X48421Y514873D01*
X47537Y517006D01*
X47537Y519314D01*
X48421Y521447D01*
X50053Y523079D01*
X52186Y523963D01*
X54494Y523963D01*
X56627Y523079D01*
X58259Y521447D01*
X59143Y519314D01*
X59143Y517006D01*
X58259Y514873D01*
X57448Y514062D01*
X57396Y513992D01*
X57336Y513928D01*
X57310Y513879D01*
X57277Y513835D01*
X57246Y513753D01*
X57206Y513675D01*
X57198Y513627D01*
X57176Y513569D01*
X57164Y513421D01*
X57151Y513344D01*
X57151Y356562D01*
X46740Y346151D01*
X46688Y346081D01*
X46628Y346017D01*
X46602Y345968D01*
X46569Y345924D01*
X46538Y345842D01*
X46498Y345764D01*
X46490Y345717D01*
X46468Y345658D01*
X46456Y345510D01*
X46443Y345433D01*
X46443Y344286D01*
X45559Y342153D01*
X43927Y340521D01*
X41794Y339637D01*
X39486Y339637D01*
G37*
%LPD*%
%LPC*%
G36*
X768466Y649517D02*
X768466Y649517D01*
X766333Y650401D01*
X764701Y652033D01*
X763817Y654166D01*
X763817Y656474D01*
X764701Y658607D01*
X766333Y660239D01*
X768466Y661123D01*
X770774Y661123D01*
X772907Y660239D01*
X773718Y659428D01*
X773788Y659376D01*
X773852Y659316D01*
X773901Y659290D01*
X773945Y659257D01*
X774027Y659226D01*
X774105Y659186D01*
X774153Y659178D01*
X774211Y659156D01*
X774359Y659144D01*
X774436Y659131D01*
X843701Y659131D01*
X843788Y659143D01*
X843875Y659146D01*
X843928Y659163D01*
X843983Y659171D01*
X844062Y659206D01*
X844146Y659233D01*
X844185Y659261D01*
X844242Y659287D01*
X844355Y659383D01*
X844419Y659428D01*
X859977Y674986D01*
X859995Y675010D01*
X860017Y675029D01*
X860080Y675123D01*
X860148Y675213D01*
X860158Y675241D01*
X860175Y675265D01*
X860209Y675373D01*
X860249Y675479D01*
X860252Y675508D01*
X860260Y675536D01*
X860263Y675650D01*
X860273Y675762D01*
X860267Y675791D01*
X860268Y675820D01*
X860239Y675930D01*
X860217Y676041D01*
X860203Y676067D01*
X860196Y676095D01*
X860138Y676193D01*
X860086Y676293D01*
X860066Y676315D01*
X860051Y676340D01*
X859968Y676417D01*
X859890Y676499D01*
X859865Y676514D01*
X859843Y676534D01*
X859742Y676586D01*
X859645Y676643D01*
X859616Y676650D01*
X859590Y676664D01*
X859513Y676677D01*
X859369Y676713D01*
X859307Y676711D01*
X859259Y676719D01*
X853588Y676719D01*
X852352Y677954D01*
X852351Y677955D01*
X852350Y677957D01*
X852237Y678042D01*
X852125Y678125D01*
X852124Y678126D01*
X852122Y678127D01*
X851993Y678176D01*
X851860Y678227D01*
X851858Y678227D01*
X851856Y678227D01*
X851713Y678239D01*
X851576Y678250D01*
X851575Y678250D01*
X851573Y678250D01*
X851557Y678246D01*
X851297Y678194D01*
X851270Y678180D01*
X851246Y678175D01*
X849514Y677457D01*
X847206Y677457D01*
X845073Y678341D01*
X843441Y679973D01*
X842557Y682106D01*
X842557Y684414D01*
X843441Y686547D01*
X845073Y688179D01*
X847206Y689063D01*
X849514Y689063D01*
X851246Y688345D01*
X851248Y688345D01*
X851249Y688344D01*
X851382Y688310D01*
X851521Y688274D01*
X851523Y688275D01*
X851524Y688274D01*
X851665Y688279D01*
X851805Y688283D01*
X851807Y688283D01*
X851809Y688283D01*
X851944Y688327D01*
X852076Y688369D01*
X852078Y688370D01*
X852079Y688371D01*
X852092Y688380D01*
X852312Y688528D01*
X852332Y688551D01*
X852352Y688566D01*
X853588Y689801D01*
X863692Y689801D01*
X865422Y688071D01*
X865469Y688036D01*
X865509Y687993D01*
X865582Y687951D01*
X865649Y687900D01*
X865704Y687879D01*
X865754Y687850D01*
X865836Y687829D01*
X865915Y687799D01*
X865973Y687794D01*
X866030Y687780D01*
X866114Y687782D01*
X866198Y687775D01*
X866256Y687787D01*
X866314Y687789D01*
X866394Y687815D01*
X866477Y687831D01*
X866529Y687858D01*
X866585Y687876D01*
X866641Y687916D01*
X866729Y687962D01*
X866802Y688031D01*
X866858Y688071D01*
X868588Y689801D01*
X878692Y689801D01*
X880181Y688312D01*
X880181Y678208D01*
X878692Y676719D01*
X872909Y676719D01*
X872822Y676707D01*
X872735Y676704D01*
X872682Y676687D01*
X872627Y676679D01*
X872548Y676644D01*
X872464Y676617D01*
X872425Y676589D01*
X872368Y676563D01*
X872255Y676467D01*
X872191Y676422D01*
X847278Y651509D01*
X774436Y651509D01*
X774349Y651497D01*
X774262Y651494D01*
X774209Y651477D01*
X774155Y651469D01*
X774075Y651434D01*
X773992Y651407D01*
X773952Y651379D01*
X773895Y651353D01*
X773782Y651257D01*
X773718Y651212D01*
X772907Y650401D01*
X770774Y649517D01*
X768466Y649517D01*
G37*
%LPD*%
%LPC*%
G36*
X209666Y649517D02*
X209666Y649517D01*
X207533Y650401D01*
X205901Y652033D01*
X205017Y654166D01*
X205017Y655313D01*
X205005Y655400D01*
X205002Y655487D01*
X204985Y655540D01*
X204977Y655595D01*
X204942Y655674D01*
X204915Y655758D01*
X204887Y655797D01*
X204861Y655854D01*
X204778Y655952D01*
X204760Y655982D01*
X204743Y655998D01*
X204720Y656031D01*
X191759Y668992D01*
X191689Y669044D01*
X191625Y669104D01*
X191576Y669130D01*
X191532Y669163D01*
X191450Y669194D01*
X191372Y669234D01*
X191325Y669242D01*
X191266Y669264D01*
X191118Y669276D01*
X191041Y669289D01*
X155902Y669289D01*
X148769Y676422D01*
X148699Y676474D01*
X148635Y676534D01*
X148586Y676560D01*
X148542Y676593D01*
X148460Y676624D01*
X148382Y676664D01*
X148335Y676672D01*
X148276Y676694D01*
X148128Y676706D01*
X148051Y676719D01*
X142388Y676719D01*
X140899Y678208D01*
X140899Y688312D01*
X142388Y689801D01*
X152492Y689801D01*
X154222Y688071D01*
X154269Y688036D01*
X154309Y687993D01*
X154382Y687951D01*
X154449Y687900D01*
X154504Y687879D01*
X154554Y687850D01*
X154636Y687829D01*
X154715Y687799D01*
X154773Y687794D01*
X154830Y687780D01*
X154914Y687782D01*
X154998Y687775D01*
X155056Y687787D01*
X155114Y687789D01*
X155194Y687815D01*
X155277Y687831D01*
X155329Y687858D01*
X155385Y687876D01*
X155441Y687916D01*
X155529Y687962D01*
X155602Y688031D01*
X155658Y688071D01*
X157388Y689801D01*
X167492Y689801D01*
X168728Y688566D01*
X168729Y688565D01*
X168730Y688563D01*
X168845Y688477D01*
X168955Y688395D01*
X168956Y688394D01*
X168958Y688393D01*
X169088Y688344D01*
X169220Y688293D01*
X169222Y688293D01*
X169224Y688293D01*
X169367Y688281D01*
X169504Y688270D01*
X169505Y688270D01*
X169507Y688270D01*
X169523Y688274D01*
X169783Y688326D01*
X169810Y688340D01*
X169834Y688345D01*
X171566Y689063D01*
X173874Y689063D01*
X176007Y688179D01*
X177639Y686547D01*
X178523Y684414D01*
X178523Y682106D01*
X177639Y679973D01*
X176310Y678644D01*
X176293Y678620D01*
X176270Y678601D01*
X176207Y678507D01*
X176139Y678417D01*
X176129Y678389D01*
X176113Y678365D01*
X176078Y678257D01*
X176038Y678151D01*
X176036Y678122D01*
X176027Y678094D01*
X176024Y677980D01*
X176014Y677868D01*
X176020Y677839D01*
X176019Y677810D01*
X176048Y677700D01*
X176070Y677589D01*
X176084Y677563D01*
X176091Y677535D01*
X176149Y677437D01*
X176201Y677337D01*
X176222Y677315D01*
X176237Y677290D01*
X176319Y677213D01*
X176397Y677131D01*
X176422Y677116D01*
X176444Y677096D01*
X176545Y677044D01*
X176642Y676987D01*
X176671Y676980D01*
X176697Y676966D01*
X176774Y676953D01*
X176918Y676917D01*
X176980Y676919D01*
X177028Y676911D01*
X194618Y676911D01*
X210109Y661420D01*
X210179Y661368D01*
X210243Y661308D01*
X210292Y661282D01*
X210336Y661249D01*
X210418Y661218D01*
X210496Y661178D01*
X210543Y661170D01*
X210602Y661148D01*
X210750Y661136D01*
X210827Y661123D01*
X211974Y661123D01*
X214107Y660239D01*
X215739Y658607D01*
X216623Y656474D01*
X216623Y654166D01*
X215739Y652033D01*
X214107Y650401D01*
X211974Y649517D01*
X209666Y649517D01*
G37*
%LPD*%
%LPC*%
G36*
X748146Y659677D02*
X748146Y659677D01*
X746013Y660561D01*
X744381Y662193D01*
X743497Y664326D01*
X743497Y666634D01*
X744381Y668767D01*
X746013Y670399D01*
X748146Y671283D01*
X750454Y671283D01*
X752604Y670392D01*
X752618Y670378D01*
X752690Y670335D01*
X752758Y670285D01*
X752812Y670264D01*
X752863Y670234D01*
X752944Y670214D01*
X753023Y670184D01*
X753082Y670179D01*
X753138Y670164D01*
X753223Y670167D01*
X753307Y670160D01*
X753364Y670171D01*
X753423Y670173D01*
X753503Y670199D01*
X753585Y670216D01*
X753637Y670243D01*
X753693Y670261D01*
X753749Y670301D01*
X753838Y670347D01*
X753910Y670416D01*
X753966Y670456D01*
X758497Y674986D01*
X758515Y675010D01*
X758537Y675029D01*
X758600Y675123D01*
X758668Y675213D01*
X758678Y675241D01*
X758695Y675265D01*
X758729Y675373D01*
X758769Y675479D01*
X758772Y675508D01*
X758780Y675536D01*
X758783Y675650D01*
X758793Y675762D01*
X758787Y675791D01*
X758788Y675820D01*
X758759Y675930D01*
X758737Y676041D01*
X758723Y676067D01*
X758716Y676095D01*
X758658Y676193D01*
X758606Y676293D01*
X758586Y676315D01*
X758571Y676340D01*
X758488Y676417D01*
X758410Y676499D01*
X758385Y676514D01*
X758363Y676534D01*
X758262Y676586D01*
X758165Y676643D01*
X758136Y676650D01*
X758110Y676664D01*
X758033Y676677D01*
X757889Y676713D01*
X757827Y676711D01*
X757779Y676719D01*
X751988Y676719D01*
X750499Y678208D01*
X750499Y678434D01*
X750491Y678492D01*
X750493Y678550D01*
X750471Y678632D01*
X750459Y678716D01*
X750436Y678769D01*
X750421Y678825D01*
X750378Y678898D01*
X750343Y678975D01*
X750305Y679020D01*
X750276Y679070D01*
X750214Y679128D01*
X750160Y679192D01*
X750111Y679224D01*
X750068Y679264D01*
X749993Y679303D01*
X749923Y679350D01*
X749867Y679367D01*
X749815Y679394D01*
X749747Y679405D01*
X749652Y679435D01*
X749552Y679438D01*
X749484Y679449D01*
X708396Y679449D01*
X708309Y679437D01*
X708222Y679434D01*
X708169Y679417D01*
X708115Y679409D01*
X708035Y679374D01*
X707952Y679347D01*
X707912Y679319D01*
X707855Y679293D01*
X707742Y679197D01*
X707678Y679152D01*
X706867Y678341D01*
X704734Y677457D01*
X702426Y677457D01*
X700293Y678341D01*
X698661Y679973D01*
X697777Y682106D01*
X697777Y684414D01*
X698661Y686547D01*
X700293Y688179D01*
X702426Y689063D01*
X704734Y689063D01*
X706867Y688179D01*
X707678Y687368D01*
X707748Y687316D01*
X707812Y687256D01*
X707861Y687230D01*
X707905Y687197D01*
X707987Y687166D01*
X708065Y687126D01*
X708113Y687118D01*
X708171Y687096D01*
X708319Y687084D01*
X708396Y687071D01*
X749484Y687071D01*
X749542Y687079D01*
X749600Y687077D01*
X749682Y687099D01*
X749766Y687111D01*
X749819Y687134D01*
X749875Y687149D01*
X749948Y687192D01*
X750025Y687227D01*
X750070Y687265D01*
X750120Y687294D01*
X750178Y687356D01*
X750242Y687410D01*
X750274Y687459D01*
X750314Y687502D01*
X750353Y687577D01*
X750400Y687647D01*
X750417Y687703D01*
X750444Y687755D01*
X750455Y687823D01*
X750485Y687918D01*
X750488Y688018D01*
X750499Y688086D01*
X750499Y688312D01*
X751988Y689801D01*
X762092Y689801D01*
X763822Y688071D01*
X763869Y688036D01*
X763909Y687993D01*
X763982Y687951D01*
X764049Y687900D01*
X764104Y687879D01*
X764154Y687850D01*
X764236Y687829D01*
X764315Y687799D01*
X764373Y687794D01*
X764430Y687780D01*
X764514Y687782D01*
X764598Y687775D01*
X764656Y687787D01*
X764714Y687789D01*
X764794Y687815D01*
X764877Y687831D01*
X764929Y687858D01*
X764985Y687876D01*
X765041Y687916D01*
X765129Y687962D01*
X765202Y688031D01*
X765258Y688071D01*
X766988Y689801D01*
X777092Y689801D01*
X778581Y688312D01*
X778581Y678208D01*
X777092Y676719D01*
X771429Y676719D01*
X771342Y676707D01*
X771255Y676704D01*
X771202Y676687D01*
X771147Y676679D01*
X771068Y676644D01*
X770984Y676617D01*
X770945Y676589D01*
X770888Y676563D01*
X770775Y676467D01*
X770711Y676422D01*
X755958Y661669D01*
X754116Y661669D01*
X754029Y661657D01*
X753942Y661654D01*
X753889Y661637D01*
X753835Y661629D01*
X753755Y661594D01*
X753672Y661567D01*
X753632Y661539D01*
X753575Y661513D01*
X753462Y661417D01*
X753398Y661372D01*
X752587Y660561D01*
X750454Y659677D01*
X748146Y659677D01*
G37*
%LPD*%
%LPC*%
G36*
X263211Y18019D02*
X263211Y18019D01*
X256764Y20690D01*
X251830Y25624D01*
X249159Y32071D01*
X249159Y39049D01*
X251830Y45496D01*
X256764Y50430D01*
X263211Y53101D01*
X270189Y53101D01*
X276636Y50430D01*
X281570Y45496D01*
X284241Y39049D01*
X284241Y32071D01*
X281570Y25624D01*
X276636Y20690D01*
X270189Y18019D01*
X263211Y18019D01*
G37*
%LPD*%
%LPC*%
G36*
X720411Y18019D02*
X720411Y18019D01*
X713964Y20690D01*
X709030Y25624D01*
X706359Y32071D01*
X706359Y39049D01*
X709030Y45496D01*
X713964Y50430D01*
X720411Y53101D01*
X727389Y53101D01*
X733836Y50430D01*
X738770Y45496D01*
X741441Y39049D01*
X741441Y32071D01*
X738770Y25624D01*
X733836Y20690D01*
X727389Y18019D01*
X720411Y18019D01*
G37*
%LPD*%
%LPC*%
G36*
X568011Y18019D02*
X568011Y18019D01*
X561564Y20690D01*
X556630Y25624D01*
X553959Y32071D01*
X553959Y39049D01*
X556630Y45496D01*
X561564Y50430D01*
X568011Y53101D01*
X574989Y53101D01*
X581436Y50430D01*
X586370Y45496D01*
X589041Y39049D01*
X589041Y32071D01*
X586370Y25624D01*
X581436Y20690D01*
X574989Y18019D01*
X568011Y18019D01*
G37*
%LPD*%
%LPC*%
G36*
X415611Y18019D02*
X415611Y18019D01*
X409164Y20690D01*
X404230Y25624D01*
X401559Y32071D01*
X401559Y39049D01*
X404230Y45496D01*
X409164Y50430D01*
X415611Y53101D01*
X422589Y53101D01*
X429036Y50430D01*
X433970Y45496D01*
X436641Y39049D01*
X436641Y32071D01*
X433970Y25624D01*
X429036Y20690D01*
X422589Y18019D01*
X415611Y18019D01*
G37*
%LPD*%
%LPC*%
G36*
X169026Y359957D02*
X169026Y359957D01*
X166893Y360841D01*
X165261Y362473D01*
X164377Y364606D01*
X164377Y365753D01*
X164365Y365840D01*
X164362Y365927D01*
X164345Y365980D01*
X164337Y366035D01*
X164302Y366114D01*
X164275Y366198D01*
X164247Y366237D01*
X164221Y366294D01*
X164125Y366407D01*
X164080Y366471D01*
X156199Y374352D01*
X156129Y374404D01*
X156065Y374464D01*
X156016Y374490D01*
X155972Y374523D01*
X155890Y374554D01*
X155812Y374594D01*
X155765Y374602D01*
X155706Y374624D01*
X155558Y374636D01*
X155481Y374649D01*
X73396Y374649D01*
X73309Y374637D01*
X73222Y374634D01*
X73169Y374617D01*
X73115Y374609D01*
X73035Y374574D01*
X72952Y374547D01*
X72912Y374519D01*
X72855Y374493D01*
X72742Y374397D01*
X72678Y374352D01*
X71867Y373541D01*
X69734Y372657D01*
X67426Y372657D01*
X65293Y373541D01*
X63661Y375173D01*
X62777Y377306D01*
X62777Y379614D01*
X63661Y381747D01*
X65293Y383379D01*
X67426Y384263D01*
X69734Y384263D01*
X71867Y383379D01*
X72678Y382568D01*
X72748Y382516D01*
X72812Y382456D01*
X72861Y382430D01*
X72905Y382397D01*
X72987Y382366D01*
X73065Y382326D01*
X73113Y382318D01*
X73171Y382296D01*
X73319Y382284D01*
X73396Y382271D01*
X159058Y382271D01*
X169469Y371860D01*
X169539Y371808D01*
X169603Y371748D01*
X169652Y371722D01*
X169696Y371689D01*
X169778Y371658D01*
X169856Y371618D01*
X169903Y371610D01*
X169962Y371588D01*
X170110Y371576D01*
X170187Y371563D01*
X171334Y371563D01*
X173467Y370679D01*
X175099Y369047D01*
X175983Y366914D01*
X175983Y364606D01*
X175099Y362473D01*
X173467Y360841D01*
X171334Y359957D01*
X169026Y359957D01*
G37*
%LPD*%
%LPC*%
G36*
X384926Y276137D02*
X384926Y276137D01*
X382793Y277021D01*
X381161Y278653D01*
X380277Y280786D01*
X380277Y283094D01*
X381161Y285227D01*
X382793Y286859D01*
X384926Y287743D01*
X387234Y287743D01*
X389367Y286859D01*
X390178Y286048D01*
X390248Y285996D01*
X390312Y285936D01*
X390361Y285910D01*
X390405Y285877D01*
X390487Y285846D01*
X390565Y285806D01*
X390613Y285798D01*
X390671Y285776D01*
X390819Y285764D01*
X390896Y285751D01*
X424721Y285751D01*
X424808Y285763D01*
X424895Y285766D01*
X424948Y285783D01*
X425003Y285791D01*
X425082Y285826D01*
X425166Y285853D01*
X425205Y285881D01*
X425262Y285907D01*
X425375Y286003D01*
X425439Y286048D01*
X446020Y306629D01*
X446072Y306699D01*
X446132Y306763D01*
X446158Y306812D01*
X446191Y306856D01*
X446222Y306938D01*
X446262Y307016D01*
X446270Y307063D01*
X446292Y307122D01*
X446304Y307270D01*
X446317Y307347D01*
X446317Y308494D01*
X447201Y310627D01*
X448833Y312259D01*
X450966Y313143D01*
X453274Y313143D01*
X455407Y312259D01*
X457039Y310627D01*
X457923Y308494D01*
X457923Y306186D01*
X457039Y304053D01*
X455407Y302421D01*
X453274Y301537D01*
X452127Y301537D01*
X452040Y301525D01*
X451953Y301522D01*
X451900Y301505D01*
X451845Y301497D01*
X451766Y301462D01*
X451682Y301435D01*
X451643Y301407D01*
X451586Y301381D01*
X451473Y301285D01*
X451409Y301240D01*
X428298Y278129D01*
X390896Y278129D01*
X390809Y278117D01*
X390722Y278114D01*
X390669Y278097D01*
X390615Y278089D01*
X390535Y278054D01*
X390452Y278027D01*
X390412Y277999D01*
X390355Y277973D01*
X390242Y277877D01*
X390178Y277832D01*
X389367Y277021D01*
X387234Y276137D01*
X384926Y276137D01*
G37*
%LPD*%
%LPC*%
G36*
X227446Y659677D02*
X227446Y659677D01*
X225313Y660561D01*
X223681Y662193D01*
X222797Y664326D01*
X222797Y666634D01*
X223681Y668767D01*
X224492Y669578D01*
X224544Y669648D01*
X224604Y669712D01*
X224630Y669761D01*
X224663Y669805D01*
X224694Y669887D01*
X224734Y669965D01*
X224742Y670013D01*
X224764Y670071D01*
X224776Y670219D01*
X224789Y670296D01*
X224789Y674558D01*
X237302Y687071D01*
X241484Y687071D01*
X241542Y687079D01*
X241600Y687077D01*
X241682Y687099D01*
X241766Y687111D01*
X241819Y687134D01*
X241875Y687149D01*
X241948Y687192D01*
X242025Y687227D01*
X242070Y687265D01*
X242120Y687294D01*
X242178Y687356D01*
X242242Y687410D01*
X242274Y687459D01*
X242314Y687502D01*
X242353Y687577D01*
X242400Y687647D01*
X242417Y687703D01*
X242444Y687755D01*
X242455Y687823D01*
X242485Y687918D01*
X242488Y688018D01*
X242499Y688086D01*
X242499Y688312D01*
X243988Y689801D01*
X254092Y689801D01*
X255822Y688071D01*
X255869Y688036D01*
X255909Y687993D01*
X255982Y687951D01*
X256049Y687900D01*
X256104Y687879D01*
X256154Y687850D01*
X256236Y687829D01*
X256315Y687799D01*
X256373Y687794D01*
X256430Y687780D01*
X256514Y687782D01*
X256598Y687775D01*
X256656Y687787D01*
X256714Y687789D01*
X256794Y687815D01*
X256877Y687831D01*
X256929Y687858D01*
X256985Y687876D01*
X257041Y687916D01*
X257129Y687962D01*
X257202Y688031D01*
X257258Y688071D01*
X258988Y689801D01*
X269092Y689801D01*
X270328Y688566D01*
X270329Y688565D01*
X270330Y688563D01*
X270445Y688477D01*
X270555Y688395D01*
X270556Y688394D01*
X270558Y688393D01*
X270688Y688344D01*
X270820Y688293D01*
X270822Y688293D01*
X270824Y688293D01*
X270967Y688281D01*
X271104Y688270D01*
X271105Y688270D01*
X271107Y688270D01*
X271123Y688274D01*
X271383Y688326D01*
X271410Y688340D01*
X271434Y688345D01*
X273166Y689063D01*
X275474Y689063D01*
X277607Y688179D01*
X279239Y686547D01*
X280123Y684414D01*
X280123Y682106D01*
X279239Y679973D01*
X277607Y678341D01*
X275474Y677457D01*
X273166Y677457D01*
X271434Y678175D01*
X271432Y678175D01*
X271431Y678176D01*
X271298Y678210D01*
X271159Y678246D01*
X271157Y678245D01*
X271156Y678246D01*
X271015Y678241D01*
X270875Y678237D01*
X270873Y678237D01*
X270871Y678237D01*
X270736Y678193D01*
X270604Y678151D01*
X270602Y678150D01*
X270601Y678149D01*
X270588Y678140D01*
X270368Y677992D01*
X270348Y677969D01*
X270328Y677954D01*
X269092Y676719D01*
X258988Y676719D01*
X257258Y678449D01*
X257211Y678484D01*
X257171Y678527D01*
X257098Y678569D01*
X257031Y678620D01*
X256976Y678641D01*
X256926Y678670D01*
X256844Y678691D01*
X256765Y678721D01*
X256707Y678726D01*
X256650Y678740D01*
X256566Y678738D01*
X256482Y678745D01*
X256424Y678733D01*
X256366Y678731D01*
X256286Y678705D01*
X256203Y678689D01*
X256151Y678662D01*
X256095Y678644D01*
X256039Y678604D01*
X255951Y678558D01*
X255878Y678489D01*
X255822Y678449D01*
X254092Y676719D01*
X243988Y676719D01*
X242499Y678208D01*
X242499Y678434D01*
X242491Y678492D01*
X242493Y678550D01*
X242471Y678632D01*
X242459Y678716D01*
X242436Y678769D01*
X242421Y678825D01*
X242378Y678898D01*
X242343Y678975D01*
X242305Y679020D01*
X242276Y679070D01*
X242214Y679128D01*
X242160Y679192D01*
X242111Y679224D01*
X242068Y679264D01*
X241993Y679303D01*
X241923Y679350D01*
X241867Y679367D01*
X241815Y679394D01*
X241747Y679405D01*
X241652Y679435D01*
X241552Y679438D01*
X241484Y679449D01*
X240879Y679449D01*
X240792Y679437D01*
X240705Y679434D01*
X240652Y679417D01*
X240597Y679409D01*
X240518Y679374D01*
X240434Y679347D01*
X240395Y679319D01*
X240338Y679293D01*
X240225Y679197D01*
X240161Y679152D01*
X232708Y671699D01*
X232656Y671629D01*
X232596Y671565D01*
X232570Y671516D01*
X232537Y671472D01*
X232506Y671390D01*
X232466Y671312D01*
X232458Y671265D01*
X232436Y671206D01*
X232424Y671058D01*
X232411Y670981D01*
X232411Y670296D01*
X232423Y670209D01*
X232426Y670122D01*
X232443Y670069D01*
X232451Y670015D01*
X232486Y669935D01*
X232513Y669852D01*
X232541Y669812D01*
X232567Y669755D01*
X232663Y669642D01*
X232708Y669578D01*
X233519Y668767D01*
X234403Y666634D01*
X234403Y664326D01*
X233519Y662193D01*
X231887Y660561D01*
X229754Y659677D01*
X227446Y659677D01*
G37*
%LPD*%
%LPC*%
G36*
X443346Y522517D02*
X443346Y522517D01*
X441213Y523401D01*
X439581Y525033D01*
X438697Y527166D01*
X438697Y529474D01*
X439581Y531607D01*
X440392Y532418D01*
X440444Y532488D01*
X440504Y532552D01*
X440530Y532601D01*
X440563Y532645D01*
X440594Y532727D01*
X440634Y532805D01*
X440642Y532853D01*
X440664Y532911D01*
X440676Y533059D01*
X440689Y533136D01*
X440689Y569224D01*
X440677Y569311D01*
X440674Y569398D01*
X440657Y569451D01*
X440649Y569505D01*
X440614Y569585D01*
X440587Y569668D01*
X440559Y569708D01*
X440533Y569765D01*
X440437Y569878D01*
X440392Y569942D01*
X439581Y570753D01*
X438697Y572886D01*
X438697Y575194D01*
X439581Y577327D01*
X441213Y578959D01*
X443346Y579843D01*
X445654Y579843D01*
X447787Y578959D01*
X449419Y577327D01*
X450303Y575194D01*
X450303Y572886D01*
X449419Y570753D01*
X448608Y569942D01*
X448556Y569872D01*
X448496Y569808D01*
X448470Y569759D01*
X448437Y569715D01*
X448406Y569633D01*
X448366Y569555D01*
X448358Y569507D01*
X448336Y569449D01*
X448324Y569301D01*
X448311Y569224D01*
X448311Y533136D01*
X448323Y533049D01*
X448326Y532962D01*
X448343Y532909D01*
X448351Y532855D01*
X448386Y532775D01*
X448413Y532692D01*
X448441Y532652D01*
X448467Y532595D01*
X448563Y532482D01*
X448608Y532418D01*
X449419Y531607D01*
X450303Y529474D01*
X450303Y527166D01*
X449419Y525033D01*
X447787Y523401D01*
X445654Y522517D01*
X443346Y522517D01*
G37*
%LPD*%
%LPC*%
G36*
X105526Y319317D02*
X105526Y319317D01*
X103393Y320201D01*
X101761Y321833D01*
X100877Y323966D01*
X100877Y326274D01*
X101761Y328407D01*
X102572Y329218D01*
X102624Y329288D01*
X102684Y329352D01*
X102710Y329401D01*
X102743Y329445D01*
X102774Y329527D01*
X102814Y329605D01*
X102822Y329653D01*
X102844Y329711D01*
X102856Y329859D01*
X102869Y329936D01*
X102869Y353601D01*
X102857Y353688D01*
X102854Y353775D01*
X102837Y353828D01*
X102829Y353883D01*
X102794Y353962D01*
X102767Y354046D01*
X102739Y354085D01*
X102713Y354142D01*
X102617Y354255D01*
X102572Y354319D01*
X99771Y357120D01*
X99701Y357172D01*
X99637Y357232D01*
X99588Y357258D01*
X99544Y357291D01*
X99462Y357322D01*
X99384Y357362D01*
X99337Y357370D01*
X99278Y357392D01*
X99130Y357404D01*
X99053Y357417D01*
X97906Y357417D01*
X95773Y358301D01*
X94141Y359933D01*
X93257Y362066D01*
X93257Y364374D01*
X94141Y366507D01*
X95773Y368139D01*
X97906Y369023D01*
X100214Y369023D01*
X102347Y368139D01*
X103979Y366507D01*
X104863Y364374D01*
X104863Y363227D01*
X104875Y363140D01*
X104878Y363053D01*
X104895Y363000D01*
X104903Y362945D01*
X104938Y362866D01*
X104965Y362782D01*
X104993Y362743D01*
X105019Y362686D01*
X105115Y362573D01*
X105160Y362509D01*
X110491Y357178D01*
X110491Y329936D01*
X110503Y329849D01*
X110506Y329762D01*
X110523Y329709D01*
X110531Y329655D01*
X110566Y329575D01*
X110593Y329492D01*
X110621Y329452D01*
X110647Y329395D01*
X110743Y329282D01*
X110788Y329218D01*
X111599Y328407D01*
X112483Y326274D01*
X112483Y323966D01*
X111599Y321833D01*
X109967Y320201D01*
X107834Y319317D01*
X105526Y319317D01*
G37*
%LPD*%
%LPC*%
G36*
X569169Y67039D02*
X569169Y67039D01*
X564861Y68824D01*
X561564Y72121D01*
X559779Y76429D01*
X559779Y81091D01*
X561564Y85399D01*
X564861Y88696D01*
X569169Y90481D01*
X573831Y90481D01*
X578139Y88696D01*
X581436Y85399D01*
X583221Y81091D01*
X583221Y76429D01*
X581436Y72121D01*
X578139Y68824D01*
X573831Y67039D01*
X569169Y67039D01*
G37*
%LPD*%
%LPC*%
G36*
X721569Y67039D02*
X721569Y67039D01*
X717261Y68824D01*
X713964Y72121D01*
X712179Y76429D01*
X712179Y81091D01*
X713964Y85399D01*
X717261Y88696D01*
X721569Y90481D01*
X726231Y90481D01*
X730539Y88696D01*
X733836Y85399D01*
X735621Y81091D01*
X735621Y76429D01*
X733836Y72121D01*
X730539Y68824D01*
X726231Y67039D01*
X721569Y67039D01*
G37*
%LPD*%
%LPC*%
G36*
X234369Y67039D02*
X234369Y67039D01*
X230061Y68824D01*
X226764Y72121D01*
X224979Y76429D01*
X224979Y81091D01*
X226764Y85399D01*
X230061Y88696D01*
X234369Y90481D01*
X239031Y90481D01*
X243339Y88696D01*
X246636Y85399D01*
X248421Y81091D01*
X248421Y76429D01*
X246636Y72121D01*
X243339Y68824D01*
X239031Y67039D01*
X234369Y67039D01*
G37*
%LPD*%
%LPC*%
G36*
X264369Y67039D02*
X264369Y67039D01*
X260061Y68824D01*
X256764Y72121D01*
X254979Y76429D01*
X254979Y81091D01*
X256764Y85399D01*
X260061Y88696D01*
X264369Y90481D01*
X269031Y90481D01*
X273339Y88696D01*
X276636Y85399D01*
X278421Y81091D01*
X278421Y76429D01*
X276636Y72121D01*
X273339Y68824D01*
X269031Y67039D01*
X264369Y67039D01*
G37*
%LPD*%
%LPC*%
G36*
X751569Y97039D02*
X751569Y97039D01*
X747261Y98824D01*
X743964Y102121D01*
X742179Y106429D01*
X742179Y111091D01*
X743964Y115399D01*
X747261Y118696D01*
X751569Y120481D01*
X756231Y120481D01*
X760539Y118696D01*
X763836Y115399D01*
X765621Y111091D01*
X765621Y106429D01*
X763836Y102121D01*
X760539Y98824D01*
X756231Y97039D01*
X751569Y97039D01*
G37*
%LPD*%
%LPC*%
G36*
X294369Y97039D02*
X294369Y97039D01*
X290061Y98824D01*
X286764Y102121D01*
X284979Y106429D01*
X284979Y111091D01*
X286764Y115399D01*
X290061Y118696D01*
X294369Y120481D01*
X299031Y120481D01*
X303339Y118696D01*
X306636Y115399D01*
X308421Y111091D01*
X308421Y106429D01*
X306636Y102121D01*
X303339Y98824D01*
X299031Y97039D01*
X294369Y97039D01*
G37*
%LPD*%
%LPC*%
G36*
X691569Y67039D02*
X691569Y67039D01*
X687261Y68824D01*
X683964Y72121D01*
X682179Y76429D01*
X682179Y81091D01*
X683964Y85399D01*
X687261Y88696D01*
X691569Y90481D01*
X696231Y90481D01*
X700539Y88696D01*
X703836Y85399D01*
X705621Y81091D01*
X705621Y76429D01*
X703836Y72121D01*
X700539Y68824D01*
X696231Y67039D01*
X691569Y67039D01*
G37*
%LPD*%
%LPC*%
G36*
X691569Y97039D02*
X691569Y97039D01*
X687261Y98824D01*
X683964Y102121D01*
X682179Y106429D01*
X682179Y111091D01*
X683964Y115399D01*
X687261Y118696D01*
X691569Y120481D01*
X696231Y120481D01*
X700539Y118696D01*
X703836Y115399D01*
X705621Y111091D01*
X705621Y106429D01*
X703836Y102121D01*
X700539Y98824D01*
X696231Y97039D01*
X691569Y97039D01*
G37*
%LPD*%
%LPC*%
G36*
X569169Y97039D02*
X569169Y97039D01*
X564861Y98824D01*
X561564Y102121D01*
X559779Y106429D01*
X559779Y111091D01*
X561564Y115399D01*
X564861Y118696D01*
X569169Y120481D01*
X573831Y120481D01*
X578139Y118696D01*
X581436Y115399D01*
X583221Y111091D01*
X583221Y106429D01*
X581436Y102121D01*
X578139Y98824D01*
X573831Y97039D01*
X569169Y97039D01*
G37*
%LPD*%
%LPC*%
G36*
X721569Y97039D02*
X721569Y97039D01*
X717261Y98824D01*
X713964Y102121D01*
X712179Y106429D01*
X712179Y111091D01*
X713964Y115399D01*
X717261Y118696D01*
X721569Y120481D01*
X726231Y120481D01*
X730539Y118696D01*
X733836Y115399D01*
X735621Y111091D01*
X735621Y106429D01*
X733836Y102121D01*
X730539Y98824D01*
X726231Y97039D01*
X721569Y97039D01*
G37*
%LPD*%
%LPC*%
G36*
X264369Y97039D02*
X264369Y97039D01*
X260061Y98824D01*
X256764Y102121D01*
X254979Y106429D01*
X254979Y111091D01*
X256764Y115399D01*
X260061Y118696D01*
X264369Y120481D01*
X269031Y120481D01*
X273339Y118696D01*
X276636Y115399D01*
X278421Y111091D01*
X278421Y106429D01*
X276636Y102121D01*
X273339Y98824D01*
X269031Y97039D01*
X264369Y97039D01*
G37*
%LPD*%
%LPC*%
G36*
X416769Y97039D02*
X416769Y97039D01*
X412461Y98824D01*
X409164Y102121D01*
X407379Y106429D01*
X407379Y111091D01*
X409164Y115399D01*
X412461Y118696D01*
X416769Y120481D01*
X421431Y120481D01*
X425739Y118696D01*
X429036Y115399D01*
X430821Y111091D01*
X430821Y106429D01*
X429036Y102121D01*
X425739Y98824D01*
X421431Y97039D01*
X416769Y97039D01*
G37*
%LPD*%
%LPC*%
G36*
X446769Y97039D02*
X446769Y97039D01*
X442461Y98824D01*
X439164Y102121D01*
X437379Y106429D01*
X437379Y111091D01*
X439164Y115399D01*
X442461Y118696D01*
X446769Y120481D01*
X451431Y120481D01*
X455739Y118696D01*
X459036Y115399D01*
X460821Y111091D01*
X460821Y106429D01*
X459036Y102121D01*
X455739Y98824D01*
X451431Y97039D01*
X446769Y97039D01*
G37*
%LPD*%
%LPC*%
G36*
X539169Y67039D02*
X539169Y67039D01*
X534861Y68824D01*
X531564Y72121D01*
X529779Y76429D01*
X529779Y81091D01*
X531564Y85399D01*
X534861Y88696D01*
X539169Y90481D01*
X543831Y90481D01*
X548139Y88696D01*
X551436Y85399D01*
X553221Y81091D01*
X553221Y76429D01*
X551436Y72121D01*
X548139Y68824D01*
X543831Y67039D01*
X539169Y67039D01*
G37*
%LPD*%
%LPC*%
G36*
X416769Y67039D02*
X416769Y67039D01*
X412461Y68824D01*
X409164Y72121D01*
X407379Y76429D01*
X407379Y81091D01*
X409164Y85399D01*
X412461Y88696D01*
X416769Y90481D01*
X421431Y90481D01*
X425739Y88696D01*
X429036Y85399D01*
X430821Y81091D01*
X430821Y76429D01*
X429036Y72121D01*
X425739Y68824D01*
X421431Y67039D01*
X416769Y67039D01*
G37*
%LPD*%
%LPC*%
G36*
X599169Y97039D02*
X599169Y97039D01*
X594861Y98824D01*
X591564Y102121D01*
X589779Y106429D01*
X589779Y111091D01*
X591564Y115399D01*
X594861Y118696D01*
X599169Y120481D01*
X603831Y120481D01*
X608139Y118696D01*
X611436Y115399D01*
X613221Y111091D01*
X613221Y106429D01*
X611436Y102121D01*
X608139Y98824D01*
X603831Y97039D01*
X599169Y97039D01*
G37*
%LPD*%
%LPC*%
G36*
X386769Y67039D02*
X386769Y67039D01*
X382461Y68824D01*
X379164Y72121D01*
X377379Y76429D01*
X377379Y81091D01*
X379164Y85399D01*
X382461Y88696D01*
X386769Y90481D01*
X391431Y90481D01*
X395739Y88696D01*
X399036Y85399D01*
X400821Y81091D01*
X400821Y76429D01*
X399036Y72121D01*
X395739Y68824D01*
X391431Y67039D01*
X386769Y67039D01*
G37*
%LPD*%
%LPC*%
G36*
X741171Y558291D02*
X741171Y558291D01*
X741171Y578301D01*
X758974Y578301D01*
X759621Y578128D01*
X760200Y577793D01*
X760673Y577320D01*
X761008Y576741D01*
X761181Y576094D01*
X761181Y558291D01*
X741171Y558291D01*
G37*
%LPD*%
%LPC*%
G36*
X717099Y558291D02*
X717099Y558291D01*
X717099Y576094D01*
X717272Y576741D01*
X717607Y577320D01*
X718080Y577793D01*
X718659Y578128D01*
X719306Y578301D01*
X737109Y578301D01*
X737109Y558291D01*
X717099Y558291D01*
G37*
%LPD*%
%LPC*%
G36*
X741171Y534219D02*
X741171Y534219D01*
X741171Y554229D01*
X761181Y554229D01*
X761181Y536426D01*
X761008Y535779D01*
X760673Y535200D01*
X760200Y534727D01*
X759621Y534392D01*
X758974Y534219D01*
X741171Y534219D01*
G37*
%LPD*%
%LPC*%
G36*
X719306Y534219D02*
X719306Y534219D01*
X718659Y534392D01*
X718080Y534727D01*
X717607Y535200D01*
X717272Y535779D01*
X717099Y536426D01*
X717099Y554229D01*
X737109Y554229D01*
X737109Y534219D01*
X719306Y534219D01*
G37*
%LPD*%
%LPC*%
G36*
X70013Y146859D02*
X70013Y146859D01*
X66102Y148479D01*
X63109Y151472D01*
X61489Y155383D01*
X61489Y159617D01*
X63109Y163528D01*
X66102Y166521D01*
X70013Y168141D01*
X74247Y168141D01*
X78158Y166521D01*
X81151Y163528D01*
X82771Y159617D01*
X82771Y155383D01*
X81151Y151472D01*
X78158Y148479D01*
X74247Y146859D01*
X70013Y146859D01*
G37*
%LPD*%
%LPC*%
G36*
X146213Y146859D02*
X146213Y146859D01*
X142302Y148479D01*
X139309Y151472D01*
X137689Y155383D01*
X137689Y159617D01*
X139309Y163528D01*
X142302Y166521D01*
X146213Y168141D01*
X150447Y168141D01*
X154358Y166521D01*
X157351Y163528D01*
X158971Y159617D01*
X158971Y155383D01*
X157351Y151472D01*
X154358Y148479D01*
X150447Y146859D01*
X146213Y146859D01*
G37*
%LPD*%
%LPC*%
G36*
X57313Y121459D02*
X57313Y121459D01*
X53402Y123079D01*
X50409Y126072D01*
X48789Y129983D01*
X48789Y134217D01*
X50409Y138128D01*
X53402Y141121D01*
X57313Y142741D01*
X61547Y142741D01*
X65458Y141121D01*
X68451Y138128D01*
X70071Y134217D01*
X70071Y129983D01*
X68451Y126072D01*
X65458Y123079D01*
X61547Y121459D01*
X57313Y121459D01*
G37*
%LPD*%
%LPC*%
G36*
X133513Y121459D02*
X133513Y121459D01*
X129602Y123079D01*
X126609Y126072D01*
X124989Y129983D01*
X124989Y134217D01*
X126609Y138128D01*
X129602Y141121D01*
X133513Y142741D01*
X137747Y142741D01*
X141658Y141121D01*
X144651Y138128D01*
X146271Y134217D01*
X146271Y129983D01*
X144651Y126072D01*
X141658Y123079D01*
X137747Y121459D01*
X133513Y121459D01*
G37*
%LPD*%
%LPC*%
G36*
X82713Y121459D02*
X82713Y121459D01*
X78802Y123079D01*
X75809Y126072D01*
X74189Y129983D01*
X74189Y134217D01*
X75809Y138128D01*
X78802Y141121D01*
X82713Y142741D01*
X86947Y142741D01*
X90858Y141121D01*
X93851Y138128D01*
X95471Y134217D01*
X95471Y129983D01*
X93851Y126072D01*
X90858Y123079D01*
X86947Y121459D01*
X82713Y121459D01*
G37*
%LPD*%
%LPC*%
G36*
X934211Y22351D02*
X934211Y22351D01*
X934211Y43181D01*
X940134Y43181D01*
X940781Y43008D01*
X941360Y42673D01*
X941833Y42200D01*
X942168Y41621D01*
X942341Y40974D01*
X942341Y22351D01*
X934211Y22351D01*
G37*
%LPD*%
%LPC*%
G36*
X985011Y22351D02*
X985011Y22351D01*
X985011Y43181D01*
X990934Y43181D01*
X991581Y43008D01*
X992160Y42673D01*
X992633Y42200D01*
X992968Y41621D01*
X993141Y40974D01*
X993141Y22351D01*
X985011Y22351D01*
G37*
%LPD*%
%LPC*%
G36*
X972819Y22351D02*
X972819Y22351D01*
X972819Y40974D01*
X972992Y41621D01*
X973327Y42200D01*
X973800Y42673D01*
X974379Y43008D01*
X975026Y43181D01*
X980949Y43181D01*
X980949Y22351D01*
X972819Y22351D01*
G37*
%LPD*%
%LPC*%
G36*
X922019Y22351D02*
X922019Y22351D01*
X922019Y40974D01*
X922192Y41621D01*
X922527Y42200D01*
X923000Y42673D01*
X923579Y43008D01*
X924226Y43181D01*
X930149Y43181D01*
X930149Y22351D01*
X922019Y22351D01*
G37*
%LPD*%
%LPC*%
G36*
X20287Y436927D02*
X20287Y436927D01*
X20287Y446436D01*
X28165Y446436D01*
X29959Y446152D01*
X31686Y445591D01*
X33305Y444766D01*
X34775Y443698D01*
X36059Y442414D01*
X37127Y440944D01*
X37951Y439326D01*
X38513Y437598D01*
X38619Y436927D01*
X20287Y436927D01*
G37*
%LPD*%
%LPC*%
G36*
X20287Y364696D02*
X20287Y364696D01*
X20287Y374205D01*
X28165Y374205D01*
X29959Y373921D01*
X31686Y373360D01*
X33305Y372535D01*
X34775Y371467D01*
X36059Y370183D01*
X37127Y368713D01*
X37951Y367095D01*
X38513Y365367D01*
X38619Y364696D01*
X20287Y364696D01*
G37*
%LPD*%
%LPC*%
G36*
X20287Y423355D02*
X20287Y423355D01*
X20287Y432864D01*
X38619Y432864D01*
X38513Y432193D01*
X37951Y430465D01*
X37127Y428847D01*
X36059Y427377D01*
X34775Y426093D01*
X33305Y425025D01*
X31686Y424200D01*
X29959Y423639D01*
X28165Y423355D01*
X20287Y423355D01*
G37*
%LPD*%
%LPC*%
G36*
X20287Y351124D02*
X20287Y351124D01*
X20287Y360633D01*
X38619Y360633D01*
X38513Y359962D01*
X37951Y358234D01*
X37127Y356616D01*
X36059Y355146D01*
X34775Y353862D01*
X33305Y352794D01*
X31686Y351969D01*
X29959Y351408D01*
X28165Y351124D01*
X20287Y351124D01*
G37*
%LPD*%
%LPC*%
G36*
X755931Y80791D02*
X755931Y80791D01*
X755931Y90481D01*
X763414Y90481D01*
X764061Y90308D01*
X764640Y89973D01*
X765113Y89500D01*
X765448Y88921D01*
X765621Y88274D01*
X765621Y80791D01*
X755931Y80791D01*
G37*
%LPD*%
%LPC*%
G36*
X298731Y80791D02*
X298731Y80791D01*
X298731Y90481D01*
X306214Y90481D01*
X306861Y90308D01*
X307440Y89973D01*
X307913Y89500D01*
X308248Y88921D01*
X308421Y88274D01*
X308421Y80791D01*
X298731Y80791D01*
G37*
%LPD*%
%LPC*%
G36*
X603531Y80791D02*
X603531Y80791D01*
X603531Y90481D01*
X611014Y90481D01*
X611661Y90308D01*
X612240Y89973D01*
X612713Y89500D01*
X613048Y88921D01*
X613221Y88274D01*
X613221Y80791D01*
X603531Y80791D01*
G37*
%LPD*%
%LPC*%
G36*
X451131Y80791D02*
X451131Y80791D01*
X451131Y90481D01*
X458614Y90481D01*
X459261Y90308D01*
X459840Y89973D01*
X460313Y89500D01*
X460648Y88921D01*
X460821Y88274D01*
X460821Y80791D01*
X451131Y80791D01*
G37*
%LPD*%
%LPC*%
G36*
X742179Y80791D02*
X742179Y80791D01*
X742179Y88274D01*
X742352Y88921D01*
X742687Y89500D01*
X743160Y89973D01*
X743739Y90308D01*
X744386Y90481D01*
X751869Y90481D01*
X751869Y80791D01*
X742179Y80791D01*
G37*
%LPD*%
%LPC*%
G36*
X589779Y80791D02*
X589779Y80791D01*
X589779Y88274D01*
X589952Y88921D01*
X590287Y89500D01*
X590760Y89973D01*
X591339Y90308D01*
X591986Y90481D01*
X599469Y90481D01*
X599469Y80791D01*
X589779Y80791D01*
G37*
%LPD*%
%LPC*%
G36*
X284979Y80791D02*
X284979Y80791D01*
X284979Y88274D01*
X285152Y88921D01*
X285487Y89500D01*
X285960Y89973D01*
X286539Y90308D01*
X287186Y90481D01*
X294669Y90481D01*
X294669Y80791D01*
X284979Y80791D01*
G37*
%LPD*%
%LPC*%
G36*
X603531Y67039D02*
X603531Y67039D01*
X603531Y76729D01*
X613221Y76729D01*
X613221Y69246D01*
X613048Y68599D01*
X612713Y68020D01*
X612240Y67547D01*
X611661Y67212D01*
X611014Y67039D01*
X603531Y67039D01*
G37*
%LPD*%
%LPC*%
G36*
X437379Y80791D02*
X437379Y80791D01*
X437379Y88274D01*
X437552Y88921D01*
X437887Y89500D01*
X438360Y89973D01*
X438939Y90308D01*
X439586Y90481D01*
X447069Y90481D01*
X447069Y80791D01*
X437379Y80791D01*
G37*
%LPD*%
%LPC*%
G36*
X755931Y67039D02*
X755931Y67039D01*
X755931Y76729D01*
X765621Y76729D01*
X765621Y69246D01*
X765448Y68599D01*
X765113Y68020D01*
X764640Y67547D01*
X764061Y67212D01*
X763414Y67039D01*
X755931Y67039D01*
G37*
%LPD*%
%LPC*%
G36*
X451131Y67039D02*
X451131Y67039D01*
X451131Y76729D01*
X460821Y76729D01*
X460821Y69246D01*
X460648Y68599D01*
X460313Y68020D01*
X459840Y67547D01*
X459261Y67212D01*
X458614Y67039D01*
X451131Y67039D01*
G37*
%LPD*%
%LPC*%
G36*
X298731Y67039D02*
X298731Y67039D01*
X298731Y76729D01*
X308421Y76729D01*
X308421Y69246D01*
X308248Y68599D01*
X307913Y68020D01*
X307440Y67547D01*
X306861Y67212D01*
X306214Y67039D01*
X298731Y67039D01*
G37*
%LPD*%
%LPC*%
G36*
X439586Y67039D02*
X439586Y67039D01*
X438939Y67212D01*
X438360Y67547D01*
X437887Y68020D01*
X437552Y68599D01*
X437379Y69246D01*
X437379Y76729D01*
X447069Y76729D01*
X447069Y67039D01*
X439586Y67039D01*
G37*
%LPD*%
%LPC*%
G36*
X591986Y67039D02*
X591986Y67039D01*
X591339Y67212D01*
X590760Y67547D01*
X590287Y68020D01*
X589952Y68599D01*
X589779Y69246D01*
X589779Y76729D01*
X599469Y76729D01*
X599469Y67039D01*
X591986Y67039D01*
G37*
%LPD*%
%LPC*%
G36*
X744386Y67039D02*
X744386Y67039D01*
X743739Y67212D01*
X743160Y67547D01*
X742687Y68020D01*
X742352Y68599D01*
X742179Y69246D01*
X742179Y76729D01*
X751869Y76729D01*
X751869Y67039D01*
X744386Y67039D01*
G37*
%LPD*%
%LPC*%
G36*
X287186Y67039D02*
X287186Y67039D01*
X286539Y67212D01*
X285960Y67547D01*
X285487Y68020D01*
X285152Y68599D01*
X284979Y69246D01*
X284979Y76729D01*
X294669Y76729D01*
X294669Y67039D01*
X287186Y67039D01*
G37*
%LPD*%
%LPC*%
G36*
X593319Y371069D02*
X593319Y371069D01*
X593319Y377511D01*
X594177Y377340D01*
X595648Y376731D01*
X596971Y375847D01*
X597452Y375366D01*
X597499Y375331D01*
X597539Y375288D01*
X597612Y375246D01*
X597679Y375195D01*
X597734Y375174D01*
X597784Y375145D01*
X597866Y375124D01*
X597945Y375094D01*
X598003Y375089D01*
X598060Y375074D01*
X598144Y375077D01*
X598228Y375070D01*
X598286Y375082D01*
X598344Y375083D01*
X598424Y375109D01*
X598507Y375126D01*
X598559Y375153D01*
X598615Y375171D01*
X598671Y375211D01*
X598759Y375257D01*
X598832Y375326D01*
X598888Y375366D01*
X599369Y375847D01*
X600692Y376731D01*
X602163Y377340D01*
X603021Y377511D01*
X603021Y371069D01*
X593319Y371069D01*
G37*
%LPD*%
%LPC*%
G36*
X112261Y134131D02*
X112261Y134131D01*
X112261Y142552D01*
X112722Y142479D01*
X114315Y141961D01*
X115807Y141201D01*
X117162Y140216D01*
X118346Y139032D01*
X119331Y137677D01*
X120091Y136185D01*
X120609Y134592D01*
X120682Y134131D01*
X112261Y134131D01*
G37*
%LPD*%
%LPC*%
G36*
X112261Y130069D02*
X112261Y130069D01*
X120682Y130069D01*
X120609Y129608D01*
X120091Y128015D01*
X119331Y126523D01*
X118346Y125168D01*
X117162Y123984D01*
X115807Y122999D01*
X114315Y122239D01*
X112722Y121721D01*
X112261Y121648D01*
X112261Y130069D01*
G37*
%LPD*%
%LPC*%
G36*
X99778Y134131D02*
X99778Y134131D01*
X99851Y134592D01*
X100369Y136185D01*
X101129Y137677D01*
X102114Y139032D01*
X103298Y140216D01*
X104653Y141201D01*
X106145Y141961D01*
X107738Y142479D01*
X108199Y142552D01*
X108199Y134131D01*
X99778Y134131D01*
G37*
%LPD*%
%LPC*%
G36*
X107738Y121721D02*
X107738Y121721D01*
X106145Y122239D01*
X104653Y122999D01*
X103298Y123984D01*
X102114Y125168D01*
X101129Y126523D01*
X100369Y128015D01*
X99851Y129608D01*
X99778Y130069D01*
X108199Y130069D01*
X108199Y121648D01*
X107738Y121721D01*
G37*
%LPD*%
%LPC*%
G36*
X558479Y371069D02*
X558479Y371069D01*
X558650Y371927D01*
X559259Y373398D01*
X560143Y374721D01*
X561269Y375847D01*
X562592Y376731D01*
X564063Y377340D01*
X564921Y377511D01*
X564921Y371069D01*
X558479Y371069D01*
G37*
%LPD*%
%LPC*%
G36*
X601499Y78759D02*
X601499Y78759D01*
X601499Y78761D01*
X601501Y78761D01*
X601501Y78759D01*
X601499Y78759D01*
G37*
%LPD*%
%LPC*%
G36*
X753899Y78759D02*
X753899Y78759D01*
X753899Y78761D01*
X753901Y78761D01*
X753901Y78759D01*
X753899Y78759D01*
G37*
%LPD*%
%LPC*%
G36*
X296699Y78759D02*
X296699Y78759D01*
X296699Y78761D01*
X296701Y78761D01*
X296701Y78759D01*
X296699Y78759D01*
G37*
%LPD*%
%LPC*%
G36*
X110229Y132099D02*
X110229Y132099D01*
X110229Y132101D01*
X110231Y132101D01*
X110231Y132099D01*
X110229Y132099D01*
G37*
%LPD*%
%LPC*%
G36*
X449099Y78759D02*
X449099Y78759D01*
X449099Y78761D01*
X449101Y78761D01*
X449101Y78759D01*
X449099Y78759D01*
G37*
%LPD*%
%LPC*%
G36*
X739139Y556259D02*
X739139Y556259D01*
X739139Y556261D01*
X739141Y556261D01*
X739141Y556259D01*
X739139Y556259D01*
G37*
%LPD*%
D10*
X9256Y434896D02*
X27256Y434896D01*
X27256Y362664D02*
X9256Y362664D01*
D11*
X932180Y20320D03*
X982980Y20320D03*
D12*
X181580Y38100D03*
X26180Y38100D03*
D13*
X72130Y157500D03*
X148330Y157500D03*
X122930Y157500D03*
X135630Y132100D03*
X110230Y132100D03*
X59430Y132100D03*
X84830Y132100D03*
X97530Y157500D03*
D14*
X873640Y683260D03*
X858640Y683260D03*
X772040Y683260D03*
X757040Y683260D03*
X670440Y683260D03*
X655440Y683260D03*
X568840Y683260D03*
X553840Y683260D03*
X452240Y683260D03*
X467240Y683260D03*
X350640Y683260D03*
X365640Y683260D03*
X249040Y683260D03*
X264040Y683260D03*
X147440Y683260D03*
X162440Y683260D03*
D15*
X821140Y556260D03*
X657140Y556260D03*
D16*
X739140Y556260D03*
D17*
X601500Y78760D03*
D18*
X571500Y78760D03*
X541500Y78760D03*
X601500Y108760D03*
X571500Y108760D03*
X541500Y108760D03*
D17*
X449100Y78760D03*
D18*
X419100Y78760D03*
X389100Y78760D03*
X449100Y108760D03*
X419100Y108760D03*
X389100Y108760D03*
D17*
X296700Y78760D03*
D18*
X266700Y78760D03*
X236700Y78760D03*
X296700Y108760D03*
X266700Y108760D03*
X236700Y108760D03*
D19*
X617220Y369570D03*
D20*
X617220Y356870D03*
X604520Y369570D03*
X604520Y356870D03*
X591820Y369570D03*
X591820Y356870D03*
X579120Y369570D03*
X579120Y356870D03*
X566420Y369570D03*
X566420Y356870D03*
D17*
X753900Y78760D03*
D18*
X723900Y78760D03*
X693900Y78760D03*
X753900Y108760D03*
X723900Y108760D03*
X693900Y108760D03*
D21*
X434340Y175260D02*
X389100Y175260D01*
X434340Y175260D02*
X495300Y175260D01*
X528320Y175260D01*
X541500Y175260D01*
X614680Y175260D01*
D22*
X528320Y193040D03*
D23*
X528320Y175260D01*
D22*
X386080Y482600D03*
X279400Y332740D03*
D23*
X368300Y464820D02*
X386080Y482600D01*
X368300Y464820D02*
X368300Y414020D01*
X287020Y332740D01*
X279400Y332740D01*
D22*
X495300Y175260D03*
X838200Y429260D03*
D23*
X838200Y320040D01*
D22*
X434340Y175260D03*
D21*
X389100Y175260D02*
X389100Y108760D01*
X541500Y108760D02*
X541500Y175260D01*
D23*
X756920Y238760D02*
X838200Y320040D01*
D22*
X614680Y175260D03*
X678180Y238760D03*
D23*
X756920Y238760D01*
D21*
X236700Y175260D02*
X236700Y108760D01*
X236700Y175260D02*
X337820Y175260D01*
X370840Y175260D01*
X389100Y175260D01*
D22*
X337820Y175260D03*
X370840Y175260D03*
D21*
X140690Y175260D02*
X122930Y157500D01*
X140690Y175260D02*
X187960Y175260D01*
X236700Y175260D01*
D22*
X187960Y200660D03*
D21*
X187960Y175260D01*
D22*
X820420Y193040D03*
X820420Y177800D03*
X820420Y162560D03*
X820420Y147320D03*
X820420Y132080D03*
X820420Y116840D03*
X835660Y193040D03*
X866140Y193040D03*
X896620Y193040D03*
X927100Y193040D03*
X957580Y193040D03*
X850900Y193040D03*
X850900Y177800D03*
X850900Y162560D03*
X850900Y147320D03*
X850900Y132080D03*
X850900Y116840D03*
X835660Y116840D03*
X881380Y193040D03*
X911860Y193040D03*
X942340Y193040D03*
X972820Y193040D03*
X972820Y177800D03*
X972820Y162560D03*
X972820Y147320D03*
X972820Y132080D03*
X972820Y116840D03*
X957580Y116840D03*
X942340Y116840D03*
X927100Y116840D03*
X911860Y116840D03*
X896620Y116840D03*
X881380Y116840D03*
X866140Y116840D03*
X881380Y132080D03*
X881380Y147320D03*
X881380Y162560D03*
X881380Y177800D03*
X911860Y177800D03*
X911860Y162560D03*
X911860Y147320D03*
X911860Y132080D03*
X942340Y132080D03*
X942340Y147320D03*
X942340Y162560D03*
X942340Y177800D03*
X988060Y124460D03*
X988060Y109220D03*
X988060Y93980D03*
X988060Y78740D03*
X972820Y71120D03*
X942340Y73660D03*
X972820Y55880D03*
X988060Y53340D03*
X1003300Y53340D03*
X1003300Y38100D03*
X1003300Y22860D03*
X805180Y124460D03*
X805180Y109220D03*
X805180Y93980D03*
X805180Y78740D03*
X820420Y73660D03*
X835660Y73660D03*
X850900Y73660D03*
X866140Y73660D03*
X881380Y73660D03*
X896620Y73660D03*
X805180Y139700D03*
X805180Y154940D03*
X805180Y170180D03*
X988060Y139700D03*
X988060Y154940D03*
X988060Y170180D03*
X988060Y185420D03*
X988060Y200660D03*
X988060Y215900D03*
X988060Y231140D03*
X972820Y231140D03*
X957580Y231140D03*
X942340Y231140D03*
X927100Y231140D03*
X911860Y231140D03*
X896620Y231140D03*
X878840Y640080D03*
X881380Y231140D03*
X805180Y185420D03*
X805180Y200660D03*
X805180Y215900D03*
X805180Y231140D03*
X820420Y231140D03*
X995680Y246380D03*
X980440Y246380D03*
X965200Y246380D03*
X949960Y246380D03*
X934720Y246380D03*
X919480Y246380D03*
X904240Y246380D03*
X889000Y246380D03*
X988060Y261620D03*
X1003300Y261620D03*
X995680Y276860D03*
X1003300Y116840D03*
X1003300Y101600D03*
X1003300Y86360D03*
X1003300Y71120D03*
X1003300Y132080D03*
X1003300Y147320D03*
X1003300Y162560D03*
X1003300Y177800D03*
X1003300Y193040D03*
X1003300Y208280D03*
X1003300Y223520D03*
X538480Y612140D03*
X358140Y515620D03*
X462280Y149860D03*
X497840Y624840D03*
X132080Y243840D03*
X91440Y243840D03*
X76200Y251460D03*
X106680Y271780D03*
X127000Y271780D03*
X137160Y271780D03*
X116840Y271780D03*
X101600Y243840D03*
X111760Y243840D03*
X121920Y243840D03*
X142240Y243840D03*
X76200Y261620D03*
X91440Y327660D03*
X63500Y345440D03*
X132080Y327660D03*
X132080Y353060D03*
X154940Y353060D03*
X63500Y304800D03*
X520700Y574040D03*
X800100Y665480D03*
X876300Y568960D03*
X937260Y353060D03*
X985520Y444500D03*
X914400Y510540D03*
X853440Y513080D03*
X726440Y419100D03*
X868680Y322580D03*
X866140Y388620D03*
X939800Y449580D03*
X693420Y132080D03*
X739140Y132080D03*
X360680Y558800D03*
X360680Y472440D03*
X525780Y508000D03*
X563880Y414020D03*
X464820Y388620D03*
X513080Y378460D03*
X528320Y332740D03*
X508000Y332740D03*
X485140Y307340D03*
X548640Y274320D03*
X601980Y274320D03*
X469900Y259080D03*
X396240Y210820D03*
X99060Y619760D03*
X175260Y650240D03*
X152400Y421640D03*
X193040Y469900D03*
X93980Y426720D03*
X213360Y401320D03*
X208280Y345440D03*
X792480Y551180D03*
X619760Y645160D03*
X797560Y462280D03*
X787400Y406400D03*
X495300Y119380D03*
X530860Y205740D03*
X563880Y210820D03*
X510540Y276860D03*
X378460Y259080D03*
X375920Y236220D03*
X990600Y513080D03*
X601980Y342900D03*
X541020Y368300D03*
X581660Y408940D03*
X576580Y457200D03*
X558800Y462280D03*
X434340Y454660D03*
X431800Y406400D03*
X345440Y375920D03*
X408940Y502920D03*
X439420Y642620D03*
X485140Y645160D03*
X853440Y398780D03*
X909320Y353060D03*
X421640Y515620D03*
X485140Y472440D03*
X500380Y472440D03*
X454660Y520700D03*
X464820Y538480D03*
X497840Y505460D03*
X71120Y109220D03*
X236220Y35560D03*
X297180Y35560D03*
X160020Y314960D03*
X180340Y314960D03*
X180340Y284480D03*
X160020Y284480D03*
X83820Y304800D03*
X99060Y304800D03*
X30480Y256540D03*
X81280Y243840D03*
X68580Y378460D03*
D23*
X157480Y378460D01*
X170180Y365760D01*
D22*
X170180Y365760D03*
D21*
X622300Y220980D02*
X764540Y220980D01*
D22*
X243840Y220980D03*
D21*
X622300Y220980D01*
X764540Y220980D02*
X820420Y276860D01*
X947420Y276860D02*
X995680Y325120D01*
X995680Y365760D01*
X995680Y469900D01*
X995680Y485140D01*
X955040Y525780D01*
X838200Y525780D01*
X784860Y525780D01*
X820420Y276860D02*
X838200Y276860D01*
X947420Y276860D01*
D22*
X637540Y477520D03*
X995680Y325120D03*
X995680Y365760D03*
X995680Y469900D03*
X838200Y525780D03*
X784860Y525780D03*
X444500Y528320D03*
D23*
X444500Y574040D01*
D22*
X444500Y574040D03*
X543560Y355600D03*
D23*
X548640Y386080D02*
X485140Y386080D01*
X548640Y386080D02*
X609600Y386080D01*
X617220Y378460D01*
X617220Y369570D01*
D22*
X457200Y358140D03*
D23*
X485140Y386080D01*
X543560Y355600D02*
X548640Y360680D01*
X548640Y386080D01*
D21*
X685800Y525780D02*
X784860Y525780D01*
X685800Y525780D02*
X637540Y477520D01*
D22*
X622300Y220980D03*
D24*
X241300Y447040D03*
X256540Y447040D03*
X271780Y447040D03*
X271780Y401320D03*
X256540Y401320D03*
X241300Y401320D03*
D22*
X838200Y276860D03*
D21*
X97530Y172740D02*
X97530Y157500D01*
X97530Y172740D02*
X145770Y220980D01*
X243840Y220980D01*
D22*
X106680Y325120D03*
D23*
X106680Y355600D01*
X99060Y363220D01*
D22*
X99060Y363220D03*
X942340Y436880D03*
D23*
X942340Y396240D01*
X787400Y497840D02*
X619760Y330200D01*
X787400Y497840D02*
X835660Y497840D01*
X881380Y452120D02*
X881380Y375920D01*
X881380Y452120D02*
X835660Y497840D01*
X942340Y396240D02*
X911860Y365760D01*
X891540Y365760D02*
X881380Y375920D01*
X891540Y365760D02*
X911860Y365760D01*
X619760Y330200D02*
X576580Y330200D01*
X566420Y340360D02*
X566420Y356870D01*
X566420Y340360D02*
X576580Y330200D01*
D22*
X396240Y518160D03*
X485140Y340360D03*
D23*
X566420Y340360D01*
X396240Y477520D02*
X396240Y518160D01*
X396240Y477520D02*
X383540Y464820D01*
D22*
X383540Y406400D03*
D23*
X383540Y464820D01*
D22*
X93980Y411480D03*
D23*
X269240Y314960D02*
X360680Y314960D01*
X269240Y314960D02*
X172720Y411480D01*
X93980Y411480D01*
D22*
X444500Y398780D03*
D23*
X360680Y314960D01*
D22*
X93980Y391160D03*
D23*
X264160Y304800D02*
X368300Y304800D01*
X264160Y304800D02*
X177800Y391160D01*
X93980Y391160D01*
D22*
X462280Y398780D03*
D23*
X368300Y304800D01*
D22*
X358140Y421640D03*
D23*
X330200Y421640D01*
D22*
X330200Y421640D03*
X480060Y497840D03*
D23*
X480060Y510540D02*
X594360Y624840D01*
X480060Y510540D02*
X480060Y497840D01*
X594360Y624840D02*
X789940Y624840D01*
D22*
X789940Y624840D03*
X497840Y515620D03*
D23*
X599440Y617220D01*
X769620Y617220D01*
D22*
X769620Y617220D03*
X528320Y520700D03*
D23*
X609600Y601980D01*
D22*
X876300Y601980D03*
D23*
X609600Y601980D01*
D22*
X500380Y492760D03*
D23*
X528320Y520700D01*
D22*
X513200Y518040D03*
D23*
X513200Y518280D01*
X604520Y609600D01*
X883920Y609600D02*
X889000Y604520D01*
X889000Y591820D01*
X883920Y609600D02*
X604520Y609600D01*
D22*
X877000Y579820D03*
D23*
X889000Y591820D01*
D22*
X386080Y281940D03*
D23*
X426720Y281940D01*
X452120Y307340D01*
D22*
X452120Y307340D03*
X436880Y477520D03*
X347980Y345440D03*
D23*
X403860Y401320D01*
X424180Y477520D02*
X436880Y477520D01*
X424180Y477520D02*
X403860Y457200D01*
X403860Y401320D01*
D22*
X416560Y485140D03*
X340360Y350520D03*
D23*
X396240Y406400D01*
X396240Y464820D02*
X416560Y485140D01*
X396240Y464820D02*
X396240Y406400D01*
X419100Y452120D02*
X429260Y462280D01*
X538480Y462280D02*
X548640Y472440D01*
X419100Y452120D02*
X419100Y391160D01*
X429260Y462280D02*
X538480Y462280D01*
D22*
X548640Y472440D03*
D23*
X419100Y391160D02*
X363220Y335280D01*
D22*
X363220Y335280D03*
D23*
X848360Y683260D02*
X858640Y683260D01*
D22*
X848360Y683260D03*
D23*
X757040Y683260D02*
X703580Y683260D01*
D22*
X703580Y683260D03*
D23*
X655440Y683260D02*
X645160Y683260D01*
D22*
X645160Y683260D03*
D23*
X564000Y673100D02*
X553840Y683260D01*
X564000Y673100D02*
X571500Y673100D01*
D22*
X571500Y673100D03*
X467360Y469900D03*
D23*
X426720Y469900D02*
X411480Y454660D01*
X426720Y469900D02*
X467360Y469900D01*
X411480Y454660D02*
X411480Y396240D01*
X355600Y340360D01*
D22*
X355600Y340360D03*
X541020Y233680D03*
D23*
X579120Y233680D01*
D22*
X579120Y233680D03*
D23*
X477520Y683260D02*
X467240Y683260D01*
D22*
X477520Y683260D03*
D23*
X375920Y683260D02*
X365640Y683260D01*
D22*
X375920Y683260D03*
D23*
X274320Y683260D02*
X264040Y683260D01*
D22*
X274320Y683260D03*
D23*
X172720Y683260D02*
X162440Y683260D01*
D22*
X172720Y683260D03*
X896620Y383540D03*
X431800Y444500D03*
D23*
X713740Y444500D02*
X782320Y513080D01*
X840740Y513080D01*
X896620Y457200D01*
X896620Y383540D01*
X713740Y444500D02*
X431800Y444500D01*
D22*
X906780Y375920D03*
X449580Y436880D03*
D23*
X716280Y436880D02*
X784860Y505460D01*
X838200Y505460D01*
X889000Y454660D01*
X889000Y378460D01*
X894080Y373380D01*
X904240Y373380D01*
X906780Y375920D01*
X716280Y436880D02*
X449580Y436880D01*
D22*
X805180Y487680D03*
D23*
X812800Y355600D02*
X744220Y287020D01*
X812800Y355600D02*
X812800Y480060D01*
X805180Y487680D01*
D22*
X744220Y287020D03*
X825500Y487680D03*
D23*
X825500Y353060D02*
X759460Y287020D01*
X825500Y353060D02*
X825500Y487680D01*
D22*
X759460Y287020D03*
X734060Y393700D03*
D23*
X805180Y386080D02*
X805180Y363220D01*
X805180Y386080D02*
X797560Y393700D01*
X734060Y393700D01*
D22*
X728980Y287020D03*
D23*
X805180Y363220D01*
D22*
X53340Y518160D03*
D23*
X53340Y358140D01*
D22*
X40640Y345440D03*
D23*
X53340Y358140D01*
D22*
X566420Y472440D03*
D23*
X553720Y485140D01*
X533400Y485140D01*
X528320Y480060D01*
X474980Y480060D01*
X327660Y627380D01*
D22*
X175260Y627380D03*
D23*
X327660Y627380D01*
D22*
X849700Y229940D03*
D23*
X849700Y242640D02*
X866140Y259080D01*
X849700Y242640D02*
X849700Y229940D01*
X866140Y259080D02*
X957580Y259080D01*
X1008380Y309880D01*
X1008380Y523240D01*
X975360Y556260D01*
X821140Y556260D01*
X690160Y589280D02*
X657140Y556260D01*
X690160Y589280D02*
X788120Y589280D01*
X821140Y556260D01*
D22*
X769620Y655320D03*
D23*
X845700Y655320D01*
X873640Y683260D01*
D22*
X749300Y665480D03*
D23*
X772040Y683140D02*
X772040Y683260D01*
X772040Y683140D02*
X754380Y665480D01*
X749300Y665480D01*
D22*
X731520Y665480D03*
D23*
X728980Y668020D01*
X685680Y668020D01*
X670440Y683260D01*
D22*
X718820Y655320D03*
D23*
X713740Y660400D01*
X607060Y660400D01*
X584200Y683260D01*
X568840Y683260D01*
D22*
X259080Y655320D03*
D23*
X264160Y660400D01*
X408940Y660400D01*
X431800Y683260D01*
X452240Y683260D01*
D22*
X246380Y665480D03*
D23*
X330200Y683260D02*
X350640Y683260D01*
X330200Y683260D02*
X312420Y665480D01*
X246380Y665480D01*
D22*
X228600Y665480D03*
D23*
X238880Y683260D02*
X249040Y683260D01*
X228600Y672980D02*
X228600Y665480D01*
X228600Y672980D02*
X238880Y683260D01*
D22*
X210820Y655320D03*
D23*
X193040Y673100D01*
X157480Y673100D02*
X147440Y683140D01*
X147440Y683260D01*
X157480Y673100D02*
X193040Y673100D01*
D22*
X787400Y375920D03*
X698500Y287020D03*
D23*
X787400Y375920D01*
D22*
X772160Y375920D03*
D23*
X797560Y370840D02*
X713740Y287020D01*
X797560Y370840D02*
X797560Y381000D01*
X792480Y386080D01*
X782320Y386080D01*
X772160Y375920D01*
D22*
X713740Y287020D03*
M02*
