M48
;GenerationSoftware,Autodesk,EAGLE,9.5.0*%
;CreationDate,2021-02-21T21:46:29Z*%
FMAT,2
ICI,OFF
METRIC,TZ,000.000
T10C0.500
T9C0.600
T8C0.700
T7C0.800
T6C0.900
T5C1.000
T4C1.020
T3C1.600
T2C3.000
T1C3.200
%
G90
M71
T1
X16103Y6870
X4673Y6870
T2
X26670Y3556
X72390Y3556
X57150Y3556
X41910Y3556
T3
X2618Y3810
X18158Y3810
T4
X54150Y10876
X44910Y7876
X41910Y7876
X38910Y7876
X44910Y10876
X38910Y10876
X69390Y10876
X29670Y7876
X26670Y7876
X23670Y7876
X29670Y10876
X26670Y10876
X23670Y10876
X72390Y10876
X75390Y7876
X60150Y10876
X72390Y7876
X69390Y7876
X75390Y10876
X60150Y7876
X57150Y7876
X54150Y7876
X41910Y10876
X57150Y10876
T5
X1826Y43490
X1826Y36266
T6
X7213Y15750
X14833Y15750
X12293Y15750
X13563Y13210
X5943Y13210
X8483Y13210
X9753Y15750
X11023Y13210
T7
X24130Y44704
X25654Y44704
X27178Y44704
X27178Y40132
X25654Y40132
X24130Y40132
T8
X4445Y42299
X4445Y37457
T9
X59182Y36957
X59182Y35687
X57912Y36957
X61722Y36957
X56642Y36957
X56642Y35687
X61722Y35687
X60452Y36957
X60452Y35687
X57912Y35687
T10
X98806Y7874
X97282Y7112
X94234Y7366
X97282Y5588
X98806Y5334
X100330Y5334
X100330Y3810
X100330Y2286
X80518Y12446
X80518Y10922
X80518Y9398
X80518Y7874
X82042Y7366
X83566Y7366
X85090Y7366
X86614Y7366
X88138Y7366
X89662Y7366
X80518Y13970
X80518Y15494
X80518Y17018
X98806Y13970
X98806Y15494
X98806Y17018
X98806Y18542
X98806Y20066
X98806Y21590
X98806Y23114
X97282Y23114
X95758Y23114
X94234Y23114
X92710Y23114
X91186Y23114
X89662Y23114
X87884Y64008
X88138Y23114
X80518Y18542
X80518Y20066
X80518Y21590
X80518Y23114
X82042Y23114
X99568Y24638
X98044Y24638
X96520Y24638
X94996Y24638
X93472Y24638
X91948Y24638
X90424Y24638
X88900Y24638
X98806Y26162
X100330Y26162
X99568Y27686
X100330Y11684
X100330Y10160
X100330Y8636
X100330Y7112
X100330Y13208
X100330Y14732
X100330Y16256
X100330Y17780
X100330Y19304
X100330Y20828
X100330Y22352
X53848Y61214
X35814Y51562
X46228Y14986
X49784Y62484
X13208Y24384
X9144Y24384
X7620Y25146
X10668Y27178
X12700Y27178
X13716Y27178
X11684Y27178
X10160Y24384
X11176Y24384
X12192Y24384
X14224Y24384
X7620Y26162
X9144Y32766
X6350Y34544
X13208Y32766
X13208Y35306
X15494Y35306
X6350Y30480
X52070Y57404
X80010Y66548
X87630Y56896
X93726Y35306
X98552Y44450
X91440Y51054
X85344Y51308
X72644Y41910
X86868Y32258
X86614Y38862
X93980Y44958
X69342Y13208
X73914Y13208
X36068Y55880
X36068Y47244
X52578Y50800
X56388Y41402
X46482Y38862
X51308Y37846
X52832Y33274
X50800Y33274
X48514Y30734
X54864Y27432
X60198Y27432
X46990Y25908
X39624Y21082
X9906Y61976
X17526Y65024
X15240Y42164
X19304Y46990
X9398Y42672
X21336Y40132
X20828Y34544
X79248Y55118
X61976Y64516
X79756Y46228
X88138Y13208
X49530Y11938
X53086Y20574
X56388Y21082
X51054Y27686
X37846Y25908
X37592Y23622
X99060Y51308
X60198Y34290
X54102Y36830
X58166Y40894
X57658Y45720
X55880Y46228
X43434Y45466
X43180Y40640
X34544Y37592
X40894Y50292
X43942Y64262
X48514Y64516
X85344Y39878
X90932Y35306
X42164Y51562
X48514Y47244
X50038Y47244
X45466Y52070
X46482Y53848
X49784Y50546
X7112Y10922
X23622Y3556
X29718Y3556
X16002Y31496
X18034Y31496
X18034Y28448
X16002Y28448
X8382Y30480
X9906Y30480
X3048Y25654
X8128Y24384
X6858Y37846
X17018Y36576
X24384Y22098
X63754Y47752
X99568Y32512
X99568Y36576
X99568Y46990
X83820Y52578
X78486Y52578
X44450Y52832
X44450Y57404
X54356Y35560
X45720Y35814
X62230Y22098
X52832Y19304
X38608Y48260
X27940Y33274
X49530Y17526
X83820Y42926
X43434Y17526
X83820Y27686
X10668Y32512
X9906Y36322
X94234Y43688
X39624Y51816
X48514Y34036
X38354Y40640
X9398Y41148
X44450Y39878
X9398Y39116
X46228Y39878
X35814Y42164
X33020Y42164
X48006Y49784
X78994Y62484
X49784Y51562
X76962Y61722
X52832Y52070
X87630Y60198
X50038Y49276
X51320Y51804
X87700Y57982
X38608Y28194
X45212Y30734
X43688Y47752
X34798Y34544
X41656Y48514
X34036Y35052
X54864Y47244
X36322Y33528
X84836Y68326
X70358Y68326
X61468Y17526
X57150Y67310
X46736Y46990
X35560Y34036
X54102Y23368
X57912Y23368
X47752Y68326
X37592Y68326
X27432Y68326
X17272Y68326
X89662Y38354
X43180Y44450
X90678Y37592
X44958Y43688
X80518Y48768
X74422Y28702
X82550Y48768
X75946Y28702
X73406Y39370
X72898Y28702
X5334Y51816
X4064Y34544
X56642Y47244
X17526Y62738
X84970Y22994
X76962Y65532
X74930Y66548
X73152Y66548
X71882Y65532
X25908Y65532
X24638Y66548
X22860Y66548
X21082Y65532
X78740Y37592
X69850Y28702
X77216Y37592
X71374Y28702
X67818Y23876
X33782Y17526
X37084Y17526
X18796Y20066
X82042Y19304
X82042Y17780
X82042Y16256
X82042Y14732
X78740Y40640
X82042Y13208
X82042Y11684
X83566Y19304
X86614Y19304
X89662Y19304
X92710Y19304
X95758Y19304
X85090Y19304
X85090Y17780
X85090Y16256
X85090Y14732
X85090Y13208
X85090Y11684
X83566Y11684
X88138Y19304
X91186Y19304
X94234Y19304
X97282Y19304
X97282Y17780
X97282Y16256
X97282Y14732
X97282Y13208
X97282Y11684
X95758Y11684
X94234Y11684
X92710Y11684
X91186Y11684
X89662Y11684
X88138Y11684
X86614Y11684
X88138Y14732
X88138Y16256
X88138Y17780
X91186Y17780
X91186Y16256
X91186Y14732
X91186Y13208
X94234Y13208
X94234Y14732
X94234Y16256
X94234Y17780
X98806Y12446
X98806Y10922
X98806Y9398
X64516Y68326
M30