G04 EAGLE Gerber RS-274X export*
G75*
%MOMM*%
%FSLAX34Y34*%
%LPD*%
%INSolderpaste Top*%
%IPPOS*%
%AMOC8*
5,1,8,0,0,1.08239X$1,22.5*%
G01*
%ADD10R,1.000000X1.100000*%
%ADD11R,1.100000X1.000000*%
%ADD12R,2.400000X1.600000*%
%ADD13R,1.500000X1.300000*%
%ADD14R,1.371600X0.406400*%
%ADD15R,0.400000X1.500000*%
%ADD16R,1.219200X2.235200*%
%ADD17R,3.600000X2.200000*%
%ADD18R,1.200000X0.550000*%
%ADD19R,0.558800X1.270000*%
%ADD20R,0.558800X1.981200*%
%ADD21R,0.304800X0.990600*%
%ADD22R,0.254000X1.066800*%
%ADD23R,2.000000X2.000000*%
%ADD24R,1.300000X1.500000*%
%ADD25R,1.900000X2.000000*%
%ADD26R,0.800000X0.300000*%
%ADD27R,1.600000X2.400000*%
%ADD28R,0.355600X1.473200*%
%ADD29R,0.800000X1.800000*%
%ADD30R,1.200000X0.700000*%
%ADD31R,0.800000X1.000000*%
%ADD32R,1.200000X1.000000*%
%ADD33R,2.800000X1.000000*%
%ADD34R,1.900000X1.300000*%
%ADD35R,1.500000X2.500000*%
%ADD36R,0.800000X0.800000*%
%ADD37R,0.500000X0.900000*%
%ADD38R,1.000000X1.400000*%
%ADD39R,1.300000X1.100000*%
%ADD40R,1.702000X0.902000*%
%ADD41R,0.292000X0.906000*%
%ADD42C,0.292000*%
%ADD43R,1.800000X1.000000*%
%ADD44R,0.910000X1.220000*%
%ADD45R,1.220000X0.910000*%
%ADD46R,1.400000X1.800000*%
%ADD47R,1.000000X1.200000*%
%ADD48R,0.600000X0.900000*%
%ADD49R,1.000000X0.600000*%
%ADD50R,0.600000X0.600000*%
%ADD51R,0.350000X0.850000*%
%ADD52R,0.850000X0.350000*%
%ADD53R,1.016000X1.016000*%
%ADD54R,0.889000X0.787400*%
%ADD55R,0.559000X0.724000*%
%ADD56R,1.000000X1.600000*%
%ADD57R,1.500000X3.200000*%
%ADD58R,1.600200X1.168400*%
%ADD59R,1.400000X1.000000*%
%ADD60R,0.700000X0.250000*%
%ADD61R,0.250000X0.700000*%
%ADD62R,1.400000X1.400000*%


D10*
X528320Y361560D03*
X528320Y344560D03*
X899160Y34680D03*
X899160Y51680D03*
D11*
X814460Y657860D03*
X831460Y657860D03*
D10*
X591820Y446160D03*
X591820Y463160D03*
X469900Y323460D03*
X469900Y306460D03*
X508000Y361560D03*
X508000Y344560D03*
D11*
X488560Y355600D03*
X471560Y355600D03*
D12*
X114300Y451880D03*
X114300Y421880D03*
X193040Y424420D03*
X193040Y454420D03*
D11*
X613800Y396240D03*
X630800Y396240D03*
X138820Y363220D03*
X155820Y363220D03*
X65160Y426720D03*
X82160Y426720D03*
X613800Y421640D03*
X630800Y421640D03*
D10*
X619760Y616340D03*
X619760Y633340D03*
D13*
X91440Y276200D03*
X91440Y257200D03*
D10*
X116840Y323460D03*
X116840Y306460D03*
X210820Y183760D03*
X210820Y166760D03*
X317500Y212480D03*
X317500Y229480D03*
D11*
X458080Y375920D03*
X441080Y375920D03*
D10*
X208280Y381880D03*
X208280Y364880D03*
D11*
X819540Y248920D03*
X836540Y248920D03*
D14*
X43815Y398780D03*
X43815Y405193D03*
X43815Y385955D03*
X43815Y392368D03*
X43815Y411605D03*
D15*
X595970Y630610D03*
X589470Y630610D03*
X582970Y630610D03*
X576470Y630610D03*
X569970Y630610D03*
X563470Y630610D03*
X556970Y630610D03*
X550470Y630610D03*
X543970Y630610D03*
X537470Y630610D03*
X530970Y630610D03*
X524470Y630610D03*
X517970Y630610D03*
X511470Y630610D03*
X511470Y558110D03*
X517970Y558110D03*
X524470Y558110D03*
X530970Y558110D03*
X537470Y558110D03*
X543970Y558110D03*
X550470Y558110D03*
X556970Y558110D03*
X563470Y558110D03*
X569970Y558110D03*
X576470Y558110D03*
X582970Y558110D03*
X589470Y558110D03*
X595970Y558110D03*
D16*
X233426Y362712D03*
X256540Y362712D03*
X279654Y362712D03*
D17*
X256540Y424690D03*
D18*
X165401Y381660D03*
X165401Y391160D03*
X165401Y400660D03*
X139399Y400660D03*
X139399Y381660D03*
D10*
X80400Y342900D03*
X97400Y342900D03*
D11*
X922020Y69460D03*
X922020Y52460D03*
D10*
X488560Y375920D03*
X471560Y375920D03*
D11*
X63500Y275980D03*
X63500Y292980D03*
X152400Y433460D03*
X152400Y450460D03*
X63500Y333620D03*
X63500Y316620D03*
D10*
X184540Y401320D03*
X201540Y401320D03*
D11*
X185420Y364880D03*
X185420Y381880D03*
D10*
X492370Y584200D03*
X475370Y584200D03*
D19*
X229362Y169926D03*
X238760Y169926D03*
X248158Y169926D03*
X248158Y195834D03*
X238760Y195834D03*
X229362Y195834D03*
X285242Y169926D03*
X294640Y169926D03*
X304038Y169926D03*
X304038Y195834D03*
X294640Y195834D03*
X285242Y195834D03*
D20*
X402590Y267462D03*
X415290Y267462D03*
X427990Y267462D03*
X440690Y267462D03*
X440690Y316738D03*
X427990Y316738D03*
X415290Y316738D03*
X402590Y316738D03*
D21*
X518050Y196818D03*
X511550Y196818D03*
X505050Y196818D03*
X498550Y196818D03*
X492050Y196818D03*
X485550Y196818D03*
X479050Y196818D03*
X472550Y196818D03*
X472550Y138462D03*
X479050Y138462D03*
X485550Y138462D03*
X492050Y138462D03*
X498550Y138462D03*
X505050Y138462D03*
X511550Y138462D03*
X518050Y138462D03*
D22*
X541020Y273304D03*
X535940Y273304D03*
X530860Y273304D03*
X525780Y273304D03*
X525780Y244856D03*
X530860Y244856D03*
X535940Y244856D03*
X541020Y244856D03*
D23*
X90960Y637540D03*
X30960Y637540D03*
D24*
X156820Y256540D03*
X137820Y256540D03*
D25*
X356980Y443620D03*
X356980Y587620D03*
D26*
X372980Y563120D03*
X372980Y558120D03*
X372980Y553120D03*
X372980Y548120D03*
X372980Y543120D03*
X372980Y538120D03*
X372980Y533120D03*
X372980Y528120D03*
X372980Y523120D03*
X372980Y518120D03*
X372980Y513120D03*
X372980Y508120D03*
X372980Y503120D03*
X372980Y498120D03*
X372980Y493120D03*
X372980Y488120D03*
X372980Y483120D03*
X372980Y478120D03*
X372980Y473120D03*
X372980Y468120D03*
D11*
X486020Y248920D03*
X469020Y248920D03*
D10*
X601980Y245500D03*
X601980Y262500D03*
D27*
X487440Y223520D03*
X457440Y223520D03*
D28*
X541782Y138430D03*
X548386Y138430D03*
X554736Y138430D03*
X561340Y138430D03*
X567944Y138430D03*
X574294Y138430D03*
X580898Y138430D03*
X580898Y196850D03*
X574294Y196850D03*
X567944Y196850D03*
X561340Y196850D03*
X554736Y196850D03*
X548386Y196850D03*
X541782Y196850D03*
X448818Y196850D03*
X442214Y196850D03*
X435864Y196850D03*
X429260Y196850D03*
X422656Y196850D03*
X416306Y196850D03*
X409702Y196850D03*
X409702Y138430D03*
X416306Y138430D03*
X422656Y138430D03*
X429260Y138430D03*
X435864Y138430D03*
X442214Y138430D03*
X448818Y138430D03*
D11*
X405520Y223520D03*
X422520Y223520D03*
D10*
X508000Y103260D03*
X508000Y120260D03*
D29*
X827700Y93480D03*
X838700Y93480D03*
X849700Y93480D03*
X860700Y93480D03*
X871700Y93480D03*
X882700Y93480D03*
X893700Y93480D03*
X923700Y93480D03*
X934700Y93480D03*
X945700Y93480D03*
X956700Y93480D03*
X967700Y93480D03*
X967700Y213480D03*
X956700Y213480D03*
X945700Y213480D03*
X934700Y213480D03*
X923700Y213480D03*
X893700Y213480D03*
X882700Y213480D03*
X871700Y213480D03*
X860700Y213480D03*
X849700Y213480D03*
X838700Y213480D03*
X827700Y213480D03*
D18*
X804879Y621640D03*
X804879Y612140D03*
X804879Y602640D03*
X830881Y602640D03*
X830881Y621640D03*
D30*
X862060Y623820D03*
X862060Y612820D03*
X862060Y601820D03*
X862060Y590820D03*
X862060Y579820D03*
X862060Y568820D03*
X862060Y557820D03*
X862060Y546820D03*
D31*
X967060Y527820D03*
D30*
X862060Y537320D03*
D32*
X862060Y639320D03*
X905060Y527820D03*
D33*
X1008560Y527820D03*
D34*
X1013060Y662820D03*
D35*
X140180Y299720D03*
X200180Y299720D03*
D36*
X939800Y53340D03*
X955040Y53340D03*
D37*
X754950Y650350D03*
X746950Y650350D03*
X738950Y650350D03*
X730950Y650350D03*
X730950Y632350D03*
X738950Y632350D03*
X746950Y632350D03*
X754950Y632350D03*
X246950Y650350D03*
X238950Y650350D03*
X230950Y650350D03*
X222950Y650350D03*
X222950Y632350D03*
X230950Y632350D03*
X238950Y632350D03*
X246950Y632350D03*
X269940Y211980D03*
X277940Y211980D03*
X285940Y211980D03*
X293940Y211980D03*
X293940Y229980D03*
X285940Y229980D03*
X277940Y229980D03*
X269940Y229980D03*
D11*
X421640Y623960D03*
X421640Y640960D03*
X421640Y607940D03*
X421640Y590940D03*
D10*
X814460Y637540D03*
X831460Y637540D03*
D11*
X579120Y245500D03*
X579120Y262500D03*
X556260Y262500D03*
X556260Y245500D03*
X510540Y262500D03*
X510540Y245500D03*
X226060Y133740D03*
X226060Y150740D03*
X251460Y133740D03*
X251460Y150740D03*
X302260Y133740D03*
X302260Y150740D03*
X266700Y186300D03*
X266700Y169300D03*
X276860Y133740D03*
X276860Y150740D03*
X327660Y133740D03*
X327660Y150740D03*
X370840Y206620D03*
X370840Y189620D03*
X337820Y206620D03*
X337820Y189620D03*
D10*
X415680Y528320D03*
X432680Y528320D03*
X948300Y469900D03*
X931300Y469900D03*
X914400Y481720D03*
X914400Y498720D03*
X853440Y481720D03*
X853440Y498720D03*
D11*
X956700Y444500D03*
X973700Y444500D03*
D10*
X956700Y375920D03*
X973700Y375920D03*
X853440Y443620D03*
X853440Y460620D03*
D12*
X868680Y368060D03*
X868680Y338060D03*
D11*
X896620Y344560D03*
X896620Y361560D03*
D36*
X1008380Y345560D03*
X1008380Y360560D03*
D10*
X956700Y340360D03*
X973700Y340360D03*
D36*
X1008380Y426600D03*
X1008380Y411600D03*
X1008380Y378580D03*
X1008380Y393580D03*
D10*
X956700Y424180D03*
X973700Y424180D03*
D38*
X739140Y143940D03*
X729640Y165940D03*
X748640Y165940D03*
D11*
X805180Y504580D03*
X805180Y521580D03*
X825500Y504580D03*
X825500Y521580D03*
D10*
X805180Y535060D03*
X805180Y552060D03*
X825500Y535060D03*
X825500Y552060D03*
D11*
X818760Y431800D03*
X801760Y431800D03*
D39*
X892880Y499220D03*
X869880Y499220D03*
X869880Y481220D03*
X892880Y481220D03*
D10*
X38980Y309880D03*
X21980Y309880D03*
D18*
X477821Y615340D03*
X477821Y624840D03*
X477821Y634340D03*
X451819Y634340D03*
X451819Y615340D03*
D40*
X815340Y462280D03*
D41*
X805590Y448250D03*
D42*
X812090Y445180D02*
X812090Y451320D01*
X818590Y451320D02*
X818590Y445180D01*
X825090Y445180D02*
X825090Y451320D01*
X825090Y473240D02*
X825090Y479380D01*
X818590Y479380D02*
X818590Y473240D01*
X812090Y473240D02*
X812090Y479380D01*
X805590Y479380D02*
X805590Y473240D01*
D12*
X815340Y462280D03*
D43*
X591820Y421640D03*
X591820Y396640D03*
D44*
X46855Y256540D03*
X14105Y256540D03*
D45*
X116840Y260485D03*
X116840Y293235D03*
D46*
X118600Y363220D03*
X84600Y363220D03*
D47*
X63500Y244680D03*
X63500Y222680D03*
X637540Y443660D03*
X637540Y465660D03*
D48*
X100940Y316300D03*
X91440Y316300D03*
X81940Y316300D03*
X81940Y293300D03*
X91440Y293300D03*
X100940Y293300D03*
D49*
X66160Y390820D03*
D50*
X83160Y390820D03*
X83160Y411820D03*
X64160Y411820D03*
D51*
X916120Y456720D03*
X909620Y456720D03*
X903120Y456720D03*
X896620Y456720D03*
X890120Y456720D03*
X883620Y456720D03*
X877120Y456720D03*
D52*
X866620Y446220D03*
X866620Y439720D03*
X866620Y433220D03*
X866620Y426720D03*
X866620Y420220D03*
X866620Y413720D03*
X866620Y407220D03*
D51*
X877120Y396720D03*
X883620Y396720D03*
X890120Y396720D03*
X896620Y396720D03*
X903120Y396720D03*
X909620Y396720D03*
X916120Y396720D03*
D52*
X926620Y407220D03*
X926620Y413720D03*
X926620Y420220D03*
X926620Y426720D03*
X926620Y433220D03*
X926620Y439720D03*
X926620Y446220D03*
D53*
X909320Y439420D03*
X909320Y426720D03*
X909320Y414020D03*
X896620Y414020D03*
X896620Y426720D03*
X896620Y439420D03*
X883920Y439420D03*
X883920Y426720D03*
X883920Y414020D03*
D54*
X124460Y391414D03*
X104140Y381762D03*
X104140Y401066D03*
D38*
X121920Y671400D03*
X131420Y649400D03*
X112420Y649400D03*
X121920Y606220D03*
X112420Y628220D03*
X131420Y628220D03*
D55*
X39980Y294320D03*
X20980Y294320D03*
X30480Y274640D03*
D10*
X163440Y627380D03*
X146440Y627380D03*
X163440Y650240D03*
X146440Y650240D03*
D11*
X21980Y330200D03*
X38980Y330200D03*
D56*
X61280Y449580D03*
X91280Y449580D03*
D57*
X66200Y195580D03*
X108700Y195580D03*
D13*
X617220Y445160D03*
X617220Y464160D03*
D11*
X784860Y465700D03*
X784860Y448700D03*
D10*
X956700Y396240D03*
X973700Y396240D03*
D58*
X937260Y368300D03*
X937260Y383540D03*
D59*
X789100Y393700D03*
X811100Y403200D03*
X811100Y384200D03*
X789100Y358140D03*
X811100Y367640D03*
X811100Y348640D03*
D10*
X773040Y393700D03*
X756040Y393700D03*
X773040Y358140D03*
X756040Y358140D03*
D11*
X833120Y402200D03*
X833120Y385200D03*
X833120Y366640D03*
X833120Y349640D03*
X716280Y469020D03*
X716280Y486020D03*
X716280Y433460D03*
X716280Y450460D03*
D10*
X735720Y436880D03*
X752720Y436880D03*
X785740Y482600D03*
X768740Y482600D03*
D19*
X734822Y456946D03*
X744220Y456946D03*
X753618Y456946D03*
X753618Y482854D03*
X734822Y482854D03*
D60*
X554700Y396680D03*
X554700Y401680D03*
X554700Y406680D03*
X554700Y411680D03*
X554700Y416680D03*
X554700Y421680D03*
X554700Y426680D03*
X554700Y431680D03*
X554700Y436680D03*
X554700Y441680D03*
X554700Y446680D03*
X554700Y451680D03*
D61*
X548200Y458180D03*
X543200Y458180D03*
X538200Y458180D03*
X533200Y458180D03*
X528200Y458180D03*
X523200Y458180D03*
X518200Y458180D03*
X513200Y458180D03*
X508200Y458180D03*
X503200Y458180D03*
X498200Y458180D03*
X493200Y458180D03*
D60*
X486700Y451680D03*
X486700Y446680D03*
X486700Y441680D03*
X486700Y436680D03*
X486700Y431680D03*
X486700Y426680D03*
X486700Y421680D03*
X486700Y416680D03*
X486700Y411680D03*
X486700Y406680D03*
X486700Y401680D03*
X486700Y396680D03*
D61*
X493200Y390180D03*
X498200Y390180D03*
X503200Y390180D03*
X508200Y390180D03*
X513200Y390180D03*
X518200Y390180D03*
X523200Y390180D03*
X528200Y390180D03*
X533200Y390180D03*
X538200Y390180D03*
X543200Y390180D03*
X548200Y390180D03*
D62*
X537700Y407180D03*
X503700Y407180D03*
X520700Y407180D03*
X520700Y424180D03*
X503700Y424180D03*
X537700Y424180D03*
X520700Y441180D03*
X503700Y441180D03*
X537700Y441180D03*
D38*
X693420Y143940D03*
X683920Y165940D03*
X702920Y165940D03*
D24*
X15900Y233680D03*
X34900Y233680D03*
X15900Y213360D03*
X34900Y213360D03*
X15900Y193040D03*
X34900Y193040D03*
M02*
