G04 EAGLE Gerber RS-274X export*
G75*
%MOMM*%
%FSLAX34Y34*%
%LPD*%
%INBoard Outline*%
%IPPOS*%
%AMOC8*
5,1,8,0,0,1.08239X$1,22.5*%
G01*
%ADD10C,0.000000*%
%ADD11C,0.254000*%


D10*
X0Y0D02*
X1021080Y0D01*
X1021080Y698500D01*
X0Y698500D01*
X0Y579120D01*
X38100Y579120D01*
X38100Y452120D01*
X0Y452120D01*
X0Y0D01*
X40950Y422989D02*
X40952Y423107D01*
X40958Y423225D01*
X40968Y423343D01*
X40982Y423460D01*
X41000Y423577D01*
X41022Y423694D01*
X41047Y423809D01*
X41077Y423923D01*
X41111Y424037D01*
X41148Y424149D01*
X41189Y424260D01*
X41234Y424369D01*
X41282Y424477D01*
X41334Y424583D01*
X41390Y424688D01*
X41449Y424790D01*
X41511Y424890D01*
X41577Y424988D01*
X41646Y425084D01*
X41719Y425178D01*
X41794Y425269D01*
X41873Y425357D01*
X41954Y425443D01*
X42039Y425526D01*
X42126Y425606D01*
X42215Y425683D01*
X42308Y425757D01*
X42402Y425827D01*
X42499Y425895D01*
X42599Y425959D01*
X42700Y426020D01*
X42803Y426077D01*
X42909Y426131D01*
X43016Y426182D01*
X43124Y426228D01*
X43234Y426271D01*
X43346Y426310D01*
X43459Y426346D01*
X43573Y426377D01*
X43688Y426405D01*
X43803Y426429D01*
X43920Y426449D01*
X44037Y426465D01*
X44155Y426477D01*
X44273Y426485D01*
X44391Y426489D01*
X44509Y426489D01*
X44627Y426485D01*
X44745Y426477D01*
X44863Y426465D01*
X44980Y426449D01*
X45097Y426429D01*
X45212Y426405D01*
X45327Y426377D01*
X45441Y426346D01*
X45554Y426310D01*
X45666Y426271D01*
X45776Y426228D01*
X45884Y426182D01*
X45991Y426131D01*
X46097Y426077D01*
X46200Y426020D01*
X46301Y425959D01*
X46401Y425895D01*
X46498Y425827D01*
X46592Y425757D01*
X46685Y425683D01*
X46774Y425606D01*
X46861Y425526D01*
X46946Y425443D01*
X47027Y425357D01*
X47106Y425269D01*
X47181Y425178D01*
X47254Y425084D01*
X47323Y424988D01*
X47389Y424890D01*
X47451Y424790D01*
X47510Y424688D01*
X47566Y424583D01*
X47618Y424477D01*
X47666Y424369D01*
X47711Y424260D01*
X47752Y424149D01*
X47789Y424037D01*
X47823Y423923D01*
X47853Y423809D01*
X47878Y423694D01*
X47900Y423577D01*
X47918Y423460D01*
X47932Y423343D01*
X47942Y423225D01*
X47948Y423107D01*
X47950Y422989D01*
X47948Y422871D01*
X47942Y422753D01*
X47932Y422635D01*
X47918Y422518D01*
X47900Y422401D01*
X47878Y422284D01*
X47853Y422169D01*
X47823Y422055D01*
X47789Y421941D01*
X47752Y421829D01*
X47711Y421718D01*
X47666Y421609D01*
X47618Y421501D01*
X47566Y421395D01*
X47510Y421290D01*
X47451Y421188D01*
X47389Y421088D01*
X47323Y420990D01*
X47254Y420894D01*
X47181Y420800D01*
X47106Y420709D01*
X47027Y420621D01*
X46946Y420535D01*
X46861Y420452D01*
X46774Y420372D01*
X46685Y420295D01*
X46592Y420221D01*
X46498Y420151D01*
X46401Y420083D01*
X46301Y420019D01*
X46200Y419958D01*
X46097Y419901D01*
X45991Y419847D01*
X45884Y419796D01*
X45776Y419750D01*
X45666Y419707D01*
X45554Y419668D01*
X45441Y419632D01*
X45327Y419601D01*
X45212Y419573D01*
X45097Y419549D01*
X44980Y419529D01*
X44863Y419513D01*
X44745Y419501D01*
X44627Y419493D01*
X44509Y419489D01*
X44391Y419489D01*
X44273Y419493D01*
X44155Y419501D01*
X44037Y419513D01*
X43920Y419529D01*
X43803Y419549D01*
X43688Y419573D01*
X43573Y419601D01*
X43459Y419632D01*
X43346Y419668D01*
X43234Y419707D01*
X43124Y419750D01*
X43016Y419796D01*
X42909Y419847D01*
X42803Y419901D01*
X42700Y419958D01*
X42599Y420019D01*
X42499Y420083D01*
X42402Y420151D01*
X42308Y420221D01*
X42215Y420295D01*
X42126Y420372D01*
X42039Y420452D01*
X41954Y420535D01*
X41873Y420621D01*
X41794Y420709D01*
X41719Y420800D01*
X41646Y420894D01*
X41577Y420990D01*
X41511Y421088D01*
X41449Y421188D01*
X41390Y421290D01*
X41334Y421395D01*
X41282Y421501D01*
X41234Y421609D01*
X41189Y421718D01*
X41148Y421829D01*
X41111Y421941D01*
X41077Y422055D01*
X41047Y422169D01*
X41022Y422284D01*
X41000Y422401D01*
X40982Y422518D01*
X40968Y422635D01*
X40958Y422753D01*
X40952Y422871D01*
X40950Y422989D01*
X40950Y374571D02*
X40952Y374689D01*
X40958Y374807D01*
X40968Y374925D01*
X40982Y375042D01*
X41000Y375159D01*
X41022Y375276D01*
X41047Y375391D01*
X41077Y375505D01*
X41111Y375619D01*
X41148Y375731D01*
X41189Y375842D01*
X41234Y375951D01*
X41282Y376059D01*
X41334Y376165D01*
X41390Y376270D01*
X41449Y376372D01*
X41511Y376472D01*
X41577Y376570D01*
X41646Y376666D01*
X41719Y376760D01*
X41794Y376851D01*
X41873Y376939D01*
X41954Y377025D01*
X42039Y377108D01*
X42126Y377188D01*
X42215Y377265D01*
X42308Y377339D01*
X42402Y377409D01*
X42499Y377477D01*
X42599Y377541D01*
X42700Y377602D01*
X42803Y377659D01*
X42909Y377713D01*
X43016Y377764D01*
X43124Y377810D01*
X43234Y377853D01*
X43346Y377892D01*
X43459Y377928D01*
X43573Y377959D01*
X43688Y377987D01*
X43803Y378011D01*
X43920Y378031D01*
X44037Y378047D01*
X44155Y378059D01*
X44273Y378067D01*
X44391Y378071D01*
X44509Y378071D01*
X44627Y378067D01*
X44745Y378059D01*
X44863Y378047D01*
X44980Y378031D01*
X45097Y378011D01*
X45212Y377987D01*
X45327Y377959D01*
X45441Y377928D01*
X45554Y377892D01*
X45666Y377853D01*
X45776Y377810D01*
X45884Y377764D01*
X45991Y377713D01*
X46097Y377659D01*
X46200Y377602D01*
X46301Y377541D01*
X46401Y377477D01*
X46498Y377409D01*
X46592Y377339D01*
X46685Y377265D01*
X46774Y377188D01*
X46861Y377108D01*
X46946Y377025D01*
X47027Y376939D01*
X47106Y376851D01*
X47181Y376760D01*
X47254Y376666D01*
X47323Y376570D01*
X47389Y376472D01*
X47451Y376372D01*
X47510Y376270D01*
X47566Y376165D01*
X47618Y376059D01*
X47666Y375951D01*
X47711Y375842D01*
X47752Y375731D01*
X47789Y375619D01*
X47823Y375505D01*
X47853Y375391D01*
X47878Y375276D01*
X47900Y375159D01*
X47918Y375042D01*
X47932Y374925D01*
X47942Y374807D01*
X47948Y374689D01*
X47950Y374571D01*
X47948Y374453D01*
X47942Y374335D01*
X47932Y374217D01*
X47918Y374100D01*
X47900Y373983D01*
X47878Y373866D01*
X47853Y373751D01*
X47823Y373637D01*
X47789Y373523D01*
X47752Y373411D01*
X47711Y373300D01*
X47666Y373191D01*
X47618Y373083D01*
X47566Y372977D01*
X47510Y372872D01*
X47451Y372770D01*
X47389Y372670D01*
X47323Y372572D01*
X47254Y372476D01*
X47181Y372382D01*
X47106Y372291D01*
X47027Y372203D01*
X46946Y372117D01*
X46861Y372034D01*
X46774Y371954D01*
X46685Y371877D01*
X46592Y371803D01*
X46498Y371733D01*
X46401Y371665D01*
X46301Y371601D01*
X46200Y371540D01*
X46097Y371483D01*
X45991Y371429D01*
X45884Y371378D01*
X45776Y371332D01*
X45666Y371289D01*
X45554Y371250D01*
X45441Y371214D01*
X45327Y371183D01*
X45212Y371155D01*
X45097Y371131D01*
X44980Y371111D01*
X44863Y371095D01*
X44745Y371083D01*
X44627Y371075D01*
X44509Y371071D01*
X44391Y371071D01*
X44273Y371075D01*
X44155Y371083D01*
X44037Y371095D01*
X43920Y371111D01*
X43803Y371131D01*
X43688Y371155D01*
X43573Y371183D01*
X43459Y371214D01*
X43346Y371250D01*
X43234Y371289D01*
X43124Y371332D01*
X43016Y371378D01*
X42909Y371429D01*
X42803Y371483D01*
X42700Y371540D01*
X42599Y371601D01*
X42499Y371665D01*
X42402Y371733D01*
X42308Y371803D01*
X42215Y371877D01*
X42126Y371954D01*
X42039Y372034D01*
X41954Y372117D01*
X41873Y372203D01*
X41794Y372291D01*
X41719Y372382D01*
X41646Y372476D01*
X41577Y372572D01*
X41511Y372670D01*
X41449Y372770D01*
X41390Y372872D01*
X41334Y372977D01*
X41282Y373083D01*
X41234Y373191D01*
X41189Y373300D01*
X41148Y373411D01*
X41111Y373523D01*
X41077Y373637D01*
X41047Y373751D01*
X41022Y373866D01*
X41000Y373983D01*
X40982Y374100D01*
X40968Y374217D01*
X40958Y374335D01*
X40952Y374453D01*
X40950Y374571D01*
X145030Y68700D02*
X145035Y69093D01*
X145049Y69485D01*
X145073Y69877D01*
X145107Y70268D01*
X145150Y70659D01*
X145203Y71048D01*
X145266Y71435D01*
X145337Y71821D01*
X145419Y72206D01*
X145509Y72588D01*
X145610Y72967D01*
X145719Y73345D01*
X145838Y73719D01*
X145965Y74090D01*
X146102Y74458D01*
X146248Y74823D01*
X146403Y75184D01*
X146566Y75541D01*
X146738Y75894D01*
X146919Y76242D01*
X147109Y76586D01*
X147306Y76926D01*
X147512Y77260D01*
X147726Y77589D01*
X147949Y77913D01*
X148179Y78231D01*
X148416Y78544D01*
X148662Y78850D01*
X148915Y79151D01*
X149175Y79445D01*
X149442Y79733D01*
X149716Y80014D01*
X149997Y80288D01*
X150285Y80555D01*
X150579Y80815D01*
X150880Y81068D01*
X151186Y81314D01*
X151499Y81551D01*
X151817Y81781D01*
X152141Y82004D01*
X152470Y82218D01*
X152804Y82424D01*
X153144Y82621D01*
X153488Y82811D01*
X153836Y82992D01*
X154189Y83164D01*
X154546Y83327D01*
X154907Y83482D01*
X155272Y83628D01*
X155640Y83765D01*
X156011Y83892D01*
X156385Y84011D01*
X156763Y84120D01*
X157142Y84221D01*
X157524Y84311D01*
X157909Y84393D01*
X158295Y84464D01*
X158682Y84527D01*
X159071Y84580D01*
X159462Y84623D01*
X159853Y84657D01*
X160245Y84681D01*
X160637Y84695D01*
X161030Y84700D01*
X161423Y84695D01*
X161815Y84681D01*
X162207Y84657D01*
X162598Y84623D01*
X162989Y84580D01*
X163378Y84527D01*
X163765Y84464D01*
X164151Y84393D01*
X164536Y84311D01*
X164918Y84221D01*
X165297Y84120D01*
X165675Y84011D01*
X166049Y83892D01*
X166420Y83765D01*
X166788Y83628D01*
X167153Y83482D01*
X167514Y83327D01*
X167871Y83164D01*
X168224Y82992D01*
X168572Y82811D01*
X168916Y82621D01*
X169256Y82424D01*
X169590Y82218D01*
X169919Y82004D01*
X170243Y81781D01*
X170561Y81551D01*
X170874Y81314D01*
X171180Y81068D01*
X171481Y80815D01*
X171775Y80555D01*
X172063Y80288D01*
X172344Y80014D01*
X172618Y79733D01*
X172885Y79445D01*
X173145Y79151D01*
X173398Y78850D01*
X173644Y78544D01*
X173881Y78231D01*
X174111Y77913D01*
X174334Y77589D01*
X174548Y77260D01*
X174754Y76926D01*
X174951Y76586D01*
X175141Y76242D01*
X175322Y75894D01*
X175494Y75541D01*
X175657Y75184D01*
X175812Y74823D01*
X175958Y74458D01*
X176095Y74090D01*
X176222Y73719D01*
X176341Y73345D01*
X176450Y72967D01*
X176551Y72588D01*
X176641Y72206D01*
X176723Y71821D01*
X176794Y71435D01*
X176857Y71048D01*
X176910Y70659D01*
X176953Y70268D01*
X176987Y69877D01*
X177011Y69485D01*
X177025Y69093D01*
X177030Y68700D01*
X177025Y68307D01*
X177011Y67915D01*
X176987Y67523D01*
X176953Y67132D01*
X176910Y66741D01*
X176857Y66352D01*
X176794Y65965D01*
X176723Y65579D01*
X176641Y65194D01*
X176551Y64812D01*
X176450Y64433D01*
X176341Y64055D01*
X176222Y63681D01*
X176095Y63310D01*
X175958Y62942D01*
X175812Y62577D01*
X175657Y62216D01*
X175494Y61859D01*
X175322Y61506D01*
X175141Y61158D01*
X174951Y60814D01*
X174754Y60474D01*
X174548Y60140D01*
X174334Y59811D01*
X174111Y59487D01*
X173881Y59169D01*
X173644Y58856D01*
X173398Y58550D01*
X173145Y58249D01*
X172885Y57955D01*
X172618Y57667D01*
X172344Y57386D01*
X172063Y57112D01*
X171775Y56845D01*
X171481Y56585D01*
X171180Y56332D01*
X170874Y56086D01*
X170561Y55849D01*
X170243Y55619D01*
X169919Y55396D01*
X169590Y55182D01*
X169256Y54976D01*
X168916Y54779D01*
X168572Y54589D01*
X168224Y54408D01*
X167871Y54236D01*
X167514Y54073D01*
X167153Y53918D01*
X166788Y53772D01*
X166420Y53635D01*
X166049Y53508D01*
X165675Y53389D01*
X165297Y53280D01*
X164918Y53179D01*
X164536Y53089D01*
X164151Y53007D01*
X163765Y52936D01*
X163378Y52873D01*
X162989Y52820D01*
X162598Y52777D01*
X162207Y52743D01*
X161815Y52719D01*
X161423Y52705D01*
X161030Y52700D01*
X160637Y52705D01*
X160245Y52719D01*
X159853Y52743D01*
X159462Y52777D01*
X159071Y52820D01*
X158682Y52873D01*
X158295Y52936D01*
X157909Y53007D01*
X157524Y53089D01*
X157142Y53179D01*
X156763Y53280D01*
X156385Y53389D01*
X156011Y53508D01*
X155640Y53635D01*
X155272Y53772D01*
X154907Y53918D01*
X154546Y54073D01*
X154189Y54236D01*
X153836Y54408D01*
X153488Y54589D01*
X153144Y54779D01*
X152804Y54976D01*
X152470Y55182D01*
X152141Y55396D01*
X151817Y55619D01*
X151499Y55849D01*
X151186Y56086D01*
X150880Y56332D01*
X150579Y56585D01*
X150285Y56845D01*
X149997Y57112D01*
X149716Y57386D01*
X149442Y57667D01*
X149175Y57955D01*
X148915Y58249D01*
X148662Y58550D01*
X148416Y58856D01*
X148179Y59169D01*
X147949Y59487D01*
X147726Y59811D01*
X147512Y60140D01*
X147306Y60474D01*
X147109Y60814D01*
X146919Y61158D01*
X146738Y61506D01*
X146566Y61859D01*
X146403Y62216D01*
X146248Y62577D01*
X146102Y62942D01*
X145965Y63310D01*
X145838Y63681D01*
X145719Y64055D01*
X145610Y64433D01*
X145509Y64812D01*
X145419Y65194D01*
X145337Y65579D01*
X145266Y65965D01*
X145203Y66352D01*
X145150Y66741D01*
X145107Y67132D01*
X145073Y67523D01*
X145049Y67915D01*
X145035Y68307D01*
X145030Y68700D01*
X30730Y68700D02*
X30735Y69093D01*
X30749Y69485D01*
X30773Y69877D01*
X30807Y70268D01*
X30850Y70659D01*
X30903Y71048D01*
X30966Y71435D01*
X31037Y71821D01*
X31119Y72206D01*
X31209Y72588D01*
X31310Y72967D01*
X31419Y73345D01*
X31538Y73719D01*
X31665Y74090D01*
X31802Y74458D01*
X31948Y74823D01*
X32103Y75184D01*
X32266Y75541D01*
X32438Y75894D01*
X32619Y76242D01*
X32809Y76586D01*
X33006Y76926D01*
X33212Y77260D01*
X33426Y77589D01*
X33649Y77913D01*
X33879Y78231D01*
X34116Y78544D01*
X34362Y78850D01*
X34615Y79151D01*
X34875Y79445D01*
X35142Y79733D01*
X35416Y80014D01*
X35697Y80288D01*
X35985Y80555D01*
X36279Y80815D01*
X36580Y81068D01*
X36886Y81314D01*
X37199Y81551D01*
X37517Y81781D01*
X37841Y82004D01*
X38170Y82218D01*
X38504Y82424D01*
X38844Y82621D01*
X39188Y82811D01*
X39536Y82992D01*
X39889Y83164D01*
X40246Y83327D01*
X40607Y83482D01*
X40972Y83628D01*
X41340Y83765D01*
X41711Y83892D01*
X42085Y84011D01*
X42463Y84120D01*
X42842Y84221D01*
X43224Y84311D01*
X43609Y84393D01*
X43995Y84464D01*
X44382Y84527D01*
X44771Y84580D01*
X45162Y84623D01*
X45553Y84657D01*
X45945Y84681D01*
X46337Y84695D01*
X46730Y84700D01*
X47123Y84695D01*
X47515Y84681D01*
X47907Y84657D01*
X48298Y84623D01*
X48689Y84580D01*
X49078Y84527D01*
X49465Y84464D01*
X49851Y84393D01*
X50236Y84311D01*
X50618Y84221D01*
X50997Y84120D01*
X51375Y84011D01*
X51749Y83892D01*
X52120Y83765D01*
X52488Y83628D01*
X52853Y83482D01*
X53214Y83327D01*
X53571Y83164D01*
X53924Y82992D01*
X54272Y82811D01*
X54616Y82621D01*
X54956Y82424D01*
X55290Y82218D01*
X55619Y82004D01*
X55943Y81781D01*
X56261Y81551D01*
X56574Y81314D01*
X56880Y81068D01*
X57181Y80815D01*
X57475Y80555D01*
X57763Y80288D01*
X58044Y80014D01*
X58318Y79733D01*
X58585Y79445D01*
X58845Y79151D01*
X59098Y78850D01*
X59344Y78544D01*
X59581Y78231D01*
X59811Y77913D01*
X60034Y77589D01*
X60248Y77260D01*
X60454Y76926D01*
X60651Y76586D01*
X60841Y76242D01*
X61022Y75894D01*
X61194Y75541D01*
X61357Y75184D01*
X61512Y74823D01*
X61658Y74458D01*
X61795Y74090D01*
X61922Y73719D01*
X62041Y73345D01*
X62150Y72967D01*
X62251Y72588D01*
X62341Y72206D01*
X62423Y71821D01*
X62494Y71435D01*
X62557Y71048D01*
X62610Y70659D01*
X62653Y70268D01*
X62687Y69877D01*
X62711Y69485D01*
X62725Y69093D01*
X62730Y68700D01*
X62725Y68307D01*
X62711Y67915D01*
X62687Y67523D01*
X62653Y67132D01*
X62610Y66741D01*
X62557Y66352D01*
X62494Y65965D01*
X62423Y65579D01*
X62341Y65194D01*
X62251Y64812D01*
X62150Y64433D01*
X62041Y64055D01*
X61922Y63681D01*
X61795Y63310D01*
X61658Y62942D01*
X61512Y62577D01*
X61357Y62216D01*
X61194Y61859D01*
X61022Y61506D01*
X60841Y61158D01*
X60651Y60814D01*
X60454Y60474D01*
X60248Y60140D01*
X60034Y59811D01*
X59811Y59487D01*
X59581Y59169D01*
X59344Y58856D01*
X59098Y58550D01*
X58845Y58249D01*
X58585Y57955D01*
X58318Y57667D01*
X58044Y57386D01*
X57763Y57112D01*
X57475Y56845D01*
X57181Y56585D01*
X56880Y56332D01*
X56574Y56086D01*
X56261Y55849D01*
X55943Y55619D01*
X55619Y55396D01*
X55290Y55182D01*
X54956Y54976D01*
X54616Y54779D01*
X54272Y54589D01*
X53924Y54408D01*
X53571Y54236D01*
X53214Y54073D01*
X52853Y53918D01*
X52488Y53772D01*
X52120Y53635D01*
X51749Y53508D01*
X51375Y53389D01*
X50997Y53280D01*
X50618Y53179D01*
X50236Y53089D01*
X49851Y53007D01*
X49465Y52936D01*
X49078Y52873D01*
X48689Y52820D01*
X48298Y52777D01*
X47907Y52743D01*
X47515Y52719D01*
X47123Y52705D01*
X46730Y52700D01*
X46337Y52705D01*
X45945Y52719D01*
X45553Y52743D01*
X45162Y52777D01*
X44771Y52820D01*
X44382Y52873D01*
X43995Y52936D01*
X43609Y53007D01*
X43224Y53089D01*
X42842Y53179D01*
X42463Y53280D01*
X42085Y53389D01*
X41711Y53508D01*
X41340Y53635D01*
X40972Y53772D01*
X40607Y53918D01*
X40246Y54073D01*
X39889Y54236D01*
X39536Y54408D01*
X39188Y54589D01*
X38844Y54779D01*
X38504Y54976D01*
X38170Y55182D01*
X37841Y55396D01*
X37517Y55619D01*
X37199Y55849D01*
X36886Y56086D01*
X36580Y56332D01*
X36279Y56585D01*
X35985Y56845D01*
X35697Y57112D01*
X35416Y57386D01*
X35142Y57667D01*
X34875Y57955D01*
X34615Y58249D01*
X34362Y58550D01*
X34116Y58856D01*
X33879Y59169D01*
X33649Y59487D01*
X33426Y59811D01*
X33212Y60140D01*
X33006Y60474D01*
X32809Y60814D01*
X32619Y61158D01*
X32438Y61506D01*
X32266Y61859D01*
X32103Y62216D01*
X31948Y62577D01*
X31802Y62942D01*
X31665Y63310D01*
X31538Y63681D01*
X31419Y64055D01*
X31310Y64433D01*
X31209Y64812D01*
X31119Y65194D01*
X31037Y65579D01*
X30966Y65965D01*
X30903Y66352D01*
X30850Y66741D01*
X30807Y67132D01*
X30773Y67523D01*
X30749Y67915D01*
X30735Y68307D01*
X30730Y68700D01*
X556500Y35560D02*
X556505Y35928D01*
X556518Y36296D01*
X556541Y36663D01*
X556572Y37030D01*
X556613Y37396D01*
X556662Y37761D01*
X556721Y38124D01*
X556788Y38486D01*
X556864Y38847D01*
X556950Y39205D01*
X557043Y39561D01*
X557146Y39914D01*
X557257Y40265D01*
X557377Y40613D01*
X557505Y40958D01*
X557642Y41300D01*
X557787Y41639D01*
X557940Y41973D01*
X558102Y42304D01*
X558271Y42631D01*
X558449Y42953D01*
X558634Y43272D01*
X558827Y43585D01*
X559028Y43894D01*
X559236Y44197D01*
X559452Y44495D01*
X559675Y44788D01*
X559905Y45076D01*
X560142Y45358D01*
X560386Y45633D01*
X560636Y45903D01*
X560893Y46167D01*
X561157Y46424D01*
X561427Y46674D01*
X561702Y46918D01*
X561984Y47155D01*
X562272Y47385D01*
X562565Y47608D01*
X562863Y47824D01*
X563166Y48032D01*
X563475Y48233D01*
X563788Y48426D01*
X564107Y48611D01*
X564429Y48789D01*
X564756Y48958D01*
X565087Y49120D01*
X565421Y49273D01*
X565760Y49418D01*
X566102Y49555D01*
X566447Y49683D01*
X566795Y49803D01*
X567146Y49914D01*
X567499Y50017D01*
X567855Y50110D01*
X568213Y50196D01*
X568574Y50272D01*
X568936Y50339D01*
X569299Y50398D01*
X569664Y50447D01*
X570030Y50488D01*
X570397Y50519D01*
X570764Y50542D01*
X571132Y50555D01*
X571500Y50560D01*
X571868Y50555D01*
X572236Y50542D01*
X572603Y50519D01*
X572970Y50488D01*
X573336Y50447D01*
X573701Y50398D01*
X574064Y50339D01*
X574426Y50272D01*
X574787Y50196D01*
X575145Y50110D01*
X575501Y50017D01*
X575854Y49914D01*
X576205Y49803D01*
X576553Y49683D01*
X576898Y49555D01*
X577240Y49418D01*
X577579Y49273D01*
X577913Y49120D01*
X578244Y48958D01*
X578571Y48789D01*
X578893Y48611D01*
X579212Y48426D01*
X579525Y48233D01*
X579834Y48032D01*
X580137Y47824D01*
X580435Y47608D01*
X580728Y47385D01*
X581016Y47155D01*
X581298Y46918D01*
X581573Y46674D01*
X581843Y46424D01*
X582107Y46167D01*
X582364Y45903D01*
X582614Y45633D01*
X582858Y45358D01*
X583095Y45076D01*
X583325Y44788D01*
X583548Y44495D01*
X583764Y44197D01*
X583972Y43894D01*
X584173Y43585D01*
X584366Y43272D01*
X584551Y42953D01*
X584729Y42631D01*
X584898Y42304D01*
X585060Y41973D01*
X585213Y41639D01*
X585358Y41300D01*
X585495Y40958D01*
X585623Y40613D01*
X585743Y40265D01*
X585854Y39914D01*
X585957Y39561D01*
X586050Y39205D01*
X586136Y38847D01*
X586212Y38486D01*
X586279Y38124D01*
X586338Y37761D01*
X586387Y37396D01*
X586428Y37030D01*
X586459Y36663D01*
X586482Y36296D01*
X586495Y35928D01*
X586500Y35560D01*
X586495Y35192D01*
X586482Y34824D01*
X586459Y34457D01*
X586428Y34090D01*
X586387Y33724D01*
X586338Y33359D01*
X586279Y32996D01*
X586212Y32634D01*
X586136Y32273D01*
X586050Y31915D01*
X585957Y31559D01*
X585854Y31206D01*
X585743Y30855D01*
X585623Y30507D01*
X585495Y30162D01*
X585358Y29820D01*
X585213Y29481D01*
X585060Y29147D01*
X584898Y28816D01*
X584729Y28489D01*
X584551Y28167D01*
X584366Y27848D01*
X584173Y27535D01*
X583972Y27226D01*
X583764Y26923D01*
X583548Y26625D01*
X583325Y26332D01*
X583095Y26044D01*
X582858Y25762D01*
X582614Y25487D01*
X582364Y25217D01*
X582107Y24953D01*
X581843Y24696D01*
X581573Y24446D01*
X581298Y24202D01*
X581016Y23965D01*
X580728Y23735D01*
X580435Y23512D01*
X580137Y23296D01*
X579834Y23088D01*
X579525Y22887D01*
X579212Y22694D01*
X578893Y22509D01*
X578571Y22331D01*
X578244Y22162D01*
X577913Y22000D01*
X577579Y21847D01*
X577240Y21702D01*
X576898Y21565D01*
X576553Y21437D01*
X576205Y21317D01*
X575854Y21206D01*
X575501Y21103D01*
X575145Y21010D01*
X574787Y20924D01*
X574426Y20848D01*
X574064Y20781D01*
X573701Y20722D01*
X573336Y20673D01*
X572970Y20632D01*
X572603Y20601D01*
X572236Y20578D01*
X571868Y20565D01*
X571500Y20560D01*
X571132Y20565D01*
X570764Y20578D01*
X570397Y20601D01*
X570030Y20632D01*
X569664Y20673D01*
X569299Y20722D01*
X568936Y20781D01*
X568574Y20848D01*
X568213Y20924D01*
X567855Y21010D01*
X567499Y21103D01*
X567146Y21206D01*
X566795Y21317D01*
X566447Y21437D01*
X566102Y21565D01*
X565760Y21702D01*
X565421Y21847D01*
X565087Y22000D01*
X564756Y22162D01*
X564429Y22331D01*
X564107Y22509D01*
X563788Y22694D01*
X563475Y22887D01*
X563166Y23088D01*
X562863Y23296D01*
X562565Y23512D01*
X562272Y23735D01*
X561984Y23965D01*
X561702Y24202D01*
X561427Y24446D01*
X561157Y24696D01*
X560893Y24953D01*
X560636Y25217D01*
X560386Y25487D01*
X560142Y25762D01*
X559905Y26044D01*
X559675Y26332D01*
X559452Y26625D01*
X559236Y26923D01*
X559028Y27226D01*
X558827Y27535D01*
X558634Y27848D01*
X558449Y28167D01*
X558271Y28489D01*
X558102Y28816D01*
X557940Y29147D01*
X557787Y29481D01*
X557642Y29820D01*
X557505Y30162D01*
X557377Y30507D01*
X557257Y30855D01*
X557146Y31206D01*
X557043Y31559D01*
X556950Y31915D01*
X556864Y32273D01*
X556788Y32634D01*
X556721Y32996D01*
X556662Y33359D01*
X556613Y33724D01*
X556572Y34090D01*
X556541Y34457D01*
X556518Y34824D01*
X556505Y35192D01*
X556500Y35560D01*
X404100Y35560D02*
X404105Y35928D01*
X404118Y36296D01*
X404141Y36663D01*
X404172Y37030D01*
X404213Y37396D01*
X404262Y37761D01*
X404321Y38124D01*
X404388Y38486D01*
X404464Y38847D01*
X404550Y39205D01*
X404643Y39561D01*
X404746Y39914D01*
X404857Y40265D01*
X404977Y40613D01*
X405105Y40958D01*
X405242Y41300D01*
X405387Y41639D01*
X405540Y41973D01*
X405702Y42304D01*
X405871Y42631D01*
X406049Y42953D01*
X406234Y43272D01*
X406427Y43585D01*
X406628Y43894D01*
X406836Y44197D01*
X407052Y44495D01*
X407275Y44788D01*
X407505Y45076D01*
X407742Y45358D01*
X407986Y45633D01*
X408236Y45903D01*
X408493Y46167D01*
X408757Y46424D01*
X409027Y46674D01*
X409302Y46918D01*
X409584Y47155D01*
X409872Y47385D01*
X410165Y47608D01*
X410463Y47824D01*
X410766Y48032D01*
X411075Y48233D01*
X411388Y48426D01*
X411707Y48611D01*
X412029Y48789D01*
X412356Y48958D01*
X412687Y49120D01*
X413021Y49273D01*
X413360Y49418D01*
X413702Y49555D01*
X414047Y49683D01*
X414395Y49803D01*
X414746Y49914D01*
X415099Y50017D01*
X415455Y50110D01*
X415813Y50196D01*
X416174Y50272D01*
X416536Y50339D01*
X416899Y50398D01*
X417264Y50447D01*
X417630Y50488D01*
X417997Y50519D01*
X418364Y50542D01*
X418732Y50555D01*
X419100Y50560D01*
X419468Y50555D01*
X419836Y50542D01*
X420203Y50519D01*
X420570Y50488D01*
X420936Y50447D01*
X421301Y50398D01*
X421664Y50339D01*
X422026Y50272D01*
X422387Y50196D01*
X422745Y50110D01*
X423101Y50017D01*
X423454Y49914D01*
X423805Y49803D01*
X424153Y49683D01*
X424498Y49555D01*
X424840Y49418D01*
X425179Y49273D01*
X425513Y49120D01*
X425844Y48958D01*
X426171Y48789D01*
X426493Y48611D01*
X426812Y48426D01*
X427125Y48233D01*
X427434Y48032D01*
X427737Y47824D01*
X428035Y47608D01*
X428328Y47385D01*
X428616Y47155D01*
X428898Y46918D01*
X429173Y46674D01*
X429443Y46424D01*
X429707Y46167D01*
X429964Y45903D01*
X430214Y45633D01*
X430458Y45358D01*
X430695Y45076D01*
X430925Y44788D01*
X431148Y44495D01*
X431364Y44197D01*
X431572Y43894D01*
X431773Y43585D01*
X431966Y43272D01*
X432151Y42953D01*
X432329Y42631D01*
X432498Y42304D01*
X432660Y41973D01*
X432813Y41639D01*
X432958Y41300D01*
X433095Y40958D01*
X433223Y40613D01*
X433343Y40265D01*
X433454Y39914D01*
X433557Y39561D01*
X433650Y39205D01*
X433736Y38847D01*
X433812Y38486D01*
X433879Y38124D01*
X433938Y37761D01*
X433987Y37396D01*
X434028Y37030D01*
X434059Y36663D01*
X434082Y36296D01*
X434095Y35928D01*
X434100Y35560D01*
X434095Y35192D01*
X434082Y34824D01*
X434059Y34457D01*
X434028Y34090D01*
X433987Y33724D01*
X433938Y33359D01*
X433879Y32996D01*
X433812Y32634D01*
X433736Y32273D01*
X433650Y31915D01*
X433557Y31559D01*
X433454Y31206D01*
X433343Y30855D01*
X433223Y30507D01*
X433095Y30162D01*
X432958Y29820D01*
X432813Y29481D01*
X432660Y29147D01*
X432498Y28816D01*
X432329Y28489D01*
X432151Y28167D01*
X431966Y27848D01*
X431773Y27535D01*
X431572Y27226D01*
X431364Y26923D01*
X431148Y26625D01*
X430925Y26332D01*
X430695Y26044D01*
X430458Y25762D01*
X430214Y25487D01*
X429964Y25217D01*
X429707Y24953D01*
X429443Y24696D01*
X429173Y24446D01*
X428898Y24202D01*
X428616Y23965D01*
X428328Y23735D01*
X428035Y23512D01*
X427737Y23296D01*
X427434Y23088D01*
X427125Y22887D01*
X426812Y22694D01*
X426493Y22509D01*
X426171Y22331D01*
X425844Y22162D01*
X425513Y22000D01*
X425179Y21847D01*
X424840Y21702D01*
X424498Y21565D01*
X424153Y21437D01*
X423805Y21317D01*
X423454Y21206D01*
X423101Y21103D01*
X422745Y21010D01*
X422387Y20924D01*
X422026Y20848D01*
X421664Y20781D01*
X421301Y20722D01*
X420936Y20673D01*
X420570Y20632D01*
X420203Y20601D01*
X419836Y20578D01*
X419468Y20565D01*
X419100Y20560D01*
X418732Y20565D01*
X418364Y20578D01*
X417997Y20601D01*
X417630Y20632D01*
X417264Y20673D01*
X416899Y20722D01*
X416536Y20781D01*
X416174Y20848D01*
X415813Y20924D01*
X415455Y21010D01*
X415099Y21103D01*
X414746Y21206D01*
X414395Y21317D01*
X414047Y21437D01*
X413702Y21565D01*
X413360Y21702D01*
X413021Y21847D01*
X412687Y22000D01*
X412356Y22162D01*
X412029Y22331D01*
X411707Y22509D01*
X411388Y22694D01*
X411075Y22887D01*
X410766Y23088D01*
X410463Y23296D01*
X410165Y23512D01*
X409872Y23735D01*
X409584Y23965D01*
X409302Y24202D01*
X409027Y24446D01*
X408757Y24696D01*
X408493Y24953D01*
X408236Y25217D01*
X407986Y25487D01*
X407742Y25762D01*
X407505Y26044D01*
X407275Y26332D01*
X407052Y26625D01*
X406836Y26923D01*
X406628Y27226D01*
X406427Y27535D01*
X406234Y27848D01*
X406049Y28167D01*
X405871Y28489D01*
X405702Y28816D01*
X405540Y29147D01*
X405387Y29481D01*
X405242Y29820D01*
X405105Y30162D01*
X404977Y30507D01*
X404857Y30855D01*
X404746Y31206D01*
X404643Y31559D01*
X404550Y31915D01*
X404464Y32273D01*
X404388Y32634D01*
X404321Y32996D01*
X404262Y33359D01*
X404213Y33724D01*
X404172Y34090D01*
X404141Y34457D01*
X404118Y34824D01*
X404105Y35192D01*
X404100Y35560D01*
X251700Y35560D02*
X251705Y35928D01*
X251718Y36296D01*
X251741Y36663D01*
X251772Y37030D01*
X251813Y37396D01*
X251862Y37761D01*
X251921Y38124D01*
X251988Y38486D01*
X252064Y38847D01*
X252150Y39205D01*
X252243Y39561D01*
X252346Y39914D01*
X252457Y40265D01*
X252577Y40613D01*
X252705Y40958D01*
X252842Y41300D01*
X252987Y41639D01*
X253140Y41973D01*
X253302Y42304D01*
X253471Y42631D01*
X253649Y42953D01*
X253834Y43272D01*
X254027Y43585D01*
X254228Y43894D01*
X254436Y44197D01*
X254652Y44495D01*
X254875Y44788D01*
X255105Y45076D01*
X255342Y45358D01*
X255586Y45633D01*
X255836Y45903D01*
X256093Y46167D01*
X256357Y46424D01*
X256627Y46674D01*
X256902Y46918D01*
X257184Y47155D01*
X257472Y47385D01*
X257765Y47608D01*
X258063Y47824D01*
X258366Y48032D01*
X258675Y48233D01*
X258988Y48426D01*
X259307Y48611D01*
X259629Y48789D01*
X259956Y48958D01*
X260287Y49120D01*
X260621Y49273D01*
X260960Y49418D01*
X261302Y49555D01*
X261647Y49683D01*
X261995Y49803D01*
X262346Y49914D01*
X262699Y50017D01*
X263055Y50110D01*
X263413Y50196D01*
X263774Y50272D01*
X264136Y50339D01*
X264499Y50398D01*
X264864Y50447D01*
X265230Y50488D01*
X265597Y50519D01*
X265964Y50542D01*
X266332Y50555D01*
X266700Y50560D01*
X267068Y50555D01*
X267436Y50542D01*
X267803Y50519D01*
X268170Y50488D01*
X268536Y50447D01*
X268901Y50398D01*
X269264Y50339D01*
X269626Y50272D01*
X269987Y50196D01*
X270345Y50110D01*
X270701Y50017D01*
X271054Y49914D01*
X271405Y49803D01*
X271753Y49683D01*
X272098Y49555D01*
X272440Y49418D01*
X272779Y49273D01*
X273113Y49120D01*
X273444Y48958D01*
X273771Y48789D01*
X274093Y48611D01*
X274412Y48426D01*
X274725Y48233D01*
X275034Y48032D01*
X275337Y47824D01*
X275635Y47608D01*
X275928Y47385D01*
X276216Y47155D01*
X276498Y46918D01*
X276773Y46674D01*
X277043Y46424D01*
X277307Y46167D01*
X277564Y45903D01*
X277814Y45633D01*
X278058Y45358D01*
X278295Y45076D01*
X278525Y44788D01*
X278748Y44495D01*
X278964Y44197D01*
X279172Y43894D01*
X279373Y43585D01*
X279566Y43272D01*
X279751Y42953D01*
X279929Y42631D01*
X280098Y42304D01*
X280260Y41973D01*
X280413Y41639D01*
X280558Y41300D01*
X280695Y40958D01*
X280823Y40613D01*
X280943Y40265D01*
X281054Y39914D01*
X281157Y39561D01*
X281250Y39205D01*
X281336Y38847D01*
X281412Y38486D01*
X281479Y38124D01*
X281538Y37761D01*
X281587Y37396D01*
X281628Y37030D01*
X281659Y36663D01*
X281682Y36296D01*
X281695Y35928D01*
X281700Y35560D01*
X281695Y35192D01*
X281682Y34824D01*
X281659Y34457D01*
X281628Y34090D01*
X281587Y33724D01*
X281538Y33359D01*
X281479Y32996D01*
X281412Y32634D01*
X281336Y32273D01*
X281250Y31915D01*
X281157Y31559D01*
X281054Y31206D01*
X280943Y30855D01*
X280823Y30507D01*
X280695Y30162D01*
X280558Y29820D01*
X280413Y29481D01*
X280260Y29147D01*
X280098Y28816D01*
X279929Y28489D01*
X279751Y28167D01*
X279566Y27848D01*
X279373Y27535D01*
X279172Y27226D01*
X278964Y26923D01*
X278748Y26625D01*
X278525Y26332D01*
X278295Y26044D01*
X278058Y25762D01*
X277814Y25487D01*
X277564Y25217D01*
X277307Y24953D01*
X277043Y24696D01*
X276773Y24446D01*
X276498Y24202D01*
X276216Y23965D01*
X275928Y23735D01*
X275635Y23512D01*
X275337Y23296D01*
X275034Y23088D01*
X274725Y22887D01*
X274412Y22694D01*
X274093Y22509D01*
X273771Y22331D01*
X273444Y22162D01*
X273113Y22000D01*
X272779Y21847D01*
X272440Y21702D01*
X272098Y21565D01*
X271753Y21437D01*
X271405Y21317D01*
X271054Y21206D01*
X270701Y21103D01*
X270345Y21010D01*
X269987Y20924D01*
X269626Y20848D01*
X269264Y20781D01*
X268901Y20722D01*
X268536Y20673D01*
X268170Y20632D01*
X267803Y20601D01*
X267436Y20578D01*
X267068Y20565D01*
X266700Y20560D01*
X266332Y20565D01*
X265964Y20578D01*
X265597Y20601D01*
X265230Y20632D01*
X264864Y20673D01*
X264499Y20722D01*
X264136Y20781D01*
X263774Y20848D01*
X263413Y20924D01*
X263055Y21010D01*
X262699Y21103D01*
X262346Y21206D01*
X261995Y21317D01*
X261647Y21437D01*
X261302Y21565D01*
X260960Y21702D01*
X260621Y21847D01*
X260287Y22000D01*
X259956Y22162D01*
X259629Y22331D01*
X259307Y22509D01*
X258988Y22694D01*
X258675Y22887D01*
X258366Y23088D01*
X258063Y23296D01*
X257765Y23512D01*
X257472Y23735D01*
X257184Y23965D01*
X256902Y24202D01*
X256627Y24446D01*
X256357Y24696D01*
X256093Y24953D01*
X255836Y25217D01*
X255586Y25487D01*
X255342Y25762D01*
X255105Y26044D01*
X254875Y26332D01*
X254652Y26625D01*
X254436Y26923D01*
X254228Y27226D01*
X254027Y27535D01*
X253834Y27848D01*
X253649Y28167D01*
X253471Y28489D01*
X253302Y28816D01*
X253140Y29147D01*
X252987Y29481D01*
X252842Y29820D01*
X252705Y30162D01*
X252577Y30507D01*
X252457Y30855D01*
X252346Y31206D01*
X252243Y31559D01*
X252150Y31915D01*
X252064Y32273D01*
X251988Y32634D01*
X251921Y32996D01*
X251862Y33359D01*
X251813Y33724D01*
X251772Y34090D01*
X251741Y34457D01*
X251718Y34824D01*
X251705Y35192D01*
X251700Y35560D01*
X708900Y35560D02*
X708905Y35928D01*
X708918Y36296D01*
X708941Y36663D01*
X708972Y37030D01*
X709013Y37396D01*
X709062Y37761D01*
X709121Y38124D01*
X709188Y38486D01*
X709264Y38847D01*
X709350Y39205D01*
X709443Y39561D01*
X709546Y39914D01*
X709657Y40265D01*
X709777Y40613D01*
X709905Y40958D01*
X710042Y41300D01*
X710187Y41639D01*
X710340Y41973D01*
X710502Y42304D01*
X710671Y42631D01*
X710849Y42953D01*
X711034Y43272D01*
X711227Y43585D01*
X711428Y43894D01*
X711636Y44197D01*
X711852Y44495D01*
X712075Y44788D01*
X712305Y45076D01*
X712542Y45358D01*
X712786Y45633D01*
X713036Y45903D01*
X713293Y46167D01*
X713557Y46424D01*
X713827Y46674D01*
X714102Y46918D01*
X714384Y47155D01*
X714672Y47385D01*
X714965Y47608D01*
X715263Y47824D01*
X715566Y48032D01*
X715875Y48233D01*
X716188Y48426D01*
X716507Y48611D01*
X716829Y48789D01*
X717156Y48958D01*
X717487Y49120D01*
X717821Y49273D01*
X718160Y49418D01*
X718502Y49555D01*
X718847Y49683D01*
X719195Y49803D01*
X719546Y49914D01*
X719899Y50017D01*
X720255Y50110D01*
X720613Y50196D01*
X720974Y50272D01*
X721336Y50339D01*
X721699Y50398D01*
X722064Y50447D01*
X722430Y50488D01*
X722797Y50519D01*
X723164Y50542D01*
X723532Y50555D01*
X723900Y50560D01*
X724268Y50555D01*
X724636Y50542D01*
X725003Y50519D01*
X725370Y50488D01*
X725736Y50447D01*
X726101Y50398D01*
X726464Y50339D01*
X726826Y50272D01*
X727187Y50196D01*
X727545Y50110D01*
X727901Y50017D01*
X728254Y49914D01*
X728605Y49803D01*
X728953Y49683D01*
X729298Y49555D01*
X729640Y49418D01*
X729979Y49273D01*
X730313Y49120D01*
X730644Y48958D01*
X730971Y48789D01*
X731293Y48611D01*
X731612Y48426D01*
X731925Y48233D01*
X732234Y48032D01*
X732537Y47824D01*
X732835Y47608D01*
X733128Y47385D01*
X733416Y47155D01*
X733698Y46918D01*
X733973Y46674D01*
X734243Y46424D01*
X734507Y46167D01*
X734764Y45903D01*
X735014Y45633D01*
X735258Y45358D01*
X735495Y45076D01*
X735725Y44788D01*
X735948Y44495D01*
X736164Y44197D01*
X736372Y43894D01*
X736573Y43585D01*
X736766Y43272D01*
X736951Y42953D01*
X737129Y42631D01*
X737298Y42304D01*
X737460Y41973D01*
X737613Y41639D01*
X737758Y41300D01*
X737895Y40958D01*
X738023Y40613D01*
X738143Y40265D01*
X738254Y39914D01*
X738357Y39561D01*
X738450Y39205D01*
X738536Y38847D01*
X738612Y38486D01*
X738679Y38124D01*
X738738Y37761D01*
X738787Y37396D01*
X738828Y37030D01*
X738859Y36663D01*
X738882Y36296D01*
X738895Y35928D01*
X738900Y35560D01*
X738895Y35192D01*
X738882Y34824D01*
X738859Y34457D01*
X738828Y34090D01*
X738787Y33724D01*
X738738Y33359D01*
X738679Y32996D01*
X738612Y32634D01*
X738536Y32273D01*
X738450Y31915D01*
X738357Y31559D01*
X738254Y31206D01*
X738143Y30855D01*
X738023Y30507D01*
X737895Y30162D01*
X737758Y29820D01*
X737613Y29481D01*
X737460Y29147D01*
X737298Y28816D01*
X737129Y28489D01*
X736951Y28167D01*
X736766Y27848D01*
X736573Y27535D01*
X736372Y27226D01*
X736164Y26923D01*
X735948Y26625D01*
X735725Y26332D01*
X735495Y26044D01*
X735258Y25762D01*
X735014Y25487D01*
X734764Y25217D01*
X734507Y24953D01*
X734243Y24696D01*
X733973Y24446D01*
X733698Y24202D01*
X733416Y23965D01*
X733128Y23735D01*
X732835Y23512D01*
X732537Y23296D01*
X732234Y23088D01*
X731925Y22887D01*
X731612Y22694D01*
X731293Y22509D01*
X730971Y22331D01*
X730644Y22162D01*
X730313Y22000D01*
X729979Y21847D01*
X729640Y21702D01*
X729298Y21565D01*
X728953Y21437D01*
X728605Y21317D01*
X728254Y21206D01*
X727901Y21103D01*
X727545Y21010D01*
X727187Y20924D01*
X726826Y20848D01*
X726464Y20781D01*
X726101Y20722D01*
X725736Y20673D01*
X725370Y20632D01*
X725003Y20601D01*
X724636Y20578D01*
X724268Y20565D01*
X723900Y20560D01*
X723532Y20565D01*
X723164Y20578D01*
X722797Y20601D01*
X722430Y20632D01*
X722064Y20673D01*
X721699Y20722D01*
X721336Y20781D01*
X720974Y20848D01*
X720613Y20924D01*
X720255Y21010D01*
X719899Y21103D01*
X719546Y21206D01*
X719195Y21317D01*
X718847Y21437D01*
X718502Y21565D01*
X718160Y21702D01*
X717821Y21847D01*
X717487Y22000D01*
X717156Y22162D01*
X716829Y22331D01*
X716507Y22509D01*
X716188Y22694D01*
X715875Y22887D01*
X715566Y23088D01*
X715263Y23296D01*
X714965Y23512D01*
X714672Y23735D01*
X714384Y23965D01*
X714102Y24202D01*
X713827Y24446D01*
X713557Y24696D01*
X713293Y24953D01*
X713036Y25217D01*
X712786Y25487D01*
X712542Y25762D01*
X712305Y26044D01*
X712075Y26332D01*
X711852Y26625D01*
X711636Y26923D01*
X711428Y27226D01*
X711227Y27535D01*
X711034Y27848D01*
X710849Y28167D01*
X710671Y28489D01*
X710502Y28816D01*
X710340Y29147D01*
X710187Y29481D01*
X710042Y29820D01*
X709905Y30162D01*
X709777Y30507D01*
X709657Y30855D01*
X709546Y31206D01*
X709443Y31559D01*
X709350Y31915D01*
X709264Y32273D01*
X709188Y32634D01*
X709121Y32996D01*
X709062Y33359D01*
X709013Y33724D01*
X708972Y34090D01*
X708941Y34457D01*
X708918Y34824D01*
X708905Y35192D01*
X708900Y35560D01*
D11*
X0Y0D02*
X1021080Y0D01*
X1021080Y698500D01*
X0Y698500D01*
X0Y579120D01*
X38100Y579120D01*
X38100Y452120D01*
X0Y452120D01*
X0Y0D01*
X44221Y419489D02*
X43766Y419549D01*
X43323Y419668D01*
X42899Y419844D01*
X42501Y420073D01*
X42137Y420352D01*
X41813Y420677D01*
X41534Y421041D01*
X41304Y421438D01*
X41129Y421862D01*
X41010Y422305D01*
X40950Y422760D01*
X40950Y423219D01*
X41010Y423674D01*
X41129Y424117D01*
X41304Y424541D01*
X41534Y424938D01*
X41813Y425302D01*
X42137Y425626D01*
X42501Y425906D01*
X42899Y426135D01*
X43323Y426311D01*
X43766Y426430D01*
X44221Y426489D01*
X44679Y426489D01*
X45134Y426430D01*
X45577Y426311D01*
X46001Y426135D01*
X46399Y425906D01*
X46763Y425626D01*
X47087Y425302D01*
X47366Y424938D01*
X47596Y424541D01*
X47771Y424117D01*
X47890Y423674D01*
X47950Y423219D01*
X47950Y422760D01*
X47890Y422305D01*
X47771Y421862D01*
X47596Y421438D01*
X47366Y421041D01*
X47087Y420677D01*
X46763Y420352D01*
X46399Y420073D01*
X46001Y419844D01*
X45577Y419668D01*
X45134Y419549D01*
X44679Y419489D01*
X44221Y419489D01*
X44221Y371071D02*
X43766Y371131D01*
X43323Y371249D01*
X42899Y371425D01*
X42501Y371654D01*
X42137Y371934D01*
X41813Y372258D01*
X41534Y372622D01*
X41304Y373019D01*
X41129Y373443D01*
X41010Y373886D01*
X40950Y374341D01*
X40950Y374800D01*
X41010Y375255D01*
X41129Y375698D01*
X41304Y376122D01*
X41534Y376519D01*
X41813Y376883D01*
X42137Y377208D01*
X42501Y377487D01*
X42899Y377716D01*
X43323Y377892D01*
X43766Y378011D01*
X44221Y378071D01*
X44679Y378071D01*
X45134Y378011D01*
X45577Y377892D01*
X46001Y377716D01*
X46399Y377487D01*
X46763Y377208D01*
X47087Y376883D01*
X47366Y376519D01*
X47596Y376122D01*
X47771Y375698D01*
X47890Y375255D01*
X47950Y374800D01*
X47950Y374341D01*
X47890Y373886D01*
X47771Y373443D01*
X47596Y373019D01*
X47366Y372622D01*
X47087Y372258D01*
X46763Y371934D01*
X46399Y371654D01*
X46001Y371425D01*
X45577Y371249D01*
X45134Y371131D01*
X44679Y371071D01*
X44221Y371071D01*
X161554Y84700D02*
X162599Y84632D01*
X163638Y84495D01*
X164665Y84290D01*
X165677Y84019D01*
X166669Y83683D01*
X167637Y83282D01*
X168576Y82818D01*
X169484Y82295D01*
X170355Y81713D01*
X171186Y81075D01*
X171973Y80384D01*
X172714Y79643D01*
X173405Y78856D01*
X174043Y78025D01*
X174625Y77154D01*
X175148Y76246D01*
X175612Y75307D01*
X176013Y74339D01*
X176349Y73347D01*
X176620Y72335D01*
X176825Y71308D01*
X176962Y70269D01*
X177030Y69224D01*
X177030Y68176D01*
X176962Y67131D01*
X176825Y66092D01*
X176620Y65065D01*
X176349Y64053D01*
X176013Y63061D01*
X175612Y62093D01*
X175148Y61154D01*
X174625Y60246D01*
X174043Y59375D01*
X173405Y58544D01*
X172714Y57757D01*
X171973Y57016D01*
X171186Y56325D01*
X170355Y55688D01*
X169484Y55106D01*
X168576Y54582D01*
X167637Y54118D01*
X166669Y53717D01*
X165677Y53381D01*
X164665Y53110D01*
X163638Y52905D01*
X162599Y52769D01*
X161554Y52700D01*
X160506Y52700D01*
X159461Y52769D01*
X158422Y52905D01*
X157395Y53110D01*
X156383Y53381D01*
X155391Y53717D01*
X154423Y54118D01*
X153484Y54582D01*
X152576Y55106D01*
X151705Y55688D01*
X150874Y56325D01*
X150087Y57016D01*
X149346Y57757D01*
X148655Y58544D01*
X148018Y59375D01*
X147436Y60246D01*
X146912Y61154D01*
X146448Y62093D01*
X146047Y63061D01*
X145711Y64053D01*
X145440Y65065D01*
X145235Y66092D01*
X145099Y67131D01*
X145030Y68176D01*
X145030Y69224D01*
X145099Y70269D01*
X145235Y71308D01*
X145440Y72335D01*
X145711Y73347D01*
X146047Y74339D01*
X146448Y75307D01*
X146912Y76246D01*
X147436Y77154D01*
X148018Y78025D01*
X148655Y78856D01*
X149346Y79643D01*
X150087Y80384D01*
X150874Y81075D01*
X151705Y81713D01*
X152576Y82295D01*
X153484Y82818D01*
X154423Y83282D01*
X155391Y83683D01*
X156383Y84019D01*
X157395Y84290D01*
X158422Y84495D01*
X159461Y84632D01*
X160506Y84700D01*
X161554Y84700D01*
X47254Y84700D02*
X48299Y84632D01*
X49338Y84495D01*
X50365Y84290D01*
X51377Y84019D01*
X52369Y83683D01*
X53337Y83282D01*
X54276Y82818D01*
X55184Y82295D01*
X56055Y81713D01*
X56886Y81075D01*
X57673Y80384D01*
X58414Y79643D01*
X59105Y78856D01*
X59743Y78025D01*
X60325Y77154D01*
X60848Y76246D01*
X61312Y75307D01*
X61713Y74339D01*
X62049Y73347D01*
X62320Y72335D01*
X62525Y71308D01*
X62662Y70269D01*
X62730Y69224D01*
X62730Y68176D01*
X62662Y67131D01*
X62525Y66092D01*
X62320Y65065D01*
X62049Y64053D01*
X61713Y63061D01*
X61312Y62093D01*
X60848Y61154D01*
X60325Y60246D01*
X59743Y59375D01*
X59105Y58544D01*
X58414Y57757D01*
X57673Y57016D01*
X56886Y56325D01*
X56055Y55688D01*
X55184Y55106D01*
X54276Y54582D01*
X53337Y54118D01*
X52369Y53717D01*
X51377Y53381D01*
X50365Y53110D01*
X49338Y52905D01*
X48299Y52769D01*
X47254Y52700D01*
X46206Y52700D01*
X45161Y52769D01*
X44122Y52905D01*
X43095Y53110D01*
X42083Y53381D01*
X41091Y53717D01*
X40123Y54118D01*
X39184Y54582D01*
X38276Y55106D01*
X37405Y55688D01*
X36574Y56325D01*
X35787Y57016D01*
X35046Y57757D01*
X34355Y58544D01*
X33718Y59375D01*
X33136Y60246D01*
X32612Y61154D01*
X32148Y62093D01*
X31747Y63061D01*
X31411Y64053D01*
X31140Y65065D01*
X30935Y66092D01*
X30799Y67131D01*
X30730Y68176D01*
X30730Y69224D01*
X30799Y70269D01*
X30935Y71308D01*
X31140Y72335D01*
X31411Y73347D01*
X31747Y74339D01*
X32148Y75307D01*
X32612Y76246D01*
X33136Y77154D01*
X33718Y78025D01*
X34355Y78856D01*
X35046Y79643D01*
X35787Y80384D01*
X36574Y81075D01*
X37405Y81713D01*
X38276Y82295D01*
X39184Y82818D01*
X40123Y83282D01*
X41091Y83683D01*
X42083Y84019D01*
X43095Y84290D01*
X44122Y84495D01*
X45161Y84632D01*
X46206Y84700D01*
X47254Y84700D01*
X586500Y35024D02*
X586424Y33956D01*
X586271Y32895D01*
X586043Y31848D01*
X585741Y30820D01*
X585367Y29816D01*
X584922Y28841D01*
X584408Y27901D01*
X583829Y27000D01*
X583187Y26142D01*
X582485Y25332D01*
X581728Y24575D01*
X580918Y23873D01*
X580060Y23231D01*
X579159Y22652D01*
X578219Y22138D01*
X577244Y21693D01*
X576240Y21319D01*
X575212Y21017D01*
X574165Y20789D01*
X573104Y20636D01*
X572036Y20560D01*
X570964Y20560D01*
X569896Y20636D01*
X568835Y20789D01*
X567788Y21017D01*
X566760Y21319D01*
X565756Y21693D01*
X564781Y22138D01*
X563841Y22652D01*
X562940Y23231D01*
X562082Y23873D01*
X561272Y24575D01*
X560515Y25332D01*
X559813Y26142D01*
X559171Y27000D01*
X558592Y27901D01*
X558078Y28841D01*
X557633Y29816D01*
X557259Y30820D01*
X556957Y31848D01*
X556729Y32895D01*
X556576Y33956D01*
X556500Y35024D01*
X556500Y36096D01*
X556576Y37164D01*
X556729Y38225D01*
X556957Y39272D01*
X557259Y40300D01*
X557633Y41304D01*
X558078Y42279D01*
X558592Y43219D01*
X559171Y44120D01*
X559813Y44978D01*
X560515Y45788D01*
X561272Y46545D01*
X562082Y47247D01*
X562940Y47889D01*
X563841Y48468D01*
X564781Y48982D01*
X565756Y49427D01*
X566760Y49801D01*
X567788Y50103D01*
X568835Y50331D01*
X569896Y50484D01*
X570964Y50560D01*
X572036Y50560D01*
X573104Y50484D01*
X574165Y50331D01*
X575212Y50103D01*
X576240Y49801D01*
X577244Y49427D01*
X578219Y48982D01*
X579159Y48468D01*
X580060Y47889D01*
X580918Y47247D01*
X581728Y46545D01*
X582485Y45788D01*
X583187Y44978D01*
X583829Y44120D01*
X584408Y43219D01*
X584922Y42279D01*
X585367Y41304D01*
X585741Y40300D01*
X586043Y39272D01*
X586271Y38225D01*
X586424Y37164D01*
X586500Y36096D01*
X586500Y35024D01*
X434100Y35024D02*
X434024Y33956D01*
X433871Y32895D01*
X433643Y31848D01*
X433341Y30820D01*
X432967Y29816D01*
X432522Y28841D01*
X432008Y27901D01*
X431429Y27000D01*
X430787Y26142D01*
X430085Y25332D01*
X429328Y24575D01*
X428518Y23873D01*
X427660Y23231D01*
X426759Y22652D01*
X425819Y22138D01*
X424844Y21693D01*
X423840Y21319D01*
X422812Y21017D01*
X421765Y20789D01*
X420704Y20636D01*
X419636Y20560D01*
X418564Y20560D01*
X417496Y20636D01*
X416435Y20789D01*
X415388Y21017D01*
X414360Y21319D01*
X413356Y21693D01*
X412381Y22138D01*
X411441Y22652D01*
X410540Y23231D01*
X409682Y23873D01*
X408872Y24575D01*
X408115Y25332D01*
X407413Y26142D01*
X406771Y27000D01*
X406192Y27901D01*
X405678Y28841D01*
X405233Y29816D01*
X404859Y30820D01*
X404557Y31848D01*
X404329Y32895D01*
X404176Y33956D01*
X404100Y35024D01*
X404100Y36096D01*
X404176Y37164D01*
X404329Y38225D01*
X404557Y39272D01*
X404859Y40300D01*
X405233Y41304D01*
X405678Y42279D01*
X406192Y43219D01*
X406771Y44120D01*
X407413Y44978D01*
X408115Y45788D01*
X408872Y46545D01*
X409682Y47247D01*
X410540Y47889D01*
X411441Y48468D01*
X412381Y48982D01*
X413356Y49427D01*
X414360Y49801D01*
X415388Y50103D01*
X416435Y50331D01*
X417496Y50484D01*
X418564Y50560D01*
X419636Y50560D01*
X420704Y50484D01*
X421765Y50331D01*
X422812Y50103D01*
X423840Y49801D01*
X424844Y49427D01*
X425819Y48982D01*
X426759Y48468D01*
X427660Y47889D01*
X428518Y47247D01*
X429328Y46545D01*
X430085Y45788D01*
X430787Y44978D01*
X431429Y44120D01*
X432008Y43219D01*
X432522Y42279D01*
X432967Y41304D01*
X433341Y40300D01*
X433643Y39272D01*
X433871Y38225D01*
X434024Y37164D01*
X434100Y36096D01*
X434100Y35024D01*
X281700Y35024D02*
X281624Y33956D01*
X281471Y32895D01*
X281243Y31848D01*
X280941Y30820D01*
X280567Y29816D01*
X280122Y28841D01*
X279608Y27901D01*
X279029Y27000D01*
X278387Y26142D01*
X277685Y25332D01*
X276928Y24575D01*
X276118Y23873D01*
X275260Y23231D01*
X274359Y22652D01*
X273419Y22138D01*
X272444Y21693D01*
X271440Y21319D01*
X270412Y21017D01*
X269365Y20789D01*
X268304Y20636D01*
X267236Y20560D01*
X266164Y20560D01*
X265096Y20636D01*
X264035Y20789D01*
X262988Y21017D01*
X261960Y21319D01*
X260956Y21693D01*
X259981Y22138D01*
X259041Y22652D01*
X258140Y23231D01*
X257282Y23873D01*
X256472Y24575D01*
X255715Y25332D01*
X255013Y26142D01*
X254371Y27000D01*
X253792Y27901D01*
X253278Y28841D01*
X252833Y29816D01*
X252459Y30820D01*
X252157Y31848D01*
X251929Y32895D01*
X251776Y33956D01*
X251700Y35024D01*
X251700Y36096D01*
X251776Y37164D01*
X251929Y38225D01*
X252157Y39272D01*
X252459Y40300D01*
X252833Y41304D01*
X253278Y42279D01*
X253792Y43219D01*
X254371Y44120D01*
X255013Y44978D01*
X255715Y45788D01*
X256472Y46545D01*
X257282Y47247D01*
X258140Y47889D01*
X259041Y48468D01*
X259981Y48982D01*
X260956Y49427D01*
X261960Y49801D01*
X262988Y50103D01*
X264035Y50331D01*
X265096Y50484D01*
X266164Y50560D01*
X267236Y50560D01*
X268304Y50484D01*
X269365Y50331D01*
X270412Y50103D01*
X271440Y49801D01*
X272444Y49427D01*
X273419Y48982D01*
X274359Y48468D01*
X275260Y47889D01*
X276118Y47247D01*
X276928Y46545D01*
X277685Y45788D01*
X278387Y44978D01*
X279029Y44120D01*
X279608Y43219D01*
X280122Y42279D01*
X280567Y41304D01*
X280941Y40300D01*
X281243Y39272D01*
X281471Y38225D01*
X281624Y37164D01*
X281700Y36096D01*
X281700Y35024D01*
X738900Y35024D02*
X738824Y33956D01*
X738671Y32895D01*
X738443Y31848D01*
X738141Y30820D01*
X737767Y29816D01*
X737322Y28841D01*
X736808Y27901D01*
X736229Y27000D01*
X735587Y26142D01*
X734885Y25332D01*
X734128Y24575D01*
X733318Y23873D01*
X732460Y23231D01*
X731559Y22652D01*
X730619Y22138D01*
X729644Y21693D01*
X728640Y21319D01*
X727612Y21017D01*
X726565Y20789D01*
X725504Y20636D01*
X724436Y20560D01*
X723364Y20560D01*
X722296Y20636D01*
X721235Y20789D01*
X720188Y21017D01*
X719160Y21319D01*
X718156Y21693D01*
X717181Y22138D01*
X716241Y22652D01*
X715340Y23231D01*
X714482Y23873D01*
X713672Y24575D01*
X712915Y25332D01*
X712213Y26142D01*
X711571Y27000D01*
X710992Y27901D01*
X710478Y28841D01*
X710033Y29816D01*
X709659Y30820D01*
X709357Y31848D01*
X709129Y32895D01*
X708976Y33956D01*
X708900Y35024D01*
X708900Y36096D01*
X708976Y37164D01*
X709129Y38225D01*
X709357Y39272D01*
X709659Y40300D01*
X710033Y41304D01*
X710478Y42279D01*
X710992Y43219D01*
X711571Y44120D01*
X712213Y44978D01*
X712915Y45788D01*
X713672Y46545D01*
X714482Y47247D01*
X715340Y47889D01*
X716241Y48468D01*
X717181Y48982D01*
X718156Y49427D01*
X719160Y49801D01*
X720188Y50103D01*
X721235Y50331D01*
X722296Y50484D01*
X723364Y50560D01*
X724436Y50560D01*
X725504Y50484D01*
X726565Y50331D01*
X727612Y50103D01*
X728640Y49801D01*
X729644Y49427D01*
X730619Y48982D01*
X731559Y48468D01*
X732460Y47889D01*
X733318Y47247D01*
X734128Y46545D01*
X734885Y45788D01*
X735587Y44978D01*
X736229Y44120D01*
X736808Y43219D01*
X737322Y42279D01*
X737767Y41304D01*
X738141Y40300D01*
X738443Y39272D01*
X738671Y38225D01*
X738824Y37164D01*
X738900Y36096D01*
X738900Y35024D01*
M02*
