G04 EAGLE Gerber RS-274X export*
G75*
%MOMM*%
%FSLAX34Y34*%
%LPD*%
%INSilkscreen Bottom*%
%IPPOS*%
%AMOC8*
5,1,8,0,0,1.08239X$1,22.5*%
G01*
%ADD10R,0.250000X0.250000*%
%ADD11C,0.076200*%
%ADD12C,0.127000*%


D10*
X864890Y683260D03*
D11*
X875919Y675767D02*
X875919Y668401D01*
X872645Y668401D01*
X869579Y668401D02*
X866305Y668401D01*
X869579Y668401D02*
X869579Y675767D01*
X866305Y675767D01*
X867124Y672493D02*
X869579Y672493D01*
X863255Y675767D02*
X863255Y668401D01*
X863255Y675767D02*
X861209Y675767D01*
X861120Y675765D01*
X861031Y675759D01*
X860942Y675749D01*
X860854Y675736D01*
X860766Y675719D01*
X860679Y675697D01*
X860594Y675672D01*
X860509Y675644D01*
X860426Y675611D01*
X860344Y675575D01*
X860264Y675536D01*
X860186Y675493D01*
X860110Y675447D01*
X860035Y675397D01*
X859963Y675344D01*
X859894Y675288D01*
X859827Y675229D01*
X859762Y675168D01*
X859701Y675103D01*
X859642Y675036D01*
X859586Y674967D01*
X859533Y674895D01*
X859483Y674820D01*
X859437Y674744D01*
X859394Y674666D01*
X859355Y674586D01*
X859319Y674504D01*
X859286Y674421D01*
X859258Y674336D01*
X859233Y674251D01*
X859211Y674164D01*
X859194Y674076D01*
X859181Y673988D01*
X859171Y673899D01*
X859165Y673810D01*
X859163Y673721D01*
X859163Y670447D01*
X859165Y670358D01*
X859171Y670269D01*
X859181Y670180D01*
X859194Y670092D01*
X859211Y670004D01*
X859233Y669917D01*
X859258Y669832D01*
X859286Y669747D01*
X859319Y669664D01*
X859355Y669582D01*
X859394Y669502D01*
X859437Y669424D01*
X859483Y669348D01*
X859533Y669273D01*
X859586Y669201D01*
X859642Y669132D01*
X859701Y669065D01*
X859762Y669000D01*
X859827Y668939D01*
X859894Y668880D01*
X859963Y668824D01*
X860035Y668771D01*
X860110Y668721D01*
X860186Y668675D01*
X860264Y668632D01*
X860344Y668593D01*
X860426Y668557D01*
X860509Y668524D01*
X860594Y668496D01*
X860679Y668471D01*
X860766Y668449D01*
X860854Y668432D01*
X860942Y668419D01*
X861031Y668409D01*
X861120Y668403D01*
X861209Y668401D01*
X863255Y668401D01*
X855696Y674130D02*
X853650Y675767D01*
X853650Y668401D01*
X855696Y668401D02*
X851604Y668401D01*
D10*
X763290Y683260D03*
D11*
X774319Y675767D02*
X774319Y668401D01*
X771045Y668401D01*
X767979Y668401D02*
X764705Y668401D01*
X767979Y668401D02*
X767979Y675767D01*
X764705Y675767D01*
X765524Y672493D02*
X767979Y672493D01*
X761655Y675767D02*
X761655Y668401D01*
X761655Y675767D02*
X759609Y675767D01*
X759520Y675765D01*
X759431Y675759D01*
X759342Y675749D01*
X759254Y675736D01*
X759166Y675719D01*
X759079Y675697D01*
X758994Y675672D01*
X758909Y675644D01*
X758826Y675611D01*
X758744Y675575D01*
X758664Y675536D01*
X758586Y675493D01*
X758510Y675447D01*
X758435Y675397D01*
X758363Y675344D01*
X758294Y675288D01*
X758227Y675229D01*
X758162Y675168D01*
X758101Y675103D01*
X758042Y675036D01*
X757986Y674967D01*
X757933Y674895D01*
X757883Y674820D01*
X757837Y674744D01*
X757794Y674666D01*
X757755Y674586D01*
X757719Y674504D01*
X757686Y674421D01*
X757658Y674336D01*
X757633Y674251D01*
X757611Y674164D01*
X757594Y674076D01*
X757581Y673988D01*
X757571Y673899D01*
X757565Y673810D01*
X757563Y673721D01*
X757563Y670447D01*
X757565Y670358D01*
X757571Y670269D01*
X757581Y670180D01*
X757594Y670092D01*
X757611Y670004D01*
X757633Y669917D01*
X757658Y669832D01*
X757686Y669747D01*
X757719Y669664D01*
X757755Y669582D01*
X757794Y669502D01*
X757837Y669424D01*
X757883Y669348D01*
X757933Y669273D01*
X757986Y669201D01*
X758042Y669132D01*
X758101Y669065D01*
X758162Y669000D01*
X758227Y668939D01*
X758294Y668880D01*
X758363Y668824D01*
X758435Y668771D01*
X758510Y668721D01*
X758586Y668675D01*
X758664Y668632D01*
X758744Y668593D01*
X758826Y668557D01*
X758909Y668524D01*
X758994Y668496D01*
X759079Y668471D01*
X759166Y668449D01*
X759254Y668432D01*
X759342Y668419D01*
X759431Y668409D01*
X759520Y668403D01*
X759609Y668401D01*
X761655Y668401D01*
X751845Y675768D02*
X751760Y675766D01*
X751675Y675760D01*
X751591Y675750D01*
X751507Y675737D01*
X751423Y675719D01*
X751341Y675698D01*
X751260Y675673D01*
X751180Y675644D01*
X751101Y675611D01*
X751024Y675575D01*
X750949Y675535D01*
X750875Y675492D01*
X750804Y675446D01*
X750735Y675396D01*
X750668Y675343D01*
X750604Y675287D01*
X750543Y675228D01*
X750484Y675167D01*
X750428Y675103D01*
X750375Y675036D01*
X750325Y674967D01*
X750279Y674896D01*
X750236Y674822D01*
X750196Y674747D01*
X750160Y674670D01*
X750127Y674591D01*
X750098Y674511D01*
X750073Y674430D01*
X750052Y674348D01*
X750034Y674264D01*
X750021Y674180D01*
X750011Y674096D01*
X750005Y674011D01*
X750003Y673926D01*
X751845Y675767D02*
X751941Y675765D01*
X752037Y675759D01*
X752132Y675749D01*
X752227Y675736D01*
X752322Y675718D01*
X752415Y675697D01*
X752508Y675672D01*
X752599Y675643D01*
X752690Y675611D01*
X752779Y675575D01*
X752866Y675535D01*
X752952Y675492D01*
X753036Y675446D01*
X753118Y675396D01*
X753198Y675342D01*
X753275Y675286D01*
X753350Y675226D01*
X753423Y675164D01*
X753493Y675098D01*
X753561Y675030D01*
X753626Y674959D01*
X753687Y674886D01*
X753746Y674810D01*
X753802Y674731D01*
X753854Y674651D01*
X753903Y674568D01*
X753949Y674484D01*
X753991Y674398D01*
X754029Y674310D01*
X754064Y674221D01*
X754096Y674130D01*
X750618Y672494D02*
X750558Y672553D01*
X750501Y672615D01*
X750446Y672679D01*
X750395Y672746D01*
X750346Y672815D01*
X750300Y672885D01*
X750257Y672958D01*
X750217Y673032D01*
X750181Y673108D01*
X750148Y673186D01*
X750118Y673265D01*
X750091Y673345D01*
X750068Y673426D01*
X750049Y673508D01*
X750033Y673590D01*
X750020Y673674D01*
X750011Y673758D01*
X750006Y673842D01*
X750004Y673926D01*
X750618Y672493D02*
X754096Y668401D01*
X750004Y668401D01*
D10*
X661690Y683260D03*
D11*
X672719Y675767D02*
X672719Y668401D01*
X669445Y668401D01*
X666379Y668401D02*
X663105Y668401D01*
X666379Y668401D02*
X666379Y675767D01*
X663105Y675767D01*
X663924Y672493D02*
X666379Y672493D01*
X660055Y675767D02*
X660055Y668401D01*
X660055Y675767D02*
X658009Y675767D01*
X657920Y675765D01*
X657831Y675759D01*
X657742Y675749D01*
X657654Y675736D01*
X657566Y675719D01*
X657479Y675697D01*
X657394Y675672D01*
X657309Y675644D01*
X657226Y675611D01*
X657144Y675575D01*
X657064Y675536D01*
X656986Y675493D01*
X656910Y675447D01*
X656835Y675397D01*
X656763Y675344D01*
X656694Y675288D01*
X656627Y675229D01*
X656562Y675168D01*
X656501Y675103D01*
X656442Y675036D01*
X656386Y674967D01*
X656333Y674895D01*
X656283Y674820D01*
X656237Y674744D01*
X656194Y674666D01*
X656155Y674586D01*
X656119Y674504D01*
X656086Y674421D01*
X656058Y674336D01*
X656033Y674251D01*
X656011Y674164D01*
X655994Y674076D01*
X655981Y673988D01*
X655971Y673899D01*
X655965Y673810D01*
X655963Y673721D01*
X655963Y670447D01*
X655965Y670358D01*
X655971Y670269D01*
X655981Y670180D01*
X655994Y670092D01*
X656011Y670004D01*
X656033Y669917D01*
X656058Y669832D01*
X656086Y669747D01*
X656119Y669664D01*
X656155Y669582D01*
X656194Y669502D01*
X656237Y669424D01*
X656283Y669348D01*
X656333Y669273D01*
X656386Y669201D01*
X656442Y669132D01*
X656501Y669065D01*
X656562Y669000D01*
X656627Y668939D01*
X656694Y668880D01*
X656763Y668824D01*
X656835Y668771D01*
X656910Y668721D01*
X656986Y668675D01*
X657064Y668632D01*
X657144Y668593D01*
X657226Y668557D01*
X657309Y668524D01*
X657394Y668496D01*
X657479Y668471D01*
X657566Y668449D01*
X657654Y668432D01*
X657742Y668419D01*
X657831Y668409D01*
X657920Y668403D01*
X658009Y668401D01*
X660055Y668401D01*
X652496Y668401D02*
X650450Y668401D01*
X650361Y668403D01*
X650272Y668409D01*
X650183Y668419D01*
X650095Y668432D01*
X650007Y668449D01*
X649920Y668471D01*
X649835Y668496D01*
X649750Y668524D01*
X649667Y668557D01*
X649585Y668593D01*
X649505Y668632D01*
X649427Y668675D01*
X649351Y668721D01*
X649276Y668771D01*
X649204Y668824D01*
X649135Y668880D01*
X649068Y668939D01*
X649003Y669000D01*
X648942Y669065D01*
X648883Y669132D01*
X648827Y669201D01*
X648774Y669273D01*
X648724Y669348D01*
X648678Y669424D01*
X648635Y669502D01*
X648596Y669582D01*
X648560Y669664D01*
X648527Y669747D01*
X648499Y669832D01*
X648474Y669917D01*
X648452Y670004D01*
X648435Y670092D01*
X648422Y670180D01*
X648412Y670269D01*
X648406Y670358D01*
X648404Y670447D01*
X648406Y670536D01*
X648412Y670625D01*
X648422Y670714D01*
X648435Y670802D01*
X648452Y670890D01*
X648474Y670977D01*
X648499Y671062D01*
X648527Y671147D01*
X648560Y671230D01*
X648596Y671312D01*
X648635Y671392D01*
X648678Y671470D01*
X648724Y671546D01*
X648774Y671621D01*
X648827Y671693D01*
X648883Y671762D01*
X648942Y671829D01*
X649003Y671894D01*
X649068Y671955D01*
X649135Y672014D01*
X649204Y672070D01*
X649276Y672123D01*
X649351Y672173D01*
X649427Y672219D01*
X649505Y672262D01*
X649585Y672301D01*
X649667Y672337D01*
X649750Y672370D01*
X649835Y672398D01*
X649920Y672423D01*
X650007Y672445D01*
X650095Y672462D01*
X650183Y672475D01*
X650272Y672485D01*
X650361Y672491D01*
X650450Y672493D01*
X650041Y675767D02*
X652496Y675767D01*
X650041Y675767D02*
X649962Y675765D01*
X649883Y675759D01*
X649804Y675750D01*
X649726Y675737D01*
X649649Y675719D01*
X649573Y675699D01*
X649498Y675674D01*
X649424Y675646D01*
X649351Y675615D01*
X649280Y675579D01*
X649211Y675541D01*
X649144Y675499D01*
X649079Y675454D01*
X649016Y675406D01*
X648955Y675355D01*
X648898Y675301D01*
X648842Y675245D01*
X648790Y675186D01*
X648740Y675124D01*
X648694Y675060D01*
X648650Y674994D01*
X648610Y674926D01*
X648574Y674856D01*
X648540Y674784D01*
X648510Y674710D01*
X648484Y674636D01*
X648461Y674560D01*
X648443Y674483D01*
X648427Y674406D01*
X648416Y674327D01*
X648408Y674249D01*
X648404Y674170D01*
X648404Y674090D01*
X648408Y674011D01*
X648416Y673933D01*
X648427Y673854D01*
X648443Y673777D01*
X648461Y673700D01*
X648484Y673624D01*
X648510Y673550D01*
X648540Y673476D01*
X648574Y673404D01*
X648610Y673334D01*
X648650Y673266D01*
X648694Y673200D01*
X648740Y673136D01*
X648790Y673074D01*
X648842Y673015D01*
X648898Y672959D01*
X648955Y672905D01*
X649016Y672854D01*
X649079Y672806D01*
X649144Y672761D01*
X649211Y672719D01*
X649280Y672681D01*
X649351Y672645D01*
X649424Y672614D01*
X649498Y672586D01*
X649573Y672561D01*
X649649Y672541D01*
X649726Y672523D01*
X649804Y672510D01*
X649883Y672501D01*
X649962Y672495D01*
X650041Y672493D01*
X651678Y672493D01*
D10*
X560090Y683260D03*
D11*
X571119Y675767D02*
X571119Y668401D01*
X567845Y668401D01*
X564779Y668401D02*
X561505Y668401D01*
X564779Y668401D02*
X564779Y675767D01*
X561505Y675767D01*
X562324Y672493D02*
X564779Y672493D01*
X558455Y675767D02*
X558455Y668401D01*
X558455Y675767D02*
X556409Y675767D01*
X556320Y675765D01*
X556231Y675759D01*
X556142Y675749D01*
X556054Y675736D01*
X555966Y675719D01*
X555879Y675697D01*
X555794Y675672D01*
X555709Y675644D01*
X555626Y675611D01*
X555544Y675575D01*
X555464Y675536D01*
X555386Y675493D01*
X555310Y675447D01*
X555235Y675397D01*
X555163Y675344D01*
X555094Y675288D01*
X555027Y675229D01*
X554962Y675168D01*
X554901Y675103D01*
X554842Y675036D01*
X554786Y674967D01*
X554733Y674895D01*
X554683Y674820D01*
X554637Y674744D01*
X554594Y674666D01*
X554555Y674586D01*
X554519Y674504D01*
X554486Y674421D01*
X554458Y674336D01*
X554433Y674251D01*
X554411Y674164D01*
X554394Y674076D01*
X554381Y673988D01*
X554371Y673899D01*
X554365Y673810D01*
X554363Y673721D01*
X554363Y670447D01*
X554365Y670358D01*
X554371Y670269D01*
X554381Y670180D01*
X554394Y670092D01*
X554411Y670004D01*
X554433Y669917D01*
X554458Y669832D01*
X554486Y669747D01*
X554519Y669664D01*
X554555Y669582D01*
X554594Y669502D01*
X554637Y669424D01*
X554683Y669348D01*
X554733Y669273D01*
X554786Y669201D01*
X554842Y669132D01*
X554901Y669065D01*
X554962Y669000D01*
X555027Y668939D01*
X555094Y668880D01*
X555163Y668824D01*
X555235Y668771D01*
X555310Y668721D01*
X555386Y668675D01*
X555464Y668632D01*
X555544Y668593D01*
X555626Y668557D01*
X555709Y668524D01*
X555794Y668496D01*
X555879Y668471D01*
X555966Y668449D01*
X556054Y668432D01*
X556142Y668419D01*
X556231Y668409D01*
X556320Y668403D01*
X556409Y668401D01*
X558455Y668401D01*
X550896Y670038D02*
X549259Y675767D01*
X550896Y670038D02*
X546804Y670038D01*
X548032Y671675D02*
X548032Y668401D01*
D10*
X460990Y683260D03*
D11*
X469519Y675767D02*
X469519Y668401D01*
X466245Y668401D01*
X463179Y668401D02*
X459905Y668401D01*
X463179Y668401D02*
X463179Y675767D01*
X459905Y675767D01*
X460724Y672493D02*
X463179Y672493D01*
X456855Y675767D02*
X456855Y668401D01*
X456855Y675767D02*
X454809Y675767D01*
X454720Y675765D01*
X454631Y675759D01*
X454542Y675749D01*
X454454Y675736D01*
X454366Y675719D01*
X454279Y675697D01*
X454194Y675672D01*
X454109Y675644D01*
X454026Y675611D01*
X453944Y675575D01*
X453864Y675536D01*
X453786Y675493D01*
X453710Y675447D01*
X453635Y675397D01*
X453563Y675344D01*
X453494Y675288D01*
X453427Y675229D01*
X453362Y675168D01*
X453301Y675103D01*
X453242Y675036D01*
X453186Y674967D01*
X453133Y674895D01*
X453083Y674820D01*
X453037Y674744D01*
X452994Y674666D01*
X452955Y674586D01*
X452919Y674504D01*
X452886Y674421D01*
X452858Y674336D01*
X452833Y674251D01*
X452811Y674164D01*
X452794Y674076D01*
X452781Y673988D01*
X452771Y673899D01*
X452765Y673810D01*
X452763Y673721D01*
X452763Y670447D01*
X452765Y670358D01*
X452771Y670269D01*
X452781Y670180D01*
X452794Y670092D01*
X452811Y670004D01*
X452833Y669917D01*
X452858Y669832D01*
X452886Y669747D01*
X452919Y669664D01*
X452955Y669582D01*
X452994Y669502D01*
X453037Y669424D01*
X453083Y669348D01*
X453133Y669273D01*
X453186Y669201D01*
X453242Y669132D01*
X453301Y669065D01*
X453362Y669000D01*
X453427Y668939D01*
X453494Y668880D01*
X453563Y668824D01*
X453635Y668771D01*
X453710Y668721D01*
X453786Y668675D01*
X453864Y668632D01*
X453944Y668593D01*
X454026Y668557D01*
X454109Y668524D01*
X454194Y668496D01*
X454279Y668471D01*
X454366Y668449D01*
X454454Y668432D01*
X454542Y668419D01*
X454631Y668409D01*
X454720Y668403D01*
X454809Y668401D01*
X456855Y668401D01*
X449296Y668401D02*
X446841Y668401D01*
X446761Y668403D01*
X446681Y668409D01*
X446601Y668419D01*
X446522Y668432D01*
X446443Y668450D01*
X446366Y668471D01*
X446290Y668497D01*
X446215Y668526D01*
X446141Y668558D01*
X446069Y668594D01*
X445999Y668634D01*
X445932Y668677D01*
X445866Y668723D01*
X445803Y668773D01*
X445742Y668825D01*
X445683Y668880D01*
X445628Y668939D01*
X445576Y668999D01*
X445526Y669063D01*
X445480Y669128D01*
X445437Y669196D01*
X445397Y669266D01*
X445361Y669338D01*
X445329Y669412D01*
X445300Y669486D01*
X445275Y669563D01*
X445253Y669640D01*
X445235Y669719D01*
X445222Y669798D01*
X445212Y669877D01*
X445206Y669958D01*
X445204Y670038D01*
X445204Y670856D01*
X445206Y670934D01*
X445211Y671012D01*
X445221Y671089D01*
X445234Y671166D01*
X445250Y671242D01*
X445270Y671317D01*
X445294Y671391D01*
X445321Y671464D01*
X445352Y671536D01*
X445386Y671606D01*
X445423Y671675D01*
X445464Y671741D01*
X445508Y671806D01*
X445554Y671868D01*
X445604Y671928D01*
X445656Y671986D01*
X445711Y672041D01*
X445769Y672093D01*
X445829Y672143D01*
X445891Y672189D01*
X445956Y672233D01*
X446023Y672274D01*
X446091Y672311D01*
X446161Y672345D01*
X446233Y672376D01*
X446306Y672403D01*
X446380Y672427D01*
X446455Y672447D01*
X446531Y672463D01*
X446608Y672476D01*
X446685Y672486D01*
X446763Y672491D01*
X446841Y672493D01*
X449296Y672493D01*
X449296Y675767D01*
X445204Y675767D01*
D10*
X359390Y683260D03*
D11*
X367919Y675767D02*
X367919Y668401D01*
X364645Y668401D01*
X361579Y668401D02*
X358305Y668401D01*
X361579Y668401D02*
X361579Y675767D01*
X358305Y675767D01*
X359124Y672493D02*
X361579Y672493D01*
X355255Y675767D02*
X355255Y668401D01*
X355255Y675767D02*
X353209Y675767D01*
X353120Y675765D01*
X353031Y675759D01*
X352942Y675749D01*
X352854Y675736D01*
X352766Y675719D01*
X352679Y675697D01*
X352594Y675672D01*
X352509Y675644D01*
X352426Y675611D01*
X352344Y675575D01*
X352264Y675536D01*
X352186Y675493D01*
X352110Y675447D01*
X352035Y675397D01*
X351963Y675344D01*
X351894Y675288D01*
X351827Y675229D01*
X351762Y675168D01*
X351701Y675103D01*
X351642Y675036D01*
X351586Y674967D01*
X351533Y674895D01*
X351483Y674820D01*
X351437Y674744D01*
X351394Y674666D01*
X351355Y674586D01*
X351319Y674504D01*
X351286Y674421D01*
X351258Y674336D01*
X351233Y674251D01*
X351211Y674164D01*
X351194Y674076D01*
X351181Y673988D01*
X351171Y673899D01*
X351165Y673810D01*
X351163Y673721D01*
X351163Y670447D01*
X351165Y670358D01*
X351171Y670269D01*
X351181Y670180D01*
X351194Y670092D01*
X351211Y670004D01*
X351233Y669917D01*
X351258Y669832D01*
X351286Y669747D01*
X351319Y669664D01*
X351355Y669582D01*
X351394Y669502D01*
X351437Y669424D01*
X351483Y669348D01*
X351533Y669273D01*
X351586Y669201D01*
X351642Y669132D01*
X351701Y669065D01*
X351762Y669000D01*
X351827Y668939D01*
X351894Y668880D01*
X351963Y668824D01*
X352035Y668771D01*
X352110Y668721D01*
X352186Y668675D01*
X352264Y668632D01*
X352344Y668593D01*
X352426Y668557D01*
X352509Y668524D01*
X352594Y668496D01*
X352679Y668471D01*
X352766Y668449D01*
X352854Y668432D01*
X352942Y668419D01*
X353031Y668409D01*
X353120Y668403D01*
X353209Y668401D01*
X355255Y668401D01*
X347696Y672493D02*
X345241Y672493D01*
X345161Y672491D01*
X345081Y672485D01*
X345001Y672475D01*
X344922Y672462D01*
X344843Y672444D01*
X344766Y672423D01*
X344690Y672397D01*
X344615Y672368D01*
X344541Y672336D01*
X344469Y672300D01*
X344399Y672260D01*
X344332Y672217D01*
X344266Y672171D01*
X344203Y672121D01*
X344142Y672069D01*
X344083Y672014D01*
X344028Y671955D01*
X343976Y671895D01*
X343926Y671831D01*
X343880Y671765D01*
X343837Y671698D01*
X343797Y671628D01*
X343761Y671556D01*
X343729Y671482D01*
X343700Y671408D01*
X343674Y671331D01*
X343653Y671254D01*
X343635Y671175D01*
X343622Y671096D01*
X343612Y671016D01*
X343606Y670936D01*
X343604Y670856D01*
X343604Y670447D01*
X343606Y670358D01*
X343612Y670269D01*
X343622Y670180D01*
X343635Y670092D01*
X343652Y670004D01*
X343674Y669917D01*
X343699Y669832D01*
X343727Y669747D01*
X343760Y669664D01*
X343796Y669582D01*
X343835Y669502D01*
X343878Y669424D01*
X343924Y669348D01*
X343974Y669273D01*
X344027Y669201D01*
X344083Y669132D01*
X344142Y669065D01*
X344203Y669000D01*
X344268Y668939D01*
X344335Y668880D01*
X344404Y668824D01*
X344476Y668771D01*
X344551Y668721D01*
X344627Y668675D01*
X344705Y668632D01*
X344785Y668593D01*
X344867Y668557D01*
X344950Y668524D01*
X345035Y668496D01*
X345120Y668471D01*
X345207Y668449D01*
X345295Y668432D01*
X345383Y668419D01*
X345472Y668409D01*
X345561Y668403D01*
X345650Y668401D01*
X345739Y668403D01*
X345828Y668409D01*
X345917Y668419D01*
X346005Y668432D01*
X346093Y668449D01*
X346180Y668471D01*
X346265Y668496D01*
X346350Y668524D01*
X346433Y668557D01*
X346515Y668593D01*
X346595Y668632D01*
X346673Y668675D01*
X346749Y668721D01*
X346824Y668771D01*
X346896Y668824D01*
X346965Y668880D01*
X347032Y668939D01*
X347097Y669000D01*
X347158Y669065D01*
X347217Y669132D01*
X347273Y669201D01*
X347326Y669273D01*
X347376Y669348D01*
X347422Y669424D01*
X347465Y669502D01*
X347504Y669582D01*
X347540Y669664D01*
X347573Y669747D01*
X347601Y669832D01*
X347626Y669917D01*
X347648Y670004D01*
X347665Y670092D01*
X347678Y670180D01*
X347688Y670269D01*
X347694Y670358D01*
X347696Y670447D01*
X347696Y672493D01*
X347694Y672605D01*
X347688Y672716D01*
X347679Y672828D01*
X347666Y672939D01*
X347648Y673049D01*
X347628Y673159D01*
X347603Y673268D01*
X347575Y673376D01*
X347543Y673483D01*
X347507Y673589D01*
X347468Y673694D01*
X347425Y673797D01*
X347379Y673899D01*
X347329Y673999D01*
X347276Y674098D01*
X347219Y674194D01*
X347160Y674289D01*
X347097Y674381D01*
X347031Y674471D01*
X346962Y674559D01*
X346890Y674645D01*
X346815Y674728D01*
X346737Y674808D01*
X346657Y674886D01*
X346574Y674961D01*
X346488Y675033D01*
X346400Y675102D01*
X346310Y675168D01*
X346218Y675231D01*
X346123Y675290D01*
X346027Y675347D01*
X345928Y675400D01*
X345828Y675450D01*
X345726Y675496D01*
X345623Y675539D01*
X345518Y675578D01*
X345412Y675614D01*
X345305Y675646D01*
X345197Y675674D01*
X345088Y675699D01*
X344978Y675719D01*
X344868Y675737D01*
X344757Y675750D01*
X344645Y675759D01*
X344534Y675765D01*
X344422Y675767D01*
D10*
X257790Y683260D03*
D11*
X266319Y675767D02*
X266319Y668401D01*
X263045Y668401D01*
X259979Y668401D02*
X256705Y668401D01*
X259979Y668401D02*
X259979Y675767D01*
X256705Y675767D01*
X257524Y672493D02*
X259979Y672493D01*
X253655Y675767D02*
X253655Y668401D01*
X253655Y675767D02*
X251609Y675767D01*
X251520Y675765D01*
X251431Y675759D01*
X251342Y675749D01*
X251254Y675736D01*
X251166Y675719D01*
X251079Y675697D01*
X250994Y675672D01*
X250909Y675644D01*
X250826Y675611D01*
X250744Y675575D01*
X250664Y675536D01*
X250586Y675493D01*
X250510Y675447D01*
X250435Y675397D01*
X250363Y675344D01*
X250294Y675288D01*
X250227Y675229D01*
X250162Y675168D01*
X250101Y675103D01*
X250042Y675036D01*
X249986Y674967D01*
X249933Y674895D01*
X249883Y674820D01*
X249837Y674744D01*
X249794Y674666D01*
X249755Y674586D01*
X249719Y674504D01*
X249686Y674421D01*
X249658Y674336D01*
X249633Y674251D01*
X249611Y674164D01*
X249594Y674076D01*
X249581Y673988D01*
X249571Y673899D01*
X249565Y673810D01*
X249563Y673721D01*
X249563Y670447D01*
X249565Y670358D01*
X249571Y670269D01*
X249581Y670180D01*
X249594Y670092D01*
X249611Y670004D01*
X249633Y669917D01*
X249658Y669832D01*
X249686Y669747D01*
X249719Y669664D01*
X249755Y669582D01*
X249794Y669502D01*
X249837Y669424D01*
X249883Y669348D01*
X249933Y669273D01*
X249986Y669201D01*
X250042Y669132D01*
X250101Y669065D01*
X250162Y669000D01*
X250227Y668939D01*
X250294Y668880D01*
X250363Y668824D01*
X250435Y668771D01*
X250510Y668721D01*
X250586Y668675D01*
X250664Y668632D01*
X250744Y668593D01*
X250826Y668557D01*
X250909Y668524D01*
X250994Y668496D01*
X251079Y668471D01*
X251166Y668449D01*
X251254Y668432D01*
X251342Y668419D01*
X251431Y668409D01*
X251520Y668403D01*
X251609Y668401D01*
X253655Y668401D01*
X246096Y674949D02*
X246096Y675767D01*
X242004Y675767D01*
X244050Y668401D01*
D10*
X156190Y683260D03*
D11*
X164719Y675767D02*
X164719Y668401D01*
X161445Y668401D01*
X158379Y668401D02*
X155105Y668401D01*
X158379Y668401D02*
X158379Y675767D01*
X155105Y675767D01*
X155924Y672493D02*
X158379Y672493D01*
X152055Y675767D02*
X152055Y668401D01*
X152055Y675767D02*
X150009Y675767D01*
X149920Y675765D01*
X149831Y675759D01*
X149742Y675749D01*
X149654Y675736D01*
X149566Y675719D01*
X149479Y675697D01*
X149394Y675672D01*
X149309Y675644D01*
X149226Y675611D01*
X149144Y675575D01*
X149064Y675536D01*
X148986Y675493D01*
X148910Y675447D01*
X148835Y675397D01*
X148763Y675344D01*
X148694Y675288D01*
X148627Y675229D01*
X148562Y675168D01*
X148501Y675103D01*
X148442Y675036D01*
X148386Y674967D01*
X148333Y674895D01*
X148283Y674820D01*
X148237Y674744D01*
X148194Y674666D01*
X148155Y674586D01*
X148119Y674504D01*
X148086Y674421D01*
X148058Y674336D01*
X148033Y674251D01*
X148011Y674164D01*
X147994Y674076D01*
X147981Y673988D01*
X147971Y673899D01*
X147965Y673810D01*
X147963Y673721D01*
X147963Y670447D01*
X147965Y670358D01*
X147971Y670269D01*
X147981Y670180D01*
X147994Y670092D01*
X148011Y670004D01*
X148033Y669917D01*
X148058Y669832D01*
X148086Y669747D01*
X148119Y669664D01*
X148155Y669582D01*
X148194Y669502D01*
X148237Y669424D01*
X148283Y669348D01*
X148333Y669273D01*
X148386Y669201D01*
X148442Y669132D01*
X148501Y669065D01*
X148562Y669000D01*
X148627Y668939D01*
X148694Y668880D01*
X148763Y668824D01*
X148835Y668771D01*
X148910Y668721D01*
X148986Y668675D01*
X149064Y668632D01*
X149144Y668593D01*
X149226Y668557D01*
X149309Y668524D01*
X149394Y668496D01*
X149479Y668471D01*
X149566Y668449D01*
X149654Y668432D01*
X149742Y668419D01*
X149831Y668409D01*
X149920Y668403D01*
X150009Y668401D01*
X152055Y668401D01*
X144496Y670447D02*
X144494Y670536D01*
X144488Y670625D01*
X144478Y670714D01*
X144465Y670802D01*
X144448Y670890D01*
X144426Y670977D01*
X144401Y671062D01*
X144373Y671147D01*
X144340Y671230D01*
X144304Y671312D01*
X144265Y671392D01*
X144222Y671470D01*
X144176Y671546D01*
X144126Y671621D01*
X144073Y671693D01*
X144017Y671762D01*
X143958Y671829D01*
X143897Y671894D01*
X143832Y671955D01*
X143765Y672014D01*
X143696Y672070D01*
X143624Y672123D01*
X143549Y672173D01*
X143473Y672219D01*
X143395Y672262D01*
X143315Y672301D01*
X143233Y672337D01*
X143150Y672370D01*
X143065Y672398D01*
X142980Y672423D01*
X142893Y672445D01*
X142805Y672462D01*
X142717Y672475D01*
X142628Y672485D01*
X142539Y672491D01*
X142450Y672493D01*
X142361Y672491D01*
X142272Y672485D01*
X142183Y672475D01*
X142095Y672462D01*
X142007Y672445D01*
X141920Y672423D01*
X141835Y672398D01*
X141750Y672370D01*
X141667Y672337D01*
X141585Y672301D01*
X141505Y672262D01*
X141427Y672219D01*
X141351Y672173D01*
X141276Y672123D01*
X141204Y672070D01*
X141135Y672014D01*
X141068Y671955D01*
X141003Y671894D01*
X140942Y671829D01*
X140883Y671762D01*
X140827Y671693D01*
X140774Y671621D01*
X140724Y671546D01*
X140678Y671470D01*
X140635Y671392D01*
X140596Y671312D01*
X140560Y671230D01*
X140527Y671147D01*
X140499Y671062D01*
X140474Y670977D01*
X140452Y670890D01*
X140435Y670802D01*
X140422Y670714D01*
X140412Y670625D01*
X140406Y670536D01*
X140404Y670447D01*
X140406Y670358D01*
X140412Y670269D01*
X140422Y670180D01*
X140435Y670092D01*
X140452Y670004D01*
X140474Y669917D01*
X140499Y669832D01*
X140527Y669747D01*
X140560Y669664D01*
X140596Y669582D01*
X140635Y669502D01*
X140678Y669424D01*
X140724Y669348D01*
X140774Y669273D01*
X140827Y669201D01*
X140883Y669132D01*
X140942Y669065D01*
X141003Y669000D01*
X141068Y668939D01*
X141135Y668880D01*
X141204Y668824D01*
X141276Y668771D01*
X141351Y668721D01*
X141427Y668675D01*
X141505Y668632D01*
X141585Y668593D01*
X141667Y668557D01*
X141750Y668524D01*
X141835Y668496D01*
X141920Y668471D01*
X142007Y668449D01*
X142095Y668432D01*
X142183Y668419D01*
X142272Y668409D01*
X142361Y668403D01*
X142450Y668401D01*
X142539Y668403D01*
X142628Y668409D01*
X142717Y668419D01*
X142805Y668432D01*
X142893Y668449D01*
X142980Y668471D01*
X143065Y668496D01*
X143150Y668524D01*
X143233Y668557D01*
X143315Y668593D01*
X143395Y668632D01*
X143473Y668675D01*
X143549Y668721D01*
X143624Y668771D01*
X143696Y668824D01*
X143765Y668880D01*
X143832Y668939D01*
X143897Y669000D01*
X143958Y669065D01*
X144017Y669132D01*
X144073Y669201D01*
X144126Y669273D01*
X144176Y669348D01*
X144222Y669424D01*
X144265Y669502D01*
X144304Y669582D01*
X144340Y669664D01*
X144373Y669747D01*
X144401Y669832D01*
X144426Y669917D01*
X144448Y670004D01*
X144465Y670092D01*
X144478Y670180D01*
X144488Y670269D01*
X144494Y670358D01*
X144496Y670447D01*
X144087Y674130D02*
X144085Y674209D01*
X144079Y674288D01*
X144070Y674367D01*
X144057Y674445D01*
X144039Y674522D01*
X144019Y674598D01*
X143994Y674673D01*
X143966Y674747D01*
X143935Y674820D01*
X143899Y674891D01*
X143861Y674960D01*
X143819Y675027D01*
X143774Y675092D01*
X143726Y675155D01*
X143675Y675216D01*
X143621Y675273D01*
X143565Y675329D01*
X143506Y675381D01*
X143444Y675431D01*
X143380Y675477D01*
X143314Y675521D01*
X143246Y675561D01*
X143176Y675597D01*
X143104Y675631D01*
X143030Y675661D01*
X142956Y675687D01*
X142880Y675710D01*
X142803Y675728D01*
X142726Y675744D01*
X142647Y675755D01*
X142569Y675763D01*
X142490Y675767D01*
X142410Y675767D01*
X142331Y675763D01*
X142253Y675755D01*
X142174Y675744D01*
X142097Y675728D01*
X142020Y675710D01*
X141944Y675687D01*
X141870Y675661D01*
X141796Y675631D01*
X141724Y675597D01*
X141654Y675561D01*
X141586Y675521D01*
X141520Y675477D01*
X141456Y675431D01*
X141394Y675381D01*
X141335Y675329D01*
X141279Y675273D01*
X141225Y675216D01*
X141174Y675155D01*
X141126Y675092D01*
X141081Y675027D01*
X141039Y674960D01*
X141001Y674891D01*
X140965Y674820D01*
X140934Y674747D01*
X140906Y674673D01*
X140881Y674598D01*
X140861Y674522D01*
X140843Y674445D01*
X140830Y674367D01*
X140821Y674288D01*
X140815Y674209D01*
X140813Y674130D01*
X140815Y674051D01*
X140821Y673972D01*
X140830Y673893D01*
X140843Y673815D01*
X140861Y673738D01*
X140881Y673662D01*
X140906Y673587D01*
X140934Y673513D01*
X140965Y673440D01*
X141001Y673369D01*
X141039Y673300D01*
X141081Y673233D01*
X141126Y673168D01*
X141174Y673105D01*
X141225Y673044D01*
X141279Y672987D01*
X141335Y672931D01*
X141394Y672879D01*
X141456Y672829D01*
X141520Y672783D01*
X141586Y672739D01*
X141654Y672699D01*
X141724Y672663D01*
X141796Y672629D01*
X141870Y672599D01*
X141944Y672573D01*
X142020Y672550D01*
X142097Y672532D01*
X142174Y672516D01*
X142253Y672505D01*
X142331Y672497D01*
X142410Y672493D01*
X142490Y672493D01*
X142569Y672497D01*
X142647Y672505D01*
X142726Y672516D01*
X142803Y672532D01*
X142880Y672550D01*
X142956Y672573D01*
X143030Y672599D01*
X143104Y672629D01*
X143176Y672663D01*
X143246Y672699D01*
X143314Y672739D01*
X143380Y672783D01*
X143444Y672829D01*
X143506Y672879D01*
X143565Y672931D01*
X143621Y672987D01*
X143675Y673044D01*
X143726Y673105D01*
X143774Y673168D01*
X143819Y673233D01*
X143861Y673300D01*
X143899Y673369D01*
X143935Y673440D01*
X143966Y673513D01*
X143994Y673587D01*
X144019Y673662D01*
X144039Y673738D01*
X144057Y673815D01*
X144070Y673893D01*
X144079Y673972D01*
X144085Y674051D01*
X144087Y674130D01*
D12*
X812522Y556260D02*
X812525Y556485D01*
X812533Y556709D01*
X812547Y556934D01*
X812566Y557158D01*
X812591Y557381D01*
X812621Y557604D01*
X812657Y557826D01*
X812698Y558047D01*
X812745Y558267D01*
X812796Y558485D01*
X812854Y558703D01*
X812916Y558918D01*
X812984Y559133D01*
X813057Y559345D01*
X813136Y559556D01*
X813219Y559765D01*
X813308Y559971D01*
X813401Y560176D01*
X813500Y560378D01*
X813603Y560577D01*
X813712Y560774D01*
X813825Y560968D01*
X813943Y561160D01*
X814065Y561348D01*
X814193Y561533D01*
X814324Y561715D01*
X814460Y561894D01*
X814601Y562070D01*
X814745Y562242D01*
X814894Y562410D01*
X815047Y562575D01*
X815204Y562736D01*
X815365Y562893D01*
X815530Y563046D01*
X815698Y563195D01*
X815870Y563339D01*
X816046Y563480D01*
X816225Y563616D01*
X816407Y563747D01*
X816592Y563875D01*
X816780Y563997D01*
X816972Y564115D01*
X817166Y564228D01*
X817363Y564337D01*
X817562Y564440D01*
X817764Y564539D01*
X817969Y564632D01*
X818175Y564721D01*
X818384Y564804D01*
X818595Y564883D01*
X818807Y564956D01*
X819022Y565024D01*
X819237Y565086D01*
X819455Y565144D01*
X819673Y565195D01*
X819893Y565242D01*
X820114Y565283D01*
X820336Y565319D01*
X820559Y565349D01*
X820782Y565374D01*
X821006Y565393D01*
X821231Y565407D01*
X821455Y565415D01*
X821680Y565418D01*
X821905Y565415D01*
X822129Y565407D01*
X822354Y565393D01*
X822578Y565374D01*
X822801Y565349D01*
X823024Y565319D01*
X823246Y565283D01*
X823467Y565242D01*
X823687Y565195D01*
X823905Y565144D01*
X824123Y565086D01*
X824338Y565024D01*
X824553Y564956D01*
X824765Y564883D01*
X824976Y564804D01*
X825185Y564721D01*
X825391Y564632D01*
X825596Y564539D01*
X825798Y564440D01*
X825997Y564337D01*
X826194Y564228D01*
X826388Y564115D01*
X826580Y563997D01*
X826768Y563875D01*
X826953Y563747D01*
X827135Y563616D01*
X827314Y563480D01*
X827490Y563339D01*
X827662Y563195D01*
X827830Y563046D01*
X827995Y562893D01*
X828156Y562736D01*
X828313Y562575D01*
X828466Y562410D01*
X828615Y562242D01*
X828759Y562070D01*
X828900Y561894D01*
X829036Y561715D01*
X829167Y561533D01*
X829295Y561348D01*
X829417Y561160D01*
X829535Y560968D01*
X829648Y560774D01*
X829757Y560577D01*
X829860Y560378D01*
X829959Y560176D01*
X830052Y559971D01*
X830141Y559765D01*
X830224Y559556D01*
X830303Y559345D01*
X830376Y559133D01*
X830444Y558918D01*
X830506Y558703D01*
X830564Y558485D01*
X830615Y558267D01*
X830662Y558047D01*
X830703Y557826D01*
X830739Y557604D01*
X830769Y557381D01*
X830794Y557158D01*
X830813Y556934D01*
X830827Y556709D01*
X830835Y556485D01*
X830838Y556260D01*
X830835Y556035D01*
X830827Y555811D01*
X830813Y555586D01*
X830794Y555362D01*
X830769Y555139D01*
X830739Y554916D01*
X830703Y554694D01*
X830662Y554473D01*
X830615Y554253D01*
X830564Y554035D01*
X830506Y553817D01*
X830444Y553602D01*
X830376Y553387D01*
X830303Y553175D01*
X830224Y552964D01*
X830141Y552755D01*
X830052Y552549D01*
X829959Y552344D01*
X829860Y552142D01*
X829757Y551943D01*
X829648Y551746D01*
X829535Y551552D01*
X829417Y551360D01*
X829295Y551172D01*
X829167Y550987D01*
X829036Y550805D01*
X828900Y550626D01*
X828759Y550450D01*
X828615Y550278D01*
X828466Y550110D01*
X828313Y549945D01*
X828156Y549784D01*
X827995Y549627D01*
X827830Y549474D01*
X827662Y549325D01*
X827490Y549181D01*
X827314Y549040D01*
X827135Y548904D01*
X826953Y548773D01*
X826768Y548645D01*
X826580Y548523D01*
X826388Y548405D01*
X826194Y548292D01*
X825997Y548183D01*
X825798Y548080D01*
X825596Y547981D01*
X825391Y547888D01*
X825185Y547799D01*
X824976Y547716D01*
X824765Y547637D01*
X824553Y547564D01*
X824338Y547496D01*
X824123Y547434D01*
X823905Y547376D01*
X823687Y547325D01*
X823467Y547278D01*
X823246Y547237D01*
X823024Y547201D01*
X822801Y547171D01*
X822578Y547146D01*
X822354Y547127D01*
X822129Y547113D01*
X821905Y547105D01*
X821680Y547102D01*
X821455Y547105D01*
X821231Y547113D01*
X821006Y547127D01*
X820782Y547146D01*
X820559Y547171D01*
X820336Y547201D01*
X820114Y547237D01*
X819893Y547278D01*
X819673Y547325D01*
X819455Y547376D01*
X819237Y547434D01*
X819022Y547496D01*
X818807Y547564D01*
X818595Y547637D01*
X818384Y547716D01*
X818175Y547799D01*
X817969Y547888D01*
X817764Y547981D01*
X817562Y548080D01*
X817363Y548183D01*
X817166Y548292D01*
X816972Y548405D01*
X816780Y548523D01*
X816592Y548645D01*
X816407Y548773D01*
X816225Y548904D01*
X816046Y549040D01*
X815870Y549181D01*
X815698Y549325D01*
X815530Y549474D01*
X815365Y549627D01*
X815204Y549784D01*
X815047Y549945D01*
X814894Y550110D01*
X814745Y550278D01*
X814601Y550450D01*
X814460Y550626D01*
X814324Y550805D01*
X814193Y550987D01*
X814065Y551172D01*
X813943Y551360D01*
X813825Y551552D01*
X813712Y551746D01*
X813603Y551943D01*
X813500Y552142D01*
X813401Y552344D01*
X813308Y552549D01*
X813219Y552755D01*
X813136Y552964D01*
X813057Y553175D01*
X812984Y553387D01*
X812916Y553602D01*
X812854Y553817D01*
X812796Y554035D01*
X812745Y554253D01*
X812698Y554473D01*
X812657Y554694D01*
X812621Y554916D01*
X812591Y555139D01*
X812566Y555362D01*
X812547Y555586D01*
X812533Y555811D01*
X812525Y556035D01*
X812522Y556260D01*
X645982Y557800D02*
X645985Y558025D01*
X645993Y558249D01*
X646007Y558474D01*
X646026Y558698D01*
X646051Y558921D01*
X646081Y559144D01*
X646117Y559366D01*
X646158Y559587D01*
X646205Y559807D01*
X646256Y560025D01*
X646314Y560243D01*
X646376Y560458D01*
X646444Y560673D01*
X646517Y560885D01*
X646596Y561096D01*
X646679Y561305D01*
X646768Y561511D01*
X646861Y561716D01*
X646960Y561918D01*
X647063Y562117D01*
X647172Y562314D01*
X647285Y562508D01*
X647403Y562700D01*
X647525Y562888D01*
X647653Y563073D01*
X647784Y563255D01*
X647920Y563434D01*
X648061Y563610D01*
X648205Y563782D01*
X648354Y563950D01*
X648507Y564115D01*
X648664Y564276D01*
X648825Y564433D01*
X648990Y564586D01*
X649158Y564735D01*
X649330Y564879D01*
X649506Y565020D01*
X649685Y565156D01*
X649867Y565287D01*
X650052Y565415D01*
X650240Y565537D01*
X650432Y565655D01*
X650626Y565768D01*
X650823Y565877D01*
X651022Y565980D01*
X651224Y566079D01*
X651429Y566172D01*
X651635Y566261D01*
X651844Y566344D01*
X652055Y566423D01*
X652267Y566496D01*
X652482Y566564D01*
X652697Y566626D01*
X652915Y566684D01*
X653133Y566735D01*
X653353Y566782D01*
X653574Y566823D01*
X653796Y566859D01*
X654019Y566889D01*
X654242Y566914D01*
X654466Y566933D01*
X654691Y566947D01*
X654915Y566955D01*
X655140Y566958D01*
X655365Y566955D01*
X655589Y566947D01*
X655814Y566933D01*
X656038Y566914D01*
X656261Y566889D01*
X656484Y566859D01*
X656706Y566823D01*
X656927Y566782D01*
X657147Y566735D01*
X657365Y566684D01*
X657583Y566626D01*
X657798Y566564D01*
X658013Y566496D01*
X658225Y566423D01*
X658436Y566344D01*
X658645Y566261D01*
X658851Y566172D01*
X659056Y566079D01*
X659258Y565980D01*
X659457Y565877D01*
X659654Y565768D01*
X659848Y565655D01*
X660040Y565537D01*
X660228Y565415D01*
X660413Y565287D01*
X660595Y565156D01*
X660774Y565020D01*
X660950Y564879D01*
X661122Y564735D01*
X661290Y564586D01*
X661455Y564433D01*
X661616Y564276D01*
X661773Y564115D01*
X661926Y563950D01*
X662075Y563782D01*
X662219Y563610D01*
X662360Y563434D01*
X662496Y563255D01*
X662627Y563073D01*
X662755Y562888D01*
X662877Y562700D01*
X662995Y562508D01*
X663108Y562314D01*
X663217Y562117D01*
X663320Y561918D01*
X663419Y561716D01*
X663512Y561511D01*
X663601Y561305D01*
X663684Y561096D01*
X663763Y560885D01*
X663836Y560673D01*
X663904Y560458D01*
X663966Y560243D01*
X664024Y560025D01*
X664075Y559807D01*
X664122Y559587D01*
X664163Y559366D01*
X664199Y559144D01*
X664229Y558921D01*
X664254Y558698D01*
X664273Y558474D01*
X664287Y558249D01*
X664295Y558025D01*
X664298Y557800D01*
X664295Y557575D01*
X664287Y557351D01*
X664273Y557126D01*
X664254Y556902D01*
X664229Y556679D01*
X664199Y556456D01*
X664163Y556234D01*
X664122Y556013D01*
X664075Y555793D01*
X664024Y555575D01*
X663966Y555357D01*
X663904Y555142D01*
X663836Y554927D01*
X663763Y554715D01*
X663684Y554504D01*
X663601Y554295D01*
X663512Y554089D01*
X663419Y553884D01*
X663320Y553682D01*
X663217Y553483D01*
X663108Y553286D01*
X662995Y553092D01*
X662877Y552900D01*
X662755Y552712D01*
X662627Y552527D01*
X662496Y552345D01*
X662360Y552166D01*
X662219Y551990D01*
X662075Y551818D01*
X661926Y551650D01*
X661773Y551485D01*
X661616Y551324D01*
X661455Y551167D01*
X661290Y551014D01*
X661122Y550865D01*
X660950Y550721D01*
X660774Y550580D01*
X660595Y550444D01*
X660413Y550313D01*
X660228Y550185D01*
X660040Y550063D01*
X659848Y549945D01*
X659654Y549832D01*
X659457Y549723D01*
X659258Y549620D01*
X659056Y549521D01*
X658851Y549428D01*
X658645Y549339D01*
X658436Y549256D01*
X658225Y549177D01*
X658013Y549104D01*
X657798Y549036D01*
X657583Y548974D01*
X657365Y548916D01*
X657147Y548865D01*
X656927Y548818D01*
X656706Y548777D01*
X656484Y548741D01*
X656261Y548711D01*
X656038Y548686D01*
X655814Y548667D01*
X655589Y548653D01*
X655365Y548645D01*
X655140Y548642D01*
X654915Y548645D01*
X654691Y548653D01*
X654466Y548667D01*
X654242Y548686D01*
X654019Y548711D01*
X653796Y548741D01*
X653574Y548777D01*
X653353Y548818D01*
X653133Y548865D01*
X652915Y548916D01*
X652697Y548974D01*
X652482Y549036D01*
X652267Y549104D01*
X652055Y549177D01*
X651844Y549256D01*
X651635Y549339D01*
X651429Y549428D01*
X651224Y549521D01*
X651022Y549620D01*
X650823Y549723D01*
X650626Y549832D01*
X650432Y549945D01*
X650240Y550063D01*
X650052Y550185D01*
X649867Y550313D01*
X649685Y550444D01*
X649506Y550580D01*
X649330Y550721D01*
X649158Y550865D01*
X648990Y551014D01*
X648825Y551167D01*
X648664Y551324D01*
X648507Y551485D01*
X648354Y551650D01*
X648205Y551818D01*
X648061Y551990D01*
X647920Y552166D01*
X647784Y552345D01*
X647653Y552527D01*
X647525Y552712D01*
X647403Y552900D01*
X647285Y553092D01*
X647172Y553286D01*
X647063Y553483D01*
X646960Y553682D01*
X646861Y553884D01*
X646768Y554089D01*
X646679Y554295D01*
X646596Y554504D01*
X646517Y554715D01*
X646444Y554927D01*
X646376Y555142D01*
X646314Y555357D01*
X646256Y555575D01*
X646205Y555793D01*
X646158Y556013D01*
X646117Y556234D01*
X646081Y556456D01*
X646051Y556679D01*
X646026Y556902D01*
X646007Y557126D01*
X645993Y557351D01*
X645985Y557575D01*
X645982Y557800D01*
X805740Y539860D02*
X837540Y539860D01*
X805740Y539860D02*
X805740Y519540D01*
X777400Y489660D01*
X699340Y489660D01*
X672540Y518000D01*
X672540Y540860D01*
X640740Y540860D01*
X640740Y572660D01*
X672540Y572660D01*
X672540Y622780D01*
X680720Y622780D01*
X702120Y600300D01*
X769620Y600300D01*
X792480Y622780D01*
X805740Y622780D01*
X805740Y572660D01*
X837540Y572660D01*
X837540Y539860D01*
D11*
X807339Y631993D02*
X805293Y631993D01*
X805204Y631991D01*
X805115Y631985D01*
X805026Y631975D01*
X804938Y631962D01*
X804850Y631945D01*
X804763Y631923D01*
X804678Y631898D01*
X804593Y631870D01*
X804510Y631837D01*
X804428Y631801D01*
X804348Y631762D01*
X804270Y631719D01*
X804194Y631673D01*
X804119Y631623D01*
X804047Y631570D01*
X803978Y631514D01*
X803911Y631455D01*
X803846Y631394D01*
X803785Y631329D01*
X803726Y631262D01*
X803670Y631193D01*
X803617Y631121D01*
X803567Y631046D01*
X803521Y630970D01*
X803478Y630892D01*
X803439Y630812D01*
X803403Y630730D01*
X803370Y630647D01*
X803342Y630562D01*
X803317Y630477D01*
X803295Y630390D01*
X803278Y630302D01*
X803265Y630214D01*
X803255Y630125D01*
X803249Y630036D01*
X803247Y629947D01*
X803249Y629858D01*
X803255Y629769D01*
X803265Y629680D01*
X803278Y629592D01*
X803295Y629504D01*
X803317Y629417D01*
X803342Y629332D01*
X803370Y629247D01*
X803403Y629164D01*
X803439Y629082D01*
X803478Y629002D01*
X803521Y628924D01*
X803567Y628848D01*
X803617Y628773D01*
X803670Y628701D01*
X803726Y628632D01*
X803785Y628565D01*
X803846Y628500D01*
X803911Y628439D01*
X803978Y628380D01*
X804047Y628324D01*
X804119Y628271D01*
X804194Y628221D01*
X804270Y628175D01*
X804348Y628132D01*
X804428Y628093D01*
X804510Y628057D01*
X804593Y628024D01*
X804678Y627996D01*
X804763Y627971D01*
X804850Y627949D01*
X804938Y627932D01*
X805026Y627919D01*
X805115Y627909D01*
X805204Y627903D01*
X805293Y627901D01*
X807339Y627901D01*
X807339Y635267D01*
X805293Y635267D01*
X805214Y635265D01*
X805135Y635259D01*
X805056Y635250D01*
X804978Y635237D01*
X804901Y635219D01*
X804825Y635199D01*
X804750Y635174D01*
X804676Y635146D01*
X804603Y635115D01*
X804532Y635079D01*
X804463Y635041D01*
X804396Y634999D01*
X804331Y634954D01*
X804268Y634906D01*
X804207Y634855D01*
X804150Y634801D01*
X804094Y634745D01*
X804042Y634686D01*
X803992Y634624D01*
X803946Y634560D01*
X803902Y634494D01*
X803862Y634426D01*
X803826Y634356D01*
X803792Y634284D01*
X803762Y634210D01*
X803736Y634136D01*
X803713Y634060D01*
X803695Y633983D01*
X803679Y633906D01*
X803668Y633827D01*
X803660Y633749D01*
X803656Y633670D01*
X803656Y633590D01*
X803660Y633511D01*
X803668Y633433D01*
X803679Y633354D01*
X803695Y633277D01*
X803713Y633200D01*
X803736Y633124D01*
X803762Y633050D01*
X803792Y632976D01*
X803826Y632904D01*
X803862Y632834D01*
X803902Y632766D01*
X803946Y632700D01*
X803992Y632636D01*
X804042Y632574D01*
X804094Y632515D01*
X804150Y632459D01*
X804207Y632405D01*
X804268Y632354D01*
X804331Y632306D01*
X804396Y632261D01*
X804463Y632219D01*
X804532Y632181D01*
X804603Y632145D01*
X804676Y632114D01*
X804750Y632086D01*
X804825Y632061D01*
X804901Y632041D01*
X804978Y632023D01*
X805056Y632010D01*
X805135Y632001D01*
X805214Y631995D01*
X805293Y631993D01*
X800385Y633630D02*
X798339Y635267D01*
X798339Y627901D01*
X800385Y627901D02*
X796293Y627901D01*
M02*
